<svg width="157" height="51" viewBox="0 0 157 51" fill="none" xmlns="http://www.w3.org/2000/svg">
<g clip-path="url(#clip0)">
<path d="M147.599 30.4466V20.2466H144.073V16.8722H147.599V10.8902H151.359V16.8722H156.217V20.2466H151.359V30.2166C151.359 32.4406 152.299 33.3609 154.023 33.3609C154.728 33.3609 155.198 33.2842 155.746 33.0541L157.078 36.1985C156.217 36.582 155.355 36.7353 154.101 36.7353C149.792 36.7353 147.599 34.4346 147.599 30.4466ZM123.469 26.6887C123.469 21.1669 127.386 16.3354 133.184 16.3354C139.138 16.3354 142.898 20.4 142.898 26.6887C142.898 26.9955 142.82 27.379 142.82 27.379H127.073C127.308 31.5203 130.285 33.7444 133.419 33.7444C135.612 33.7444 137.806 32.9008 138.824 30.3699L142.115 31.7504C140.94 34.5113 138.041 37.0421 133.419 37.0421C127.543 37.0421 123.469 32.5173 123.469 26.6887ZM133.184 19.6331C130.442 19.6331 128.248 21.4737 127.465 24.3113H138.981C138.903 22.6241 137.414 19.6331 133.184 19.6331ZM105.215 33.6677H105.058V36.3519H101.455V7.97595H105.215V16.9489L105.058 19.6331H105.215C106.39 17.8692 108.819 16.2587 112.031 16.2587C117.045 16.2587 121.51 20.7068 121.51 26.612C121.51 32.5173 117.123 36.9654 112.031 36.9654C108.819 37.0421 106.312 35.5083 105.215 33.6677ZM117.672 26.6887C117.672 22.3173 114.695 19.6331 111.326 19.6331C108.035 19.6331 104.98 22.2406 104.98 26.6887C104.98 31.1369 107.957 33.7444 111.326 33.7444C114.695 33.6677 117.672 31.0602 117.672 26.6887ZM79.9885 30.5233C79.9885 26.0752 84.0623 23.6978 88.6846 23.6978C91.3483 23.6978 93.3068 24.4647 94.0903 24.9248V24.388C94.0903 21.4737 91.6616 19.6331 88.9196 19.6331C86.8827 19.6331 84.8458 20.6301 84.1407 22.4707L80.6936 21.0135C81.3987 19.2496 83.7489 16.2587 88.7629 16.2587C93.6202 16.2587 97.6157 19.0963 97.6157 24.6181V36.3519H94.0119V33.6677H93.8552C92.7584 35.2782 90.7215 37.0421 87.3527 37.0421C83.3572 37.0421 79.9885 34.588 79.9885 30.5233ZM94.0903 27.9925C94.0903 27.9925 92.5234 26.6887 89.3113 26.6887C85.3942 26.6887 83.8273 28.7594 83.8273 30.5233C83.8273 32.594 86.0209 33.591 87.9795 33.591C90.9565 33.6677 94.0903 31.2135 94.0903 27.9925ZM62.988 16.9489L62.8313 19.6331H62.988C64.0064 17.8692 66.5918 16.2587 69.2554 16.2587C74.3477 16.2587 76.8547 19.6331 76.8547 24.4647V36.3519H73.0943V25.0015C73.0943 20.9369 71.0573 19.6331 68.1586 19.6331C64.9465 19.6331 62.9096 22.6241 62.9096 25.6151V36.3519H59.1491V7.97595H62.9096L62.988 16.9489ZM40.2684 33.6677H40.1117L40.2684 36.3519V44.9414H36.5079V16.9489H40.1117V19.6331H40.2684C41.4436 17.8692 43.8722 16.2587 47.0843 16.2587C52.0982 16.2587 56.5638 20.7068 56.5638 26.612C56.5638 32.5173 52.0982 37.0421 47.0059 37.0421C43.8722 37.0421 41.3652 35.5083 40.2684 33.6677ZM52.725 26.6887C52.725 22.3173 49.7479 19.6331 46.3792 19.6331C43.0888 19.6331 40.0334 22.2406 40.0334 26.6887C40.0334 31.1369 43.0104 33.7444 46.3792 33.7444C49.7479 33.6677 52.725 31.0602 52.725 26.6887ZM28.8303 36.4286H32.5908V7.97595H28.8303V36.4286ZM11.5164 7.97595L0.54834 36.4286H4.70054L7.5209 28.6827H19.7425L22.5628 36.4286H26.6367L15.6686 7.97595H11.5164ZM13.475 12.4241H13.6317L18.4106 25.3083H8.77439L13.475 12.4241Z" fill="#B4A6A2"/>
</g>
<defs>
<clipPath id="clip0">
<rect width="157" height="51" fill="white"/>
</clipPath>
</defs>
</svg>
