<svg width="157" height="51" viewBox="0 0 157 51" fill="none" xmlns="http://www.w3.org/2000/svg">
<path d="M22.0144 44.3278C19.6641 44.7113 17.3138 44.8646 14.8068 45.1714L7.28587 23.5443V46.0917C4.93557 46.3218 2.8203 46.6285 0.54834 47.012V5.67517H6.8158L15.3552 29.1428V5.67517H22.0144V44.3278ZM35.0194 20.8601C37.6047 20.8601 41.5219 20.7067 43.8722 20.7067V27.1489C40.9735 27.1489 37.5264 27.1489 35.0194 27.3022V36.8887C38.8582 36.6586 42.7754 36.3519 46.6926 36.1985V42.4105L28.4386 43.791V5.67517H46.6926V12.1173H35.0194C35.0194 12.194 35.0194 20.8601 35.0194 20.8601ZM71.1357 12.194H64.3198V41.8737C62.1262 41.8737 59.8542 41.8737 57.739 41.9504V12.194H50.9231V5.67517H71.214C71.1357 5.67517 71.1357 12.194 71.1357 12.194ZM81.8687 20.4H90.8782V26.8421H81.8687V41.4902H75.3662V5.67517H93.7769V12.1173H81.8687C81.8687 12.194 81.8687 20.4 81.8687 20.4ZM104.51 35.815C108.27 35.8917 112.031 36.1985 115.713 36.3519V42.7173C109.837 42.3338 103.962 42.027 97.9291 41.8737V5.67517H104.51V35.815ZM121.275 43.1774C123.391 43.3308 125.584 43.4075 127.778 43.6376V5.67517H121.275V43.1774ZM156.608 5.67517L148.225 25.3083L156.608 46.9353C154.101 46.6286 151.673 46.1684 149.166 45.7849L144.465 33.821L139.608 44.7879C137.257 44.4045 134.907 44.2511 132.557 43.9443L141.018 25.0782L133.34 5.67517H140.391L144.7 16.4887L149.322 5.67517H156.608Z" fill="#B4A6A2"/>
</svg>
