<svg width="1578" height="969" viewBox="0 0 1578 969" fill="none" xmlns="http://www.w3.org/2000/svg">
<rect width="1578" height="969" fill="#D9E6FF"/>
<rect width="1440" height="84" transform="translate(69 315)" fill="white"/>
<path d="M1006.15 355.04H1007.95C1007.56 352.773 1005.62 351.205 1003.11 351.205C1000.1 351.205 997.903 353.472 997.903 357.188C997.903 360.869 1000.04 363.159 1003.19 363.159C1006.02 363.159 1008.03 361.307 1008.03 358.369V357.045H1003.46V358.494H1006.34C1006.3 360.369 1005.06 361.557 1003.19 361.557C1001.14 361.557 999.648 360.006 999.648 357.176C999.648 354.358 1001.15 352.807 1003.12 352.807C1004.67 352.807 1005.72 353.659 1006.15 355.04ZM1015.65 359.381C1015.66 360.864 1014.56 361.568 1013.6 361.568C1012.55 361.568 1011.83 360.807 1011.83 359.619V354.273H1010.13V359.824C1010.13 361.989 1011.31 363.114 1012.99 363.114C1014.3 363.114 1015.19 362.42 1015.6 361.489H1015.69V363H1017.36V354.273H1015.65V359.381ZM1019.64 363H1021.34V354.273H1019.64V363ZM1020.5 352.926C1021.09 352.926 1021.57 352.472 1021.57 351.915C1021.57 351.358 1021.09 350.898 1020.5 350.898C1019.91 350.898 1019.43 351.358 1019.43 351.915C1019.43 352.472 1019.91 352.926 1020.5 352.926ZM1026.89 363.17C1028.48 363.17 1029.11 362.199 1029.42 361.642H1029.56V363H1031.22V351.364H1029.52V355.688H1029.42C1029.11 355.148 1028.53 354.159 1026.9 354.159C1024.8 354.159 1023.25 355.824 1023.25 358.653C1023.25 361.477 1024.77 363.17 1026.89 363.17ZM1027.27 361.722C1025.75 361.722 1024.96 360.386 1024.96 358.636C1024.96 356.903 1025.73 355.602 1027.27 355.602C1028.75 355.602 1029.55 356.812 1029.55 358.636C1029.55 360.472 1028.73 361.722 1027.27 361.722ZM1037.4 363.176C1039.31 363.176 1040.65 362.239 1041.04 360.818L1039.43 360.528C1039.12 361.352 1038.39 361.773 1037.42 361.773C1035.97 361.773 1034.99 360.83 1034.94 359.148H1041.15V358.545C1041.15 355.392 1039.26 354.159 1037.28 354.159C1034.85 354.159 1033.25 356.011 1033.25 358.693C1033.25 361.403 1034.83 363.176 1037.4 363.176ZM1034.95 357.875C1035.02 356.636 1035.91 355.562 1037.3 355.562C1038.61 355.562 1039.48 356.54 1039.48 357.875H1034.95Z" fill="#242424"/>
<path d="M1087.05 363C1090.59 363 1092.64 360.801 1092.64 357.165C1092.64 353.545 1090.59 351.364 1087.16 351.364H1083.28V363H1087.05ZM1085.03 361.466V352.898H1087.06C1089.6 352.898 1090.91 354.42 1090.91 357.165C1090.91 359.92 1089.6 361.466 1086.95 361.466H1085.03ZM1098.37 363.176C1100.83 363.176 1102.43 361.375 1102.43 358.676C1102.43 355.96 1100.83 354.159 1098.37 354.159C1095.9 354.159 1094.3 355.96 1094.3 358.676C1094.3 361.375 1095.9 363.176 1098.37 363.176ZM1098.37 361.75C1096.76 361.75 1096.01 360.347 1096.01 358.67C1096.01 357 1096.76 355.58 1098.37 355.58C1099.97 355.58 1100.72 357 1100.72 358.67C1100.72 360.347 1099.97 361.75 1098.37 361.75ZM1108.01 363.176C1110.07 363.176 1111.4 361.938 1111.59 360.239H1109.94C1109.72 361.182 1108.99 361.739 1108.02 361.739C1106.58 361.739 1105.65 360.54 1105.65 358.636C1105.65 356.767 1106.6 355.591 1108.02 355.591C1109.1 355.591 1109.76 356.273 1109.94 357.091H1111.59C1111.41 355.33 1109.97 354.159 1107.99 354.159C1105.53 354.159 1103.94 356.011 1103.94 358.676C1103.94 361.307 1105.47 363.176 1108.01 363.176ZM1118.94 359.381C1118.94 360.864 1117.84 361.568 1116.88 361.568C1115.83 361.568 1115.11 360.807 1115.11 359.619V354.273H1113.41V359.824C1113.41 361.989 1114.6 363.114 1116.27 363.114C1117.58 363.114 1118.48 362.42 1118.88 361.489H1118.97V363H1120.64V354.273H1118.94V359.381ZM1122.92 363H1124.62V357.619C1124.62 356.443 1125.45 355.625 1126.41 355.625C1127.36 355.625 1128.01 356.25 1128.01 357.199V363H1129.7V357.438C1129.7 356.386 1130.34 355.625 1131.45 355.625C1132.35 355.625 1133.09 356.125 1133.09 357.307V363H1134.79V357.148C1134.79 355.153 1133.67 354.159 1132.09 354.159C1130.84 354.159 1129.89 354.761 1129.47 355.693H1129.38C1129 354.739 1128.2 354.159 1127.04 354.159C1125.88 354.159 1125.03 354.733 1124.66 355.693H1124.55V354.273H1122.92V363ZM1140.83 363.176C1142.73 363.176 1144.08 362.239 1144.46 360.818L1142.85 360.528C1142.55 361.352 1141.81 361.773 1140.84 361.773C1139.39 361.773 1138.41 360.83 1138.37 359.148H1144.57V358.545C1144.57 355.392 1142.68 354.159 1140.71 354.159C1138.27 354.159 1136.67 356.011 1136.67 358.693C1136.67 361.403 1138.25 363.176 1140.83 363.176ZM1138.37 357.875C1138.44 356.636 1139.34 355.562 1140.72 355.562C1142.04 355.562 1142.9 356.54 1142.9 357.875H1138.37ZM1148.15 357.818C1148.15 356.426 1149.01 355.631 1150.19 355.631C1151.34 355.631 1152.04 356.386 1152.04 357.653V363H1153.74V357.449C1153.74 355.29 1152.55 354.159 1150.77 354.159C1149.45 354.159 1148.6 354.767 1148.19 355.693H1148.09V354.273H1146.45V363H1148.15V357.818ZM1160.09 354.273H1158.3V352.182H1156.6V354.273H1155.32V355.636H1156.6V360.79C1156.6 362.375 1157.81 363.142 1159.15 363.114C1159.69 363.108 1160.05 363.006 1160.25 362.932L1159.94 361.528C1159.83 361.551 1159.62 361.602 1159.35 361.602C1158.8 361.602 1158.3 361.42 1158.3 360.438V355.636H1160.09V354.273ZM1168.37 356.403C1168.02 355.045 1166.95 354.159 1165.07 354.159C1163.1 354.159 1161.7 355.199 1161.7 356.744C1161.7 357.983 1162.45 358.807 1164.09 359.17L1165.56 359.494C1166.4 359.682 1166.8 360.057 1166.8 360.602C1166.8 361.278 1166.07 361.807 1164.96 361.807C1163.94 361.807 1163.29 361.369 1163.09 360.511L1161.44 360.761C1161.73 362.307 1163.01 363.176 1164.97 363.176C1167.08 363.176 1168.54 362.057 1168.54 360.477C1168.54 359.244 1167.76 358.483 1166.15 358.114L1164.77 357.795C1163.81 357.568 1163.39 357.244 1163.4 356.653C1163.39 355.983 1164.12 355.506 1165.09 355.506C1166.14 355.506 1166.63 356.091 1166.83 356.676L1168.37 356.403Z" fill="#242424"/>
<path d="M1220.94 355.148C1220.55 352.659 1218.6 351.205 1216.14 351.205C1213.12 351.205 1210.9 353.46 1210.9 357.182C1210.9 360.903 1213.11 363.159 1216.14 363.159C1218.69 363.159 1220.56 361.557 1220.94 359.256L1219.17 359.25C1218.87 360.739 1217.62 361.557 1216.15 361.557C1214.15 361.557 1212.65 360.028 1212.65 357.182C1212.65 354.358 1214.15 352.807 1216.15 352.807C1217.64 352.807 1218.88 353.642 1219.17 355.148H1220.94ZM1226.58 363.176C1229.04 363.176 1230.65 361.375 1230.65 358.676C1230.65 355.96 1229.04 354.159 1226.58 354.159C1224.12 354.159 1222.52 355.96 1222.52 358.676C1222.52 361.375 1224.12 363.176 1226.58 363.176ZM1226.59 361.75C1224.98 361.75 1224.23 360.347 1224.23 358.67C1224.23 357 1224.98 355.58 1226.59 355.58C1228.19 355.58 1228.94 357 1228.94 358.67C1228.94 360.347 1228.19 361.75 1226.59 361.75ZM1232.55 363H1234.25V357.619C1234.25 356.443 1235.07 355.625 1236.04 355.625C1236.98 355.625 1237.63 356.25 1237.63 357.199V363H1239.33V357.438C1239.33 356.386 1239.97 355.625 1241.08 355.625C1241.97 355.625 1242.71 356.125 1242.71 357.307V363H1244.41V357.148C1244.41 355.153 1243.3 354.159 1241.72 354.159C1240.46 354.159 1239.52 354.761 1239.1 355.693H1239.01C1238.63 354.739 1237.83 354.159 1236.66 354.159C1235.51 354.159 1234.65 354.733 1234.29 355.693H1234.18V354.273H1232.55V363ZM1246.69 366.273H1248.39V361.642H1248.49C1248.8 362.199 1249.42 363.17 1251.01 363.17C1253.13 363.17 1254.66 361.477 1254.66 358.653C1254.66 355.824 1253.1 354.159 1251 354.159C1249.38 354.159 1248.79 355.148 1248.49 355.688H1248.35V354.273H1246.69V366.273ZM1248.35 358.636C1248.35 356.812 1249.15 355.602 1250.63 355.602C1252.17 355.602 1252.94 356.903 1252.94 358.636C1252.94 360.386 1252.15 361.722 1250.63 361.722C1249.17 361.722 1248.35 360.472 1248.35 358.636ZM1260.24 363.176C1262.7 363.176 1264.31 361.375 1264.31 358.676C1264.31 355.96 1262.7 354.159 1260.24 354.159C1257.78 354.159 1256.17 355.96 1256.17 358.676C1256.17 361.375 1257.78 363.176 1260.24 363.176ZM1260.25 361.75C1258.64 361.75 1257.89 360.347 1257.89 358.67C1257.89 357 1258.64 355.58 1260.25 355.58C1261.84 355.58 1262.59 357 1262.59 358.67C1262.59 360.347 1261.84 361.75 1260.25 361.75ZM1267.9 357.818C1267.9 356.426 1268.76 355.631 1269.94 355.631C1271.09 355.631 1271.79 356.386 1271.79 357.653V363H1273.49V357.449C1273.49 355.29 1272.3 354.159 1270.52 354.159C1269.2 354.159 1268.35 354.767 1267.94 355.693H1267.84V354.273H1266.2V363H1267.9V357.818ZM1279.53 363.176C1281.43 363.176 1282.78 362.239 1283.16 360.818L1281.56 360.528C1281.25 361.352 1280.51 361.773 1279.55 361.773C1278.09 361.773 1277.11 360.83 1277.07 359.148H1283.27V358.545C1283.27 355.392 1281.39 354.159 1279.41 354.159C1276.98 354.159 1275.38 356.011 1275.38 358.693C1275.38 361.403 1276.95 363.176 1279.53 363.176ZM1277.07 357.875C1277.14 356.636 1278.04 355.562 1279.42 355.562C1280.74 355.562 1281.6 356.54 1281.61 357.875H1277.07ZM1286.86 357.818C1286.86 356.426 1287.71 355.631 1288.89 355.631C1290.04 355.631 1290.74 356.386 1290.74 357.653V363H1292.44V357.449C1292.44 355.29 1291.25 354.159 1289.47 354.159C1288.16 354.159 1287.3 354.767 1286.9 355.693H1286.79V354.273H1285.16V363H1286.86V357.818ZM1298.79 354.273H1297V352.182H1295.31V354.273H1294.03V355.636H1295.31V360.79C1295.3 362.375 1296.51 363.142 1297.85 363.114C1298.39 363.108 1298.75 363.006 1298.95 362.932L1298.65 361.528C1298.53 361.551 1298.32 361.602 1298.05 361.602C1297.5 361.602 1297 361.42 1297 360.438V355.636H1298.79V354.273ZM1307.07 356.403C1306.72 355.045 1305.66 354.159 1303.77 354.159C1301.8 354.159 1300.4 355.199 1300.4 356.744C1300.4 357.983 1301.15 358.807 1302.79 359.17L1304.27 359.494C1305.11 359.682 1305.5 360.057 1305.5 360.602C1305.5 361.278 1304.78 361.807 1303.66 361.807C1302.65 361.807 1301.99 361.369 1301.79 360.511L1300.15 360.761C1300.43 362.307 1301.71 363.176 1303.67 363.176C1305.78 363.176 1307.24 362.057 1307.24 360.477C1307.24 359.244 1306.46 358.483 1304.86 358.114L1303.47 357.795C1302.51 357.568 1302.1 357.244 1302.1 356.653C1302.1 355.983 1302.82 355.506 1303.79 355.506C1304.85 355.506 1305.33 356.091 1305.53 356.676L1307.07 356.403Z" fill="#242424"/>
<path d="M1325 360L1321 356L1317 360" stroke="#9C9C9C" stroke-linecap="round" stroke-linejoin="round"/>
<path d="M1370.28 363H1377.31V361.489H1372.03V351.364H1370.28V363ZM1379.17 363H1380.87V354.273H1379.17V363ZM1380.03 352.926C1380.62 352.926 1381.11 352.472 1381.11 351.915C1381.11 351.358 1380.62 350.898 1380.03 350.898C1379.44 350.898 1378.96 351.358 1378.96 351.915C1378.96 352.472 1379.44 352.926 1380.03 352.926ZM1386.83 363.176C1388.9 363.176 1390.23 361.938 1390.42 360.239H1388.77C1388.55 361.182 1387.82 361.739 1386.85 361.739C1385.41 361.739 1384.48 360.54 1384.48 358.636C1384.48 356.767 1385.42 355.591 1386.85 355.591C1387.92 355.591 1388.58 356.273 1388.77 357.091H1390.42C1390.24 355.33 1388.8 354.159 1386.82 354.159C1384.36 354.159 1382.77 356.011 1382.77 358.676C1382.77 361.307 1384.3 363.176 1386.83 363.176ZM1396 363.176C1397.9 363.176 1399.25 362.239 1399.63 360.818L1398.03 360.528C1397.72 361.352 1396.98 361.773 1396.01 361.773C1394.56 361.773 1393.58 360.83 1393.54 359.148H1399.74V358.545C1399.74 355.392 1397.86 354.159 1395.88 354.159C1393.45 354.159 1391.84 356.011 1391.84 358.693C1391.84 361.403 1393.42 363.176 1396 363.176ZM1393.54 357.875C1393.61 356.636 1394.51 355.562 1395.89 355.562C1397.21 355.562 1398.07 356.54 1398.08 357.875H1393.54ZM1403.33 357.818C1403.33 356.426 1404.18 355.631 1405.36 355.631C1406.51 355.631 1407.21 356.386 1407.21 357.653V363H1408.91V357.449C1408.91 355.29 1407.72 354.159 1405.94 354.159C1404.63 354.159 1403.77 354.767 1403.37 355.693H1403.26V354.273H1401.63V363H1403.33V357.818ZM1417.73 356.403C1417.38 355.045 1416.31 354.159 1414.43 354.159C1412.46 354.159 1411.06 355.199 1411.06 356.744C1411.06 357.983 1411.81 358.807 1413.44 359.17L1414.92 359.494C1415.76 359.682 1416.15 360.057 1416.15 360.602C1416.15 361.278 1415.43 361.807 1414.32 361.807C1413.3 361.807 1412.65 361.369 1412.44 360.511L1410.8 360.761C1411.09 362.307 1412.37 363.176 1414.33 363.176C1416.44 363.176 1417.9 362.057 1417.9 360.477C1417.9 359.244 1417.12 358.483 1415.51 358.114L1414.13 357.795C1413.17 357.568 1412.75 357.244 1412.76 356.653C1412.75 355.983 1413.48 355.506 1414.44 355.506C1415.5 355.506 1415.99 356.091 1416.19 356.676L1417.73 356.403ZM1423.53 363.176C1425.43 363.176 1426.78 362.239 1427.16 360.818L1425.56 360.528C1425.25 361.352 1424.51 361.773 1423.55 361.773C1422.09 361.773 1421.11 360.83 1421.07 359.148H1427.27V358.545C1427.27 355.392 1425.39 354.159 1423.41 354.159C1420.98 354.159 1419.38 356.011 1419.38 358.693C1419.38 361.403 1420.95 363.176 1423.53 363.176ZM1421.07 357.875C1421.14 356.636 1422.04 355.562 1423.42 355.562C1424.74 355.562 1425.6 356.54 1425.61 357.875H1421.07Z" fill="#242424"/>
<g filter="url(#filter0_d_278_6124)">
<rect x="69" y="409" width="1440" height="256" rx="6" fill="white"/>
<line x1="220.5" y1="441" x2="220.5" y2="614" stroke="#EEF0FF"/>
<path d="M111.233 459H117.199V457.906H112.466V448.818H111.233V459ZM118.949 459H120.122V451.364H118.949V459ZM119.545 450.091C120.003 450.091 120.381 449.733 120.381 449.295C120.381 448.858 120.003 448.5 119.545 448.5C119.088 448.5 118.71 448.858 118.71 449.295C118.71 449.733 119.088 450.091 119.545 450.091ZM123.444 454.406C123.444 453.074 124.27 452.318 125.393 452.318C126.482 452.318 127.143 453.029 127.143 454.227V459H128.317V454.148C128.317 452.199 127.278 451.264 125.731 451.264C124.578 451.264 123.862 451.781 123.504 452.557H123.405V451.364H122.271V459H123.444V454.406ZM130.461 459H131.634V456.141L132.454 455.381L135.313 459H136.804L133.339 454.625L136.566 451.364H135.114L131.773 454.764H131.634V448.818H130.461V459ZM142.013 459H143.187V451.364H142.013V459ZM142.61 450.091C143.067 450.091 143.445 449.733 143.445 449.295C143.445 448.858 143.067 448.5 142.61 448.5C142.153 448.5 141.775 448.858 141.775 449.295C141.775 449.733 142.153 450.091 142.61 450.091ZM148.657 451.364H147.026V449.534H145.853V451.364H144.699V452.358H145.853V457.131C145.853 458.463 146.926 459.099 147.921 459.099C148.358 459.099 148.637 459.02 148.796 458.96L148.557 457.906C148.458 457.926 148.299 457.966 148.04 457.966C147.523 457.966 147.026 457.807 147.026 456.812V452.358H148.657V451.364ZM153.541 459.159C155.092 459.159 156.226 458.384 156.584 457.23L155.45 456.912C155.152 457.707 154.461 458.105 153.541 458.105C152.164 458.105 151.214 457.215 151.16 455.58H156.703V455.082C156.703 452.239 155.013 451.264 153.422 451.264C151.354 451.264 149.982 452.895 149.982 455.241C149.982 457.588 151.334 459.159 153.541 459.159ZM151.16 454.565C151.239 453.377 152.08 452.318 153.422 452.318C154.695 452.318 155.51 453.273 155.51 454.565H151.16ZM158.488 459H159.661V454.227C159.661 453.109 160.477 452.318 161.391 452.318C162.281 452.318 162.903 452.9 162.903 453.77V459H164.096V454.028C164.096 453.044 164.712 452.318 165.786 452.318C166.621 452.318 167.337 452.761 167.337 453.889V459H168.511V453.889C168.511 452.094 167.546 451.264 166.184 451.264C165.09 451.264 164.29 451.766 163.897 452.557H163.817C163.44 451.741 162.773 451.264 161.769 451.264C160.775 451.264 160.039 451.741 159.721 452.557H159.621V451.364H158.488V459Z" fill="#585858"/>
<path d="M111.233 496H117.199V494.906H112.466V485.818H111.233V496ZM118.949 496H120.122V488.364H118.949V496ZM119.545 487.091C120.003 487.091 120.381 486.733 120.381 486.295C120.381 485.858 120.003 485.5 119.545 485.5C119.088 485.5 118.71 485.858 118.71 486.295C118.71 486.733 119.088 487.091 119.545 487.091ZM123.444 491.406C123.444 490.074 124.27 489.318 125.393 489.318C126.482 489.318 127.143 490.029 127.143 491.227V496H128.317V491.148C128.317 489.199 127.278 488.264 125.731 488.264C124.578 488.264 123.862 488.781 123.504 489.557H123.405V488.364H122.271V496H123.444V491.406ZM130.461 496H131.634V493.141L132.454 492.381L135.313 496H136.804L133.339 491.625L136.566 488.364H135.114L131.773 491.764H131.634V485.818H130.461V496ZM142.013 496H143.187V488.364H142.013V496ZM142.61 487.091C143.067 487.091 143.445 486.733 143.445 486.295C143.445 485.858 143.067 485.5 142.61 485.5C142.153 485.5 141.775 485.858 141.775 486.295C141.775 486.733 142.153 487.091 142.61 487.091ZM148.657 488.364H147.026V486.534H145.853V488.364H144.699V489.358H145.853V494.131C145.853 495.463 146.926 496.099 147.921 496.099C148.358 496.099 148.637 496.02 148.796 495.96L148.557 494.906C148.458 494.926 148.299 494.966 148.04 494.966C147.523 494.966 147.026 494.807 147.026 493.812V489.358H148.657V488.364ZM153.541 496.159C155.092 496.159 156.226 495.384 156.584 494.23L155.45 493.912C155.152 494.707 154.461 495.105 153.541 495.105C152.164 495.105 151.214 494.215 151.16 492.58H156.703V492.082C156.703 489.239 155.013 488.264 153.422 488.264C151.354 488.264 149.982 489.895 149.982 492.241C149.982 494.588 151.334 496.159 153.541 496.159ZM151.16 491.565C151.239 490.377 152.08 489.318 153.422 489.318C154.695 489.318 155.51 490.273 155.51 491.565H151.16ZM158.488 496H159.661V491.227C159.661 490.109 160.477 489.318 161.391 489.318C162.281 489.318 162.903 489.9 162.903 490.77V496H164.096V491.028C164.096 490.044 164.712 489.318 165.786 489.318C166.621 489.318 167.337 489.761 167.337 490.889V496H168.511V490.889C168.511 489.094 167.546 488.264 166.184 488.264C165.09 488.264 164.29 488.766 163.897 489.557H163.817C163.44 488.741 162.773 488.264 161.769 488.264C160.775 488.264 160.039 488.741 159.721 489.557H159.621V488.364H158.488V496Z" fill="#585858"/>
<path d="M111.233 533H117.199V531.906H112.466V522.818H111.233V533ZM118.949 533H120.122V525.364H118.949V533ZM119.545 524.091C120.003 524.091 120.381 523.733 120.381 523.295C120.381 522.858 120.003 522.5 119.545 522.5C119.088 522.5 118.71 522.858 118.71 523.295C118.71 523.733 119.088 524.091 119.545 524.091ZM123.444 528.406C123.444 527.074 124.27 526.318 125.393 526.318C126.482 526.318 127.143 527.029 127.143 528.227V533H128.317V528.148C128.317 526.199 127.278 525.264 125.731 525.264C124.578 525.264 123.862 525.781 123.504 526.557H123.405V525.364H122.271V533H123.444V528.406ZM130.461 533H131.634V530.141L132.454 529.381L135.313 533H136.804L133.339 528.625L136.566 525.364H135.114L131.773 528.764H131.634V522.818H130.461V533ZM142.013 533H143.187V525.364H142.013V533ZM142.61 524.091C143.067 524.091 143.445 523.733 143.445 523.295C143.445 522.858 143.067 522.5 142.61 522.5C142.153 522.5 141.775 522.858 141.775 523.295C141.775 523.733 142.153 524.091 142.61 524.091ZM148.657 525.364H147.026V523.534H145.853V525.364H144.699V526.358H145.853V531.131C145.853 532.463 146.926 533.099 147.921 533.099C148.358 533.099 148.637 533.02 148.796 532.96L148.557 531.906C148.458 531.926 148.299 531.966 148.04 531.966C147.523 531.966 147.026 531.807 147.026 530.812V526.358H148.657V525.364ZM153.541 533.159C155.092 533.159 156.226 532.384 156.584 531.23L155.45 530.912C155.152 531.707 154.461 532.105 153.541 532.105C152.164 532.105 151.214 531.215 151.16 529.58H156.703V529.082C156.703 526.239 155.013 525.264 153.422 525.264C151.354 525.264 149.982 526.895 149.982 529.241C149.982 531.588 151.334 533.159 153.541 533.159ZM151.16 528.565C151.239 527.377 152.08 526.318 153.422 526.318C154.695 526.318 155.51 527.273 155.51 528.565H151.16ZM158.488 533H159.661V528.227C159.661 527.109 160.477 526.318 161.391 526.318C162.281 526.318 162.903 526.9 162.903 527.77V533H164.096V528.028C164.096 527.044 164.712 526.318 165.786 526.318C166.621 526.318 167.337 526.761 167.337 527.889V533H168.511V527.889C168.511 526.094 167.546 525.264 166.184 525.264C165.09 525.264 164.29 525.766 163.897 526.557H163.817C163.44 525.741 162.773 525.264 161.769 525.264C160.775 525.264 160.039 525.741 159.721 526.557H159.621V525.364H158.488V533Z" fill="#585858"/>
<path d="M111.233 570H117.199V568.906H112.466V559.818H111.233V570ZM118.949 570H120.122V562.364H118.949V570ZM119.545 561.091C120.003 561.091 120.381 560.733 120.381 560.295C120.381 559.858 120.003 559.5 119.545 559.5C119.088 559.5 118.71 559.858 118.71 560.295C118.71 560.733 119.088 561.091 119.545 561.091ZM123.444 565.406C123.444 564.074 124.27 563.318 125.393 563.318C126.482 563.318 127.143 564.029 127.143 565.227V570H128.317V565.148C128.317 563.199 127.278 562.264 125.731 562.264C124.578 562.264 123.862 562.781 123.504 563.557H123.405V562.364H122.271V570H123.444V565.406ZM130.461 570H131.634V567.141L132.454 566.381L135.313 570H136.804L133.339 565.625L136.566 562.364H135.114L131.773 565.764H131.634V559.818H130.461V570ZM142.013 570H143.187V562.364H142.013V570ZM142.61 561.091C143.067 561.091 143.445 560.733 143.445 560.295C143.445 559.858 143.067 559.5 142.61 559.5C142.153 559.5 141.775 559.858 141.775 560.295C141.775 560.733 142.153 561.091 142.61 561.091ZM148.657 562.364H147.026V560.534H145.853V562.364H144.699V563.358H145.853V568.131C145.853 569.463 146.926 570.099 147.921 570.099C148.358 570.099 148.637 570.02 148.796 569.96L148.557 568.906C148.458 568.926 148.299 568.966 148.04 568.966C147.523 568.966 147.026 568.807 147.026 567.812V563.358H148.657V562.364ZM153.541 570.159C155.092 570.159 156.226 569.384 156.584 568.23L155.45 567.912C155.152 568.707 154.461 569.105 153.541 569.105C152.164 569.105 151.214 568.215 151.16 566.58H156.703V566.082C156.703 563.239 155.013 562.264 153.422 562.264C151.354 562.264 149.982 563.895 149.982 566.241C149.982 568.588 151.334 570.159 153.541 570.159ZM151.16 565.565C151.239 564.377 152.08 563.318 153.422 563.318C154.695 563.318 155.51 564.273 155.51 565.565H151.16ZM158.488 570H159.661V565.227C159.661 564.109 160.477 563.318 161.391 563.318C162.281 563.318 162.903 563.9 162.903 564.77V570H164.096V565.028C164.096 564.044 164.712 563.318 165.786 563.318C166.621 563.318 167.337 563.761 167.337 564.889V570H168.511V564.889C168.511 563.094 167.546 562.264 166.184 562.264C165.09 562.264 164.29 562.766 163.897 563.557H163.817C163.44 562.741 162.773 562.264 161.769 562.264C160.775 562.264 160.039 562.741 159.721 563.557H159.621V562.364H158.488V570Z" fill="#585858"/>
<path d="M111.233 607H117.199V605.906H112.466V596.818H111.233V607ZM118.949 607H120.122V599.364H118.949V607ZM119.545 598.091C120.003 598.091 120.381 597.733 120.381 597.295C120.381 596.858 120.003 596.5 119.545 596.5C119.088 596.5 118.71 596.858 118.71 597.295C118.71 597.733 119.088 598.091 119.545 598.091ZM123.444 602.406C123.444 601.074 124.27 600.318 125.393 600.318C126.482 600.318 127.143 601.029 127.143 602.227V607H128.317V602.148C128.317 600.199 127.278 599.264 125.731 599.264C124.578 599.264 123.862 599.781 123.504 600.557H123.405V599.364H122.271V607H123.444V602.406ZM130.461 607H131.634V604.141L132.454 603.381L135.313 607H136.804L133.339 602.625L136.566 599.364H135.114L131.773 602.764H131.634V596.818H130.461V607ZM142.013 607H143.187V599.364H142.013V607ZM142.61 598.091C143.067 598.091 143.445 597.733 143.445 597.295C143.445 596.858 143.067 596.5 142.61 596.5C142.153 596.5 141.775 596.858 141.775 597.295C141.775 597.733 142.153 598.091 142.61 598.091ZM148.657 599.364H147.026V597.534H145.853V599.364H144.699V600.358H145.853V605.131C145.853 606.463 146.926 607.099 147.921 607.099C148.358 607.099 148.637 607.02 148.796 606.96L148.557 605.906C148.458 605.926 148.299 605.966 148.04 605.966C147.523 605.966 147.026 605.807 147.026 604.812V600.358H148.657V599.364ZM153.541 607.159C155.092 607.159 156.226 606.384 156.584 605.23L155.45 604.912C155.152 605.707 154.461 606.105 153.541 606.105C152.164 606.105 151.214 605.215 151.16 603.58H156.703V603.082C156.703 600.239 155.013 599.264 153.422 599.264C151.354 599.264 149.982 600.895 149.982 603.241C149.982 605.588 151.334 607.159 153.541 607.159ZM151.16 602.565C151.239 601.377 152.08 600.318 153.422 600.318C154.695 600.318 155.51 601.273 155.51 602.565H151.16ZM158.488 607H159.661V602.227C159.661 601.109 160.477 600.318 161.391 600.318C162.281 600.318 162.903 600.9 162.903 601.77V607H164.096V602.028C164.096 601.044 164.712 600.318 165.786 600.318C166.621 600.318 167.337 600.761 167.337 601.889V607H168.511V601.889C168.511 600.094 167.546 599.264 166.184 599.264C165.09 599.264 164.29 599.766 163.897 600.557H163.817C163.44 599.741 162.773 599.264 161.769 599.264C160.775 599.264 160.039 599.741 159.721 600.557H159.621V599.364H158.488V607Z" fill="#585858"/>
<rect x="270" y="441" width="262" height="142" fill="#E6EEFF"/>
<path d="M271.148 608H273.256V603.057H278.091V601.29H273.256V598.131H278.602V596.364H271.148V608ZM283.655 608.17C285.689 608.17 287.087 607.176 287.45 605.659L285.53 605.443C285.251 606.182 284.57 606.568 283.683 606.568C282.354 606.568 281.473 605.693 281.456 604.199H287.536V603.568C287.536 600.506 285.695 599.159 283.547 599.159C281.047 599.159 279.416 600.994 279.416 603.688C279.416 606.426 281.024 608.17 283.655 608.17ZM281.462 602.812C281.524 601.699 282.348 600.761 283.575 600.761C284.757 600.761 285.553 601.625 285.564 602.812H281.462ZM291.787 608.176C293.156 608.176 293.974 607.534 294.349 606.801H294.418V608H296.395V602.159C296.395 599.852 294.514 599.159 292.849 599.159C291.014 599.159 289.605 599.977 289.151 601.568L291.071 601.841C291.276 601.244 291.855 600.733 292.861 600.733C293.815 600.733 294.338 601.222 294.338 602.08V602.114C294.338 602.705 293.719 602.733 292.179 602.898C290.486 603.08 288.866 603.585 288.866 605.551C288.866 607.267 290.122 608.176 291.787 608.176ZM292.321 606.665C291.463 606.665 290.849 606.273 290.849 605.517C290.849 604.727 291.537 604.398 292.457 604.267C292.997 604.193 294.077 604.057 294.344 603.841V604.869C294.344 605.841 293.56 606.665 292.321 606.665ZM302.821 599.273H301.099V597.182H299.043V599.273H297.804V600.864H299.043V605.716C299.031 607.358 300.224 608.165 301.77 608.119C302.355 608.102 302.759 607.989 302.98 607.915L302.634 606.307C302.52 606.335 302.287 606.386 302.031 606.386C301.514 606.386 301.099 606.205 301.099 605.375V600.864H302.821V599.273ZM310.104 604.33C310.104 605.659 309.155 606.318 308.246 606.318C307.257 606.318 306.598 605.619 306.598 604.511V599.273H304.541V604.83C304.541 606.926 305.734 608.114 307.45 608.114C308.757 608.114 309.678 607.426 310.075 606.449H310.166V608H312.161V599.273H310.104V604.33ZM314.276 608H316.332V602.869C316.332 601.761 317.168 600.977 318.298 600.977C318.645 600.977 319.077 601.04 319.253 601.097V599.205C319.065 599.17 318.741 599.148 318.514 599.148C317.514 599.148 316.679 599.716 316.361 600.727H316.27V599.273H314.276V608ZM324.124 608.17C326.158 608.17 327.555 607.176 327.919 605.659L325.999 605.443C325.72 606.182 325.038 606.568 324.152 606.568C322.822 606.568 321.942 605.693 321.925 604.199H328.004V603.568C328.004 600.506 326.163 599.159 324.016 599.159C321.516 599.159 319.885 600.994 319.885 603.688C319.885 606.426 321.493 608.17 324.124 608.17ZM321.93 602.812C321.993 601.699 322.817 600.761 324.044 600.761C325.226 600.761 326.021 601.625 326.033 602.812H321.93ZM332.983 608.153C334.483 608.153 335.159 607.261 335.483 606.625H335.608V608H337.631V596.364H335.568V600.716H335.483C335.17 600.085 334.528 599.159 332.989 599.159C330.972 599.159 329.386 600.739 329.386 603.648C329.386 606.523 330.926 608.153 332.983 608.153ZM333.557 606.466C332.199 606.466 331.483 605.273 331.483 603.636C331.483 602.011 332.188 600.847 333.557 600.847C334.881 600.847 335.608 601.943 335.608 603.636C335.608 605.33 334.869 606.466 333.557 606.466ZM348.149 599.273H346.428V597.182H344.371V599.273H343.132V600.864H344.371V605.716C344.359 607.358 345.553 608.165 347.098 608.119C347.683 608.102 348.087 607.989 348.308 607.915L347.962 606.307C347.848 606.335 347.615 606.386 347.359 606.386C346.842 606.386 346.428 606.205 346.428 605.375V600.864H348.149V599.273ZM349.869 608H351.926V599.273H349.869V608ZM350.903 598.034C351.557 598.034 352.091 597.534 352.091 596.92C352.091 596.301 351.557 595.801 350.903 595.801C350.244 595.801 349.71 596.301 349.71 596.92C349.71 597.534 350.244 598.034 350.903 598.034ZM358.399 599.273H356.678V597.182H354.621V599.273H353.382V600.864H354.621V605.716C354.609 607.358 355.803 608.165 357.348 608.119C357.933 608.102 358.337 607.989 358.558 607.915L358.212 606.307C358.098 606.335 357.865 606.386 357.609 606.386C357.092 606.386 356.678 606.205 356.678 605.375V600.864H358.399V599.273ZM362.364 596.364H360.307V608H362.364V596.364ZM368.342 608.17C370.376 608.17 371.774 607.176 372.138 605.659L370.217 605.443C369.939 606.182 369.257 606.568 368.371 606.568C367.041 606.568 366.161 605.693 366.143 604.199H372.223V603.568C372.223 600.506 370.382 599.159 368.234 599.159C365.734 599.159 364.104 600.994 364.104 603.688C364.104 606.426 365.712 608.17 368.342 608.17ZM366.149 602.812C366.212 601.699 367.036 600.761 368.263 600.761C369.445 600.761 370.24 601.625 370.251 602.812H366.149Z" fill="#242424"/>
<path d="M278.08 623C277.756 621.21 276.324 620.153 274.568 620.153C272.335 620.153 270.716 621.875 270.716 624.636C270.716 627.398 272.335 629.119 274.568 629.119C276.324 629.119 277.756 628.062 278.08 626.273H277.023C276.767 627.483 275.727 628.131 274.568 628.131C272.983 628.131 271.739 626.903 271.739 624.636C271.739 622.369 272.983 621.142 274.568 621.142C275.727 621.142 276.767 621.79 277.023 623H278.08ZM281.577 629.153C282.719 629.153 283.316 628.54 283.52 628.114H283.571V629H284.577V624.688C284.577 622.608 282.992 622.369 282.157 622.369C281.168 622.369 280.043 622.71 279.532 623.903L280.486 624.244C280.708 623.767 281.232 623.256 282.191 623.256C283.115 623.256 283.571 623.746 283.571 624.585V624.619C283.571 625.105 283.077 625.062 281.884 625.216C280.669 625.374 279.344 625.642 279.344 627.142C279.344 628.42 280.333 629.153 281.577 629.153ZM281.73 628.25C280.929 628.25 280.35 627.892 280.35 627.193C280.35 626.426 281.049 626.188 281.833 626.085C282.259 626.034 283.401 625.915 283.571 625.71V626.631C283.571 627.449 282.924 628.25 281.73 628.25ZM289.259 622.455H287.862V620.886H286.856V622.455H285.867V623.307H286.856V627.398C286.856 628.54 287.776 629.085 288.629 629.085C289.004 629.085 289.242 629.017 289.379 628.966L289.174 628.062C289.089 628.08 288.952 628.114 288.731 628.114C288.288 628.114 287.862 627.977 287.862 627.125V623.307H289.259V622.455ZM293.446 629.136C294.776 629.136 295.747 628.472 296.054 627.483L295.082 627.21C294.827 627.892 294.234 628.233 293.446 628.233C292.266 628.233 291.452 627.47 291.405 626.068H296.156V625.642C296.156 623.205 294.707 622.369 293.344 622.369C291.571 622.369 290.395 623.767 290.395 625.778C290.395 627.79 291.554 629.136 293.446 629.136ZM291.405 625.199C291.473 624.18 292.193 623.273 293.344 623.273C294.435 623.273 295.134 624.091 295.134 625.199H291.405ZM300.328 631.591C301.896 631.591 303.158 630.875 303.158 629.188V622.455H302.186V623.494H302.084C301.862 623.153 301.453 622.369 300.175 622.369C298.521 622.369 297.379 623.682 297.379 625.693C297.379 627.739 298.572 628.898 300.158 628.898C301.436 628.898 301.845 628.148 302.067 627.79H302.152V629.119C302.152 630.21 301.385 630.705 300.328 630.705C299.139 630.705 298.722 630.078 298.453 629.716L297.652 630.278C298.061 630.964 298.866 631.591 300.328 631.591ZM300.294 627.994C299.033 627.994 298.385 627.04 298.385 625.676C298.385 624.347 299.016 623.273 300.294 623.273C301.521 623.273 302.169 624.261 302.169 625.676C302.169 627.125 301.504 627.994 300.294 627.994ZM307.658 629.136C309.43 629.136 310.624 627.79 310.624 625.761C310.624 623.716 309.43 622.369 307.658 622.369C305.885 622.369 304.692 623.716 304.692 625.761C304.692 627.79 305.885 629.136 307.658 629.136ZM307.658 628.233C306.311 628.233 305.697 627.074 305.697 625.761C305.697 624.449 306.311 623.273 307.658 623.273C309.004 623.273 309.618 624.449 309.618 625.761C309.618 627.074 309.004 628.233 307.658 628.233ZM312.159 629H313.164V624.858C313.164 623.972 313.863 623.324 314.818 623.324C315.086 623.324 315.363 623.375 315.431 623.392V622.369C315.316 622.361 315.052 622.352 314.903 622.352C314.119 622.352 313.437 622.795 313.199 623.443H313.13V622.455H312.159V629ZM317.471 631.455C318.378 631.455 319.017 630.973 319.397 629.955L322.184 622.472L321.084 622.455L319.277 627.67H319.209L317.402 622.455H316.311L318.732 629.034L318.544 629.545C318.178 630.543 317.726 630.636 316.993 630.449L316.738 631.335C316.84 631.386 317.13 631.455 317.471 631.455Z" fill="#9BA7B9"/>
<rect x="582" y="441" width="262" height="142" fill="#E6EEFF"/>
<path d="M583.148 608H585.256V603.057H590.091V601.29H585.256V598.131H590.602V596.364H583.148V608ZM595.655 608.17C597.689 608.17 599.087 607.176 599.45 605.659L597.53 605.443C597.251 606.182 596.57 606.568 595.683 606.568C594.354 606.568 593.473 605.693 593.456 604.199H599.536V603.568C599.536 600.506 597.695 599.159 595.547 599.159C593.047 599.159 591.416 600.994 591.416 603.688C591.416 606.426 593.024 608.17 595.655 608.17ZM593.462 602.812C593.524 601.699 594.348 600.761 595.575 600.761C596.757 600.761 597.553 601.625 597.564 602.812H593.462ZM603.787 608.176C605.156 608.176 605.974 607.534 606.349 606.801H606.418V608H608.395V602.159C608.395 599.852 606.514 599.159 604.849 599.159C603.014 599.159 601.605 599.977 601.151 601.568L603.071 601.841C603.276 601.244 603.855 600.733 604.861 600.733C605.815 600.733 606.338 601.222 606.338 602.08V602.114C606.338 602.705 605.719 602.733 604.179 602.898C602.486 603.08 600.866 603.585 600.866 605.551C600.866 607.267 602.122 608.176 603.787 608.176ZM604.321 606.665C603.463 606.665 602.849 606.273 602.849 605.517C602.849 604.727 603.537 604.398 604.457 604.267C604.997 604.193 606.077 604.057 606.344 603.841V604.869C606.344 605.841 605.56 606.665 604.321 606.665ZM614.821 599.273H613.099V597.182H611.043V599.273H609.804V600.864H611.043V605.716C611.031 607.358 612.224 608.165 613.77 608.119C614.355 608.102 614.759 607.989 614.98 607.915L614.634 606.307C614.52 606.335 614.287 606.386 614.031 606.386C613.514 606.386 613.099 606.205 613.099 605.375V600.864H614.821V599.273ZM622.104 604.33C622.104 605.659 621.155 606.318 620.246 606.318C619.257 606.318 618.598 605.619 618.598 604.511V599.273H616.541V604.83C616.541 606.926 617.734 608.114 619.45 608.114C620.757 608.114 621.678 607.426 622.075 606.449H622.166V608H624.161V599.273H622.104V604.33ZM626.276 608H628.332V602.869C628.332 601.761 629.168 600.977 630.298 600.977C630.645 600.977 631.077 601.04 631.253 601.097V599.205C631.065 599.17 630.741 599.148 630.514 599.148C629.514 599.148 628.679 599.716 628.361 600.727H628.27V599.273H626.276V608ZM636.124 608.17C638.158 608.17 639.555 607.176 639.919 605.659L637.999 605.443C637.72 606.182 637.038 606.568 636.152 606.568C634.822 606.568 633.942 605.693 633.925 604.199H640.004V603.568C640.004 600.506 638.163 599.159 636.016 599.159C633.516 599.159 631.885 600.994 631.885 603.688C631.885 606.426 633.493 608.17 636.124 608.17ZM633.93 602.812C633.993 601.699 634.817 600.761 636.044 600.761C637.226 600.761 638.021 601.625 638.033 602.812H633.93ZM644.983 608.153C646.483 608.153 647.159 607.261 647.483 606.625H647.608V608H649.631V596.364H647.568V600.716H647.483C647.17 600.085 646.528 599.159 644.989 599.159C642.972 599.159 641.386 600.739 641.386 603.648C641.386 606.523 642.926 608.153 644.983 608.153ZM645.557 606.466C644.199 606.466 643.483 605.273 643.483 603.636C643.483 602.011 644.188 600.847 645.557 600.847C646.881 600.847 647.608 601.943 647.608 603.636C647.608 605.33 646.869 606.466 645.557 606.466ZM660.149 599.273H658.428V597.182H656.371V599.273H655.132V600.864H656.371V605.716C656.359 607.358 657.553 608.165 659.098 608.119C659.683 608.102 660.087 607.989 660.308 607.915L659.962 606.307C659.848 606.335 659.615 606.386 659.359 606.386C658.842 606.386 658.428 606.205 658.428 605.375V600.864H660.149V599.273ZM661.869 608H663.926V599.273H661.869V608ZM662.903 598.034C663.557 598.034 664.091 597.534 664.091 596.92C664.091 596.301 663.557 595.801 662.903 595.801C662.244 595.801 661.71 596.301 661.71 596.92C661.71 597.534 662.244 598.034 662.903 598.034ZM670.399 599.273H668.678V597.182H666.621V599.273H665.382V600.864H666.621V605.716C666.609 607.358 667.803 608.165 669.348 608.119C669.933 608.102 670.337 607.989 670.558 607.915L670.212 606.307C670.098 606.335 669.865 606.386 669.609 606.386C669.092 606.386 668.678 606.205 668.678 605.375V600.864H670.399V599.273ZM674.364 596.364H672.307V608H674.364V596.364ZM680.342 608.17C682.376 608.17 683.774 607.176 684.138 605.659L682.217 605.443C681.939 606.182 681.257 606.568 680.371 606.568C679.041 606.568 678.161 605.693 678.143 604.199H684.223V603.568C684.223 600.506 682.382 599.159 680.234 599.159C677.734 599.159 676.104 600.994 676.104 603.688C676.104 606.426 677.712 608.17 680.342 608.17ZM678.149 602.812C678.212 601.699 679.036 600.761 680.263 600.761C681.445 600.761 682.24 601.625 682.251 602.812H678.149Z" fill="#242424"/>
<path d="M590.08 623C589.756 621.21 588.324 620.153 586.568 620.153C584.335 620.153 582.716 621.875 582.716 624.636C582.716 627.398 584.335 629.119 586.568 629.119C588.324 629.119 589.756 628.062 590.08 626.273H589.023C588.767 627.483 587.727 628.131 586.568 628.131C584.983 628.131 583.739 626.903 583.739 624.636C583.739 622.369 584.983 621.142 586.568 621.142C587.727 621.142 588.767 621.79 589.023 623H590.08ZM593.577 629.153C594.719 629.153 595.316 628.54 595.52 628.114H595.571V629H596.577V624.688C596.577 622.608 594.992 622.369 594.157 622.369C593.168 622.369 592.043 622.71 591.532 623.903L592.486 624.244C592.708 623.767 593.232 623.256 594.191 623.256C595.115 623.256 595.571 623.746 595.571 624.585V624.619C595.571 625.105 595.077 625.062 593.884 625.216C592.669 625.374 591.344 625.642 591.344 627.142C591.344 628.42 592.333 629.153 593.577 629.153ZM593.73 628.25C592.929 628.25 592.35 627.892 592.35 627.193C592.35 626.426 593.049 626.188 593.833 626.085C594.259 626.034 595.401 625.915 595.571 625.71V626.631C595.571 627.449 594.924 628.25 593.73 628.25ZM601.259 622.455H599.862V620.886H598.856V622.455H597.867V623.307H598.856V627.398C598.856 628.54 599.776 629.085 600.629 629.085C601.004 629.085 601.242 629.017 601.379 628.966L601.174 628.062C601.089 628.08 600.952 628.114 600.731 628.114C600.288 628.114 599.862 627.977 599.862 627.125V623.307H601.259V622.455ZM605.446 629.136C606.776 629.136 607.747 628.472 608.054 627.483L607.082 627.21C606.827 627.892 606.234 628.233 605.446 628.233C604.266 628.233 603.452 627.47 603.405 626.068H608.156V625.642C608.156 623.205 606.707 622.369 605.344 622.369C603.571 622.369 602.395 623.767 602.395 625.778C602.395 627.79 603.554 629.136 605.446 629.136ZM603.405 625.199C603.473 624.18 604.193 623.273 605.344 623.273C606.435 623.273 607.134 624.091 607.134 625.199H603.405ZM612.328 631.591C613.896 631.591 615.158 630.875 615.158 629.188V622.455H614.186V623.494H614.084C613.862 623.153 613.453 622.369 612.175 622.369C610.521 622.369 609.379 623.682 609.379 625.693C609.379 627.739 610.572 628.898 612.158 628.898C613.436 628.898 613.845 628.148 614.067 627.79H614.152V629.119C614.152 630.21 613.385 630.705 612.328 630.705C611.139 630.705 610.722 630.078 610.453 629.716L609.652 630.278C610.061 630.964 610.866 631.591 612.328 631.591ZM612.294 627.994C611.033 627.994 610.385 627.04 610.385 625.676C610.385 624.347 611.016 623.273 612.294 623.273C613.521 623.273 614.169 624.261 614.169 625.676C614.169 627.125 613.504 627.994 612.294 627.994ZM619.658 629.136C621.43 629.136 622.624 627.79 622.624 625.761C622.624 623.716 621.43 622.369 619.658 622.369C617.885 622.369 616.692 623.716 616.692 625.761C616.692 627.79 617.885 629.136 619.658 629.136ZM619.658 628.233C618.311 628.233 617.697 627.074 617.697 625.761C617.697 624.449 618.311 623.273 619.658 623.273C621.004 623.273 621.618 624.449 621.618 625.761C621.618 627.074 621.004 628.233 619.658 628.233ZM624.159 629H625.164V624.858C625.164 623.972 625.863 623.324 626.818 623.324C627.086 623.324 627.363 623.375 627.431 623.392V622.369C627.316 622.361 627.052 622.352 626.903 622.352C626.119 622.352 625.437 622.795 625.199 623.443H625.13V622.455H624.159V629ZM629.471 631.455C630.378 631.455 631.017 630.973 631.397 629.955L634.184 622.472L633.084 622.455L631.277 627.67H631.209L629.402 622.455H628.311L630.732 629.034L630.544 629.545C630.178 630.543 629.726 630.636 628.993 630.449L628.738 631.335C628.84 631.386 629.13 631.455 629.471 631.455Z" fill="#9BA7B9"/>
<rect x="894" y="441" width="262" height="142" fill="#E6EEFF"/>
<path d="M895.148 608H897.256V603.057H902.091V601.29H897.256V598.131H902.602V596.364H895.148V608ZM907.655 608.17C909.689 608.17 911.087 607.176 911.45 605.659L909.53 605.443C909.251 606.182 908.57 606.568 907.683 606.568C906.354 606.568 905.473 605.693 905.456 604.199H911.536V603.568C911.536 600.506 909.695 599.159 907.547 599.159C905.047 599.159 903.416 600.994 903.416 603.688C903.416 606.426 905.024 608.17 907.655 608.17ZM905.462 602.812C905.524 601.699 906.348 600.761 907.575 600.761C908.757 600.761 909.553 601.625 909.564 602.812H905.462ZM915.787 608.176C917.156 608.176 917.974 607.534 918.349 606.801H918.418V608H920.395V602.159C920.395 599.852 918.514 599.159 916.849 599.159C915.014 599.159 913.605 599.977 913.151 601.568L915.071 601.841C915.276 601.244 915.855 600.733 916.861 600.733C917.815 600.733 918.338 601.222 918.338 602.08V602.114C918.338 602.705 917.719 602.733 916.179 602.898C914.486 603.08 912.866 603.585 912.866 605.551C912.866 607.267 914.122 608.176 915.787 608.176ZM916.321 606.665C915.463 606.665 914.849 606.273 914.849 605.517C914.849 604.727 915.537 604.398 916.457 604.267C916.997 604.193 918.077 604.057 918.344 603.841V604.869C918.344 605.841 917.56 606.665 916.321 606.665ZM926.821 599.273H925.099V597.182H923.043V599.273H921.804V600.864H923.043V605.716C923.031 607.358 924.224 608.165 925.77 608.119C926.355 608.102 926.759 607.989 926.98 607.915L926.634 606.307C926.52 606.335 926.287 606.386 926.031 606.386C925.514 606.386 925.099 606.205 925.099 605.375V600.864H926.821V599.273ZM934.104 604.33C934.104 605.659 933.155 606.318 932.246 606.318C931.257 606.318 930.598 605.619 930.598 604.511V599.273H928.541V604.83C928.541 606.926 929.734 608.114 931.45 608.114C932.757 608.114 933.678 607.426 934.075 606.449H934.166V608H936.161V599.273H934.104V604.33ZM938.276 608H940.332V602.869C940.332 601.761 941.168 600.977 942.298 600.977C942.645 600.977 943.077 601.04 943.253 601.097V599.205C943.065 599.17 942.741 599.148 942.514 599.148C941.514 599.148 940.679 599.716 940.361 600.727H940.27V599.273H938.276V608ZM948.124 608.17C950.158 608.17 951.555 607.176 951.919 605.659L949.999 605.443C949.72 606.182 949.038 606.568 948.152 606.568C946.822 606.568 945.942 605.693 945.925 604.199H952.004V603.568C952.004 600.506 950.163 599.159 948.016 599.159C945.516 599.159 943.885 600.994 943.885 603.688C943.885 606.426 945.493 608.17 948.124 608.17ZM945.93 602.812C945.993 601.699 946.817 600.761 948.044 600.761C949.226 600.761 950.021 601.625 950.033 602.812H945.93ZM956.983 608.153C958.483 608.153 959.159 607.261 959.483 606.625H959.608V608H961.631V596.364H959.568V600.716H959.483C959.17 600.085 958.528 599.159 956.989 599.159C954.972 599.159 953.386 600.739 953.386 603.648C953.386 606.523 954.926 608.153 956.983 608.153ZM957.557 606.466C956.199 606.466 955.483 605.273 955.483 603.636C955.483 602.011 956.188 600.847 957.557 600.847C958.881 600.847 959.608 601.943 959.608 603.636C959.608 605.33 958.869 606.466 957.557 606.466ZM972.149 599.273H970.428V597.182H968.371V599.273H967.132V600.864H968.371V605.716C968.359 607.358 969.553 608.165 971.098 608.119C971.683 608.102 972.087 607.989 972.308 607.915L971.962 606.307C971.848 606.335 971.615 606.386 971.359 606.386C970.842 606.386 970.428 606.205 970.428 605.375V600.864H972.149V599.273ZM973.869 608H975.926V599.273H973.869V608ZM974.903 598.034C975.557 598.034 976.091 597.534 976.091 596.92C976.091 596.301 975.557 595.801 974.903 595.801C974.244 595.801 973.71 596.301 973.71 596.92C973.71 597.534 974.244 598.034 974.903 598.034ZM982.399 599.273H980.678V597.182H978.621V599.273H977.382V600.864H978.621V605.716C978.609 607.358 979.803 608.165 981.348 608.119C981.933 608.102 982.337 607.989 982.558 607.915L982.212 606.307C982.098 606.335 981.865 606.386 981.609 606.386C981.092 606.386 980.678 606.205 980.678 605.375V600.864H982.399V599.273ZM986.364 596.364H984.307V608H986.364V596.364ZM992.342 608.17C994.376 608.17 995.774 607.176 996.138 605.659L994.217 605.443C993.939 606.182 993.257 606.568 992.371 606.568C991.041 606.568 990.161 605.693 990.143 604.199H996.223V603.568C996.223 600.506 994.382 599.159 992.234 599.159C989.734 599.159 988.104 600.994 988.104 603.688C988.104 606.426 989.712 608.17 992.342 608.17ZM990.149 602.812C990.212 601.699 991.036 600.761 992.263 600.761C993.445 600.761 994.24 601.625 994.251 602.812H990.149Z" fill="#242424"/>
<path d="M902.08 623C901.756 621.21 900.324 620.153 898.568 620.153C896.335 620.153 894.716 621.875 894.716 624.636C894.716 627.398 896.335 629.119 898.568 629.119C900.324 629.119 901.756 628.062 902.08 626.273H901.023C900.767 627.483 899.727 628.131 898.568 628.131C896.983 628.131 895.739 626.903 895.739 624.636C895.739 622.369 896.983 621.142 898.568 621.142C899.727 621.142 900.767 621.79 901.023 623H902.08ZM905.577 629.153C906.719 629.153 907.316 628.54 907.52 628.114H907.571V629H908.577V624.688C908.577 622.608 906.992 622.369 906.157 622.369C905.168 622.369 904.043 622.71 903.532 623.903L904.486 624.244C904.708 623.767 905.232 623.256 906.191 623.256C907.115 623.256 907.571 623.746 907.571 624.585V624.619C907.571 625.105 907.077 625.062 905.884 625.216C904.669 625.374 903.344 625.642 903.344 627.142C903.344 628.42 904.333 629.153 905.577 629.153ZM905.73 628.25C904.929 628.25 904.35 627.892 904.35 627.193C904.35 626.426 905.049 626.188 905.833 626.085C906.259 626.034 907.401 625.915 907.571 625.71V626.631C907.571 627.449 906.924 628.25 905.73 628.25ZM913.259 622.455H911.862V620.886H910.856V622.455H909.867V623.307H910.856V627.398C910.856 628.54 911.776 629.085 912.629 629.085C913.004 629.085 913.242 629.017 913.379 628.966L913.174 628.062C913.089 628.08 912.952 628.114 912.731 628.114C912.288 628.114 911.862 627.977 911.862 627.125V623.307H913.259V622.455ZM917.446 629.136C918.776 629.136 919.747 628.472 920.054 627.483L919.082 627.21C918.827 627.892 918.234 628.233 917.446 628.233C916.266 628.233 915.452 627.47 915.405 626.068H920.156V625.642C920.156 623.205 918.707 622.369 917.344 622.369C915.571 622.369 914.395 623.767 914.395 625.778C914.395 627.79 915.554 629.136 917.446 629.136ZM915.405 625.199C915.473 624.18 916.193 623.273 917.344 623.273C918.435 623.273 919.134 624.091 919.134 625.199H915.405ZM924.328 631.591C925.896 631.591 927.158 630.875 927.158 629.188V622.455H926.186V623.494H926.084C925.862 623.153 925.453 622.369 924.175 622.369C922.521 622.369 921.379 623.682 921.379 625.693C921.379 627.739 922.572 628.898 924.158 628.898C925.436 628.898 925.845 628.148 926.067 627.79H926.152V629.119C926.152 630.21 925.385 630.705 924.328 630.705C923.139 630.705 922.722 630.078 922.453 629.716L921.652 630.278C922.061 630.964 922.866 631.591 924.328 631.591ZM924.294 627.994C923.033 627.994 922.385 627.04 922.385 625.676C922.385 624.347 923.016 623.273 924.294 623.273C925.521 623.273 926.169 624.261 926.169 625.676C926.169 627.125 925.504 627.994 924.294 627.994ZM931.658 629.136C933.43 629.136 934.624 627.79 934.624 625.761C934.624 623.716 933.43 622.369 931.658 622.369C929.885 622.369 928.692 623.716 928.692 625.761C928.692 627.79 929.885 629.136 931.658 629.136ZM931.658 628.233C930.311 628.233 929.697 627.074 929.697 625.761C929.697 624.449 930.311 623.273 931.658 623.273C933.004 623.273 933.618 624.449 933.618 625.761C933.618 627.074 933.004 628.233 931.658 628.233ZM936.159 629H937.164V624.858C937.164 623.972 937.863 623.324 938.818 623.324C939.086 623.324 939.363 623.375 939.431 623.392V622.369C939.316 622.361 939.052 622.352 938.903 622.352C938.119 622.352 937.437 622.795 937.199 623.443H937.13V622.455H936.159V629ZM941.471 631.455C942.378 631.455 943.017 630.973 943.397 629.955L946.184 622.472L945.084 622.455L943.277 627.67H943.209L941.402 622.455H940.311L942.732 629.034L942.544 629.545C942.178 630.543 941.726 630.636 940.993 630.449L940.738 631.335C940.84 631.386 941.13 631.455 941.471 631.455Z" fill="#9BA7B9"/>
<rect x="1206" y="441" width="262" height="142" fill="#E6EEFF"/>
<path d="M1207.15 608H1209.26V603.057H1214.09V601.29H1209.26V598.131H1214.6V596.364H1207.15V608ZM1219.65 608.17C1221.69 608.17 1223.09 607.176 1223.45 605.659L1221.53 605.443C1221.25 606.182 1220.57 606.568 1219.68 606.568C1218.35 606.568 1217.47 605.693 1217.46 604.199H1223.54V603.568C1223.54 600.506 1221.69 599.159 1219.55 599.159C1217.05 599.159 1215.42 600.994 1215.42 603.688C1215.42 606.426 1217.02 608.17 1219.65 608.17ZM1217.46 602.812C1217.52 601.699 1218.35 600.761 1219.58 600.761C1220.76 600.761 1221.55 601.625 1221.56 602.812H1217.46ZM1227.79 608.176C1229.16 608.176 1229.97 607.534 1230.35 606.801H1230.42V608H1232.39V602.159C1232.39 599.852 1230.51 599.159 1228.85 599.159C1227.01 599.159 1225.61 599.977 1225.15 601.568L1227.07 601.841C1227.28 601.244 1227.86 600.733 1228.86 600.733C1229.82 600.733 1230.34 601.222 1230.34 602.08V602.114C1230.34 602.705 1229.72 602.733 1228.18 602.898C1226.49 603.08 1224.87 603.585 1224.87 605.551C1224.87 607.267 1226.12 608.176 1227.79 608.176ZM1228.32 606.665C1227.46 606.665 1226.85 606.273 1226.85 605.517C1226.85 604.727 1227.54 604.398 1228.46 604.267C1229 604.193 1230.08 604.057 1230.34 603.841V604.869C1230.34 605.841 1229.56 606.665 1228.32 606.665ZM1238.82 599.273H1237.1V597.182H1235.04V599.273H1233.8V600.864H1235.04V605.716C1235.03 607.358 1236.22 608.165 1237.77 608.119C1238.36 608.102 1238.76 607.989 1238.98 607.915L1238.63 606.307C1238.52 606.335 1238.29 606.386 1238.03 606.386C1237.51 606.386 1237.1 606.205 1237.1 605.375V600.864H1238.82V599.273ZM1246.1 604.33C1246.1 605.659 1245.15 606.318 1244.25 606.318C1243.26 606.318 1242.6 605.619 1242.6 604.511V599.273H1240.54V604.83C1240.54 606.926 1241.73 608.114 1243.45 608.114C1244.76 608.114 1245.68 607.426 1246.08 606.449H1246.17V608H1248.16V599.273H1246.1V604.33ZM1250.28 608H1252.33V602.869C1252.33 601.761 1253.17 600.977 1254.3 600.977C1254.64 600.977 1255.08 601.04 1255.25 601.097V599.205C1255.07 599.17 1254.74 599.148 1254.51 599.148C1253.51 599.148 1252.68 599.716 1252.36 600.727H1252.27V599.273H1250.28V608ZM1260.12 608.17C1262.16 608.17 1263.56 607.176 1263.92 605.659L1262 605.443C1261.72 606.182 1261.04 606.568 1260.15 606.568C1258.82 606.568 1257.94 605.693 1257.92 604.199H1264V603.568C1264 600.506 1262.16 599.159 1260.02 599.159C1257.52 599.159 1255.88 600.994 1255.88 603.688C1255.88 606.426 1257.49 608.17 1260.12 608.17ZM1257.93 602.812C1257.99 601.699 1258.82 600.761 1260.04 600.761C1261.23 600.761 1262.02 601.625 1262.03 602.812H1257.93ZM1268.98 608.153C1270.48 608.153 1271.16 607.261 1271.48 606.625H1271.61V608H1273.63V596.364H1271.57V600.716H1271.48C1271.17 600.085 1270.53 599.159 1268.99 599.159C1266.97 599.159 1265.39 600.739 1265.39 603.648C1265.39 606.523 1266.93 608.153 1268.98 608.153ZM1269.56 606.466C1268.2 606.466 1267.48 605.273 1267.48 603.636C1267.48 602.011 1268.19 600.847 1269.56 600.847C1270.88 600.847 1271.61 601.943 1271.61 603.636C1271.61 605.33 1270.87 606.466 1269.56 606.466ZM1284.15 599.273H1282.43V597.182H1280.37V599.273H1279.13V600.864H1280.37V605.716C1280.36 607.358 1281.55 608.165 1283.1 608.119C1283.68 608.102 1284.09 607.989 1284.31 607.915L1283.96 606.307C1283.85 606.335 1283.62 606.386 1283.36 606.386C1282.84 606.386 1282.43 606.205 1282.43 605.375V600.864H1284.15V599.273ZM1285.87 608H1287.93V599.273H1285.87V608ZM1286.9 598.034C1287.56 598.034 1288.09 597.534 1288.09 596.92C1288.09 596.301 1287.56 595.801 1286.9 595.801C1286.24 595.801 1285.71 596.301 1285.71 596.92C1285.71 597.534 1286.24 598.034 1286.9 598.034ZM1294.4 599.273H1292.68V597.182H1290.62V599.273H1289.38V600.864H1290.62V605.716C1290.61 607.358 1291.8 608.165 1293.35 608.119C1293.93 608.102 1294.34 607.989 1294.56 607.915L1294.21 606.307C1294.1 606.335 1293.87 606.386 1293.61 606.386C1293.09 606.386 1292.68 606.205 1292.68 605.375V600.864H1294.4V599.273ZM1298.36 596.364H1296.31V608H1298.36V596.364ZM1304.34 608.17C1306.38 608.17 1307.77 607.176 1308.14 605.659L1306.22 605.443C1305.94 606.182 1305.26 606.568 1304.37 606.568C1303.04 606.568 1302.16 605.693 1302.14 604.199H1308.22V603.568C1308.22 600.506 1306.38 599.159 1304.23 599.159C1301.73 599.159 1300.1 600.994 1300.1 603.688C1300.1 606.426 1301.71 608.17 1304.34 608.17ZM1302.15 602.812C1302.21 601.699 1303.04 600.761 1304.26 600.761C1305.44 600.761 1306.24 601.625 1306.25 602.812H1302.15Z" fill="#242424"/>
<path d="M1214.08 623C1213.76 621.21 1212.32 620.153 1210.57 620.153C1208.34 620.153 1206.72 621.875 1206.72 624.636C1206.72 627.398 1208.34 629.119 1210.57 629.119C1212.32 629.119 1213.76 628.062 1214.08 626.273H1213.02C1212.77 627.483 1211.73 628.131 1210.57 628.131C1208.98 628.131 1207.74 626.903 1207.74 624.636C1207.74 622.369 1208.98 621.142 1210.57 621.142C1211.73 621.142 1212.77 621.79 1213.02 623H1214.08ZM1217.58 629.153C1218.72 629.153 1219.32 628.54 1219.52 628.114H1219.57V629H1220.58V624.688C1220.58 622.608 1218.99 622.369 1218.16 622.369C1217.17 622.369 1216.04 622.71 1215.53 623.903L1216.49 624.244C1216.71 623.767 1217.23 623.256 1218.19 623.256C1219.12 623.256 1219.57 623.746 1219.57 624.585V624.619C1219.57 625.105 1219.08 625.062 1217.88 625.216C1216.67 625.374 1215.34 625.642 1215.34 627.142C1215.34 628.42 1216.33 629.153 1217.58 629.153ZM1217.73 628.25C1216.93 628.25 1216.35 627.892 1216.35 627.193C1216.35 626.426 1217.05 626.188 1217.83 626.085C1218.26 626.034 1219.4 625.915 1219.57 625.71V626.631C1219.57 627.449 1218.92 628.25 1217.73 628.25ZM1225.26 622.455H1223.86V620.886H1222.86V622.455H1221.87V623.307H1222.86V627.398C1222.86 628.54 1223.78 629.085 1224.63 629.085C1225 629.085 1225.24 629.017 1225.38 628.966L1225.17 628.062C1225.09 628.08 1224.95 628.114 1224.73 628.114C1224.29 628.114 1223.86 627.977 1223.86 627.125V623.307H1225.26V622.455ZM1229.45 629.136C1230.78 629.136 1231.75 628.472 1232.05 627.483L1231.08 627.21C1230.83 627.892 1230.23 628.233 1229.45 628.233C1228.27 628.233 1227.45 627.47 1227.4 626.068H1232.16V625.642C1232.16 623.205 1230.71 622.369 1229.34 622.369C1227.57 622.369 1226.39 623.767 1226.39 625.778C1226.39 627.79 1227.55 629.136 1229.45 629.136ZM1227.4 625.199C1227.47 624.18 1228.19 623.273 1229.34 623.273C1230.43 623.273 1231.13 624.091 1231.13 625.199H1227.4ZM1236.33 631.591C1237.9 631.591 1239.16 630.875 1239.16 629.188V622.455H1238.19V623.494H1238.08C1237.86 623.153 1237.45 622.369 1236.17 622.369C1234.52 622.369 1233.38 623.682 1233.38 625.693C1233.38 627.739 1234.57 628.898 1236.16 628.898C1237.44 628.898 1237.85 628.148 1238.07 627.79H1238.15V629.119C1238.15 630.21 1237.38 630.705 1236.33 630.705C1235.14 630.705 1234.72 630.078 1234.45 629.716L1233.65 630.278C1234.06 630.964 1234.87 631.591 1236.33 631.591ZM1236.29 627.994C1235.03 627.994 1234.38 627.04 1234.38 625.676C1234.38 624.347 1235.02 623.273 1236.29 623.273C1237.52 623.273 1238.17 624.261 1238.17 625.676C1238.17 627.125 1237.5 627.994 1236.29 627.994ZM1243.66 629.136C1245.43 629.136 1246.62 627.79 1246.62 625.761C1246.62 623.716 1245.43 622.369 1243.66 622.369C1241.88 622.369 1240.69 623.716 1240.69 625.761C1240.69 627.79 1241.88 629.136 1243.66 629.136ZM1243.66 628.233C1242.31 628.233 1241.7 627.074 1241.7 625.761C1241.7 624.449 1242.31 623.273 1243.66 623.273C1245 623.273 1245.62 624.449 1245.62 625.761C1245.62 627.074 1245 628.233 1243.66 628.233ZM1248.16 629H1249.16V624.858C1249.16 623.972 1249.86 623.324 1250.82 623.324C1251.09 623.324 1251.36 623.375 1251.43 623.392V622.369C1251.32 622.361 1251.05 622.352 1250.9 622.352C1250.12 622.352 1249.44 622.795 1249.2 623.443H1249.13V622.455H1248.16V629ZM1253.47 631.455C1254.38 631.455 1255.02 630.973 1255.4 629.955L1258.18 622.472L1257.08 622.455L1255.28 627.67H1255.21L1253.4 622.455H1252.31L1254.73 629.034L1254.54 629.545C1254.18 630.543 1253.73 630.636 1252.99 630.449L1252.74 631.335C1252.84 631.386 1253.13 631.455 1253.47 631.455Z" fill="#9BA7B9"/>
</g>
<path d="M150.291 350.909V364H152.567V354.987H152.688L156.306 363.962H158.006L161.624 355.006H161.746V364H164.021V350.909H161.119L157.233 360.395H157.08L153.193 350.909H150.291ZM170.848 364.192C173.136 364.192 174.709 363.073 175.118 361.366L172.957 361.124C172.644 361.955 171.877 362.389 170.88 362.389C169.384 362.389 168.393 361.405 168.374 359.724H175.214V359.014C175.214 355.569 173.143 354.054 170.727 354.054C167.914 354.054 166.08 356.119 166.08 359.148C166.08 362.229 167.888 364.192 170.848 364.192ZM168.381 358.164C168.451 356.911 169.378 355.857 170.759 355.857C172.088 355.857 172.983 356.828 172.996 358.164H168.381ZM179.485 358.247C179.485 356.828 180.342 356.01 181.563 356.01C182.758 356.01 183.474 356.796 183.474 358.107V364H185.788V357.749C185.794 355.396 184.452 354.054 182.426 354.054C180.955 354.054 179.945 354.757 179.498 355.85H179.383V354.182H177.171V364H179.485V358.247ZM194.398 359.871C194.398 361.366 193.33 362.108 192.308 362.108C191.195 362.108 190.454 361.322 190.454 360.075V354.182H188.14V360.433C188.14 362.792 189.482 364.128 191.413 364.128C192.883 364.128 193.919 363.354 194.366 362.255H194.468V364H196.712V354.182H194.398V359.871ZM203.658 364H206.03V360.101L207.481 358.388L211.386 364H214.237L209.13 356.783L214.192 350.909H211.297L206.19 356.924H206.03V350.909H203.658V364ZM216.353 364H218.667V354.182H216.353V364ZM217.516 352.788C218.251 352.788 218.852 352.226 218.852 351.536C218.852 350.839 218.251 350.276 217.516 350.276C216.775 350.276 216.174 350.839 216.174 351.536C216.174 352.226 216.775 352.788 217.516 352.788ZM225.949 354.182H224.012V351.83H221.698V354.182H220.305V355.972H221.698V361.43C221.686 363.278 223.028 364.185 224.767 364.134C225.425 364.115 225.879 363.987 226.128 363.904L225.738 362.095C225.61 362.127 225.348 362.185 225.061 362.185C224.479 362.185 224.012 361.98 224.012 361.047V355.972H225.949V354.182Z" fill="#474F5B"/>
<defs>
<filter id="filter0_d_278_6124" x="55" y="402" width="1468" height="284" filterUnits="userSpaceOnUse" color-interpolation-filters="sRGB">
<feFlood flood-opacity="0" result="BackgroundImageFix"/>
<feColorMatrix in="SourceAlpha" type="matrix" values="0 0 0 0 0 0 0 0 0 0 0 0 0 0 0 0 0 0 127 0" result="hardAlpha"/>
<feOffset dy="7"/>
<feGaussianBlur stdDeviation="7"/>
<feComposite in2="hardAlpha" operator="out"/>
<feColorMatrix type="matrix" values="0 0 0 0 0 0 0 0 0 0 0 0 0 0 0 0 0 0 0.02 0"/>
<feBlend mode="normal" in2="BackgroundImageFix" result="effect1_dropShadow_278_6124"/>
<feBlend mode="normal" in="SourceGraphic" in2="effect1_dropShadow_278_6124" result="shape"/>
</filter>
</defs>
</svg>
