<svg width="1578" height="969" viewBox="0 0 1578 969" fill="none" xmlns="http://www.w3.org/2000/svg">
<rect width="1578" height="969" fill="#D9E6FF"/>
<rect width="1440" height="84" transform="translate(69 443)" fill="white"/>
<path d="M1013.15 483.04H1014.95C1014.56 480.773 1012.62 479.205 1010.11 479.205C1007.1 479.205 1004.9 481.472 1004.9 485.188C1004.9 488.869 1007.04 491.159 1010.19 491.159C1013.02 491.159 1015.03 489.307 1015.03 486.369V485.045H1010.46V486.494H1013.34C1013.3 488.369 1012.06 489.557 1010.19 489.557C1008.14 489.557 1006.65 488.006 1006.65 485.176C1006.65 482.358 1008.15 480.807 1010.12 480.807C1011.67 480.807 1012.72 481.659 1013.15 483.04ZM1022.65 487.381C1022.66 488.864 1021.56 489.568 1020.6 489.568C1019.55 489.568 1018.83 488.807 1018.83 487.619V482.273H1017.13V487.824C1017.13 489.989 1018.31 491.114 1019.99 491.114C1021.3 491.114 1022.19 490.42 1022.6 489.489H1022.69V491H1024.36V482.273H1022.65V487.381ZM1026.64 491H1028.34V482.273H1026.64V491ZM1027.5 480.926C1028.09 480.926 1028.57 480.472 1028.57 479.915C1028.57 479.358 1028.09 478.898 1027.5 478.898C1026.91 478.898 1026.43 479.358 1026.43 479.915C1026.43 480.472 1026.91 480.926 1027.5 480.926ZM1033.89 491.17C1035.48 491.17 1036.11 490.199 1036.42 489.642H1036.56V491H1038.22V479.364H1036.52V483.688H1036.42C1036.11 483.148 1035.53 482.159 1033.9 482.159C1031.8 482.159 1030.25 483.824 1030.25 486.653C1030.25 489.477 1031.77 491.17 1033.89 491.17ZM1034.27 489.722C1032.75 489.722 1031.96 488.386 1031.96 486.636C1031.96 484.903 1032.73 483.602 1034.27 483.602C1035.75 483.602 1036.55 484.812 1036.55 486.636C1036.55 488.472 1035.73 489.722 1034.27 489.722ZM1044.4 491.176C1046.31 491.176 1047.65 490.239 1048.04 488.818L1046.43 488.528C1046.12 489.352 1045.39 489.773 1044.42 489.773C1042.97 489.773 1041.99 488.83 1041.94 487.148H1048.15V486.545C1048.15 483.392 1046.26 482.159 1044.28 482.159C1041.85 482.159 1040.25 484.011 1040.25 486.693C1040.25 489.403 1041.83 491.176 1044.4 491.176ZM1041.95 485.875C1042.02 484.636 1042.91 483.562 1044.3 483.562C1045.61 483.562 1046.48 484.54 1046.48 485.875H1041.95Z" fill="#242424"/>
<path d="M1094.05 491C1097.59 491 1099.64 488.801 1099.64 485.165C1099.64 481.545 1097.59 479.364 1094.16 479.364H1090.28V491H1094.05ZM1092.03 489.466V480.898H1094.06C1096.6 480.898 1097.91 482.42 1097.91 485.165C1097.91 487.92 1096.6 489.466 1093.95 489.466H1092.03ZM1105.37 491.176C1107.83 491.176 1109.43 489.375 1109.43 486.676C1109.43 483.96 1107.83 482.159 1105.37 482.159C1102.9 482.159 1101.3 483.96 1101.3 486.676C1101.3 489.375 1102.9 491.176 1105.37 491.176ZM1105.37 489.75C1103.76 489.75 1103.01 488.347 1103.01 486.67C1103.01 485 1103.76 483.58 1105.37 483.58C1106.97 483.58 1107.72 485 1107.72 486.67C1107.72 488.347 1106.97 489.75 1105.37 489.75ZM1115.01 491.176C1117.07 491.176 1118.4 489.938 1118.59 488.239H1116.94C1116.72 489.182 1115.99 489.739 1115.02 489.739C1113.58 489.739 1112.65 488.54 1112.65 486.636C1112.65 484.767 1113.6 483.591 1115.02 483.591C1116.1 483.591 1116.76 484.273 1116.94 485.091H1118.59C1118.41 483.33 1116.97 482.159 1114.99 482.159C1112.53 482.159 1110.94 484.011 1110.94 486.676C1110.94 489.307 1112.47 491.176 1115.01 491.176ZM1125.94 487.381C1125.94 488.864 1124.84 489.568 1123.88 489.568C1122.83 489.568 1122.11 488.807 1122.11 487.619V482.273H1120.41V487.824C1120.41 489.989 1121.6 491.114 1123.27 491.114C1124.58 491.114 1125.48 490.42 1125.88 489.489H1125.97V491H1127.64V482.273H1125.94V487.381ZM1129.92 491H1131.62V485.619C1131.62 484.443 1132.45 483.625 1133.41 483.625C1134.36 483.625 1135.01 484.25 1135.01 485.199V491H1136.7V485.438C1136.7 484.386 1137.34 483.625 1138.45 483.625C1139.35 483.625 1140.09 484.125 1140.09 485.307V491H1141.79V485.148C1141.79 483.153 1140.67 482.159 1139.09 482.159C1137.84 482.159 1136.89 482.761 1136.47 483.693H1136.38C1136 482.739 1135.2 482.159 1134.04 482.159C1132.88 482.159 1132.03 482.733 1131.66 483.693H1131.55V482.273H1129.92V491ZM1147.83 491.176C1149.73 491.176 1151.08 490.239 1151.46 488.818L1149.85 488.528C1149.55 489.352 1148.81 489.773 1147.84 489.773C1146.39 489.773 1145.41 488.83 1145.37 487.148H1151.57V486.545C1151.57 483.392 1149.68 482.159 1147.71 482.159C1145.27 482.159 1143.67 484.011 1143.67 486.693C1143.67 489.403 1145.25 491.176 1147.83 491.176ZM1145.37 485.875C1145.44 484.636 1146.34 483.562 1147.72 483.562C1149.04 483.562 1149.9 484.54 1149.9 485.875H1145.37ZM1155.15 485.818C1155.15 484.426 1156.01 483.631 1157.19 483.631C1158.34 483.631 1159.04 484.386 1159.04 485.653V491H1160.74V485.449C1160.74 483.29 1159.55 482.159 1157.77 482.159C1156.45 482.159 1155.6 482.767 1155.19 483.693H1155.09V482.273H1153.45V491H1155.15V485.818ZM1167.09 482.273H1165.3V480.182H1163.6V482.273H1162.32V483.636H1163.6V488.79C1163.6 490.375 1164.81 491.142 1166.15 491.114C1166.69 491.108 1167.05 491.006 1167.25 490.932L1166.94 489.528C1166.83 489.551 1166.62 489.602 1166.35 489.602C1165.8 489.602 1165.3 489.42 1165.3 488.438V483.636H1167.09V482.273ZM1175.37 484.403C1175.02 483.045 1173.95 482.159 1172.07 482.159C1170.1 482.159 1168.7 483.199 1168.7 484.744C1168.7 485.983 1169.45 486.807 1171.09 487.17L1172.56 487.494C1173.4 487.682 1173.8 488.057 1173.8 488.602C1173.8 489.278 1173.07 489.807 1171.96 489.807C1170.94 489.807 1170.29 489.369 1170.09 488.511L1168.44 488.761C1168.73 490.307 1170.01 491.176 1171.97 491.176C1174.08 491.176 1175.54 490.057 1175.54 488.477C1175.54 487.244 1174.76 486.483 1173.15 486.114L1171.77 485.795C1170.81 485.568 1170.39 485.244 1170.4 484.653C1170.39 483.983 1171.12 483.506 1172.09 483.506C1173.14 483.506 1173.63 484.091 1173.83 484.676L1175.37 484.403Z" fill="#242424"/>
<path d="M1227.94 483.148C1227.55 480.659 1225.6 479.205 1223.14 479.205C1220.12 479.205 1217.9 481.46 1217.9 485.182C1217.9 488.903 1220.11 491.159 1223.14 491.159C1225.69 491.159 1227.56 489.557 1227.94 487.256L1226.17 487.25C1225.87 488.739 1224.62 489.557 1223.15 489.557C1221.15 489.557 1219.65 488.028 1219.65 485.182C1219.65 482.358 1221.15 480.807 1223.15 480.807C1224.64 480.807 1225.88 481.642 1226.17 483.148H1227.94ZM1233.58 491.176C1236.04 491.176 1237.65 489.375 1237.65 486.676C1237.65 483.96 1236.04 482.159 1233.58 482.159C1231.12 482.159 1229.52 483.96 1229.52 486.676C1229.52 489.375 1231.12 491.176 1233.58 491.176ZM1233.59 489.75C1231.98 489.75 1231.23 488.347 1231.23 486.67C1231.23 485 1231.98 483.58 1233.59 483.58C1235.19 483.58 1235.94 485 1235.94 486.67C1235.94 488.347 1235.19 489.75 1233.59 489.75ZM1239.55 491H1241.25V485.619C1241.25 484.443 1242.07 483.625 1243.04 483.625C1243.98 483.625 1244.63 484.25 1244.63 485.199V491H1246.33V485.438C1246.33 484.386 1246.97 483.625 1248.08 483.625C1248.97 483.625 1249.71 484.125 1249.71 485.307V491H1251.41V485.148C1251.41 483.153 1250.3 482.159 1248.72 482.159C1247.46 482.159 1246.52 482.761 1246.1 483.693H1246.01C1245.63 482.739 1244.83 482.159 1243.66 482.159C1242.51 482.159 1241.65 482.733 1241.29 483.693H1241.18V482.273H1239.55V491ZM1253.69 494.273H1255.39V489.642H1255.49C1255.8 490.199 1256.42 491.17 1258.01 491.17C1260.13 491.17 1261.66 489.477 1261.66 486.653C1261.66 483.824 1260.1 482.159 1258 482.159C1256.38 482.159 1255.79 483.148 1255.49 483.688H1255.35V482.273H1253.69V494.273ZM1255.35 486.636C1255.35 484.812 1256.15 483.602 1257.63 483.602C1259.17 483.602 1259.94 484.903 1259.94 486.636C1259.94 488.386 1259.15 489.722 1257.63 489.722C1256.17 489.722 1255.35 488.472 1255.35 486.636ZM1267.24 491.176C1269.7 491.176 1271.31 489.375 1271.31 486.676C1271.31 483.96 1269.7 482.159 1267.24 482.159C1264.78 482.159 1263.17 483.96 1263.17 486.676C1263.17 489.375 1264.78 491.176 1267.24 491.176ZM1267.25 489.75C1265.64 489.75 1264.89 488.347 1264.89 486.67C1264.89 485 1265.64 483.58 1267.25 483.58C1268.84 483.58 1269.59 485 1269.59 486.67C1269.59 488.347 1268.84 489.75 1267.25 489.75ZM1274.9 485.818C1274.9 484.426 1275.76 483.631 1276.94 483.631C1278.09 483.631 1278.79 484.386 1278.79 485.653V491H1280.49V485.449C1280.49 483.29 1279.3 482.159 1277.52 482.159C1276.2 482.159 1275.35 482.767 1274.94 483.693H1274.84V482.273H1273.2V491H1274.9V485.818ZM1286.53 491.176C1288.43 491.176 1289.78 490.239 1290.16 488.818L1288.56 488.528C1288.25 489.352 1287.51 489.773 1286.55 489.773C1285.09 489.773 1284.11 488.83 1284.07 487.148H1290.27V486.545C1290.27 483.392 1288.39 482.159 1286.41 482.159C1283.98 482.159 1282.38 484.011 1282.38 486.693C1282.38 489.403 1283.95 491.176 1286.53 491.176ZM1284.07 485.875C1284.14 484.636 1285.04 483.562 1286.42 483.562C1287.74 483.562 1288.6 484.54 1288.61 485.875H1284.07ZM1293.86 485.818C1293.86 484.426 1294.71 483.631 1295.89 483.631C1297.04 483.631 1297.74 484.386 1297.74 485.653V491H1299.44V485.449C1299.44 483.29 1298.25 482.159 1296.47 482.159C1295.16 482.159 1294.3 482.767 1293.9 483.693H1293.79V482.273H1292.16V491H1293.86V485.818ZM1305.79 482.273H1304V480.182H1302.31V482.273H1301.03V483.636H1302.31V488.79C1302.3 490.375 1303.51 491.142 1304.85 491.114C1305.39 491.108 1305.75 491.006 1305.95 490.932L1305.65 489.528C1305.53 489.551 1305.32 489.602 1305.05 489.602C1304.5 489.602 1304 489.42 1304 488.438V483.636H1305.79V482.273ZM1314.07 484.403C1313.72 483.045 1312.66 482.159 1310.77 482.159C1308.8 482.159 1307.4 483.199 1307.4 484.744C1307.4 485.983 1308.15 486.807 1309.79 487.17L1311.27 487.494C1312.11 487.682 1312.5 488.057 1312.5 488.602C1312.5 489.278 1311.78 489.807 1310.66 489.807C1309.65 489.807 1308.99 489.369 1308.79 488.511L1307.15 488.761C1307.43 490.307 1308.71 491.176 1310.67 491.176C1312.78 491.176 1314.24 490.057 1314.24 488.477C1314.24 487.244 1313.46 486.483 1311.86 486.114L1310.47 485.795C1309.51 485.568 1309.1 485.244 1309.1 484.653C1309.1 483.983 1309.82 483.506 1310.79 483.506C1311.85 483.506 1312.33 484.091 1312.53 484.676L1314.07 484.403Z" fill="#242424"/>
<path d="M1356.28 491H1363.31V489.489H1358.03V479.364H1356.28V491ZM1365.17 491H1366.87V482.273H1365.17V491ZM1366.03 480.926C1366.62 480.926 1367.11 480.472 1367.11 479.915C1367.11 479.358 1366.62 478.898 1366.03 478.898C1365.44 478.898 1364.96 479.358 1364.96 479.915C1364.96 480.472 1365.44 480.926 1366.03 480.926ZM1372.83 491.176C1374.9 491.176 1376.23 489.938 1376.42 488.239H1374.77C1374.55 489.182 1373.82 489.739 1372.85 489.739C1371.41 489.739 1370.48 488.54 1370.48 486.636C1370.48 484.767 1371.42 483.591 1372.85 483.591C1373.92 483.591 1374.58 484.273 1374.77 485.091H1376.42C1376.24 483.33 1374.8 482.159 1372.82 482.159C1370.36 482.159 1368.77 484.011 1368.77 486.676C1368.77 489.307 1370.3 491.176 1372.83 491.176ZM1382 491.176C1383.9 491.176 1385.25 490.239 1385.63 488.818L1384.03 488.528C1383.72 489.352 1382.98 489.773 1382.01 489.773C1380.56 489.773 1379.58 488.83 1379.54 487.148H1385.74V486.545C1385.74 483.392 1383.86 482.159 1381.88 482.159C1379.45 482.159 1377.84 484.011 1377.84 486.693C1377.84 489.403 1379.42 491.176 1382 491.176ZM1379.54 485.875C1379.61 484.636 1380.51 483.562 1381.89 483.562C1383.21 483.562 1384.07 484.54 1384.08 485.875H1379.54ZM1389.33 485.818C1389.33 484.426 1390.18 483.631 1391.36 483.631C1392.51 483.631 1393.21 484.386 1393.21 485.653V491H1394.91V485.449C1394.91 483.29 1393.72 482.159 1391.94 482.159C1390.63 482.159 1389.77 482.767 1389.37 483.693H1389.26V482.273H1387.63V491H1389.33V485.818ZM1403.73 484.403C1403.38 483.045 1402.31 482.159 1400.43 482.159C1398.46 482.159 1397.06 483.199 1397.06 484.744C1397.06 485.983 1397.81 486.807 1399.44 487.17L1400.92 487.494C1401.76 487.682 1402.15 488.057 1402.15 488.602C1402.15 489.278 1401.43 489.807 1400.32 489.807C1399.3 489.807 1398.65 489.369 1398.44 488.511L1396.8 488.761C1397.09 490.307 1398.37 491.176 1400.33 491.176C1402.44 491.176 1403.9 490.057 1403.9 488.477C1403.9 487.244 1403.12 486.483 1401.51 486.114L1400.13 485.795C1399.17 485.568 1398.75 485.244 1398.76 484.653C1398.75 483.983 1399.48 483.506 1400.44 483.506C1401.5 483.506 1401.99 484.091 1402.19 484.676L1403.73 484.403ZM1409.53 491.176C1411.43 491.176 1412.78 490.239 1413.16 488.818L1411.56 488.528C1411.25 489.352 1410.51 489.773 1409.55 489.773C1408.09 489.773 1407.11 488.83 1407.07 487.148H1413.27V486.545C1413.27 483.392 1411.39 482.159 1409.41 482.159C1406.98 482.159 1405.38 484.011 1405.38 486.693C1405.38 489.403 1406.95 491.176 1409.53 491.176ZM1407.07 485.875C1407.14 484.636 1408.04 483.562 1409.42 483.562C1410.74 483.562 1411.6 484.54 1411.61 485.875H1407.07Z" fill="#242424"/>
<path d="M150.291 478.909V492H152.567V482.987H152.688L156.306 491.962H158.006L161.624 483.006H161.746V492H164.021V478.909H161.119L157.233 488.395H157.08L153.193 478.909H150.291ZM170.848 492.192C173.136 492.192 174.709 491.073 175.118 489.366L172.957 489.124C172.644 489.955 171.877 490.389 170.88 490.389C169.384 490.389 168.393 489.405 168.374 487.724H175.214V487.014C175.214 483.569 173.143 482.054 170.727 482.054C167.914 482.054 166.08 484.119 166.08 487.148C166.08 490.229 167.888 492.192 170.848 492.192ZM168.381 486.164C168.451 484.911 169.378 483.857 170.759 483.857C172.088 483.857 172.983 484.828 172.996 486.164H168.381ZM179.485 486.247C179.485 484.828 180.342 484.01 181.563 484.01C182.758 484.01 183.474 484.796 183.474 486.107V492H185.788V485.749C185.794 483.396 184.452 482.054 182.426 482.054C180.955 482.054 179.945 482.757 179.498 483.85H179.383V482.182H177.171V492H179.485V486.247ZM194.398 487.871C194.398 489.366 193.33 490.108 192.308 490.108C191.195 490.108 190.454 489.322 190.454 488.075V482.182H188.14V488.433C188.14 490.792 189.482 492.128 191.413 492.128C192.883 492.128 193.919 491.354 194.366 490.255H194.468V492H196.712V482.182H194.398V487.871ZM203.658 492H206.03V488.101L207.481 486.388L211.386 492H214.237L209.13 484.783L214.192 478.909H211.297L206.19 484.924H206.03V478.909H203.658V492ZM216.353 492H218.667V482.182H216.353V492ZM217.516 480.788C218.251 480.788 218.852 480.226 218.852 479.536C218.852 478.839 218.251 478.276 217.516 478.276C216.775 478.276 216.174 478.839 216.174 479.536C216.174 480.226 216.775 480.788 217.516 480.788ZM225.949 482.182H224.012V479.83H221.698V482.182H220.305V483.972H221.698V489.43C221.686 491.278 223.028 492.185 224.767 492.134C225.425 492.115 225.879 491.987 226.128 491.904L225.738 490.095C225.61 490.127 225.348 490.185 225.061 490.185C224.479 490.185 224.012 489.98 224.012 489.047V483.972H225.949V482.182Z" fill="#474F5B"/>
</svg>
