<svg width="1578" height="969" viewBox="0 0 1578 969" fill="none" xmlns="http://www.w3.org/2000/svg">
<rect width="1578" height="969" fill="#D9E6FF"/>
<rect width="1440" height="84" transform="translate(69 443)" fill="white"/>
<path d="M309.153 483.04H310.955C310.562 480.773 308.625 479.205 306.114 479.205C303.102 479.205 300.903 481.472 300.903 485.188C300.903 488.869 303.04 491.159 306.193 491.159C309.017 491.159 311.034 489.307 311.034 486.369V485.045H306.46V486.494H309.335C309.295 488.369 308.057 489.557 306.193 489.557C304.142 489.557 302.648 488.006 302.648 485.176C302.648 482.358 304.153 480.807 306.125 480.807C307.67 480.807 308.716 481.659 309.153 483.04ZM318.655 487.381C318.661 488.864 317.558 489.568 316.604 489.568C315.553 489.568 314.825 488.807 314.825 487.619V482.273H313.126V487.824C313.126 489.989 314.314 491.114 315.99 491.114C317.303 491.114 318.195 490.42 318.598 489.489H318.689V491H320.359V482.273H318.655V487.381ZM322.642 491H324.341V482.273H322.642V491ZM323.5 480.926C324.085 480.926 324.574 480.472 324.574 479.915C324.574 479.358 324.085 478.898 323.5 478.898C322.909 478.898 322.426 479.358 322.426 479.915C322.426 480.472 322.909 480.926 323.5 480.926ZM329.893 491.17C331.484 491.17 332.109 490.199 332.416 489.642H332.558V491H334.217V479.364H332.518V483.688H332.416C332.109 483.148 331.53 482.159 329.905 482.159C327.797 482.159 326.246 483.824 326.246 486.653C326.246 489.477 327.774 491.17 329.893 491.17ZM330.268 489.722C328.751 489.722 327.962 488.386 327.962 486.636C327.962 484.903 328.734 483.602 330.268 483.602C331.751 483.602 332.547 484.812 332.547 486.636C332.547 488.472 331.734 489.722 330.268 489.722ZM340.403 491.176C342.307 491.176 343.653 490.239 344.04 488.818L342.432 488.528C342.125 489.352 341.386 489.773 340.42 489.773C338.966 489.773 337.989 488.83 337.943 487.148H344.148V486.545C344.148 483.392 342.261 482.159 340.284 482.159C337.852 482.159 336.25 484.011 336.25 486.693C336.25 489.403 337.83 491.176 340.403 491.176ZM337.949 485.875C338.017 484.636 338.915 483.562 340.295 483.562C341.614 483.562 342.477 484.54 342.483 485.875H337.949Z" fill="#242424"/>
<path d="M390.045 491C393.591 491 395.642 488.801 395.642 485.165C395.642 481.545 393.591 479.364 390.165 479.364H386.278V491H390.045ZM388.034 489.466V480.898H390.057C392.602 480.898 393.915 482.42 393.915 485.165C393.915 487.92 392.602 489.466 389.949 489.466H388.034ZM401.365 491.176C403.825 491.176 405.433 489.375 405.433 486.676C405.433 483.96 403.825 482.159 401.365 482.159C398.905 482.159 397.297 483.96 397.297 486.676C397.297 489.375 398.905 491.176 401.365 491.176ZM401.371 489.75C399.763 489.75 399.013 488.347 399.013 486.67C399.013 485 399.763 483.58 401.371 483.58C402.967 483.58 403.717 485 403.717 486.67C403.717 488.347 402.967 489.75 401.371 489.75ZM411.006 491.176C413.068 491.176 414.403 489.938 414.591 488.239H412.938C412.722 489.182 411.989 489.739 411.017 489.739C409.58 489.739 408.653 488.54 408.653 486.636C408.653 484.767 409.597 483.591 411.017 483.591C412.097 483.591 412.756 484.273 412.938 485.091H414.591C414.409 483.33 412.972 482.159 410.989 482.159C408.528 482.159 406.938 484.011 406.938 486.676C406.938 489.307 408.472 491.176 411.006 491.176ZM421.936 487.381C421.942 488.864 420.839 489.568 419.885 489.568C418.834 489.568 418.107 488.807 418.107 487.619V482.273H416.408V487.824C416.408 489.989 417.595 491.114 419.271 491.114C420.584 491.114 421.476 490.42 421.879 489.489H421.97V491H423.641V482.273H421.936V487.381ZM425.923 491H427.622V485.619C427.622 484.443 428.446 483.625 429.412 483.625C430.355 483.625 431.009 484.25 431.009 485.199V491H432.702V485.438C432.702 484.386 433.344 483.625 434.452 483.625C435.349 483.625 436.088 484.125 436.088 485.307V491H437.787V485.148C437.787 483.153 436.673 482.159 435.094 482.159C433.838 482.159 432.895 482.761 432.474 483.693H432.384C432.003 482.739 431.202 482.159 430.037 482.159C428.884 482.159 428.026 482.733 427.662 483.693H427.554V482.273H425.923V491ZM443.825 491.176C445.729 491.176 447.075 490.239 447.462 488.818L445.854 488.528C445.547 489.352 444.808 489.773 443.842 489.773C442.388 489.773 441.411 488.83 441.365 487.148H447.57V486.545C447.57 483.392 445.683 482.159 443.706 482.159C441.274 482.159 439.672 484.011 439.672 486.693C439.672 489.403 441.251 491.176 443.825 491.176ZM441.371 485.875C441.439 484.636 442.337 483.562 443.717 483.562C445.036 483.562 445.899 484.54 445.905 485.875H441.371ZM451.153 485.818C451.153 484.426 452.006 483.631 453.188 483.631C454.341 483.631 455.04 484.386 455.04 485.653V491H456.739V485.449C456.739 483.29 455.551 482.159 453.767 482.159C452.455 482.159 451.597 482.767 451.193 483.693H451.085V482.273H449.455V491H451.153V485.818ZM463.091 482.273H461.301V480.182H459.602V482.273H458.324V483.636H459.602V488.79C459.597 490.375 460.807 491.142 462.148 491.114C462.688 491.108 463.051 491.006 463.25 490.932L462.943 489.528C462.83 489.551 462.619 489.602 462.347 489.602C461.795 489.602 461.301 489.42 461.301 488.438V483.636H463.091V482.273ZM471.369 484.403C471.017 483.045 469.955 482.159 468.068 482.159C466.097 482.159 464.699 483.199 464.699 484.744C464.699 485.983 465.449 486.807 467.085 487.17L468.562 487.494C469.403 487.682 469.795 488.057 469.795 488.602C469.795 489.278 469.074 489.807 467.96 489.807C466.943 489.807 466.29 489.369 466.085 488.511L464.443 488.761C464.727 490.307 466.011 491.176 467.972 491.176C470.08 491.176 471.54 490.057 471.54 488.477C471.54 487.244 470.756 486.483 469.153 486.114L467.767 485.795C466.807 485.568 466.392 485.244 466.398 484.653C466.392 483.983 467.119 483.506 468.085 483.506C469.142 483.506 469.631 484.091 469.83 484.676L471.369 484.403Z" fill="#242424"/>
<path d="M523.943 483.148C523.545 480.659 521.597 479.205 519.136 479.205C516.125 479.205 513.903 481.46 513.903 485.182C513.903 488.903 516.114 491.159 519.136 491.159C521.693 491.159 523.562 489.557 523.943 487.256L522.17 487.25C521.869 488.739 520.619 489.557 519.148 489.557C517.153 489.557 515.648 488.028 515.648 485.182C515.648 482.358 517.148 480.807 519.153 480.807C520.636 480.807 521.881 481.642 522.17 483.148H523.943ZM529.584 491.176C532.044 491.176 533.652 489.375 533.652 486.676C533.652 483.96 532.044 482.159 529.584 482.159C527.124 482.159 525.516 483.96 525.516 486.676C525.516 489.375 527.124 491.176 529.584 491.176ZM529.589 489.75C527.982 489.75 527.232 488.347 527.232 486.67C527.232 485 527.982 483.58 529.589 483.58C531.186 483.58 531.936 485 531.936 486.67C531.936 488.347 531.186 489.75 529.589 489.75ZM535.548 491H537.247V485.619C537.247 484.443 538.071 483.625 539.037 483.625C539.98 483.625 540.634 484.25 540.634 485.199V491H542.327V485.438C542.327 484.386 542.969 483.625 544.077 483.625C544.974 483.625 545.713 484.125 545.713 485.307V491H547.412V485.148C547.412 483.153 546.298 482.159 544.719 482.159C543.463 482.159 542.52 482.761 542.099 483.693H542.009C541.628 482.739 540.827 482.159 539.662 482.159C538.509 482.159 537.651 482.733 537.287 483.693H537.179V482.273H535.548V491ZM549.689 494.273H551.388V489.642H551.49C551.797 490.199 552.422 491.17 554.013 491.17C556.126 491.17 557.661 489.477 557.661 486.653C557.661 483.824 556.104 482.159 553.996 482.159C552.376 482.159 551.791 483.148 551.49 483.688H551.348V482.273H549.689V494.273ZM551.354 486.636C551.354 484.812 552.149 483.602 553.632 483.602C555.172 483.602 555.945 484.903 555.945 486.636C555.945 488.386 555.149 489.722 553.632 489.722C552.172 489.722 551.354 488.472 551.354 486.636ZM563.24 491.176C565.7 491.176 567.308 489.375 567.308 486.676C567.308 483.96 565.7 482.159 563.24 482.159C560.78 482.159 559.172 483.96 559.172 486.676C559.172 489.375 560.78 491.176 563.24 491.176ZM563.246 489.75C561.638 489.75 560.888 488.347 560.888 486.67C560.888 485 561.638 483.58 563.246 483.58C564.842 483.58 565.592 485 565.592 486.67C565.592 488.347 564.842 489.75 563.246 489.75ZM570.903 485.818C570.903 484.426 571.756 483.631 572.938 483.631C574.091 483.631 574.79 484.386 574.79 485.653V491H576.489V485.449C576.489 483.29 575.301 482.159 573.517 482.159C572.205 482.159 571.347 482.767 570.943 483.693H570.835V482.273H569.205V491H570.903V485.818ZM582.528 491.176C584.432 491.176 585.778 490.239 586.165 488.818L584.557 488.528C584.25 489.352 583.511 489.773 582.545 489.773C581.091 489.773 580.114 488.83 580.068 487.148H586.273V486.545C586.273 483.392 584.386 482.159 582.409 482.159C579.977 482.159 578.375 484.011 578.375 486.693C578.375 489.403 579.955 491.176 582.528 491.176ZM580.074 485.875C580.142 484.636 581.04 483.562 582.42 483.562C583.739 483.562 584.602 484.54 584.608 485.875H580.074ZM589.857 485.818C589.857 484.426 590.709 483.631 591.891 483.631C593.044 483.631 593.743 484.386 593.743 485.653V491H595.442V485.449C595.442 483.29 594.254 482.159 592.47 482.159C591.158 482.159 590.3 482.767 589.896 483.693H589.788V482.273H588.158V491H589.857V485.818ZM601.794 482.273H600.004V480.182H598.305V482.273H597.027V483.636H598.305V488.79C598.3 490.375 599.51 491.142 600.851 491.114C601.391 491.108 601.754 491.006 601.953 490.932L601.646 489.528C601.533 489.551 601.322 489.602 601.05 489.602C600.499 489.602 600.004 489.42 600.004 488.438V483.636H601.794V482.273ZM610.072 484.403C609.72 483.045 608.658 482.159 606.771 482.159C604.8 482.159 603.402 483.199 603.402 484.744C603.402 485.983 604.152 486.807 605.788 487.17L607.266 487.494C608.107 487.682 608.499 488.057 608.499 488.602C608.499 489.278 607.777 489.807 606.663 489.807C605.646 489.807 604.993 489.369 604.788 488.511L603.146 488.761C603.43 490.307 604.714 491.176 606.675 491.176C608.783 491.176 610.243 490.057 610.243 488.477C610.243 487.244 609.459 486.483 607.857 486.114L606.47 485.795C605.51 485.568 605.095 485.244 605.101 484.653C605.095 483.983 605.822 483.506 606.788 483.506C607.845 483.506 608.334 484.091 608.533 484.676L610.072 484.403Z" fill="#242424"/>
<path d="M652.278 491H659.307V489.489H654.034V479.364H652.278V491ZM661.173 491H662.872V482.273H661.173V491ZM662.031 480.926C662.616 480.926 663.105 480.472 663.105 479.915C663.105 479.358 662.616 478.898 662.031 478.898C661.44 478.898 660.957 479.358 660.957 479.915C660.957 480.472 661.44 480.926 662.031 480.926ZM668.834 491.176C670.896 491.176 672.232 489.938 672.419 488.239H670.766C670.55 489.182 669.817 489.739 668.845 489.739C667.408 489.739 666.482 488.54 666.482 486.636C666.482 484.767 667.425 483.591 668.845 483.591C669.925 483.591 670.584 484.273 670.766 485.091H672.419C672.237 483.33 670.8 482.159 668.817 482.159C666.357 482.159 664.766 484.011 664.766 486.676C664.766 489.307 666.3 491.176 668.834 491.176ZM677.997 491.176C679.901 491.176 681.247 490.239 681.634 488.818L680.026 488.528C679.719 489.352 678.98 489.773 678.014 489.773C676.56 489.773 675.582 488.83 675.537 487.148H681.741V486.545C681.741 483.392 679.855 482.159 677.878 482.159C675.446 482.159 673.844 484.011 673.844 486.693C673.844 489.403 675.423 491.176 677.997 491.176ZM675.543 485.875C675.611 484.636 676.509 483.562 677.889 483.562C679.207 483.562 680.071 484.54 680.077 485.875H675.543ZM685.325 485.818C685.325 484.426 686.178 483.631 687.359 483.631C688.513 483.631 689.212 484.386 689.212 485.653V491H690.911V485.449C690.911 483.29 689.723 482.159 687.939 482.159C686.626 482.159 685.768 482.767 685.365 483.693H685.257V482.273H683.626V491H685.325V485.818ZM699.729 484.403C699.376 483.045 698.314 482.159 696.428 482.159C694.456 482.159 693.058 483.199 693.058 484.744C693.058 485.983 693.808 486.807 695.445 487.17L696.922 487.494C697.763 487.682 698.155 488.057 698.155 488.602C698.155 489.278 697.433 489.807 696.32 489.807C695.303 489.807 694.649 489.369 694.445 488.511L692.803 488.761C693.087 490.307 694.371 491.176 696.331 491.176C698.439 491.176 699.899 490.057 699.899 488.477C699.899 487.244 699.115 486.483 697.513 486.114L696.126 485.795C695.166 485.568 694.751 485.244 694.757 484.653C694.751 483.983 695.479 483.506 696.445 483.506C697.501 483.506 697.99 484.091 698.189 484.676L699.729 484.403ZM705.528 491.176C707.432 491.176 708.778 490.239 709.165 488.818L707.557 488.528C707.25 489.352 706.511 489.773 705.545 489.773C704.091 489.773 703.114 488.83 703.068 487.148H709.273V486.545C709.273 483.392 707.386 482.159 705.409 482.159C702.977 482.159 701.375 484.011 701.375 486.693C701.375 489.403 702.955 491.176 705.528 491.176ZM703.074 485.875C703.142 484.636 704.04 483.562 705.42 483.562C706.739 483.562 707.602 484.54 707.608 485.875H703.074Z" fill="#242424"/>
<path d="M150.291 478.909V492H152.567V482.987H152.688L156.306 491.962H158.006L161.624 483.006H161.746V492H164.021V478.909H161.119L157.233 488.395H157.08L153.193 478.909H150.291ZM170.848 492.192C173.136 492.192 174.709 491.073 175.118 489.366L172.957 489.124C172.644 489.955 171.877 490.389 170.88 490.389C169.384 490.389 168.393 489.405 168.374 487.724H175.214V487.014C175.214 483.569 173.143 482.054 170.727 482.054C167.914 482.054 166.08 484.119 166.08 487.148C166.08 490.229 167.888 492.192 170.848 492.192ZM168.381 486.164C168.451 484.911 169.378 483.857 170.759 483.857C172.088 483.857 172.983 484.828 172.996 486.164H168.381ZM179.485 486.247C179.485 484.828 180.342 484.01 181.563 484.01C182.758 484.01 183.474 484.796 183.474 486.107V492H185.788V485.749C185.794 483.396 184.452 482.054 182.426 482.054C180.955 482.054 179.945 482.757 179.498 483.85H179.383V482.182H177.171V492H179.485V486.247ZM194.398 487.871C194.398 489.366 193.33 490.108 192.308 490.108C191.195 490.108 190.454 489.322 190.454 488.075V482.182H188.14V488.433C188.14 490.792 189.482 492.128 191.413 492.128C192.883 492.128 193.919 491.354 194.366 490.255H194.468V492H196.712V482.182H194.398V487.871ZM203.658 492H206.03V488.101L207.481 486.388L211.386 492H214.237L209.13 484.783L214.192 478.909H211.297L206.19 484.924H206.03V478.909H203.658V492ZM216.353 492H218.667V482.182H216.353V492ZM217.516 480.788C218.251 480.788 218.852 480.226 218.852 479.536C218.852 478.839 218.251 478.276 217.516 478.276C216.775 478.276 216.174 478.839 216.174 479.536C216.174 480.226 216.775 480.788 217.516 480.788ZM225.949 482.182H224.012V479.83H221.698V482.182H220.305V483.972H221.698V489.43C221.686 491.278 223.028 492.185 224.767 492.134C225.425 492.115 225.879 491.987 226.128 491.904L225.738 490.095C225.61 490.127 225.348 490.185 225.061 490.185C224.479 490.185 224.012 489.98 224.012 489.047V483.972H225.949V482.182Z" fill="#474F5B"/>
</svg>
