<svg width="1578" height="969" viewBox="0 0 1578 969" fill="none" xmlns="http://www.w3.org/2000/svg">
<rect width="1578" height="969" fill="#D9E6FF"/>
<rect width="1440" height="84" transform="translate(69 443)" fill="white"/>
<path d="M869.153 483.04H870.955C870.562 480.773 868.625 479.205 866.114 479.205C863.102 479.205 860.903 481.472 860.903 485.188C860.903 488.869 863.04 491.159 866.193 491.159C869.017 491.159 871.034 489.307 871.034 486.369V485.045H866.46V486.494H869.335C869.295 488.369 868.057 489.557 866.193 489.557C864.142 489.557 862.648 488.006 862.648 485.176C862.648 482.358 864.153 480.807 866.125 480.807C867.67 480.807 868.716 481.659 869.153 483.04ZM878.655 487.381C878.661 488.864 877.558 489.568 876.604 489.568C875.553 489.568 874.825 488.807 874.825 487.619V482.273H873.126V487.824C873.126 489.989 874.314 491.114 875.99 491.114C877.303 491.114 878.195 490.42 878.598 489.489H878.689V491H880.359V482.273H878.655V487.381ZM882.642 491H884.341V482.273H882.642V491ZM883.5 480.926C884.085 480.926 884.574 480.472 884.574 479.915C884.574 479.358 884.085 478.898 883.5 478.898C882.909 478.898 882.426 479.358 882.426 479.915C882.426 480.472 882.909 480.926 883.5 480.926ZM889.893 491.17C891.484 491.17 892.109 490.199 892.416 489.642H892.558V491H894.217V479.364H892.518V483.688H892.416C892.109 483.148 891.53 482.159 889.905 482.159C887.797 482.159 886.246 483.824 886.246 486.653C886.246 489.477 887.774 491.17 889.893 491.17ZM890.268 489.722C888.751 489.722 887.962 488.386 887.962 486.636C887.962 484.903 888.734 483.602 890.268 483.602C891.751 483.602 892.547 484.812 892.547 486.636C892.547 488.472 891.734 489.722 890.268 489.722ZM900.403 491.176C902.307 491.176 903.653 490.239 904.04 488.818L902.432 488.528C902.125 489.352 901.386 489.773 900.42 489.773C898.966 489.773 897.989 488.83 897.943 487.148H904.148V486.545C904.148 483.392 902.261 482.159 900.284 482.159C897.852 482.159 896.25 484.011 896.25 486.693C896.25 489.403 897.83 491.176 900.403 491.176ZM897.949 485.875C898.017 484.636 898.915 483.562 900.295 483.562C901.614 483.562 902.477 484.54 902.483 485.875H897.949Z" fill="#242424"/>
<path d="M950.045 491C953.591 491 955.642 488.801 955.642 485.165C955.642 481.545 953.591 479.364 950.165 479.364H946.278V491H950.045ZM948.034 489.466V480.898H950.057C952.602 480.898 953.915 482.42 953.915 485.165C953.915 487.92 952.602 489.466 949.949 489.466H948.034ZM961.365 491.176C963.825 491.176 965.433 489.375 965.433 486.676C965.433 483.96 963.825 482.159 961.365 482.159C958.905 482.159 957.297 483.96 957.297 486.676C957.297 489.375 958.905 491.176 961.365 491.176ZM961.371 489.75C959.763 489.75 959.013 488.347 959.013 486.67C959.013 485 959.763 483.58 961.371 483.58C962.967 483.58 963.717 485 963.717 486.67C963.717 488.347 962.967 489.75 961.371 489.75ZM971.006 491.176C973.068 491.176 974.403 489.938 974.591 488.239H972.938C972.722 489.182 971.989 489.739 971.017 489.739C969.58 489.739 968.653 488.54 968.653 486.636C968.653 484.767 969.597 483.591 971.017 483.591C972.097 483.591 972.756 484.273 972.938 485.091H974.591C974.409 483.33 972.972 482.159 970.989 482.159C968.528 482.159 966.938 484.011 966.938 486.676C966.938 489.307 968.472 491.176 971.006 491.176ZM981.936 487.381C981.942 488.864 980.839 489.568 979.885 489.568C978.834 489.568 978.107 488.807 978.107 487.619V482.273H976.408V487.824C976.408 489.989 977.595 491.114 979.271 491.114C980.584 491.114 981.476 490.42 981.879 489.489H981.97V491H983.641V482.273H981.936V487.381ZM985.923 491H987.622V485.619C987.622 484.443 988.446 483.625 989.412 483.625C990.355 483.625 991.009 484.25 991.009 485.199V491H992.702V485.438C992.702 484.386 993.344 483.625 994.452 483.625C995.349 483.625 996.088 484.125 996.088 485.307V491H997.787V485.148C997.787 483.153 996.673 482.159 995.094 482.159C993.838 482.159 992.895 482.761 992.474 483.693H992.384C992.003 482.739 991.202 482.159 990.037 482.159C988.884 482.159 988.026 482.733 987.662 483.693H987.554V482.273H985.923V491ZM1003.83 491.176C1005.73 491.176 1007.08 490.239 1007.46 488.818L1005.85 488.528C1005.55 489.352 1004.81 489.773 1003.84 489.773C1002.39 489.773 1001.41 488.83 1001.37 487.148H1007.57V486.545C1007.57 483.392 1005.68 482.159 1003.71 482.159C1001.27 482.159 999.672 484.011 999.672 486.693C999.672 489.403 1001.25 491.176 1003.83 491.176ZM1001.37 485.875C1001.44 484.636 1002.34 483.562 1003.72 483.562C1005.04 483.562 1005.9 484.54 1005.9 485.875H1001.37ZM1011.15 485.818C1011.15 484.426 1012.01 483.631 1013.19 483.631C1014.34 483.631 1015.04 484.386 1015.04 485.653V491H1016.74V485.449C1016.74 483.29 1015.55 482.159 1013.77 482.159C1012.45 482.159 1011.6 482.767 1011.19 483.693H1011.09V482.273H1009.45V491H1011.15V485.818ZM1023.09 482.273H1021.3V480.182H1019.6V482.273H1018.32V483.636H1019.6V488.79C1019.6 490.375 1020.81 491.142 1022.15 491.114C1022.69 491.108 1023.05 491.006 1023.25 490.932L1022.94 489.528C1022.83 489.551 1022.62 489.602 1022.35 489.602C1021.8 489.602 1021.3 489.42 1021.3 488.438V483.636H1023.09V482.273ZM1031.37 484.403C1031.02 483.045 1029.95 482.159 1028.07 482.159C1026.1 482.159 1024.7 483.199 1024.7 484.744C1024.7 485.983 1025.45 486.807 1027.09 487.17L1028.56 487.494C1029.4 487.682 1029.8 488.057 1029.8 488.602C1029.8 489.278 1029.07 489.807 1027.96 489.807C1026.94 489.807 1026.29 489.369 1026.09 488.511L1024.44 488.761C1024.73 490.307 1026.01 491.176 1027.97 491.176C1030.08 491.176 1031.54 490.057 1031.54 488.477C1031.54 487.244 1030.76 486.483 1029.15 486.114L1027.77 485.795C1026.81 485.568 1026.39 485.244 1026.4 484.653C1026.39 483.983 1027.12 483.506 1028.09 483.506C1029.14 483.506 1029.63 484.091 1029.83 484.676L1031.37 484.403Z" fill="#242424"/>
<path d="M1083.94 483.148C1083.55 480.659 1081.6 479.205 1079.14 479.205C1076.12 479.205 1073.9 481.46 1073.9 485.182C1073.9 488.903 1076.11 491.159 1079.14 491.159C1081.69 491.159 1083.56 489.557 1083.94 487.256L1082.17 487.25C1081.87 488.739 1080.62 489.557 1079.15 489.557C1077.15 489.557 1075.65 488.028 1075.65 485.182C1075.65 482.358 1077.15 480.807 1079.15 480.807C1080.64 480.807 1081.88 481.642 1082.17 483.148H1083.94ZM1089.58 491.176C1092.04 491.176 1093.65 489.375 1093.65 486.676C1093.65 483.96 1092.04 482.159 1089.58 482.159C1087.12 482.159 1085.52 483.96 1085.52 486.676C1085.52 489.375 1087.12 491.176 1089.58 491.176ZM1089.59 489.75C1087.98 489.75 1087.23 488.347 1087.23 486.67C1087.23 485 1087.98 483.58 1089.59 483.58C1091.19 483.58 1091.94 485 1091.94 486.67C1091.94 488.347 1091.19 489.75 1089.59 489.75ZM1095.55 491H1097.25V485.619C1097.25 484.443 1098.07 483.625 1099.04 483.625C1099.98 483.625 1100.63 484.25 1100.63 485.199V491H1102.33V485.438C1102.33 484.386 1102.97 483.625 1104.08 483.625C1104.97 483.625 1105.71 484.125 1105.71 485.307V491H1107.41V485.148C1107.41 483.153 1106.3 482.159 1104.72 482.159C1103.46 482.159 1102.52 482.761 1102.1 483.693H1102.01C1101.63 482.739 1100.83 482.159 1099.66 482.159C1098.51 482.159 1097.65 482.733 1097.29 483.693H1097.18V482.273H1095.55V491ZM1109.69 494.273H1111.39V489.642H1111.49C1111.8 490.199 1112.42 491.17 1114.01 491.17C1116.13 491.17 1117.66 489.477 1117.66 486.653C1117.66 483.824 1116.1 482.159 1114 482.159C1112.38 482.159 1111.79 483.148 1111.49 483.688H1111.35V482.273H1109.69V494.273ZM1111.35 486.636C1111.35 484.812 1112.15 483.602 1113.63 483.602C1115.17 483.602 1115.94 484.903 1115.94 486.636C1115.94 488.386 1115.15 489.722 1113.63 489.722C1112.17 489.722 1111.35 488.472 1111.35 486.636ZM1123.24 491.176C1125.7 491.176 1127.31 489.375 1127.31 486.676C1127.31 483.96 1125.7 482.159 1123.24 482.159C1120.78 482.159 1119.17 483.96 1119.17 486.676C1119.17 489.375 1120.78 491.176 1123.24 491.176ZM1123.25 489.75C1121.64 489.75 1120.89 488.347 1120.89 486.67C1120.89 485 1121.64 483.58 1123.25 483.58C1124.84 483.58 1125.59 485 1125.59 486.67C1125.59 488.347 1124.84 489.75 1123.25 489.75ZM1130.9 485.818C1130.9 484.426 1131.76 483.631 1132.94 483.631C1134.09 483.631 1134.79 484.386 1134.79 485.653V491H1136.49V485.449C1136.49 483.29 1135.3 482.159 1133.52 482.159C1132.2 482.159 1131.35 482.767 1130.94 483.693H1130.84V482.273H1129.2V491H1130.9V485.818ZM1142.53 491.176C1144.43 491.176 1145.78 490.239 1146.16 488.818L1144.56 488.528C1144.25 489.352 1143.51 489.773 1142.55 489.773C1141.09 489.773 1140.11 488.83 1140.07 487.148H1146.27V486.545C1146.27 483.392 1144.39 482.159 1142.41 482.159C1139.98 482.159 1138.38 484.011 1138.38 486.693C1138.38 489.403 1139.95 491.176 1142.53 491.176ZM1140.07 485.875C1140.14 484.636 1141.04 483.562 1142.42 483.562C1143.74 483.562 1144.6 484.54 1144.61 485.875H1140.07ZM1149.86 485.818C1149.86 484.426 1150.71 483.631 1151.89 483.631C1153.04 483.631 1153.74 484.386 1153.74 485.653V491H1155.44V485.449C1155.44 483.29 1154.25 482.159 1152.47 482.159C1151.16 482.159 1150.3 482.767 1149.9 483.693H1149.79V482.273H1148.16V491H1149.86V485.818ZM1161.79 482.273H1160V480.182H1158.31V482.273H1157.03V483.636H1158.31V488.79C1158.3 490.375 1159.51 491.142 1160.85 491.114C1161.39 491.108 1161.75 491.006 1161.95 490.932L1161.65 489.528C1161.53 489.551 1161.32 489.602 1161.05 489.602C1160.5 489.602 1160 489.42 1160 488.438V483.636H1161.79V482.273ZM1170.07 484.403C1169.72 483.045 1168.66 482.159 1166.77 482.159C1164.8 482.159 1163.4 483.199 1163.4 484.744C1163.4 485.983 1164.15 486.807 1165.79 487.17L1167.27 487.494C1168.11 487.682 1168.5 488.057 1168.5 488.602C1168.5 489.278 1167.78 489.807 1166.66 489.807C1165.65 489.807 1164.99 489.369 1164.79 488.511L1163.15 488.761C1163.43 490.307 1164.71 491.176 1166.67 491.176C1168.78 491.176 1170.24 490.057 1170.24 488.477C1170.24 487.244 1169.46 486.483 1167.86 486.114L1166.47 485.795C1165.51 485.568 1165.1 485.244 1165.1 484.653C1165.1 483.983 1165.82 483.506 1166.79 483.506C1167.85 483.506 1168.33 484.091 1168.53 484.676L1170.07 484.403Z" fill="#242424"/>
<path d="M1212.28 491H1219.31V489.489H1214.03V479.364H1212.28V491ZM1221.17 491H1222.87V482.273H1221.17V491ZM1222.03 480.926C1222.62 480.926 1223.11 480.472 1223.11 479.915C1223.11 479.358 1222.62 478.898 1222.03 478.898C1221.44 478.898 1220.96 479.358 1220.96 479.915C1220.96 480.472 1221.44 480.926 1222.03 480.926ZM1228.83 491.176C1230.9 491.176 1232.23 489.938 1232.42 488.239H1230.77C1230.55 489.182 1229.82 489.739 1228.85 489.739C1227.41 489.739 1226.48 488.54 1226.48 486.636C1226.48 484.767 1227.42 483.591 1228.85 483.591C1229.92 483.591 1230.58 484.273 1230.77 485.091H1232.42C1232.24 483.33 1230.8 482.159 1228.82 482.159C1226.36 482.159 1224.77 484.011 1224.77 486.676C1224.77 489.307 1226.3 491.176 1228.83 491.176ZM1238 491.176C1239.9 491.176 1241.25 490.239 1241.63 488.818L1240.03 488.528C1239.72 489.352 1238.98 489.773 1238.01 489.773C1236.56 489.773 1235.58 488.83 1235.54 487.148H1241.74V486.545C1241.74 483.392 1239.86 482.159 1237.88 482.159C1235.45 482.159 1233.84 484.011 1233.84 486.693C1233.84 489.403 1235.42 491.176 1238 491.176ZM1235.54 485.875C1235.61 484.636 1236.51 483.562 1237.89 483.562C1239.21 483.562 1240.07 484.54 1240.08 485.875H1235.54ZM1245.33 485.818C1245.33 484.426 1246.18 483.631 1247.36 483.631C1248.51 483.631 1249.21 484.386 1249.21 485.653V491H1250.91V485.449C1250.91 483.29 1249.72 482.159 1247.94 482.159C1246.63 482.159 1245.77 482.767 1245.37 483.693H1245.26V482.273H1243.63V491H1245.33V485.818ZM1259.73 484.403C1259.38 483.045 1258.31 482.159 1256.43 482.159C1254.46 482.159 1253.06 483.199 1253.06 484.744C1253.06 485.983 1253.81 486.807 1255.44 487.17L1256.92 487.494C1257.76 487.682 1258.15 488.057 1258.15 488.602C1258.15 489.278 1257.43 489.807 1256.32 489.807C1255.3 489.807 1254.65 489.369 1254.44 488.511L1252.8 488.761C1253.09 490.307 1254.37 491.176 1256.33 491.176C1258.44 491.176 1259.9 490.057 1259.9 488.477C1259.9 487.244 1259.12 486.483 1257.51 486.114L1256.13 485.795C1255.17 485.568 1254.75 485.244 1254.76 484.653C1254.75 483.983 1255.48 483.506 1256.44 483.506C1257.5 483.506 1257.99 484.091 1258.19 484.676L1259.73 484.403ZM1265.53 491.176C1267.43 491.176 1268.78 490.239 1269.16 488.818L1267.56 488.528C1267.25 489.352 1266.51 489.773 1265.55 489.773C1264.09 489.773 1263.11 488.83 1263.07 487.148H1269.27V486.545C1269.27 483.392 1267.39 482.159 1265.41 482.159C1262.98 482.159 1261.38 484.011 1261.38 486.693C1261.38 489.403 1262.95 491.176 1265.53 491.176ZM1263.07 485.875C1263.14 484.636 1264.04 483.562 1265.42 483.562C1266.74 483.562 1267.6 484.54 1267.61 485.875H1263.07Z" fill="#242424"/>
<path d="M1311 469C1311 467.343 1312.34 466 1314 466H1426C1427.66 466 1429 467.343 1429 469V502C1429 503.657 1427.66 505 1426 505H1314C1312.34 505 1311 503.657 1311 502V469Z" fill="#6B9EFF"/>
<path d="M1335.15 483.04H1336.95C1336.56 480.773 1334.62 479.205 1332.11 479.205C1329.1 479.205 1326.9 481.472 1326.9 485.188C1326.9 488.869 1329.04 491.159 1332.19 491.159C1335.02 491.159 1337.03 489.307 1337.03 486.369V485.045H1332.46V486.494H1335.34C1335.3 488.369 1334.06 489.557 1332.19 489.557C1330.14 489.557 1328.65 488.006 1328.65 485.176C1328.65 482.358 1330.15 480.807 1332.12 480.807C1333.67 480.807 1334.72 481.659 1335.15 483.04ZM1342.89 491.176C1344.79 491.176 1346.14 490.239 1346.52 488.818L1344.92 488.528C1344.61 489.352 1343.87 489.773 1342.9 489.773C1341.45 489.773 1340.47 488.83 1340.43 487.148H1346.63V486.545C1346.63 483.392 1344.75 482.159 1342.77 482.159C1340.34 482.159 1338.73 484.011 1338.73 486.693C1338.73 489.403 1340.31 491.176 1342.89 491.176ZM1340.43 485.875C1340.5 484.636 1341.4 483.562 1342.78 483.562C1344.1 483.562 1344.96 484.54 1344.97 485.875H1340.43ZM1352.59 482.273H1350.8V480.182H1349.1V482.273H1347.82V483.636H1349.1V488.79C1349.1 490.375 1350.31 491.142 1351.65 491.114C1352.19 491.108 1352.55 491.006 1352.75 490.932L1352.44 489.528C1352.33 489.551 1352.12 489.602 1351.85 489.602C1351.3 489.602 1350.8 489.42 1350.8 488.438V483.636H1352.59V482.273ZM1365.24 484.403C1364.89 483.045 1363.83 482.159 1361.94 482.159C1359.97 482.159 1358.57 483.199 1358.57 484.744C1358.57 485.983 1359.32 486.807 1360.96 487.17L1362.44 487.494C1363.28 487.682 1363.67 488.057 1363.67 488.602C1363.67 489.278 1362.95 489.807 1361.84 489.807C1360.82 489.807 1360.16 489.369 1359.96 488.511L1358.32 488.761C1358.6 490.307 1359.89 491.176 1361.85 491.176C1363.95 491.176 1365.41 490.057 1365.41 488.477C1365.41 487.244 1364.63 486.483 1363.03 486.114L1361.64 485.795C1360.68 485.568 1360.27 485.244 1360.27 484.653C1360.27 483.983 1360.99 483.506 1361.96 483.506C1363.02 483.506 1363.51 484.091 1363.7 484.676L1365.24 484.403ZM1371.36 482.273H1369.57V480.182H1367.87V482.273H1366.59V483.636H1367.87V488.79C1367.86 490.375 1369.07 491.142 1370.41 491.114C1370.95 491.108 1371.32 491.006 1371.52 490.932L1371.21 489.528C1371.1 489.551 1370.88 489.602 1370.61 489.602C1370.06 489.602 1369.57 489.42 1369.57 488.438V483.636H1371.36V482.273ZM1375.78 491.193C1377.22 491.193 1378.03 490.46 1378.36 489.807H1378.42V491H1380.08V485.205C1380.08 482.665 1378.08 482.159 1376.7 482.159C1375.12 482.159 1373.66 482.795 1373.09 484.386L1374.69 484.75C1374.94 484.131 1375.58 483.534 1376.72 483.534C1377.82 483.534 1378.38 484.108 1378.38 485.097V485.136C1378.38 485.756 1377.74 485.744 1376.17 485.926C1374.52 486.119 1372.83 486.551 1372.83 488.534C1372.83 490.25 1374.12 491.193 1375.78 491.193ZM1376.14 489.83C1375.18 489.83 1374.49 489.398 1374.49 488.557C1374.49 487.648 1375.3 487.324 1376.28 487.193C1376.83 487.119 1378.14 486.972 1378.38 486.727V487.852C1378.38 488.886 1377.56 489.83 1376.14 489.83ZM1382.35 491H1384.04V485.67C1384.04 484.528 1384.92 483.705 1386.13 483.705C1386.48 483.705 1386.88 483.767 1387.02 483.807V482.182C1386.85 482.159 1386.51 482.142 1386.29 482.142C1385.27 482.142 1384.4 482.722 1384.08 483.659H1383.99V482.273H1382.35V491ZM1393.08 482.273H1391.29V480.182H1389.59V482.273H1388.31V483.636H1389.59V488.79C1389.58 490.375 1390.79 491.142 1392.13 491.114C1392.67 491.108 1393.04 491.006 1393.23 490.932L1392.93 489.528C1392.81 489.551 1392.6 489.602 1392.33 489.602C1391.78 489.602 1391.29 489.42 1391.29 488.438V483.636H1393.08V482.273ZM1398.62 491.176C1400.53 491.176 1401.87 490.239 1402.26 488.818L1400.65 488.528C1400.34 489.352 1399.61 489.773 1398.64 489.773C1397.18 489.773 1396.21 488.83 1396.16 487.148H1402.37V486.545C1402.37 483.392 1400.48 482.159 1398.5 482.159C1396.07 482.159 1394.47 484.011 1394.47 486.693C1394.47 489.403 1396.05 491.176 1398.62 491.176ZM1396.17 485.875C1396.24 484.636 1397.13 483.562 1398.51 483.562C1399.83 483.562 1400.7 484.54 1400.7 485.875H1396.17ZM1407.52 491.17C1409.11 491.17 1409.73 490.199 1410.04 489.642H1410.18V491H1411.84V479.364H1410.14V483.688H1410.04C1409.73 483.148 1409.15 482.159 1407.53 482.159C1405.42 482.159 1403.87 483.824 1403.87 486.653C1403.87 489.477 1405.4 491.17 1407.52 491.17ZM1407.89 489.722C1406.38 489.722 1405.59 488.386 1405.59 486.636C1405.59 484.903 1406.36 483.602 1407.89 483.602C1409.38 483.602 1410.17 484.812 1410.17 486.636C1410.17 488.472 1409.36 489.722 1407.89 489.722Z" fill="white"/>
<path d="M150.291 478.909V492H152.567V482.987H152.688L156.306 491.962H158.006L161.624 483.006H161.746V492H164.021V478.909H161.119L157.233 488.395H157.08L153.193 478.909H150.291ZM170.848 492.192C173.136 492.192 174.709 491.073 175.118 489.366L172.957 489.124C172.644 489.955 171.877 490.389 170.88 490.389C169.384 490.389 168.393 489.405 168.374 487.724H175.214V487.014C175.214 483.569 173.143 482.054 170.727 482.054C167.914 482.054 166.08 484.119 166.08 487.148C166.08 490.229 167.888 492.192 170.848 492.192ZM168.381 486.164C168.451 484.911 169.378 483.857 170.759 483.857C172.088 483.857 172.983 484.828 172.996 486.164H168.381ZM179.485 486.247C179.485 484.828 180.342 484.01 181.563 484.01C182.758 484.01 183.474 484.796 183.474 486.107V492H185.788V485.749C185.794 483.396 184.452 482.054 182.426 482.054C180.955 482.054 179.945 482.757 179.498 483.85H179.383V482.182H177.171V492H179.485V486.247ZM194.398 487.871C194.398 489.366 193.33 490.108 192.308 490.108C191.195 490.108 190.454 489.322 190.454 488.075V482.182H188.14V488.433C188.14 490.792 189.482 492.128 191.413 492.128C192.883 492.128 193.919 491.354 194.366 490.255H194.468V492H196.712V482.182H194.398V487.871ZM203.658 492H206.03V488.101L207.481 486.388L211.386 492H214.237L209.13 484.783L214.192 478.909H211.297L206.19 484.924H206.03V478.909H203.658V492ZM216.353 492H218.667V482.182H216.353V492ZM217.516 480.788C218.251 480.788 218.852 480.226 218.852 479.536C218.852 478.839 218.251 478.276 217.516 478.276C216.775 478.276 216.174 478.839 216.174 479.536C216.174 480.226 216.775 480.788 217.516 480.788ZM225.949 482.182H224.012V479.83H221.698V482.182H220.305V483.972H221.698V489.43C221.686 491.278 223.028 492.185 224.767 492.134C225.425 492.115 225.879 491.987 226.128 491.904L225.738 490.095C225.61 490.127 225.348 490.185 225.061 490.185C224.479 490.185 224.012 489.98 224.012 489.047V483.972H225.949V482.182Z" fill="#474F5B"/>
</svg>
