<svg width="1578" height="969" viewBox="0 0 1578 969" fill="none" xmlns="http://www.w3.org/2000/svg">
<rect width="1578" height="969" fill="#D9E6FF"/>
<rect width="1440" height="84" transform="translate(69 443)" fill="white"/>
<path d="M593.153 483.04H594.955C594.562 480.773 592.625 479.205 590.114 479.205C587.102 479.205 584.903 481.472 584.903 485.188C584.903 488.869 587.04 491.159 590.193 491.159C593.017 491.159 595.034 489.307 595.034 486.369V485.045H590.46V486.494H593.335C593.295 488.369 592.057 489.557 590.193 489.557C588.142 489.557 586.648 488.006 586.648 485.176C586.648 482.358 588.153 480.807 590.125 480.807C591.67 480.807 592.716 481.659 593.153 483.04ZM602.655 487.381C602.661 488.864 601.558 489.568 600.604 489.568C599.553 489.568 598.825 488.807 598.825 487.619V482.273H597.126V487.824C597.126 489.989 598.314 491.114 599.99 491.114C601.303 491.114 602.195 490.42 602.598 489.489H602.689V491H604.359V482.273H602.655V487.381ZM606.642 491H608.341V482.273H606.642V491ZM607.5 480.926C608.085 480.926 608.574 480.472 608.574 479.915C608.574 479.358 608.085 478.898 607.5 478.898C606.909 478.898 606.426 479.358 606.426 479.915C606.426 480.472 606.909 480.926 607.5 480.926ZM613.893 491.17C615.484 491.17 616.109 490.199 616.416 489.642H616.558V491H618.217V479.364H616.518V483.688H616.416C616.109 483.148 615.53 482.159 613.905 482.159C611.797 482.159 610.246 483.824 610.246 486.653C610.246 489.477 611.774 491.17 613.893 491.17ZM614.268 489.722C612.751 489.722 611.962 488.386 611.962 486.636C611.962 484.903 612.734 483.602 614.268 483.602C615.751 483.602 616.547 484.812 616.547 486.636C616.547 488.472 615.734 489.722 614.268 489.722ZM624.403 491.176C626.307 491.176 627.653 490.239 628.04 488.818L626.432 488.528C626.125 489.352 625.386 489.773 624.42 489.773C622.966 489.773 621.989 488.83 621.943 487.148H628.148V486.545C628.148 483.392 626.261 482.159 624.284 482.159C621.852 482.159 620.25 484.011 620.25 486.693C620.25 489.403 621.83 491.176 624.403 491.176ZM621.949 485.875C622.017 484.636 622.915 483.562 624.295 483.562C625.614 483.562 626.477 484.54 626.483 485.875H621.949Z" fill="#242424"/>
<path d="M674.045 491C677.591 491 679.642 488.801 679.642 485.165C679.642 481.545 677.591 479.364 674.165 479.364H670.278V491H674.045ZM672.034 489.466V480.898H674.057C676.602 480.898 677.915 482.42 677.915 485.165C677.915 487.92 676.602 489.466 673.949 489.466H672.034ZM685.365 491.176C687.825 491.176 689.433 489.375 689.433 486.676C689.433 483.96 687.825 482.159 685.365 482.159C682.905 482.159 681.297 483.96 681.297 486.676C681.297 489.375 682.905 491.176 685.365 491.176ZM685.371 489.75C683.763 489.75 683.013 488.347 683.013 486.67C683.013 485 683.763 483.58 685.371 483.58C686.967 483.58 687.717 485 687.717 486.67C687.717 488.347 686.967 489.75 685.371 489.75ZM695.006 491.176C697.068 491.176 698.403 489.938 698.591 488.239H696.938C696.722 489.182 695.989 489.739 695.017 489.739C693.58 489.739 692.653 488.54 692.653 486.636C692.653 484.767 693.597 483.591 695.017 483.591C696.097 483.591 696.756 484.273 696.938 485.091H698.591C698.409 483.33 696.972 482.159 694.989 482.159C692.528 482.159 690.938 484.011 690.938 486.676C690.938 489.307 692.472 491.176 695.006 491.176ZM705.936 487.381C705.942 488.864 704.839 489.568 703.885 489.568C702.834 489.568 702.107 488.807 702.107 487.619V482.273H700.408V487.824C700.408 489.989 701.595 491.114 703.271 491.114C704.584 491.114 705.476 490.42 705.879 489.489H705.97V491H707.641V482.273H705.936V487.381ZM709.923 491H711.622V485.619C711.622 484.443 712.446 483.625 713.412 483.625C714.355 483.625 715.009 484.25 715.009 485.199V491H716.702V485.438C716.702 484.386 717.344 483.625 718.452 483.625C719.349 483.625 720.088 484.125 720.088 485.307V491H721.787V485.148C721.787 483.153 720.673 482.159 719.094 482.159C717.838 482.159 716.895 482.761 716.474 483.693H716.384C716.003 482.739 715.202 482.159 714.037 482.159C712.884 482.159 712.026 482.733 711.662 483.693H711.554V482.273H709.923V491ZM727.825 491.176C729.729 491.176 731.075 490.239 731.462 488.818L729.854 488.528C729.547 489.352 728.808 489.773 727.842 489.773C726.388 489.773 725.411 488.83 725.365 487.148H731.57V486.545C731.57 483.392 729.683 482.159 727.706 482.159C725.274 482.159 723.672 484.011 723.672 486.693C723.672 489.403 725.251 491.176 727.825 491.176ZM725.371 485.875C725.439 484.636 726.337 483.562 727.717 483.562C729.036 483.562 729.899 484.54 729.905 485.875H725.371ZM735.153 485.818C735.153 484.426 736.006 483.631 737.188 483.631C738.341 483.631 739.04 484.386 739.04 485.653V491H740.739V485.449C740.739 483.29 739.551 482.159 737.767 482.159C736.455 482.159 735.597 482.767 735.193 483.693H735.085V482.273H733.455V491H735.153V485.818ZM747.091 482.273H745.301V480.182H743.602V482.273H742.324V483.636H743.602V488.79C743.597 490.375 744.807 491.142 746.148 491.114C746.688 491.108 747.051 491.006 747.25 490.932L746.943 489.528C746.83 489.551 746.619 489.602 746.347 489.602C745.795 489.602 745.301 489.42 745.301 488.438V483.636H747.091V482.273ZM755.369 484.403C755.017 483.045 753.955 482.159 752.068 482.159C750.097 482.159 748.699 483.199 748.699 484.744C748.699 485.983 749.449 486.807 751.085 487.17L752.562 487.494C753.403 487.682 753.795 488.057 753.795 488.602C753.795 489.278 753.074 489.807 751.96 489.807C750.943 489.807 750.29 489.369 750.085 488.511L748.443 488.761C748.727 490.307 750.011 491.176 751.972 491.176C754.08 491.176 755.54 490.057 755.54 488.477C755.54 487.244 754.756 486.483 753.153 486.114L751.767 485.795C750.807 485.568 750.392 485.244 750.398 484.653C750.392 483.983 751.119 483.506 752.085 483.506C753.142 483.506 753.631 484.091 753.83 484.676L755.369 484.403Z" fill="#242424"/>
<path d="M807.943 483.148C807.545 480.659 805.597 479.205 803.136 479.205C800.125 479.205 797.903 481.46 797.903 485.182C797.903 488.903 800.114 491.159 803.136 491.159C805.693 491.159 807.562 489.557 807.943 487.256L806.17 487.25C805.869 488.739 804.619 489.557 803.148 489.557C801.153 489.557 799.648 488.028 799.648 485.182C799.648 482.358 801.148 480.807 803.153 480.807C804.636 480.807 805.881 481.642 806.17 483.148H807.943ZM813.584 491.176C816.044 491.176 817.652 489.375 817.652 486.676C817.652 483.96 816.044 482.159 813.584 482.159C811.124 482.159 809.516 483.96 809.516 486.676C809.516 489.375 811.124 491.176 813.584 491.176ZM813.589 489.75C811.982 489.75 811.232 488.347 811.232 486.67C811.232 485 811.982 483.58 813.589 483.58C815.186 483.58 815.936 485 815.936 486.67C815.936 488.347 815.186 489.75 813.589 489.75ZM819.548 491H821.247V485.619C821.247 484.443 822.071 483.625 823.037 483.625C823.98 483.625 824.634 484.25 824.634 485.199V491H826.327V485.438C826.327 484.386 826.969 483.625 828.077 483.625C828.974 483.625 829.713 484.125 829.713 485.307V491H831.412V485.148C831.412 483.153 830.298 482.159 828.719 482.159C827.463 482.159 826.52 482.761 826.099 483.693H826.009C825.628 482.739 824.827 482.159 823.662 482.159C822.509 482.159 821.651 482.733 821.287 483.693H821.179V482.273H819.548V491ZM833.689 494.273H835.388V489.642H835.49C835.797 490.199 836.422 491.17 838.013 491.17C840.126 491.17 841.661 489.477 841.661 486.653C841.661 483.824 840.104 482.159 837.996 482.159C836.376 482.159 835.791 483.148 835.49 483.688H835.348V482.273H833.689V494.273ZM835.354 486.636C835.354 484.812 836.149 483.602 837.632 483.602C839.172 483.602 839.945 484.903 839.945 486.636C839.945 488.386 839.149 489.722 837.632 489.722C836.172 489.722 835.354 488.472 835.354 486.636ZM847.24 491.176C849.7 491.176 851.308 489.375 851.308 486.676C851.308 483.96 849.7 482.159 847.24 482.159C844.78 482.159 843.172 483.96 843.172 486.676C843.172 489.375 844.78 491.176 847.24 491.176ZM847.246 489.75C845.638 489.75 844.888 488.347 844.888 486.67C844.888 485 845.638 483.58 847.246 483.58C848.842 483.58 849.592 485 849.592 486.67C849.592 488.347 848.842 489.75 847.246 489.75ZM854.903 485.818C854.903 484.426 855.756 483.631 856.938 483.631C858.091 483.631 858.79 484.386 858.79 485.653V491H860.489V485.449C860.489 483.29 859.301 482.159 857.517 482.159C856.205 482.159 855.347 482.767 854.943 483.693H854.835V482.273H853.205V491H854.903V485.818ZM866.528 491.176C868.432 491.176 869.778 490.239 870.165 488.818L868.557 488.528C868.25 489.352 867.511 489.773 866.545 489.773C865.091 489.773 864.114 488.83 864.068 487.148H870.273V486.545C870.273 483.392 868.386 482.159 866.409 482.159C863.977 482.159 862.375 484.011 862.375 486.693C862.375 489.403 863.955 491.176 866.528 491.176ZM864.074 485.875C864.142 484.636 865.04 483.562 866.42 483.562C867.739 483.562 868.602 484.54 868.608 485.875H864.074ZM873.857 485.818C873.857 484.426 874.709 483.631 875.891 483.631C877.044 483.631 877.743 484.386 877.743 485.653V491H879.442V485.449C879.442 483.29 878.254 482.159 876.47 482.159C875.158 482.159 874.3 482.767 873.896 483.693H873.788V482.273H872.158V491H873.857V485.818ZM885.794 482.273H884.004V480.182H882.305V482.273H881.027V483.636H882.305V488.79C882.3 490.375 883.51 491.142 884.851 491.114C885.391 491.108 885.754 491.006 885.953 490.932L885.646 489.528C885.533 489.551 885.322 489.602 885.05 489.602C884.499 489.602 884.004 489.42 884.004 488.438V483.636H885.794V482.273ZM894.072 484.403C893.72 483.045 892.658 482.159 890.771 482.159C888.8 482.159 887.402 483.199 887.402 484.744C887.402 485.983 888.152 486.807 889.788 487.17L891.266 487.494C892.107 487.682 892.499 488.057 892.499 488.602C892.499 489.278 891.777 489.807 890.663 489.807C889.646 489.807 888.993 489.369 888.788 488.511L887.146 488.761C887.43 490.307 888.714 491.176 890.675 491.176C892.783 491.176 894.243 490.057 894.243 488.477C894.243 487.244 893.459 486.483 891.857 486.114L890.47 485.795C889.51 485.568 889.095 485.244 889.101 484.653C889.095 483.983 889.822 483.506 890.788 483.506C891.845 483.506 892.334 484.091 892.533 484.676L894.072 484.403Z" fill="#242424"/>
<path d="M936.278 491H943.307V489.489H938.034V479.364H936.278V491ZM945.173 491H946.872V482.273H945.173V491ZM946.031 480.926C946.616 480.926 947.105 480.472 947.105 479.915C947.105 479.358 946.616 478.898 946.031 478.898C945.44 478.898 944.957 479.358 944.957 479.915C944.957 480.472 945.44 480.926 946.031 480.926ZM952.834 491.176C954.896 491.176 956.232 489.938 956.419 488.239H954.766C954.55 489.182 953.817 489.739 952.845 489.739C951.408 489.739 950.482 488.54 950.482 486.636C950.482 484.767 951.425 483.591 952.845 483.591C953.925 483.591 954.584 484.273 954.766 485.091H956.419C956.237 483.33 954.8 482.159 952.817 482.159C950.357 482.159 948.766 484.011 948.766 486.676C948.766 489.307 950.3 491.176 952.834 491.176ZM961.997 491.176C963.901 491.176 965.247 490.239 965.634 488.818L964.026 488.528C963.719 489.352 962.98 489.773 962.014 489.773C960.56 489.773 959.582 488.83 959.537 487.148H965.741V486.545C965.741 483.392 963.855 482.159 961.878 482.159C959.446 482.159 957.844 484.011 957.844 486.693C957.844 489.403 959.423 491.176 961.997 491.176ZM959.543 485.875C959.611 484.636 960.509 483.562 961.889 483.562C963.207 483.562 964.071 484.54 964.077 485.875H959.543ZM969.325 485.818C969.325 484.426 970.178 483.631 971.359 483.631C972.513 483.631 973.212 484.386 973.212 485.653V491H974.911V485.449C974.911 483.29 973.723 482.159 971.939 482.159C970.626 482.159 969.768 482.767 969.365 483.693H969.257V482.273H967.626V491H969.325V485.818ZM983.729 484.403C983.376 483.045 982.314 482.159 980.428 482.159C978.456 482.159 977.058 483.199 977.058 484.744C977.058 485.983 977.808 486.807 979.445 487.17L980.922 487.494C981.763 487.682 982.155 488.057 982.155 488.602C982.155 489.278 981.433 489.807 980.32 489.807C979.303 489.807 978.649 489.369 978.445 488.511L976.803 488.761C977.087 490.307 978.371 491.176 980.331 491.176C982.439 491.176 983.899 490.057 983.899 488.477C983.899 487.244 983.115 486.483 981.513 486.114L980.126 485.795C979.166 485.568 978.751 485.244 978.757 484.653C978.751 483.983 979.479 483.506 980.445 483.506C981.501 483.506 981.99 484.091 982.189 484.676L983.729 484.403ZM989.528 491.176C991.432 491.176 992.778 490.239 993.165 488.818L991.557 488.528C991.25 489.352 990.511 489.773 989.545 489.773C988.091 489.773 987.114 488.83 987.068 487.148H993.273V486.545C993.273 483.392 991.386 482.159 989.409 482.159C986.977 482.159 985.375 484.011 985.375 486.693C985.375 489.403 986.955 491.176 989.528 491.176ZM987.074 485.875C987.142 484.636 988.04 483.562 989.42 483.562C990.739 483.562 991.602 484.54 991.608 485.875H987.074Z" fill="#242424"/>
<path d="M1311 469C1311 467.343 1312.34 466 1314 466H1426C1427.66 466 1429 467.343 1429 469V502C1429 503.657 1427.66 505 1426 505H1314C1312.34 505 1311 503.657 1311 502V469Z" fill="#6B9EFF"/>
<path d="M1335.15 483.04H1336.95C1336.56 480.773 1334.62 479.205 1332.11 479.205C1329.1 479.205 1326.9 481.472 1326.9 485.188C1326.9 488.869 1329.04 491.159 1332.19 491.159C1335.02 491.159 1337.03 489.307 1337.03 486.369V485.045H1332.46V486.494H1335.34C1335.3 488.369 1334.06 489.557 1332.19 489.557C1330.14 489.557 1328.65 488.006 1328.65 485.176C1328.65 482.358 1330.15 480.807 1332.12 480.807C1333.67 480.807 1334.72 481.659 1335.15 483.04ZM1342.89 491.176C1344.79 491.176 1346.14 490.239 1346.52 488.818L1344.92 488.528C1344.61 489.352 1343.87 489.773 1342.9 489.773C1341.45 489.773 1340.47 488.83 1340.43 487.148H1346.63V486.545C1346.63 483.392 1344.75 482.159 1342.77 482.159C1340.34 482.159 1338.73 484.011 1338.73 486.693C1338.73 489.403 1340.31 491.176 1342.89 491.176ZM1340.43 485.875C1340.5 484.636 1341.4 483.562 1342.78 483.562C1344.1 483.562 1344.96 484.54 1344.97 485.875H1340.43ZM1352.59 482.273H1350.8V480.182H1349.1V482.273H1347.82V483.636H1349.1V488.79C1349.1 490.375 1350.31 491.142 1351.65 491.114C1352.19 491.108 1352.55 491.006 1352.75 490.932L1352.44 489.528C1352.33 489.551 1352.12 489.602 1351.85 489.602C1351.3 489.602 1350.8 489.42 1350.8 488.438V483.636H1352.59V482.273ZM1365.24 484.403C1364.89 483.045 1363.83 482.159 1361.94 482.159C1359.97 482.159 1358.57 483.199 1358.57 484.744C1358.57 485.983 1359.32 486.807 1360.96 487.17L1362.44 487.494C1363.28 487.682 1363.67 488.057 1363.67 488.602C1363.67 489.278 1362.95 489.807 1361.84 489.807C1360.82 489.807 1360.16 489.369 1359.96 488.511L1358.32 488.761C1358.6 490.307 1359.89 491.176 1361.85 491.176C1363.95 491.176 1365.41 490.057 1365.41 488.477C1365.41 487.244 1364.63 486.483 1363.03 486.114L1361.64 485.795C1360.68 485.568 1360.27 485.244 1360.27 484.653C1360.27 483.983 1360.99 483.506 1361.96 483.506C1363.02 483.506 1363.51 484.091 1363.7 484.676L1365.24 484.403ZM1371.36 482.273H1369.57V480.182H1367.87V482.273H1366.59V483.636H1367.87V488.79C1367.86 490.375 1369.07 491.142 1370.41 491.114C1370.95 491.108 1371.32 491.006 1371.52 490.932L1371.21 489.528C1371.1 489.551 1370.88 489.602 1370.61 489.602C1370.06 489.602 1369.57 489.42 1369.57 488.438V483.636H1371.36V482.273ZM1375.78 491.193C1377.22 491.193 1378.03 490.46 1378.36 489.807H1378.42V491H1380.08V485.205C1380.08 482.665 1378.08 482.159 1376.7 482.159C1375.12 482.159 1373.66 482.795 1373.09 484.386L1374.69 484.75C1374.94 484.131 1375.58 483.534 1376.72 483.534C1377.82 483.534 1378.38 484.108 1378.38 485.097V485.136C1378.38 485.756 1377.74 485.744 1376.17 485.926C1374.52 486.119 1372.83 486.551 1372.83 488.534C1372.83 490.25 1374.12 491.193 1375.78 491.193ZM1376.14 489.83C1375.18 489.83 1374.49 489.398 1374.49 488.557C1374.49 487.648 1375.3 487.324 1376.28 487.193C1376.83 487.119 1378.14 486.972 1378.38 486.727V487.852C1378.38 488.886 1377.56 489.83 1376.14 489.83ZM1382.35 491H1384.04V485.67C1384.04 484.528 1384.92 483.705 1386.13 483.705C1386.48 483.705 1386.88 483.767 1387.02 483.807V482.182C1386.85 482.159 1386.51 482.142 1386.29 482.142C1385.27 482.142 1384.4 482.722 1384.08 483.659H1383.99V482.273H1382.35V491ZM1393.08 482.273H1391.29V480.182H1389.59V482.273H1388.31V483.636H1389.59V488.79C1389.58 490.375 1390.79 491.142 1392.13 491.114C1392.67 491.108 1393.04 491.006 1393.23 490.932L1392.93 489.528C1392.81 489.551 1392.6 489.602 1392.33 489.602C1391.78 489.602 1391.29 489.42 1391.29 488.438V483.636H1393.08V482.273ZM1398.62 491.176C1400.53 491.176 1401.87 490.239 1402.26 488.818L1400.65 488.528C1400.34 489.352 1399.61 489.773 1398.64 489.773C1397.18 489.773 1396.21 488.83 1396.16 487.148H1402.37V486.545C1402.37 483.392 1400.48 482.159 1398.5 482.159C1396.07 482.159 1394.47 484.011 1394.47 486.693C1394.47 489.403 1396.05 491.176 1398.62 491.176ZM1396.17 485.875C1396.24 484.636 1397.13 483.562 1398.51 483.562C1399.83 483.562 1400.7 484.54 1400.7 485.875H1396.17ZM1407.52 491.17C1409.11 491.17 1409.73 490.199 1410.04 489.642H1410.18V491H1411.84V479.364H1410.14V483.688H1410.04C1409.73 483.148 1409.15 482.159 1407.53 482.159C1405.42 482.159 1403.87 483.824 1403.87 486.653C1403.87 489.477 1405.4 491.17 1407.52 491.17ZM1407.89 489.722C1406.38 489.722 1405.59 488.386 1405.59 486.636C1405.59 484.903 1406.36 483.602 1407.89 483.602C1409.38 483.602 1410.17 484.812 1410.17 486.636C1410.17 488.472 1409.36 489.722 1407.89 489.722Z" fill="white"/>
<path d="M150.291 478.909V492H152.567V482.987H152.688L156.306 491.962H158.006L161.624 483.006H161.746V492H164.021V478.909H161.119L157.233 488.395H157.08L153.193 478.909H150.291ZM170.848 492.192C173.136 492.192 174.709 491.073 175.118 489.366L172.957 489.124C172.644 489.955 171.877 490.389 170.88 490.389C169.384 490.389 168.393 489.405 168.374 487.724H175.214V487.014C175.214 483.569 173.143 482.054 170.727 482.054C167.914 482.054 166.08 484.119 166.08 487.148C166.08 490.229 167.888 492.192 170.848 492.192ZM168.381 486.164C168.451 484.911 169.378 483.857 170.759 483.857C172.088 483.857 172.983 484.828 172.996 486.164H168.381ZM179.485 486.247C179.485 484.828 180.342 484.01 181.563 484.01C182.758 484.01 183.474 484.796 183.474 486.107V492H185.788V485.749C185.794 483.396 184.452 482.054 182.426 482.054C180.955 482.054 179.945 482.757 179.498 483.85H179.383V482.182H177.171V492H179.485V486.247ZM194.398 487.871C194.398 489.366 193.33 490.108 192.308 490.108C191.195 490.108 190.454 489.322 190.454 488.075V482.182H188.14V488.433C188.14 490.792 189.482 492.128 191.413 492.128C192.883 492.128 193.919 491.354 194.366 490.255H194.468V492H196.712V482.182H194.398V487.871ZM203.658 492H206.03V488.101L207.481 486.388L211.386 492H214.237L209.13 484.783L214.192 478.909H211.297L206.19 484.924H206.03V478.909H203.658V492ZM216.353 492H218.667V482.182H216.353V492ZM217.516 480.788C218.251 480.788 218.852 480.226 218.852 479.536C218.852 478.839 218.251 478.276 217.516 478.276C216.775 478.276 216.174 478.839 216.174 479.536C216.174 480.226 216.775 480.788 217.516 480.788ZM225.949 482.182H224.012V479.83H221.698V482.182H220.305V483.972H221.698V489.43C221.686 491.278 223.028 492.185 224.767 492.134C225.425 492.115 225.879 491.987 226.128 491.904L225.738 490.095C225.61 490.127 225.348 490.185 225.061 490.185C224.479 490.185 224.012 489.98 224.012 489.047V483.972H225.949V482.182Z" fill="#474F5B"/>
</svg>
