<svg width="24" height="20" viewBox="0 0 24 20" fill="none" xmlns="http://www.w3.org/2000/svg">
<g clip-path="url(#clip0)">
<path d="M24 2.3859C23.117 2.77752 22.168 3.0422 21.172 3.16124C22.1886 2.55182 22.9693 1.58687 23.3369 0.437127C22.3856 1.00133 21.3318 1.41112 20.2102 1.63199C19.312 0.675029 18.0323 0.0770264 16.6162 0.0770264C13.8968 0.0770264 11.6921 2.28161 11.6921 5.00081C11.6921 5.38672 11.7358 5.76253 11.8197 6.1229C7.72742 5.91756 4.09929 3.95729 1.67076 0.978332C1.24692 1.70556 1.0041 2.55138 1.0041 3.45374C1.0041 5.16198 1.87346 6.6691 3.19465 7.55206C2.38745 7.52652 1.62827 7.30503 0.964337 6.93624C0.963986 6.95678 0.963986 6.97741 0.963986 6.99813C0.963986 9.38382 2.66125 11.3739 4.91377 11.8262C4.50056 11.9388 4.06558 11.9989 3.61646 11.9989C3.2992 11.9989 2.99072 11.9681 2.69013 11.9106C3.31667 13.8668 5.13508 15.2904 7.28972 15.3301C5.60456 16.6507 3.48144 17.4379 1.17459 17.4379C0.777175 17.4379 0.385208 17.4146 0 17.3692C2.17904 18.7662 4.76726 19.5813 7.5479 19.5813C16.6047 19.5813 21.5572 12.0784 21.5572 5.57177C21.5572 5.35827 21.5525 5.14592 21.543 4.93479C22.505 4.24057 23.3398 3.37333 24 2.3859Z" fill="#55ACEE"/>
</g>
<defs>
<clipPath id="clip0">
<rect width="24" height="19.5938" fill="white"/>
</clipPath>
</defs>
</svg>
