<svg width="1578" height="969" viewBox="0 0 1578 969" fill="none" xmlns="http://www.w3.org/2000/svg">
<rect width="1578" height="969" fill="#D9E6FF"/>
<rect width="1440" height="84" transform="translate(69 315)" fill="white"/>
<path d="M1006.15 355.04H1007.95C1007.56 352.773 1005.62 351.205 1003.11 351.205C1000.1 351.205 997.903 353.472 997.903 357.188C997.903 360.869 1000.04 363.159 1003.19 363.159C1006.02 363.159 1008.03 361.307 1008.03 358.369V357.045H1003.46V358.494H1006.34C1006.3 360.369 1005.06 361.557 1003.19 361.557C1001.14 361.557 999.648 360.006 999.648 357.176C999.648 354.358 1001.15 352.807 1003.12 352.807C1004.67 352.807 1005.72 353.659 1006.15 355.04ZM1015.65 359.381C1015.66 360.864 1014.56 361.568 1013.6 361.568C1012.55 361.568 1011.83 360.807 1011.83 359.619V354.273H1010.13V359.824C1010.13 361.989 1011.31 363.114 1012.99 363.114C1014.3 363.114 1015.19 362.42 1015.6 361.489H1015.69V363H1017.36V354.273H1015.65V359.381ZM1019.64 363H1021.34V354.273H1019.64V363ZM1020.5 352.926C1021.09 352.926 1021.57 352.472 1021.57 351.915C1021.57 351.358 1021.09 350.898 1020.5 350.898C1019.91 350.898 1019.43 351.358 1019.43 351.915C1019.43 352.472 1019.91 352.926 1020.5 352.926ZM1026.89 363.17C1028.48 363.17 1029.11 362.199 1029.42 361.642H1029.56V363H1031.22V351.364H1029.52V355.688H1029.42C1029.11 355.148 1028.53 354.159 1026.9 354.159C1024.8 354.159 1023.25 355.824 1023.25 358.653C1023.25 361.477 1024.77 363.17 1026.89 363.17ZM1027.27 361.722C1025.75 361.722 1024.96 360.386 1024.96 358.636C1024.96 356.903 1025.73 355.602 1027.27 355.602C1028.75 355.602 1029.55 356.812 1029.55 358.636C1029.55 360.472 1028.73 361.722 1027.27 361.722ZM1037.4 363.176C1039.31 363.176 1040.65 362.239 1041.04 360.818L1039.43 360.528C1039.12 361.352 1038.39 361.773 1037.42 361.773C1035.97 361.773 1034.99 360.83 1034.94 359.148H1041.15V358.545C1041.15 355.392 1039.26 354.159 1037.28 354.159C1034.85 354.159 1033.25 356.011 1033.25 358.693C1033.25 361.403 1034.83 363.176 1037.4 363.176ZM1034.95 357.875C1035.02 356.636 1035.91 355.562 1037.3 355.562C1038.61 355.562 1039.48 356.54 1039.48 357.875H1034.95Z" fill="#242424"/>
<path d="M1087.05 363C1090.59 363 1092.64 360.801 1092.64 357.165C1092.64 353.545 1090.59 351.364 1087.16 351.364H1083.28V363H1087.05ZM1085.03 361.466V352.898H1087.06C1089.6 352.898 1090.91 354.42 1090.91 357.165C1090.91 359.92 1089.6 361.466 1086.95 361.466H1085.03ZM1098.37 363.176C1100.83 363.176 1102.43 361.375 1102.43 358.676C1102.43 355.96 1100.83 354.159 1098.37 354.159C1095.9 354.159 1094.3 355.96 1094.3 358.676C1094.3 361.375 1095.9 363.176 1098.37 363.176ZM1098.37 361.75C1096.76 361.75 1096.01 360.347 1096.01 358.67C1096.01 357 1096.76 355.58 1098.37 355.58C1099.97 355.58 1100.72 357 1100.72 358.67C1100.72 360.347 1099.97 361.75 1098.37 361.75ZM1108.01 363.176C1110.07 363.176 1111.4 361.938 1111.59 360.239H1109.94C1109.72 361.182 1108.99 361.739 1108.02 361.739C1106.58 361.739 1105.65 360.54 1105.65 358.636C1105.65 356.767 1106.6 355.591 1108.02 355.591C1109.1 355.591 1109.76 356.273 1109.94 357.091H1111.59C1111.41 355.33 1109.97 354.159 1107.99 354.159C1105.53 354.159 1103.94 356.011 1103.94 358.676C1103.94 361.307 1105.47 363.176 1108.01 363.176ZM1118.94 359.381C1118.94 360.864 1117.84 361.568 1116.88 361.568C1115.83 361.568 1115.11 360.807 1115.11 359.619V354.273H1113.41V359.824C1113.41 361.989 1114.6 363.114 1116.27 363.114C1117.58 363.114 1118.48 362.42 1118.88 361.489H1118.97V363H1120.64V354.273H1118.94V359.381ZM1122.92 363H1124.62V357.619C1124.62 356.443 1125.45 355.625 1126.41 355.625C1127.36 355.625 1128.01 356.25 1128.01 357.199V363H1129.7V357.438C1129.7 356.386 1130.34 355.625 1131.45 355.625C1132.35 355.625 1133.09 356.125 1133.09 357.307V363H1134.79V357.148C1134.79 355.153 1133.67 354.159 1132.09 354.159C1130.84 354.159 1129.89 354.761 1129.47 355.693H1129.38C1129 354.739 1128.2 354.159 1127.04 354.159C1125.88 354.159 1125.03 354.733 1124.66 355.693H1124.55V354.273H1122.92V363ZM1140.83 363.176C1142.73 363.176 1144.08 362.239 1144.46 360.818L1142.85 360.528C1142.55 361.352 1141.81 361.773 1140.84 361.773C1139.39 361.773 1138.41 360.83 1138.37 359.148H1144.57V358.545C1144.57 355.392 1142.68 354.159 1140.71 354.159C1138.27 354.159 1136.67 356.011 1136.67 358.693C1136.67 361.403 1138.25 363.176 1140.83 363.176ZM1138.37 357.875C1138.44 356.636 1139.34 355.562 1140.72 355.562C1142.04 355.562 1142.9 356.54 1142.9 357.875H1138.37ZM1148.15 357.818C1148.15 356.426 1149.01 355.631 1150.19 355.631C1151.34 355.631 1152.04 356.386 1152.04 357.653V363H1153.74V357.449C1153.74 355.29 1152.55 354.159 1150.77 354.159C1149.45 354.159 1148.6 354.767 1148.19 355.693H1148.09V354.273H1146.45V363H1148.15V357.818ZM1160.09 354.273H1158.3V352.182H1156.6V354.273H1155.32V355.636H1156.6V360.79C1156.6 362.375 1157.81 363.142 1159.15 363.114C1159.69 363.108 1160.05 363.006 1160.25 362.932L1159.94 361.528C1159.83 361.551 1159.62 361.602 1159.35 361.602C1158.8 361.602 1158.3 361.42 1158.3 360.438V355.636H1160.09V354.273ZM1168.37 356.403C1168.02 355.045 1166.95 354.159 1165.07 354.159C1163.1 354.159 1161.7 355.199 1161.7 356.744C1161.7 357.983 1162.45 358.807 1164.09 359.17L1165.56 359.494C1166.4 359.682 1166.8 360.057 1166.8 360.602C1166.8 361.278 1166.07 361.807 1164.96 361.807C1163.94 361.807 1163.29 361.369 1163.09 360.511L1161.44 360.761C1161.73 362.307 1163.01 363.176 1164.97 363.176C1167.08 363.176 1168.54 362.057 1168.54 360.477C1168.54 359.244 1167.76 358.483 1166.15 358.114L1164.77 357.795C1163.81 357.568 1163.39 357.244 1163.4 356.653C1163.39 355.983 1164.12 355.506 1165.09 355.506C1166.14 355.506 1166.63 356.091 1166.83 356.676L1168.37 356.403Z" fill="#242424"/>
<path d="M1220.94 355.148C1220.55 352.659 1218.6 351.205 1216.14 351.205C1213.12 351.205 1210.9 353.46 1210.9 357.182C1210.9 360.903 1213.11 363.159 1216.14 363.159C1218.69 363.159 1220.56 361.557 1220.94 359.256L1219.17 359.25C1218.87 360.739 1217.62 361.557 1216.15 361.557C1214.15 361.557 1212.65 360.028 1212.65 357.182C1212.65 354.358 1214.15 352.807 1216.15 352.807C1217.64 352.807 1218.88 353.642 1219.17 355.148H1220.94ZM1226.58 363.176C1229.04 363.176 1230.65 361.375 1230.65 358.676C1230.65 355.96 1229.04 354.159 1226.58 354.159C1224.12 354.159 1222.52 355.96 1222.52 358.676C1222.52 361.375 1224.12 363.176 1226.58 363.176ZM1226.59 361.75C1224.98 361.75 1224.23 360.347 1224.23 358.67C1224.23 357 1224.98 355.58 1226.59 355.58C1228.19 355.58 1228.94 357 1228.94 358.67C1228.94 360.347 1228.19 361.75 1226.59 361.75ZM1232.55 363H1234.25V357.619C1234.25 356.443 1235.07 355.625 1236.04 355.625C1236.98 355.625 1237.63 356.25 1237.63 357.199V363H1239.33V357.438C1239.33 356.386 1239.97 355.625 1241.08 355.625C1241.97 355.625 1242.71 356.125 1242.71 357.307V363H1244.41V357.148C1244.41 355.153 1243.3 354.159 1241.72 354.159C1240.46 354.159 1239.52 354.761 1239.1 355.693H1239.01C1238.63 354.739 1237.83 354.159 1236.66 354.159C1235.51 354.159 1234.65 354.733 1234.29 355.693H1234.18V354.273H1232.55V363ZM1246.69 366.273H1248.39V361.642H1248.49C1248.8 362.199 1249.42 363.17 1251.01 363.17C1253.13 363.17 1254.66 361.477 1254.66 358.653C1254.66 355.824 1253.1 354.159 1251 354.159C1249.38 354.159 1248.79 355.148 1248.49 355.688H1248.35V354.273H1246.69V366.273ZM1248.35 358.636C1248.35 356.812 1249.15 355.602 1250.63 355.602C1252.17 355.602 1252.94 356.903 1252.94 358.636C1252.94 360.386 1252.15 361.722 1250.63 361.722C1249.17 361.722 1248.35 360.472 1248.35 358.636ZM1260.24 363.176C1262.7 363.176 1264.31 361.375 1264.31 358.676C1264.31 355.96 1262.7 354.159 1260.24 354.159C1257.78 354.159 1256.17 355.96 1256.17 358.676C1256.17 361.375 1257.78 363.176 1260.24 363.176ZM1260.25 361.75C1258.64 361.75 1257.89 360.347 1257.89 358.67C1257.89 357 1258.64 355.58 1260.25 355.58C1261.84 355.58 1262.59 357 1262.59 358.67C1262.59 360.347 1261.84 361.75 1260.25 361.75ZM1267.9 357.818C1267.9 356.426 1268.76 355.631 1269.94 355.631C1271.09 355.631 1271.79 356.386 1271.79 357.653V363H1273.49V357.449C1273.49 355.29 1272.3 354.159 1270.52 354.159C1269.2 354.159 1268.35 354.767 1267.94 355.693H1267.84V354.273H1266.2V363H1267.9V357.818ZM1279.53 363.176C1281.43 363.176 1282.78 362.239 1283.16 360.818L1281.56 360.528C1281.25 361.352 1280.51 361.773 1279.55 361.773C1278.09 361.773 1277.11 360.83 1277.07 359.148H1283.27V358.545C1283.27 355.392 1281.39 354.159 1279.41 354.159C1276.98 354.159 1275.38 356.011 1275.38 358.693C1275.38 361.403 1276.95 363.176 1279.53 363.176ZM1277.07 357.875C1277.14 356.636 1278.04 355.562 1279.42 355.562C1280.74 355.562 1281.6 356.54 1281.61 357.875H1277.07ZM1286.86 357.818C1286.86 356.426 1287.71 355.631 1288.89 355.631C1290.04 355.631 1290.74 356.386 1290.74 357.653V363H1292.44V357.449C1292.44 355.29 1291.25 354.159 1289.47 354.159C1288.16 354.159 1287.3 354.767 1286.9 355.693H1286.79V354.273H1285.16V363H1286.86V357.818ZM1298.79 354.273H1297V352.182H1295.31V354.273H1294.03V355.636H1295.31V360.79C1295.3 362.375 1296.51 363.142 1297.85 363.114C1298.39 363.108 1298.75 363.006 1298.95 362.932L1298.65 361.528C1298.53 361.551 1298.32 361.602 1298.05 361.602C1297.5 361.602 1297 361.42 1297 360.438V355.636H1298.79V354.273ZM1307.07 356.403C1306.72 355.045 1305.66 354.159 1303.77 354.159C1301.8 354.159 1300.4 355.199 1300.4 356.744C1300.4 357.983 1301.15 358.807 1302.79 359.17L1304.27 359.494C1305.11 359.682 1305.5 360.057 1305.5 360.602C1305.5 361.278 1304.78 361.807 1303.66 361.807C1302.65 361.807 1301.99 361.369 1301.79 360.511L1300.15 360.761C1300.43 362.307 1301.71 363.176 1303.67 363.176C1305.78 363.176 1307.24 362.057 1307.24 360.477C1307.24 359.244 1306.46 358.483 1304.86 358.114L1303.47 357.795C1302.51 357.568 1302.1 357.244 1302.1 356.653C1302.1 355.983 1302.82 355.506 1303.79 355.506C1304.85 355.506 1305.33 356.091 1305.53 356.676L1307.07 356.403Z" fill="#242424"/>
<path d="M1325 360L1321 356L1317 360" stroke="#9C9C9C" stroke-linecap="round" stroke-linejoin="round"/>
<path d="M1370.28 363H1377.31V361.489H1372.03V351.364H1370.28V363ZM1379.17 363H1380.87V354.273H1379.17V363ZM1380.03 352.926C1380.62 352.926 1381.11 352.472 1381.11 351.915C1381.11 351.358 1380.62 350.898 1380.03 350.898C1379.44 350.898 1378.96 351.358 1378.96 351.915C1378.96 352.472 1379.44 352.926 1380.03 352.926ZM1386.83 363.176C1388.9 363.176 1390.23 361.938 1390.42 360.239H1388.77C1388.55 361.182 1387.82 361.739 1386.85 361.739C1385.41 361.739 1384.48 360.54 1384.48 358.636C1384.48 356.767 1385.42 355.591 1386.85 355.591C1387.92 355.591 1388.58 356.273 1388.77 357.091H1390.42C1390.24 355.33 1388.8 354.159 1386.82 354.159C1384.36 354.159 1382.77 356.011 1382.77 358.676C1382.77 361.307 1384.3 363.176 1386.83 363.176ZM1396 363.176C1397.9 363.176 1399.25 362.239 1399.63 360.818L1398.03 360.528C1397.72 361.352 1396.98 361.773 1396.01 361.773C1394.56 361.773 1393.58 360.83 1393.54 359.148H1399.74V358.545C1399.74 355.392 1397.86 354.159 1395.88 354.159C1393.45 354.159 1391.84 356.011 1391.84 358.693C1391.84 361.403 1393.42 363.176 1396 363.176ZM1393.54 357.875C1393.61 356.636 1394.51 355.562 1395.89 355.562C1397.21 355.562 1398.07 356.54 1398.08 357.875H1393.54ZM1403.33 357.818C1403.33 356.426 1404.18 355.631 1405.36 355.631C1406.51 355.631 1407.21 356.386 1407.21 357.653V363H1408.91V357.449C1408.91 355.29 1407.72 354.159 1405.94 354.159C1404.63 354.159 1403.77 354.767 1403.37 355.693H1403.26V354.273H1401.63V363H1403.33V357.818ZM1417.73 356.403C1417.38 355.045 1416.31 354.159 1414.43 354.159C1412.46 354.159 1411.06 355.199 1411.06 356.744C1411.06 357.983 1411.81 358.807 1413.44 359.17L1414.92 359.494C1415.76 359.682 1416.15 360.057 1416.15 360.602C1416.15 361.278 1415.43 361.807 1414.32 361.807C1413.3 361.807 1412.65 361.369 1412.44 360.511L1410.8 360.761C1411.09 362.307 1412.37 363.176 1414.33 363.176C1416.44 363.176 1417.9 362.057 1417.9 360.477C1417.9 359.244 1417.12 358.483 1415.51 358.114L1414.13 357.795C1413.17 357.568 1412.75 357.244 1412.76 356.653C1412.75 355.983 1413.48 355.506 1414.44 355.506C1415.5 355.506 1415.99 356.091 1416.19 356.676L1417.73 356.403ZM1423.53 363.176C1425.43 363.176 1426.78 362.239 1427.16 360.818L1425.56 360.528C1425.25 361.352 1424.51 361.773 1423.55 361.773C1422.09 361.773 1421.11 360.83 1421.07 359.148H1427.27V358.545C1427.27 355.392 1425.39 354.159 1423.41 354.159C1420.98 354.159 1419.38 356.011 1419.38 358.693C1419.38 361.403 1420.95 363.176 1423.53 363.176ZM1421.07 357.875C1421.14 356.636 1422.04 355.562 1423.42 355.562C1424.74 355.562 1425.6 356.54 1425.61 357.875H1421.07Z" fill="#242424"/>
<g filter="url(#filter0_d_278_5996)">
<rect x="683" y="409" width="686" height="256" rx="6" fill="white"/>
<line x1="857.5" y1="450" x2="857.5" y2="623" stroke="#EEF0FF"/>
<line x1="1032.5" y1="450" x2="1032.5" y2="623" stroke="#EEF0FF"/>
<line x1="1189.5" y1="450" x2="1189.5" y2="623" stroke="#EEF0FF"/>
<path d="M719.651 468L720.675 465.116H724.791L725.815 468H727.108L723.369 457.818H722.097L718.358 468H719.651ZM721.062 464.023L722.693 459.429H722.773L724.403 464.023H721.062ZM729.708 457.818H728.535V468H729.708V457.818ZM735.059 468.159C736.61 468.159 737.743 467.384 738.101 466.23L736.968 465.912C736.67 466.707 735.979 467.105 735.059 467.105C733.682 467.105 732.732 466.215 732.677 464.58H738.221V464.082C738.221 461.239 736.53 460.264 734.939 460.264C732.871 460.264 731.499 461.895 731.499 464.241C731.499 466.588 732.851 468.159 735.059 468.159ZM732.677 463.565C732.757 462.377 733.597 461.318 734.939 461.318C736.212 461.318 737.028 462.273 737.028 463.565H732.677ZM740.006 468H741.179V463.168C741.179 462.134 741.994 461.378 743.108 461.378C743.421 461.378 743.744 461.438 743.824 461.457V460.264C743.689 460.254 743.381 460.244 743.207 460.244C742.292 460.244 741.497 460.761 741.219 461.517H741.139V460.364H740.006V468ZM749.014 460.364H747.383V458.534H746.21V460.364H745.057V461.358H746.21V466.131C746.21 467.463 747.284 468.099 748.278 468.099C748.716 468.099 748.994 468.02 749.153 467.96L748.915 466.906C748.815 466.926 748.656 466.966 748.398 466.966C747.881 466.966 747.383 466.807 747.383 465.812V461.358H749.014V460.364ZM756.051 462.074C755.683 460.99 754.858 460.264 753.347 460.264C751.736 460.264 750.543 461.179 750.543 462.472C750.543 463.526 751.169 464.232 752.571 464.56L753.844 464.858C754.615 465.037 754.977 465.405 754.977 465.932C754.977 466.588 754.281 467.125 753.188 467.125C752.228 467.125 751.627 466.712 751.418 465.892L750.304 466.17C750.578 467.468 751.646 468.159 753.208 468.159C754.982 468.159 756.191 467.19 756.191 465.872C756.191 464.808 755.524 464.137 754.162 463.804L753.029 463.526C752.124 463.302 751.716 462.999 751.716 462.412C751.716 461.756 752.412 461.278 753.347 461.278C754.371 461.278 754.794 461.845 754.997 462.372L756.051 462.074Z" fill="#585858"/>
<path d="M719.651 505L720.675 502.116H724.791L725.815 505H727.108L723.369 494.818H722.097L718.358 505H719.651ZM721.062 501.023L722.693 496.429H722.773L724.403 501.023H721.062ZM731.637 505.159C733.327 505.159 734.441 504.125 734.64 502.773H733.467C733.248 503.608 732.552 504.105 731.637 504.105C730.245 504.105 729.35 502.952 729.35 501.182C729.35 499.452 730.265 498.318 731.637 498.318C732.671 498.318 733.288 498.955 733.467 499.651H734.64C734.441 498.219 733.228 497.264 731.617 497.264C729.549 497.264 728.177 498.895 728.177 501.222C728.177 503.509 729.489 505.159 731.637 505.159ZM739.457 505.159C741.148 505.159 742.261 504.125 742.46 502.773H741.287C741.068 503.608 740.372 504.105 739.457 504.105C738.065 504.105 737.17 502.952 737.17 501.182C737.17 499.452 738.085 498.318 739.457 498.318C740.491 498.318 741.108 498.955 741.287 499.651H742.46C742.261 498.219 741.048 497.264 739.438 497.264C737.369 497.264 735.997 498.895 735.997 501.222C735.997 503.509 737.31 505.159 739.457 505.159ZM747.278 505.159C749.346 505.159 750.738 503.588 750.738 501.222C750.738 498.835 749.346 497.264 747.278 497.264C745.21 497.264 743.817 498.835 743.817 501.222C743.817 503.588 745.21 505.159 747.278 505.159ZM747.278 504.105C745.707 504.105 744.991 502.753 744.991 501.222C744.991 499.69 745.707 498.318 747.278 498.318C748.849 498.318 749.565 499.69 749.565 501.222C749.565 502.753 748.849 504.105 747.278 504.105ZM752.529 505H753.702V500.168C753.702 499.134 754.518 498.378 755.631 498.378C755.944 498.378 756.268 498.438 756.347 498.457V497.264C756.213 497.254 755.905 497.244 755.731 497.244C754.816 497.244 754.02 497.761 753.742 498.517H753.662V497.364H752.529V505ZM760.389 505.159C761.861 505.159 762.358 504.244 762.616 503.827H762.756V505H763.889V494.818H762.716V498.577H762.616C762.358 498.179 761.9 497.264 760.409 497.264C758.48 497.264 757.148 498.795 757.148 501.202C757.148 503.628 758.48 505.159 760.389 505.159ZM760.548 504.105C759.077 504.105 758.321 502.812 758.321 501.182C758.321 499.571 759.057 498.318 760.548 498.318C761.98 498.318 762.736 499.472 762.736 501.182C762.736 502.912 761.96 504.105 760.548 504.105ZM766.201 505H767.374V497.364H766.201V505ZM766.797 496.091C767.255 496.091 767.633 495.733 767.633 495.295C767.633 494.858 767.255 494.5 766.797 494.5C766.34 494.5 765.962 494.858 765.962 495.295C765.962 495.733 766.34 496.091 766.797 496.091ZM770.696 500.406C770.696 499.074 771.522 498.318 772.645 498.318C773.734 498.318 774.395 499.029 774.395 500.227V505H775.569V500.148C775.569 498.199 774.529 497.264 772.983 497.264C771.83 497.264 771.114 497.781 770.756 498.557H770.657V497.364H769.523V505H770.696V500.406ZM780.795 508.023C782.624 508.023 784.096 507.188 784.096 505.219V497.364H782.963V498.577H782.843C782.585 498.179 782.107 497.264 780.616 497.264C778.687 497.264 777.355 498.795 777.355 501.142C777.355 503.528 778.747 504.881 780.596 504.881C782.088 504.881 782.565 504.006 782.823 503.588H782.923V505.139C782.923 506.412 782.028 506.989 780.795 506.989C779.408 506.989 778.921 506.258 778.607 505.835L777.673 506.491C778.15 507.292 779.09 508.023 780.795 508.023ZM780.755 503.827C779.284 503.827 778.528 502.713 778.528 501.122C778.528 499.571 779.264 498.318 780.755 498.318C782.187 498.318 782.943 499.472 782.943 501.122C782.943 502.812 782.167 503.827 780.755 503.827Z" fill="#585858"/>
<path d="M719.233 542H722.912C725.318 542 726.312 540.827 726.312 539.295C726.312 537.685 725.199 536.81 724.264 536.75V536.651C725.139 536.412 725.915 535.835 725.915 534.523C725.915 533.031 724.92 531.818 722.793 531.818H719.233V542ZM720.466 540.906V537.366H722.972C724.304 537.366 725.139 538.261 725.139 539.295C725.139 540.19 724.523 540.906 722.912 540.906H720.466ZM720.466 536.293V532.912H722.793C724.145 532.912 724.741 533.628 724.741 534.523C724.741 535.597 723.866 536.293 722.753 536.293H720.466ZM732.992 538.878C732.992 540.31 731.898 540.966 731.023 540.966C730.049 540.966 729.353 540.25 729.353 539.136V534.364H728.179V539.216C728.179 541.165 729.213 542.099 730.645 542.099C731.799 542.099 732.554 541.483 732.912 540.707H732.992V542H734.165V534.364H732.992V538.878ZM739.635 534.364H738.004V532.534H736.831V534.364H735.678V535.358H736.831V540.131C736.831 541.463 737.905 542.099 738.899 542.099C739.337 542.099 739.615 542.02 739.774 541.96L739.536 540.906C739.436 540.926 739.277 540.966 739.019 540.966C738.502 540.966 738.004 540.807 738.004 539.812V535.358H739.635V534.364ZM744.721 534.364H743.09V532.534H741.917V534.364H740.764V535.358H741.917V540.131C741.917 541.463 742.991 542.099 743.985 542.099C744.423 542.099 744.701 542.02 744.86 541.96L744.622 540.906C744.522 540.926 744.363 540.966 744.105 540.966C743.588 540.966 743.09 540.807 743.09 539.812V535.358H744.721V534.364ZM749.506 542.159C751.574 542.159 752.966 540.588 752.966 538.222C752.966 535.835 751.574 534.264 749.506 534.264C747.438 534.264 746.046 535.835 746.046 538.222C746.046 540.588 747.438 542.159 749.506 542.159ZM749.506 541.105C747.935 541.105 747.219 539.753 747.219 538.222C747.219 536.69 747.935 535.318 749.506 535.318C751.077 535.318 751.793 536.69 751.793 538.222C751.793 539.753 751.077 541.105 749.506 541.105ZM755.931 537.406C755.931 536.074 756.756 535.318 757.88 535.318C758.968 535.318 759.63 536.029 759.63 537.227V542H760.803V537.148C760.803 535.199 759.764 534.264 758.218 534.264C757.064 534.264 756.348 534.781 755.99 535.557H755.891V534.364H754.757V542H755.931V537.406ZM768.356 536.074C767.988 534.99 767.163 534.264 765.651 534.264C764.041 534.264 762.847 535.179 762.847 536.472C762.847 537.526 763.474 538.232 764.876 538.56L766.149 538.858C766.919 539.037 767.282 539.405 767.282 539.932C767.282 540.588 766.586 541.125 765.492 541.125C764.533 541.125 763.931 540.712 763.722 539.892L762.609 540.17C762.882 541.468 763.951 542.159 765.512 542.159C767.287 542.159 768.495 541.19 768.495 539.872C768.495 538.808 767.829 538.137 766.467 537.804L765.333 537.526C764.428 537.302 764.021 536.999 764.021 536.412C764.021 535.756 764.717 535.278 765.651 535.278C766.676 535.278 767.098 535.845 767.302 536.372L768.356 536.074Z" fill="#585858"/>
<path d="M719.233 579H722.912C725.318 579 726.312 577.827 726.312 576.295C726.312 574.685 725.199 573.81 724.264 573.75V573.651C725.139 573.412 725.915 572.835 725.915 571.523C725.915 570.031 724.92 568.818 722.793 568.818H719.233V579ZM720.466 577.906V574.366H722.972C724.304 574.366 725.139 575.261 725.139 576.295C725.139 577.19 724.523 577.906 722.912 577.906H720.466ZM720.466 573.293V569.912H722.793C724.145 569.912 724.741 570.628 724.741 571.523C724.741 572.597 723.866 573.293 722.753 573.293H720.466ZM732.992 575.878C732.992 577.31 731.898 577.966 731.023 577.966C730.049 577.966 729.353 577.25 729.353 576.136V571.364H728.179V576.216C728.179 578.165 729.213 579.099 730.645 579.099C731.799 579.099 732.554 578.483 732.912 577.707H732.992V579H734.165V571.364H732.992V575.878ZM739.635 571.364H738.004V569.534H736.831V571.364H735.678V572.358H736.831V577.131C736.831 578.463 737.905 579.099 738.899 579.099C739.337 579.099 739.615 579.02 739.774 578.96L739.536 577.906C739.436 577.926 739.277 577.966 739.019 577.966C738.502 577.966 738.004 577.807 738.004 576.812V572.358H739.635V571.364ZM744.721 571.364H743.09V569.534H741.917V571.364H740.764V572.358H741.917V577.131C741.917 578.463 742.991 579.099 743.985 579.099C744.423 579.099 744.701 579.02 744.86 578.96L744.622 577.906C744.522 577.926 744.363 577.966 744.105 577.966C743.588 577.966 743.09 577.807 743.09 576.812V572.358H744.721V571.364ZM749.506 579.159C751.574 579.159 752.966 577.588 752.966 575.222C752.966 572.835 751.574 571.264 749.506 571.264C747.438 571.264 746.046 572.835 746.046 575.222C746.046 577.588 747.438 579.159 749.506 579.159ZM749.506 578.105C747.935 578.105 747.219 576.753 747.219 575.222C747.219 573.69 747.935 572.318 749.506 572.318C751.077 572.318 751.793 573.69 751.793 575.222C751.793 576.753 751.077 578.105 749.506 578.105ZM755.931 574.406C755.931 573.074 756.756 572.318 757.88 572.318C758.968 572.318 759.63 573.029 759.63 574.227V579H760.803V574.148C760.803 572.199 759.764 571.264 758.218 571.264C757.064 571.264 756.348 571.781 755.99 572.557H755.891V571.364H754.757V579H755.931V574.406ZM769.967 582.023C771.796 582.023 773.268 581.188 773.268 579.219V571.364H772.134V572.577H772.015C771.757 572.179 771.279 571.264 769.788 571.264C767.859 571.264 766.526 572.795 766.526 575.142C766.526 577.528 767.919 578.881 769.768 578.881C771.259 578.881 771.737 578.006 771.995 577.588H772.095V579.139C772.095 580.412 771.2 580.989 769.967 580.989C768.58 580.989 768.093 580.258 767.779 579.835L766.845 580.491C767.322 581.292 768.262 582.023 769.967 582.023ZM769.927 577.827C768.455 577.827 767.7 576.713 767.7 575.122C767.7 573.571 768.436 572.318 769.927 572.318C771.359 572.318 772.115 573.472 772.115 575.122C772.115 576.812 771.339 577.827 769.927 577.827ZM775.416 579H776.589V574.168C776.589 573.134 777.404 572.378 778.518 572.378C778.831 572.378 779.154 572.438 779.234 572.457V571.264C779.1 571.254 778.791 571.244 778.617 571.244C777.703 571.244 776.907 571.761 776.629 572.517H776.549V571.364H775.416V579ZM783.494 579.159C785.563 579.159 786.955 577.588 786.955 575.222C786.955 572.835 785.563 571.264 783.494 571.264C781.426 571.264 780.034 572.835 780.034 575.222C780.034 577.588 781.426 579.159 783.494 579.159ZM783.494 578.105C781.923 578.105 781.208 576.753 781.208 575.222C781.208 573.69 781.923 572.318 783.494 572.318C785.066 572.318 785.781 573.69 785.781 575.222C785.781 576.753 785.066 578.105 783.494 578.105ZM793.558 575.878C793.558 577.31 792.464 577.966 791.589 577.966C790.615 577.966 789.919 577.25 789.919 576.136V571.364H788.746V576.216C788.746 578.165 789.78 579.099 791.212 579.099C792.365 579.099 793.121 578.483 793.479 577.707H793.558V579H794.732V571.364H793.558V575.878ZM796.881 581.864H798.054V577.827H798.153C798.412 578.244 798.909 579.159 800.381 579.159C802.29 579.159 803.622 577.628 803.622 575.202C803.622 572.795 802.29 571.264 800.361 571.264C798.869 571.264 798.412 572.179 798.153 572.577H798.014V571.364H796.881V581.864ZM798.034 575.182C798.034 573.472 798.79 572.318 800.221 572.318C801.713 572.318 802.449 573.571 802.449 575.182C802.449 576.812 801.693 578.105 800.221 578.105C798.809 578.105 798.034 576.912 798.034 575.182ZM810.821 573.074C810.453 571.99 809.628 571.264 808.116 571.264C806.506 571.264 805.312 572.179 805.312 573.472C805.312 574.526 805.939 575.232 807.341 575.56L808.613 575.858C809.384 576.037 809.747 576.405 809.747 576.932C809.747 577.588 809.051 578.125 807.957 578.125C806.998 578.125 806.396 577.712 806.187 576.892L805.074 577.17C805.347 578.468 806.416 579.159 807.977 579.159C809.752 579.159 810.96 578.19 810.96 576.872C810.96 575.808 810.294 575.137 808.932 574.804L807.798 574.526C806.893 574.302 806.486 573.999 806.486 573.412C806.486 572.756 807.182 572.278 808.116 572.278C809.14 572.278 809.563 572.845 809.767 573.372L810.821 573.074Z" fill="#585858"/>
<path d="M719.233 616H722.912C725.318 616 726.312 614.827 726.312 613.295C726.312 611.685 725.199 610.81 724.264 610.75V610.651C725.139 610.412 725.915 609.835 725.915 608.523C725.915 607.031 724.92 605.818 722.793 605.818H719.233V616ZM720.466 614.906V611.366H722.972C724.304 611.366 725.139 612.261 725.139 613.295C725.139 614.19 724.523 614.906 722.912 614.906H720.466ZM720.466 610.293V606.912H722.793C724.145 606.912 724.741 607.628 724.741 608.523C724.741 609.597 723.866 610.293 722.753 610.293H720.466ZM730.426 616.179C731.759 616.179 732.455 615.463 732.694 614.966H732.753V616H733.926V610.969C733.926 608.543 732.077 608.264 731.103 608.264C729.949 608.264 728.637 608.662 728.04 610.054L729.154 610.452C729.412 609.895 730.024 609.298 731.142 609.298C732.221 609.298 732.753 609.87 732.753 610.849V610.889C732.753 611.456 732.176 611.406 730.784 611.585C729.368 611.769 727.821 612.082 727.821 613.832C727.821 615.324 728.975 616.179 730.426 616.179ZM730.605 615.125C729.671 615.125 728.995 614.707 728.995 613.892C728.995 612.997 729.81 612.719 730.725 612.599C731.222 612.54 732.554 612.401 732.753 612.162V613.236C732.753 614.19 731.998 615.125 730.605 615.125ZM738.952 616.159C740.423 616.159 740.92 615.244 741.179 614.827H741.318V616H742.452V605.818H741.278V609.577H741.179C740.92 609.179 740.463 608.264 738.971 608.264C737.042 608.264 735.71 609.795 735.71 612.202C735.71 614.628 737.042 616.159 738.952 616.159ZM739.111 615.105C737.639 615.105 736.883 613.812 736.883 612.182C736.883 610.571 737.619 609.318 739.111 609.318C740.542 609.318 741.298 610.472 741.298 612.182C741.298 613.912 740.523 615.105 739.111 615.105ZM747.846 619.023C749.675 619.023 751.147 618.188 751.147 616.219V608.364H750.013V609.577H749.894C749.635 609.179 749.158 608.264 747.667 608.264C745.738 608.264 744.405 609.795 744.405 612.142C744.405 614.528 745.797 615.881 747.647 615.881C749.138 615.881 749.616 615.006 749.874 614.588H749.974V616.139C749.974 617.412 749.079 617.989 747.846 617.989C746.459 617.989 745.971 617.258 745.658 616.835L744.724 617.491C745.201 618.292 746.14 619.023 747.846 619.023ZM747.806 614.827C746.334 614.827 745.579 613.713 745.579 612.122C745.579 610.571 746.314 609.318 747.806 609.318C749.238 609.318 749.993 610.472 749.993 612.122C749.993 613.812 749.218 614.827 747.806 614.827ZM756.496 616.159C758.047 616.159 759.181 615.384 759.539 614.23L758.405 613.912C758.107 614.707 757.416 615.105 756.496 615.105C755.119 615.105 754.17 614.215 754.115 612.58H759.658V612.082C759.658 609.239 757.968 608.264 756.377 608.264C754.309 608.264 752.937 609.895 752.937 612.241C752.937 614.588 754.289 616.159 756.496 616.159ZM754.115 611.565C754.194 610.377 755.035 609.318 756.377 609.318C757.65 609.318 758.465 610.273 758.465 611.565H754.115ZM766.852 610.074C766.484 608.99 765.659 608.264 764.148 608.264C762.537 608.264 761.344 609.179 761.344 610.472C761.344 611.526 761.97 612.232 763.372 612.56L764.645 612.858C765.415 613.037 765.778 613.405 765.778 613.932C765.778 614.588 765.082 615.125 763.988 615.125C763.029 615.125 762.427 614.712 762.219 613.892L761.105 614.17C761.378 615.468 762.447 616.159 764.008 616.159C765.783 616.159 766.991 615.19 766.991 613.872C766.991 612.808 766.325 612.137 764.963 611.804L763.829 611.526C762.925 611.302 762.517 610.999 762.517 610.412C762.517 609.756 763.213 609.278 764.148 609.278C765.172 609.278 765.594 609.845 765.798 610.372L766.852 610.074Z" fill="#585858"/>
<path d="M911.426 461C911.048 458.912 909.378 457.679 907.33 457.679C904.724 457.679 902.835 459.688 902.835 462.909C902.835 466.131 904.724 468.139 907.33 468.139C909.378 468.139 911.048 466.906 911.426 464.818H910.193C909.895 466.23 908.682 466.986 907.33 466.986C905.48 466.986 904.028 465.554 904.028 462.909C904.028 460.264 905.48 458.832 907.33 458.832C908.682 458.832 909.895 459.588 910.193 461H911.426ZM915.507 468.179C916.839 468.179 917.535 467.463 917.774 466.966H917.833V468H919.007V462.969C919.007 460.543 917.157 460.264 916.183 460.264C915.029 460.264 913.717 460.662 913.12 462.054L914.234 462.452C914.492 461.895 915.104 461.298 916.222 461.298C917.301 461.298 917.833 461.87 917.833 462.849V462.889C917.833 463.456 917.257 463.406 915.865 463.585C914.448 463.769 912.901 464.082 912.901 465.832C912.901 467.324 914.055 468.179 915.507 468.179ZM915.686 467.125C914.751 467.125 914.075 466.707 914.075 465.892C914.075 464.997 914.89 464.719 915.805 464.599C916.302 464.54 917.634 464.401 917.833 464.162V465.236C917.833 466.19 917.078 467.125 915.686 467.125ZM921.148 468H922.321V463.168C922.321 462.134 923.137 461.378 924.25 461.378C924.564 461.378 924.887 461.438 924.966 461.457V460.264C924.832 460.254 924.524 460.244 924.35 460.244C923.435 460.244 922.64 460.761 922.361 461.517H922.282V460.364H921.148V468ZM929.008 468.159C930.48 468.159 930.977 467.244 931.235 466.827H931.375V468H932.508V457.818H931.335V461.577H931.235C930.977 461.179 930.52 460.264 929.028 460.264C927.099 460.264 925.767 461.795 925.767 464.202C925.767 466.628 927.099 468.159 929.008 468.159ZM929.167 467.105C927.696 467.105 926.94 465.812 926.94 464.182C926.94 462.571 927.676 461.318 929.167 461.318C930.599 461.318 931.355 462.472 931.355 464.182C931.355 465.912 930.579 467.105 929.167 467.105Z" fill="#585858"/>
<path d="M911.426 498C911.048 495.912 909.378 494.679 907.33 494.679C904.724 494.679 902.835 496.688 902.835 499.909C902.835 503.131 904.724 505.139 907.33 505.139C909.378 505.139 911.048 503.906 911.426 501.818H910.193C909.895 503.23 908.682 503.986 907.33 503.986C905.48 503.986 904.028 502.554 904.028 499.909C904.028 497.264 905.48 495.832 907.33 495.832C908.682 495.832 909.895 496.588 910.193 498H911.426ZM915.507 505.179C916.839 505.179 917.535 504.463 917.774 503.966H917.833V505H919.007V499.969C919.007 497.543 917.157 497.264 916.183 497.264C915.029 497.264 913.717 497.662 913.12 499.054L914.234 499.452C914.492 498.895 915.104 498.298 916.222 498.298C917.301 498.298 917.833 498.87 917.833 499.849V499.889C917.833 500.456 917.257 500.406 915.865 500.585C914.448 500.769 912.901 501.082 912.901 502.832C912.901 504.324 914.055 505.179 915.507 505.179ZM915.686 504.125C914.751 504.125 914.075 503.707 914.075 502.892C914.075 501.997 914.89 501.719 915.805 501.599C916.302 501.54 917.634 501.401 917.833 501.162V502.236C917.833 503.19 917.078 504.125 915.686 504.125ZM921.148 505H922.321V500.168C922.321 499.134 923.137 498.378 924.25 498.378C924.564 498.378 924.887 498.438 924.966 498.457V497.264C924.832 497.254 924.524 497.244 924.35 497.244C923.435 497.244 922.64 497.761 922.361 498.517H922.282V497.364H921.148V505ZM929.227 505.159C931.295 505.159 932.687 503.588 932.687 501.222C932.687 498.835 931.295 497.264 929.227 497.264C927.159 497.264 925.767 498.835 925.767 501.222C925.767 503.588 927.159 505.159 929.227 505.159ZM929.227 504.105C927.656 504.105 926.94 502.753 926.94 501.222C926.94 499.69 927.656 498.318 929.227 498.318C930.798 498.318 931.514 499.69 931.514 501.222C931.514 502.753 930.798 504.105 929.227 504.105ZM939.291 501.878C939.291 503.31 938.197 503.966 937.322 503.966C936.347 503.966 935.651 503.25 935.651 502.136V497.364H934.478V502.216C934.478 504.165 935.512 505.099 936.944 505.099C938.097 505.099 938.853 504.483 939.211 503.707H939.291V505H940.464V497.364H939.291V501.878ZM948.022 499.074C947.654 497.99 946.829 497.264 945.317 497.264C943.707 497.264 942.513 498.179 942.513 499.472C942.513 500.526 943.14 501.232 944.542 501.56L945.815 501.858C946.585 502.037 946.948 502.405 946.948 502.932C946.948 503.588 946.252 504.125 945.158 504.125C944.199 504.125 943.597 503.712 943.388 502.892L942.275 503.17C942.548 504.468 943.617 505.159 945.178 505.159C946.953 505.159 948.161 504.19 948.161 502.872C948.161 501.808 947.495 501.137 946.133 500.804L944.999 500.526C944.094 500.302 943.687 499.999 943.687 499.412C943.687 498.756 944.383 498.278 945.317 498.278C946.342 498.278 946.764 498.845 946.968 499.372L948.022 499.074ZM953.129 505.159C954.68 505.159 955.814 504.384 956.172 503.23L955.038 502.912C954.74 503.707 954.049 504.105 953.129 504.105C951.752 504.105 950.802 503.215 950.748 501.58H956.291V501.082C956.291 498.239 954.601 497.264 953.01 497.264C950.942 497.264 949.569 498.895 949.569 501.241C949.569 503.588 950.922 505.159 953.129 505.159ZM950.748 500.565C950.827 499.377 951.667 498.318 953.01 498.318C954.282 498.318 955.098 499.273 955.098 500.565H950.748ZM959.249 494.818H958.076V505H959.249V494.818Z" fill="#585858"/>
<path d="M911.426 535C911.048 532.912 909.378 531.679 907.33 531.679C904.724 531.679 902.835 533.688 902.835 536.909C902.835 540.131 904.724 542.139 907.33 542.139C909.378 542.139 911.048 540.906 911.426 538.818H910.193C909.895 540.23 908.682 540.986 907.33 540.986C905.48 540.986 904.028 539.554 904.028 536.909C904.028 534.264 905.48 532.832 907.33 532.832C908.682 532.832 909.895 533.588 910.193 535H911.426ZM914.433 531.818H913.259V542H914.433V531.818ZM919.684 542.159C921.752 542.159 923.144 540.588 923.144 538.222C923.144 535.835 921.752 534.264 919.684 534.264C917.616 534.264 916.224 535.835 916.224 538.222C916.224 540.588 917.616 542.159 919.684 542.159ZM919.684 541.105C918.113 541.105 917.397 539.753 917.397 538.222C917.397 536.69 918.113 535.318 919.684 535.318C921.255 535.318 921.971 536.69 921.971 538.222C921.971 539.753 921.255 541.105 919.684 541.105ZM930.344 536.074C929.976 534.99 929.151 534.264 927.64 534.264C926.029 534.264 924.836 535.179 924.836 536.472C924.836 537.526 925.462 538.232 926.864 538.56L928.137 538.858C928.907 539.037 929.27 539.405 929.27 539.932C929.27 540.588 928.574 541.125 927.481 541.125C926.521 541.125 925.92 540.712 925.711 539.892L924.597 540.17C924.871 541.468 925.939 542.159 927.501 542.159C929.275 542.159 930.483 541.19 930.483 539.872C930.483 538.808 929.817 538.137 928.455 537.804L927.322 537.526C926.417 537.302 926.009 536.999 926.009 536.412C926.009 535.756 926.705 535.278 927.64 535.278C928.664 535.278 929.086 535.845 929.29 536.372L930.344 536.074ZM935.451 542.159C937.002 542.159 938.136 541.384 938.494 540.23L937.36 539.912C937.062 540.707 936.371 541.105 935.451 541.105C934.074 541.105 933.125 540.215 933.07 538.58H938.613V538.082C938.613 535.239 936.923 534.264 935.332 534.264C933.264 534.264 931.892 535.895 931.892 538.241C931.892 540.588 933.244 542.159 935.451 542.159ZM933.07 537.565C933.15 536.377 933.99 535.318 935.332 535.318C936.605 535.318 937.42 536.273 937.42 537.565H933.07ZM944.495 542H945.628V540.827H945.767C946.026 541.244 946.523 542.159 947.995 542.159C949.904 542.159 951.236 540.628 951.236 538.202C951.236 535.795 949.904 534.264 947.975 534.264C946.483 534.264 946.026 535.179 945.767 535.577H945.668V531.818H944.495V542ZM945.648 538.182C945.648 536.472 946.404 535.318 947.836 535.318C949.327 535.318 950.063 536.571 950.063 538.182C950.063 539.812 949.307 541.105 947.836 541.105C946.424 541.105 945.648 539.912 945.648 538.182ZM957.843 538.878C957.843 540.31 956.75 540.966 955.875 540.966C954.9 540.966 954.204 540.25 954.204 539.136V534.364H953.031V539.216C953.031 541.165 954.065 542.099 955.497 542.099C956.65 542.099 957.406 541.483 957.764 540.707H957.843V542H959.017V534.364H957.843V538.878ZM964.487 534.364H962.856V532.534H961.683V534.364H960.529V535.358H961.683V540.131C961.683 541.463 962.757 542.099 963.751 542.099C964.188 542.099 964.467 542.02 964.626 541.96L964.387 540.906C964.288 540.926 964.129 540.966 963.87 540.966C963.353 540.966 962.856 540.807 962.856 539.812V535.358H964.487V534.364ZM969.573 534.364H967.942V532.534H966.769V534.364H965.615V535.358H966.769V540.131C966.769 541.463 967.843 542.099 968.837 542.099C969.274 542.099 969.553 542.02 969.712 541.96L969.473 540.906C969.374 540.926 969.215 540.966 968.956 540.966C968.439 540.966 967.942 540.807 967.942 539.812V535.358H969.573V534.364ZM974.358 542.159C976.426 542.159 977.818 540.588 977.818 538.222C977.818 535.835 976.426 534.264 974.358 534.264C972.29 534.264 970.898 535.835 970.898 538.222C970.898 540.588 972.29 542.159 974.358 542.159ZM974.358 541.105C972.787 541.105 972.071 539.753 972.071 538.222C972.071 536.69 972.787 535.318 974.358 535.318C975.929 535.318 976.645 536.69 976.645 538.222C976.645 539.753 975.929 541.105 974.358 541.105ZM980.782 537.406C980.782 536.074 981.608 535.318 982.731 535.318C983.82 535.318 984.481 536.029 984.481 537.227V542H985.654V537.148C985.654 535.199 984.615 534.264 983.069 534.264C981.916 534.264 981.2 534.781 980.842 535.557H980.743V534.364H979.609V542H980.782V537.406Z" fill="#585858"/>
<path d="M911.426 572C911.048 569.912 909.378 568.679 907.33 568.679C904.724 568.679 902.835 570.688 902.835 573.909C902.835 577.131 904.724 579.139 907.33 579.139C909.378 579.139 911.048 577.906 911.426 575.818H910.193C909.895 577.23 908.682 577.986 907.33 577.986C905.48 577.986 904.028 576.554 904.028 573.909C904.028 571.264 905.48 569.832 907.33 569.832C908.682 569.832 909.895 570.588 910.193 572H911.426ZM916.362 579.159C918.43 579.159 919.822 577.588 919.822 575.222C919.822 572.835 918.43 571.264 916.362 571.264C914.294 571.264 912.901 572.835 912.901 575.222C912.901 577.588 914.294 579.159 916.362 579.159ZM916.362 578.105C914.791 578.105 914.075 576.753 914.075 575.222C914.075 573.69 914.791 572.318 916.362 572.318C917.933 572.318 918.649 573.69 918.649 575.222C918.649 576.753 917.933 578.105 916.362 578.105ZM922.786 568.818H921.613V579H922.786V568.818ZM926.108 568.818H924.935V579H926.108V568.818ZM930.505 579.179C931.837 579.179 932.533 578.463 932.772 577.966H932.831V579H934.005V573.969C934.005 571.543 932.155 571.264 931.181 571.264C930.027 571.264 928.715 571.662 928.118 573.054L929.232 573.452C929.49 572.895 930.102 572.298 931.221 572.298C932.299 572.298 932.831 572.87 932.831 573.849V573.889C932.831 574.456 932.255 574.406 930.863 574.585C929.446 574.769 927.9 575.082 927.9 576.832C927.9 578.324 929.053 579.179 930.505 579.179ZM930.684 578.125C929.749 578.125 929.073 577.707 929.073 576.892C929.073 575.997 929.888 575.719 930.803 575.599C931.3 575.54 932.632 575.401 932.831 575.162V576.236C932.831 577.19 932.076 578.125 930.684 578.125ZM936.146 581.864H937.319V577.827H937.419C937.677 578.244 938.175 579.159 939.646 579.159C941.555 579.159 942.888 577.628 942.888 575.202C942.888 572.795 941.555 571.264 939.626 571.264C938.135 571.264 937.677 572.179 937.419 572.577H937.28V571.364H936.146V581.864ZM937.3 575.182C937.3 573.472 938.055 572.318 939.487 572.318C940.979 572.318 941.714 573.571 941.714 575.182C941.714 576.812 940.959 578.105 939.487 578.105C938.075 578.105 937.3 576.912 937.3 575.182ZM950.086 573.074C949.719 571.99 948.893 571.264 947.382 571.264C945.771 571.264 944.578 572.179 944.578 573.472C944.578 574.526 945.204 575.232 946.606 575.56L947.879 575.858C948.65 576.037 949.013 576.405 949.013 576.932C949.013 577.588 948.317 578.125 947.223 578.125C946.263 578.125 945.662 577.712 945.453 576.892L944.339 577.17C944.613 578.468 945.682 579.159 947.243 579.159C949.018 579.159 950.226 578.19 950.226 576.872C950.226 575.808 949.559 575.137 948.197 574.804L947.064 574.526C946.159 574.302 945.751 573.999 945.751 573.412C945.751 572.756 946.447 572.278 947.382 572.278C948.406 572.278 948.829 572.845 949.032 573.372L950.086 573.074ZM955.194 579.159C956.745 579.159 957.878 578.384 958.236 577.23L957.103 576.912C956.804 577.707 956.113 578.105 955.194 578.105C953.816 578.105 952.867 577.215 952.812 575.58H958.355V575.082C958.355 572.239 956.665 571.264 955.074 571.264C953.006 571.264 951.634 572.895 951.634 575.241C951.634 577.588 952.986 579.159 955.194 579.159ZM952.812 574.565C952.892 573.377 953.732 572.318 955.074 572.318C956.347 572.318 957.162 573.273 957.162 574.565H952.812Z" fill="#585858"/>
<path d="M906.375 616C909.477 616 911.227 614.071 911.227 610.889C911.227 607.727 909.477 605.818 906.514 605.818H903.233V616H906.375ZM904.466 614.906V606.912H906.435C908.821 606.912 910.034 608.423 910.034 610.889C910.034 613.375 908.821 614.906 906.295 614.906H904.466ZM913.136 616H914.31V611.168C914.31 610.134 915.125 609.378 916.239 609.378C916.552 609.378 916.875 609.438 916.955 609.457V608.264C916.82 608.254 916.512 608.244 916.338 608.244C915.423 608.244 914.628 608.761 914.349 609.517H914.27V608.364H913.136V616ZM921.215 616.159C923.283 616.159 924.675 614.588 924.675 612.222C924.675 609.835 923.283 608.264 921.215 608.264C919.147 608.264 917.755 609.835 917.755 612.222C917.755 614.588 919.147 616.159 921.215 616.159ZM921.215 615.105C919.644 615.105 918.928 613.753 918.928 612.222C918.928 610.69 919.644 609.318 921.215 609.318C922.786 609.318 923.502 610.69 923.502 612.222C923.502 613.753 922.786 615.105 921.215 615.105ZM926.466 618.864H927.64V614.827H927.739C927.998 615.244 928.495 616.159 929.966 616.159C931.876 616.159 933.208 614.628 933.208 612.202C933.208 609.795 931.876 608.264 929.947 608.264C928.455 608.264 927.998 609.179 927.739 609.577H927.6V608.364H926.466V618.864ZM927.62 612.182C927.62 610.472 928.376 609.318 929.807 609.318C931.299 609.318 932.035 610.571 932.035 612.182C932.035 613.812 931.279 615.105 929.807 615.105C928.395 615.105 927.62 613.912 927.62 612.182ZM937.881 616.159C939.353 616.159 939.85 615.244 940.108 614.827H940.248V616H941.381V605.818H940.208V609.577H940.108C939.85 609.179 939.393 608.264 937.901 608.264C935.972 608.264 934.64 609.795 934.64 612.202C934.64 614.628 935.972 616.159 937.881 616.159ZM938.04 615.105C936.569 615.105 935.813 613.812 935.813 612.182C935.813 610.571 936.549 609.318 938.04 609.318C939.472 609.318 940.228 610.472 940.228 612.182C940.228 613.912 939.452 615.105 938.04 615.105ZM946.795 616.159C948.863 616.159 950.256 614.588 950.256 612.222C950.256 609.835 948.863 608.264 946.795 608.264C944.727 608.264 943.335 609.835 943.335 612.222C943.335 614.588 944.727 616.159 946.795 616.159ZM946.795 615.105C945.224 615.105 944.508 613.753 944.508 612.222C944.508 610.69 945.224 609.318 946.795 609.318C948.366 609.318 949.082 610.69 949.082 612.222C949.082 613.753 948.366 615.105 946.795 615.105ZM953.517 616H954.67L956.341 610.134H956.46L958.131 616H959.284L961.611 608.364H960.378L958.727 614.19H958.648L957.037 608.364H955.784L954.153 614.21H954.074L952.423 608.364H951.19L953.517 616ZM964.335 611.406C964.335 610.074 965.16 609.318 966.284 609.318C967.373 609.318 968.034 610.029 968.034 611.227V616H969.207V611.148C969.207 609.199 968.168 608.264 966.622 608.264C965.469 608.264 964.753 608.781 964.395 609.557H964.295V608.364H963.162V616H964.335V611.406ZM976.76 610.074C976.392 608.99 975.567 608.264 974.056 608.264C972.445 608.264 971.252 609.179 971.252 610.472C971.252 611.526 971.878 612.232 973.28 612.56L974.553 612.858C975.324 613.037 975.686 613.405 975.686 613.932C975.686 614.588 974.99 615.125 973.897 615.125C972.937 615.125 972.336 614.712 972.127 613.892L971.013 614.17C971.287 615.468 972.355 616.159 973.917 616.159C975.691 616.159 976.9 615.19 976.9 613.872C976.9 612.808 976.233 612.137 974.871 611.804L973.738 611.526C972.833 611.302 972.425 610.999 972.425 610.412C972.425 609.756 973.121 609.278 974.056 609.278C975.08 609.278 975.502 609.845 975.706 610.372L976.76 610.074Z" fill="#585858"/>
<path d="M1078.23 468H1084.2V466.906H1079.47V457.818H1078.23V468ZM1085.95 468H1087.12V460.364H1085.95V468ZM1086.55 459.091C1087 459.091 1087.38 458.733 1087.38 458.295C1087.38 457.858 1087 457.5 1086.55 457.5C1086.09 457.5 1085.71 457.858 1085.71 458.295C1085.71 458.733 1086.09 459.091 1086.55 459.091ZM1094.68 462.074C1094.31 460.99 1093.49 460.264 1091.98 460.264C1090.36 460.264 1089.17 461.179 1089.17 462.472C1089.17 463.526 1089.8 464.232 1091.2 464.56L1092.47 464.858C1093.24 465.037 1093.61 465.405 1093.61 465.932C1093.61 466.588 1092.91 467.125 1091.82 467.125C1090.86 467.125 1090.26 466.712 1090.05 465.892L1088.93 466.17C1089.21 467.468 1090.28 468.159 1091.84 468.159C1093.61 468.159 1094.82 467.19 1094.82 465.872C1094.82 464.808 1094.15 464.137 1092.79 463.804L1091.66 463.526C1090.75 463.302 1090.34 462.999 1090.34 462.412C1090.34 461.756 1091.04 461.278 1091.98 461.278C1093 461.278 1093.42 461.845 1093.63 462.372L1094.68 462.074ZM1099.91 460.364H1098.28V458.534H1097.1V460.364H1095.95V461.358H1097.1V466.131C1097.1 467.463 1098.18 468.099 1099.17 468.099C1099.61 468.099 1099.89 468.02 1100.05 467.96L1099.81 466.906C1099.71 466.926 1099.55 466.966 1099.29 466.966C1098.77 466.966 1098.28 466.807 1098.28 465.812V461.358H1099.91V460.364ZM1108.69 471.023C1110.52 471.023 1111.99 470.188 1111.99 468.219V460.364H1110.86V461.577H1110.74C1110.48 461.179 1110 460.264 1108.51 460.264C1106.58 460.264 1105.25 461.795 1105.25 464.142C1105.25 466.528 1106.64 467.881 1108.49 467.881C1109.98 467.881 1110.46 467.006 1110.72 466.588H1110.82V468.139C1110.82 469.412 1109.92 469.989 1108.69 469.989C1107.3 469.989 1106.82 469.258 1106.5 468.835L1105.57 469.491C1106.05 470.292 1106.99 471.023 1108.69 471.023ZM1108.65 466.827C1107.18 466.827 1106.42 465.713 1106.42 464.122C1106.42 462.571 1107.16 461.318 1108.65 461.318C1110.08 461.318 1110.84 462.472 1110.84 464.122C1110.84 465.812 1110.06 466.827 1108.65 466.827ZM1114.14 468H1115.31V463.168C1115.31 462.134 1116.13 461.378 1117.24 461.378C1117.56 461.378 1117.88 461.438 1117.96 461.457V460.264C1117.82 460.254 1117.52 460.244 1117.34 460.244C1116.43 460.244 1115.63 460.761 1115.35 461.517H1115.27V460.364H1114.14V468ZM1122.22 468.159C1124.29 468.159 1125.68 466.588 1125.68 464.222C1125.68 461.835 1124.29 460.264 1122.22 460.264C1120.15 460.264 1118.76 461.835 1118.76 464.222C1118.76 466.588 1120.15 468.159 1122.22 468.159ZM1122.22 467.105C1120.65 467.105 1119.93 465.753 1119.93 464.222C1119.93 462.69 1120.65 461.318 1122.22 461.318C1123.79 461.318 1124.51 462.69 1124.51 464.222C1124.51 465.753 1123.79 467.105 1122.22 467.105ZM1132.28 464.878C1132.28 466.31 1131.19 466.966 1130.31 466.966C1129.34 466.966 1128.64 466.25 1128.64 465.136V460.364H1127.47V465.216C1127.47 467.165 1128.5 468.099 1129.94 468.099C1131.09 468.099 1131.85 467.483 1132.2 466.707H1132.28V468H1133.46V460.364H1132.28V464.878ZM1135.61 470.864H1136.78V466.827H1136.88C1137.14 467.244 1137.63 468.159 1139.11 468.159C1141.01 468.159 1142.35 466.628 1142.35 464.202C1142.35 461.795 1141.01 460.264 1139.09 460.264C1137.59 460.264 1137.14 461.179 1136.88 461.577H1136.74V460.364H1135.61V470.864ZM1136.76 464.182C1136.76 462.472 1137.51 461.318 1138.95 461.318C1140.44 461.318 1141.17 462.571 1141.17 464.182C1141.17 465.812 1140.42 467.105 1138.95 467.105C1137.53 467.105 1136.76 465.912 1136.76 464.182Z" fill="#585858"/>
<path d="M1078.23 494.818V505H1079.39V497.264H1079.49L1082.67 505H1083.78L1086.96 497.264H1087.06V505H1088.22V494.818H1086.74L1083.28 503.27H1083.16L1079.7 494.818H1078.23ZM1093.63 505.159C1095.7 505.159 1097.09 503.588 1097.09 501.222C1097.09 498.835 1095.7 497.264 1093.63 497.264C1091.56 497.264 1090.17 498.835 1090.17 501.222C1090.17 503.588 1091.56 505.159 1093.63 505.159ZM1093.63 504.105C1092.06 504.105 1091.34 502.753 1091.34 501.222C1091.34 499.69 1092.06 498.318 1093.63 498.318C1095.2 498.318 1095.92 499.69 1095.92 501.222C1095.92 502.753 1095.2 504.105 1093.63 504.105ZM1101.77 505.159C1103.24 505.159 1103.73 504.244 1103.99 503.827H1104.13V505H1105.27V494.818H1104.09V498.577H1103.99C1103.73 498.179 1103.28 497.264 1101.79 497.264C1099.86 497.264 1098.52 498.795 1098.52 501.202C1098.52 503.628 1099.86 505.159 1101.77 505.159ZM1101.93 504.105C1100.45 504.105 1099.7 502.812 1099.7 501.182C1099.7 499.571 1100.43 498.318 1101.93 498.318C1103.36 498.318 1104.11 499.472 1104.11 501.182C1104.11 502.912 1103.34 504.105 1101.93 504.105ZM1109.82 505.179C1111.16 505.179 1111.85 504.463 1112.09 503.966H1112.15V505H1113.32V499.969C1113.32 497.543 1111.48 497.264 1110.5 497.264C1109.35 497.264 1108.04 497.662 1107.44 499.054L1108.55 499.452C1108.81 498.895 1109.42 498.298 1110.54 498.298C1111.62 498.298 1112.15 498.87 1112.15 499.849V499.889C1112.15 500.456 1111.57 500.406 1110.18 500.585C1108.77 500.769 1107.22 501.082 1107.22 502.832C1107.22 504.324 1108.37 505.179 1109.82 505.179ZM1110 504.125C1109.07 504.125 1108.39 503.707 1108.39 502.892C1108.39 501.997 1109.21 501.719 1110.12 501.599C1110.62 501.54 1111.95 501.401 1112.15 501.162V502.236C1112.15 503.19 1111.4 504.125 1110 504.125ZM1116.64 494.818H1115.47V505H1116.64V494.818Z" fill="#585858"/>
<path d="M1086.31 531.818H1085.09V539.832H1084.99L1079.43 531.818H1078.23V542H1079.47V534.006H1079.57L1085.11 542H1086.31V531.818ZM1090.86 542.179C1092.19 542.179 1092.89 541.463 1093.13 540.966H1093.19V542H1094.36V536.969C1094.36 534.543 1092.51 534.264 1091.54 534.264C1090.38 534.264 1089.07 534.662 1088.48 536.054L1089.59 536.452C1089.85 535.895 1090.46 535.298 1091.58 535.298C1092.66 535.298 1093.19 535.87 1093.19 536.849V536.889C1093.19 537.456 1092.61 537.406 1091.22 537.585C1089.8 537.769 1088.26 538.082 1088.26 539.832C1088.26 541.324 1089.41 542.179 1090.86 542.179ZM1091.04 541.125C1090.11 541.125 1089.43 540.707 1089.43 539.892C1089.43 538.997 1090.25 538.719 1091.16 538.599C1091.66 538.54 1092.99 538.401 1093.19 538.162V539.236C1093.19 540.19 1092.43 541.125 1091.04 541.125ZM1102.47 534.364H1101.2L1099.09 540.449H1099.01L1096.91 534.364H1095.63L1098.46 542H1099.65L1102.47 534.364ZM1109.43 536.074C1109.06 534.99 1108.24 534.264 1106.73 534.264C1105.12 534.264 1103.92 535.179 1103.92 536.472C1103.92 537.526 1104.55 538.232 1105.95 538.56L1107.22 538.858C1108 539.037 1108.36 539.405 1108.36 539.932C1108.36 540.588 1107.66 541.125 1106.57 541.125C1105.61 541.125 1105.01 540.712 1104.8 539.892L1103.69 540.17C1103.96 541.468 1105.03 542.159 1106.59 542.159C1108.36 542.159 1109.57 541.19 1109.57 539.872C1109.57 538.808 1108.91 538.137 1107.54 537.804L1106.41 537.526C1105.5 537.302 1105.1 536.999 1105.1 536.412C1105.1 535.756 1105.79 535.278 1106.73 535.278C1107.75 535.278 1108.17 535.845 1108.38 536.372L1109.43 536.074Z" fill="#585858"/>
<path d="M1077.68 569.912H1080.88V579H1082.11V569.912H1085.31V568.818H1077.68V569.912ZM1088.26 579.179C1089.6 579.179 1090.29 578.463 1090.53 577.966H1090.59V579H1091.76V573.969C1091.76 571.543 1089.91 571.264 1088.94 571.264C1087.79 571.264 1086.47 571.662 1085.88 573.054L1086.99 573.452C1087.25 572.895 1087.86 572.298 1088.98 572.298C1090.06 572.298 1090.59 572.87 1090.59 573.849V573.889C1090.59 574.456 1090.01 574.406 1088.62 574.585C1087.21 574.769 1085.66 575.082 1085.66 576.832C1085.66 578.324 1086.81 579.179 1088.26 579.179ZM1088.44 578.125C1087.51 578.125 1086.83 577.707 1086.83 576.892C1086.83 575.997 1087.65 575.719 1088.56 575.599C1089.06 575.54 1090.39 575.401 1090.59 575.162V576.236C1090.59 577.19 1089.84 578.125 1088.44 578.125ZM1094.06 579H1095.2V577.827H1095.34C1095.6 578.244 1096.09 579.159 1097.56 579.159C1099.47 579.159 1100.81 577.628 1100.81 575.202C1100.81 572.795 1099.47 571.264 1097.55 571.264C1096.05 571.264 1095.6 572.179 1095.34 572.577H1095.24V568.818H1094.06V579ZM1095.22 575.182C1095.22 573.472 1095.97 572.318 1097.41 572.318C1098.9 572.318 1099.63 573.571 1099.63 575.182C1099.63 576.812 1098.88 578.105 1097.41 578.105C1095.99 578.105 1095.22 576.912 1095.22 575.182ZM1108.01 573.074C1107.64 571.99 1106.82 571.264 1105.31 571.264C1103.69 571.264 1102.5 572.179 1102.5 573.472C1102.5 574.526 1103.13 575.232 1104.53 575.56L1105.8 575.858C1106.57 576.037 1106.94 576.405 1106.94 576.932C1106.94 577.588 1106.24 578.125 1105.15 578.125C1104.19 578.125 1103.59 577.712 1103.38 576.892L1102.26 577.17C1102.54 578.468 1103.61 579.159 1105.17 579.159C1106.94 579.159 1108.15 578.19 1108.15 576.872C1108.15 575.808 1107.48 575.137 1106.12 574.804L1104.99 574.526C1104.08 574.302 1103.68 573.999 1103.68 573.412C1103.68 572.756 1104.37 572.278 1105.31 572.278C1106.33 572.278 1106.75 572.845 1106.96 573.372L1108.01 573.074Z" fill="#585858"/>
<path d="M1086.31 605.818H1085.09V613.832H1084.99L1079.43 605.818H1078.23V616H1079.47V608.006H1079.57L1085.11 616H1086.31V605.818ZM1090.86 616.179C1092.19 616.179 1092.89 615.463 1093.13 614.966H1093.19V616H1094.36V610.969C1094.36 608.543 1092.51 608.264 1091.54 608.264C1090.38 608.264 1089.07 608.662 1088.48 610.054L1089.59 610.452C1089.85 609.895 1090.46 609.298 1091.58 609.298C1092.66 609.298 1093.19 609.87 1093.19 610.849V610.889C1093.19 611.456 1092.61 611.406 1091.22 611.585C1089.8 611.769 1088.26 612.082 1088.26 613.832C1088.26 615.324 1089.41 616.179 1090.86 616.179ZM1091.04 615.125C1090.11 615.125 1089.43 614.707 1089.43 613.892C1089.43 612.997 1090.25 612.719 1091.16 612.599C1091.66 612.54 1092.99 612.401 1093.19 612.162V613.236C1093.19 614.19 1092.43 615.125 1091.04 615.125ZM1102.47 608.364H1101.2L1099.09 614.449H1099.01L1096.91 608.364H1095.63L1098.46 616H1099.65L1102.47 608.364ZM1104.18 616H1105.32V614.827H1105.45C1105.71 615.244 1106.21 616.159 1107.68 616.159C1109.59 616.159 1110.92 614.628 1110.92 612.202C1110.92 609.795 1109.59 608.264 1107.66 608.264C1106.17 608.264 1105.71 609.179 1105.45 609.577H1105.36V605.818H1104.18V616ZM1105.34 612.182C1105.34 610.472 1106.09 609.318 1107.52 609.318C1109.01 609.318 1109.75 610.571 1109.75 612.182C1109.75 613.812 1108.99 615.105 1107.52 615.105C1106.11 615.105 1105.34 613.912 1105.34 612.182ZM1114.97 616.179C1116.3 616.179 1116.99 615.463 1117.23 614.966H1117.29V616H1118.47V610.969C1118.47 608.543 1116.62 608.264 1115.64 608.264C1114.49 608.264 1113.18 608.662 1112.58 610.054L1113.69 610.452C1113.95 609.895 1114.56 609.298 1115.68 609.298C1116.76 609.298 1117.29 609.87 1117.29 610.849V610.889C1117.29 611.456 1116.72 611.406 1115.32 611.585C1113.91 611.769 1112.36 612.082 1112.36 613.832C1112.36 615.324 1113.51 616.179 1114.97 616.179ZM1115.14 615.125C1114.21 615.125 1113.53 614.707 1113.53 613.892C1113.53 612.997 1114.35 612.719 1115.26 612.599C1115.76 612.54 1117.09 612.401 1117.29 612.162V613.236C1117.29 614.19 1116.54 615.125 1115.14 615.125ZM1120.61 616H1121.78V611.168C1121.78 610.134 1122.6 609.378 1123.71 609.378C1124.02 609.378 1124.35 609.438 1124.43 609.457V608.264C1124.29 608.254 1123.98 608.244 1123.81 608.244C1122.89 608.244 1122.1 608.761 1121.82 609.517H1121.74V608.364H1120.61V616Z" fill="#585858"/>
<path d="M1243.82 462.909C1243.82 459.688 1241.93 457.679 1239.33 457.679C1236.72 457.679 1234.84 459.688 1234.84 462.909C1234.84 466.131 1236.72 468.139 1239.33 468.139C1241.93 468.139 1243.82 466.131 1243.82 462.909ZM1242.63 462.909C1242.63 465.554 1241.18 466.986 1239.33 466.986C1237.48 466.986 1236.03 465.554 1236.03 462.909C1236.03 460.264 1237.48 458.832 1239.33 458.832C1241.18 458.832 1242.63 460.264 1242.63 462.909ZM1249.14 460.364H1247.43V459.588C1247.43 458.832 1247.75 458.435 1248.52 458.435C1248.86 458.435 1249.06 458.514 1249.18 458.554L1249.52 457.54C1249.34 457.46 1248.98 457.341 1248.4 457.341C1247.31 457.341 1246.25 457.997 1246.25 459.31V460.364H1245.02V461.358H1246.25V468H1247.43V461.358H1249.14V460.364ZM1254.18 460.364H1252.47V459.588C1252.47 458.832 1252.79 458.435 1253.57 458.435C1253.91 458.435 1254.1 458.514 1254.22 458.554L1254.56 457.54C1254.38 457.46 1254.02 457.341 1253.45 457.341C1252.35 457.341 1251.3 457.997 1251.3 459.31V460.364H1250.07V461.358H1251.3V468H1252.47V461.358H1254.18V460.364ZM1258.62 468.159C1260.31 468.159 1261.42 467.125 1261.62 465.773H1260.45C1260.23 466.608 1259.53 467.105 1258.62 467.105C1257.22 467.105 1256.33 465.952 1256.33 464.182C1256.33 462.452 1257.24 461.318 1258.62 461.318C1259.65 461.318 1260.27 461.955 1260.45 462.651H1261.62C1261.42 461.219 1260.21 460.264 1258.6 460.264C1256.53 460.264 1255.16 461.895 1255.16 464.222C1255.16 466.509 1256.47 468.159 1258.62 468.159ZM1265.58 468.179C1266.91 468.179 1267.61 467.463 1267.85 466.966H1267.91V468H1269.08V462.969C1269.08 460.543 1267.23 460.264 1266.26 460.264C1265.1 460.264 1263.79 460.662 1263.19 462.054L1264.31 462.452C1264.57 461.895 1265.18 461.298 1266.3 461.298C1267.38 461.298 1267.91 461.87 1267.91 462.849V462.889C1267.91 463.456 1267.33 463.406 1265.94 463.585C1264.52 463.769 1262.98 464.082 1262.98 465.832C1262.98 467.324 1264.13 468.179 1265.58 468.179ZM1265.76 467.125C1264.83 467.125 1264.15 466.707 1264.15 465.892C1264.15 464.997 1264.96 464.719 1265.88 464.599C1266.38 464.54 1267.71 464.401 1267.91 464.162V465.236C1267.91 466.19 1267.15 467.125 1265.76 467.125ZM1272.4 463.406C1272.4 462.074 1273.22 461.318 1274.34 461.318C1275.43 461.318 1276.09 462.029 1276.09 463.227V468H1277.27V463.148C1277.27 461.199 1276.23 460.264 1274.68 460.264C1273.53 460.264 1272.81 460.781 1272.46 461.557H1272.36V460.364H1271.22V468H1272.4V463.406ZM1285.38 460.364H1284.11L1282 466.449H1281.92L1279.81 460.364H1278.54L1281.37 468H1282.56L1285.38 460.364ZM1288.95 468.179C1290.28 468.179 1290.97 467.463 1291.21 466.966H1291.27V468H1292.45V462.969C1292.45 460.543 1290.6 460.264 1289.62 460.264C1288.47 460.264 1287.16 460.662 1286.56 462.054L1287.67 462.452C1287.93 461.895 1288.54 461.298 1289.66 461.298C1290.74 461.298 1291.27 461.87 1291.27 462.849V462.889C1291.27 463.456 1290.7 463.406 1289.3 463.585C1287.89 463.769 1286.34 464.082 1286.34 465.832C1286.34 467.324 1287.49 468.179 1288.95 468.179ZM1289.12 467.125C1288.19 467.125 1287.51 466.707 1287.51 465.892C1287.51 464.997 1288.33 464.719 1289.24 464.599C1289.74 464.54 1291.07 464.401 1291.27 464.162V465.236C1291.27 466.19 1290.52 467.125 1289.12 467.125ZM1300 462.074C1299.63 460.99 1298.8 460.264 1297.29 460.264C1295.68 460.264 1294.49 461.179 1294.49 462.472C1294.49 463.526 1295.11 464.232 1296.52 464.56L1297.79 464.858C1298.56 465.037 1298.92 465.405 1298.92 465.932C1298.92 466.588 1298.23 467.125 1297.13 467.125C1296.17 467.125 1295.57 466.712 1295.36 465.892L1294.25 466.17C1294.52 467.468 1295.59 468.159 1297.15 468.159C1298.93 468.159 1300.14 467.19 1300.14 465.872C1300.14 464.808 1299.47 464.137 1298.11 463.804L1296.97 463.526C1296.07 463.302 1295.66 462.999 1295.66 462.412C1295.66 461.756 1296.36 461.278 1297.29 461.278C1298.32 461.278 1298.74 461.845 1298.94 462.372L1300 462.074Z" fill="#585858"/>
<path d="M1235.23 505H1236.47V501.281H1238.69C1241.06 501.281 1242.13 499.839 1242.13 498.04C1242.13 496.24 1241.06 494.818 1238.67 494.818H1235.23V505ZM1236.47 500.188V495.912H1238.63C1240.29 495.912 1240.92 496.817 1240.92 498.04C1240.92 499.263 1240.29 500.188 1238.65 500.188H1236.47ZM1246.21 505.179C1247.54 505.179 1248.24 504.463 1248.47 503.966H1248.53V505H1249.71V499.969C1249.71 497.543 1247.86 497.264 1246.88 497.264C1245.73 497.264 1244.42 497.662 1243.82 499.054L1244.94 499.452C1245.19 498.895 1245.81 498.298 1246.92 498.298C1248 498.298 1248.53 498.87 1248.53 499.849V499.889C1248.53 500.456 1247.96 500.406 1246.57 500.585C1245.15 500.769 1243.6 501.082 1243.6 502.832C1243.6 504.324 1244.76 505.179 1246.21 505.179ZM1246.39 504.125C1245.45 504.125 1244.78 503.707 1244.78 502.892C1244.78 501.997 1245.59 501.719 1246.51 501.599C1247 501.54 1248.34 501.401 1248.53 501.162V502.236C1248.53 503.19 1247.78 504.125 1246.39 504.125ZM1254.93 508.023C1256.76 508.023 1258.23 507.188 1258.23 505.219V497.364H1257.1V498.577H1256.98C1256.72 498.179 1256.24 497.264 1254.75 497.264C1252.82 497.264 1251.49 498.795 1251.49 501.142C1251.49 503.528 1252.88 504.881 1254.73 504.881C1256.22 504.881 1256.7 504.006 1256.96 503.588H1257.06V505.139C1257.06 506.412 1256.16 506.989 1254.93 506.989C1253.54 506.989 1253.06 506.258 1252.74 505.835L1251.81 506.491C1252.29 507.292 1253.23 508.023 1254.93 508.023ZM1254.89 503.827C1253.42 503.827 1252.66 502.713 1252.66 501.122C1252.66 499.571 1253.4 498.318 1254.89 498.318C1256.32 498.318 1257.08 499.472 1257.08 501.122C1257.08 502.812 1256.3 503.827 1254.89 503.827ZM1260.38 505H1261.55V497.364H1260.38V505ZM1260.98 496.091C1261.43 496.091 1261.81 495.733 1261.81 495.295C1261.81 494.858 1261.43 494.5 1260.98 494.5C1260.52 494.5 1260.14 494.858 1260.14 495.295C1260.14 495.733 1260.52 496.091 1260.98 496.091ZM1264.88 500.406C1264.88 499.074 1265.7 498.318 1266.82 498.318C1267.91 498.318 1268.57 499.029 1268.57 500.227V505H1269.75V500.148C1269.75 498.199 1268.71 497.264 1267.16 497.264C1266.01 497.264 1265.29 497.781 1264.94 498.557H1264.84V497.364H1263.7V505H1264.88V500.406ZM1274.14 505.179C1275.47 505.179 1276.17 504.463 1276.41 503.966H1276.47V505H1277.64V499.969C1277.64 497.543 1275.79 497.264 1274.82 497.264C1273.66 497.264 1272.35 497.662 1271.75 499.054L1272.87 499.452C1273.13 498.895 1273.74 498.298 1274.86 498.298C1275.93 498.298 1276.47 498.87 1276.47 499.849V499.889C1276.47 500.456 1275.89 500.406 1274.5 500.585C1273.08 500.769 1271.53 501.082 1271.53 502.832C1271.53 504.324 1272.69 505.179 1274.14 505.179ZM1274.32 504.125C1273.38 504.125 1272.71 503.707 1272.71 502.892C1272.71 501.997 1273.52 501.719 1274.44 501.599C1274.93 501.54 1276.27 501.401 1276.47 501.162V502.236C1276.47 503.19 1275.71 504.125 1274.32 504.125ZM1283.1 497.364H1281.47V495.534H1280.3V497.364H1279.14V498.358H1280.3V503.131C1280.3 504.463 1281.37 505.099 1282.37 505.099C1282.8 505.099 1283.08 505.02 1283.24 504.96L1283 503.906C1282.9 503.926 1282.74 503.966 1282.49 503.966C1281.97 503.966 1281.47 503.807 1281.47 502.812V498.358H1283.1V497.364ZM1284.87 505H1286.04V497.364H1284.87V505ZM1285.46 496.091C1285.92 496.091 1286.3 495.733 1286.3 495.295C1286.3 494.858 1285.92 494.5 1285.46 494.5C1285.01 494.5 1284.63 494.858 1284.63 495.295C1284.63 495.733 1285.01 496.091 1285.46 496.091ZM1291.29 505.159C1293.36 505.159 1294.75 503.588 1294.75 501.222C1294.75 498.835 1293.36 497.264 1291.29 497.264C1289.22 497.264 1287.83 498.835 1287.83 501.222C1287.83 503.588 1289.22 505.159 1291.29 505.159ZM1291.29 504.105C1289.72 504.105 1289 502.753 1289 501.222C1289 499.69 1289.72 498.318 1291.29 498.318C1292.86 498.318 1293.58 499.69 1293.58 501.222C1293.58 502.753 1292.86 504.105 1291.29 504.105ZM1297.72 500.406C1297.72 499.074 1298.54 498.318 1299.66 498.318C1300.75 498.318 1301.41 499.029 1301.41 500.227V505H1302.59V500.148C1302.59 498.199 1301.55 497.264 1300 497.264C1298.85 497.264 1298.13 497.781 1297.78 498.557H1297.68V497.364H1296.54V505H1297.72V500.406Z" fill="#585858"/>
<path d="M1235.23 542H1236.47V538.281H1238.69C1241.06 538.281 1242.13 536.839 1242.13 535.04C1242.13 533.24 1241.06 531.818 1238.67 531.818H1235.23V542ZM1236.47 537.188V532.912H1238.63C1240.29 532.912 1240.92 533.817 1240.92 535.04C1240.92 536.263 1240.29 537.188 1238.65 537.188H1236.47ZM1245.13 531.818H1243.96V542H1245.13V531.818ZM1249.53 542.179C1250.86 542.179 1251.56 541.463 1251.8 540.966H1251.86V542H1253.03V536.969C1253.03 534.543 1251.18 534.264 1250.21 534.264C1249.05 534.264 1247.74 534.662 1247.14 536.054L1248.26 536.452C1248.52 535.895 1249.13 535.298 1250.25 535.298C1251.32 535.298 1251.86 535.87 1251.86 536.849V536.889C1251.86 537.456 1251.28 537.406 1249.89 537.585C1248.47 537.769 1246.92 538.082 1246.92 539.832C1246.92 541.324 1248.08 542.179 1249.53 542.179ZM1249.71 541.125C1248.77 541.125 1248.1 540.707 1248.1 539.892C1248.1 538.997 1248.91 538.719 1249.83 538.599C1250.33 538.54 1251.66 538.401 1251.86 538.162V539.236C1251.86 540.19 1251.1 541.125 1249.71 541.125ZM1258.27 542.159C1259.96 542.159 1261.08 541.125 1261.28 539.773H1260.1C1259.88 540.608 1259.19 541.105 1258.27 541.105C1256.88 541.105 1255.99 539.952 1255.99 538.182C1255.99 536.452 1256.9 535.318 1258.27 535.318C1259.31 535.318 1259.92 535.955 1260.1 536.651H1261.28C1261.08 535.219 1259.86 534.264 1258.25 534.264C1256.19 534.264 1254.81 535.895 1254.81 538.222C1254.81 540.509 1256.13 542.159 1258.27 542.159ZM1266.19 542.159C1267.74 542.159 1268.88 541.384 1269.24 540.23L1268.1 539.912C1267.8 540.707 1267.11 541.105 1266.19 541.105C1264.82 541.105 1263.87 540.215 1263.81 538.58H1269.36V538.082C1269.36 535.239 1267.67 534.264 1266.07 534.264C1264.01 534.264 1262.63 535.895 1262.63 538.241C1262.63 540.588 1263.99 542.159 1266.19 542.159ZM1263.81 537.565C1263.89 536.377 1264.73 535.318 1266.07 535.318C1267.35 535.318 1268.16 536.273 1268.16 537.565H1263.81ZM1272.31 537.406C1272.31 536.074 1273.16 535.318 1274.32 535.318C1275.43 535.318 1276.09 536.014 1276.09 537.227V542H1277.27V537.148C1277.27 535.184 1276.22 534.264 1274.66 534.264C1273.46 534.264 1272.77 534.766 1272.41 535.557H1272.31V531.818H1271.14V542H1272.31V537.406ZM1282.51 542.159C1284.58 542.159 1285.97 540.588 1285.97 538.222C1285.97 535.835 1284.58 534.264 1282.51 534.264C1280.45 534.264 1279.05 535.835 1279.05 538.222C1279.05 540.588 1280.45 542.159 1282.51 542.159ZM1282.51 541.105C1280.94 541.105 1280.23 539.753 1280.23 538.222C1280.23 536.69 1280.94 535.318 1282.51 535.318C1284.09 535.318 1284.8 536.69 1284.8 538.222C1284.8 539.753 1284.09 541.105 1282.51 541.105ZM1288.94 531.818H1287.77V542H1288.94V531.818ZM1293.97 542.159C1295.44 542.159 1295.94 541.244 1296.2 540.827H1296.34V542H1297.47V531.818H1296.3V535.577H1296.2C1295.94 535.179 1295.48 534.264 1293.99 534.264C1292.06 534.264 1290.73 535.795 1290.73 538.202C1290.73 540.628 1292.06 542.159 1293.97 542.159ZM1294.13 541.105C1292.66 541.105 1291.9 539.812 1291.9 538.182C1291.9 536.571 1292.64 535.318 1294.13 535.318C1295.56 535.318 1296.32 536.472 1296.32 538.182C1296.32 539.912 1295.54 541.105 1294.13 541.105ZM1302.98 542.159C1304.54 542.159 1305.67 541.384 1306.03 540.23L1304.89 539.912C1304.6 540.707 1303.9 541.105 1302.98 541.105C1301.61 541.105 1300.66 540.215 1300.6 538.58H1306.15V538.082C1306.15 535.239 1304.46 534.264 1302.87 534.264C1300.8 534.264 1299.42 535.895 1299.42 538.241C1299.42 540.588 1300.78 542.159 1302.98 542.159ZM1300.6 537.565C1300.68 536.377 1301.52 535.318 1302.87 535.318C1304.14 535.318 1304.95 536.273 1304.95 537.565H1300.6ZM1307.93 542H1309.1V537.168C1309.1 536.134 1309.92 535.378 1311.03 535.378C1311.35 535.378 1311.67 535.438 1311.75 535.457V534.264C1311.62 534.254 1311.31 534.244 1311.13 534.244C1310.22 534.244 1309.42 534.761 1309.14 535.517H1309.06V534.364H1307.93V542ZM1318.55 536.074C1318.18 534.99 1317.36 534.264 1315.84 534.264C1314.23 534.264 1313.04 535.179 1313.04 536.472C1313.04 537.526 1313.67 538.232 1315.07 538.56L1316.34 538.858C1317.11 539.037 1317.48 539.405 1317.48 539.932C1317.48 540.588 1316.78 541.125 1315.69 541.125C1314.73 541.125 1314.12 540.712 1313.92 539.892L1312.8 540.17C1313.08 541.468 1314.14 542.159 1315.71 542.159C1317.48 542.159 1318.69 541.19 1318.69 539.872C1318.69 538.808 1318.02 538.137 1316.66 537.804L1315.53 537.526C1314.62 537.302 1314.21 536.999 1314.21 536.412C1314.21 535.756 1314.91 535.278 1315.84 535.278C1316.87 535.278 1317.29 535.845 1317.5 536.372L1318.55 536.074Z" fill="#585858"/>
<path d="M1235.23 579H1236.47V575.281H1238.69C1241.06 575.281 1242.13 573.839 1242.13 572.04C1242.13 570.24 1241.06 568.818 1238.67 568.818H1235.23V579ZM1236.47 574.188V569.912H1238.63C1240.29 569.912 1240.92 570.817 1240.92 572.04C1240.92 573.263 1240.29 574.188 1238.65 574.188H1236.47ZM1246.98 579.159C1249.05 579.159 1250.44 577.588 1250.44 575.222C1250.44 572.835 1249.05 571.264 1246.98 571.264C1244.91 571.264 1243.52 572.835 1243.52 575.222C1243.52 577.588 1244.91 579.159 1246.98 579.159ZM1246.98 578.105C1245.41 578.105 1244.69 576.753 1244.69 575.222C1244.69 573.69 1245.41 572.318 1246.98 572.318C1248.55 572.318 1249.27 573.69 1249.27 575.222C1249.27 576.753 1248.55 578.105 1246.98 578.105ZM1252.23 581.864H1253.41V577.827H1253.5C1253.76 578.244 1254.26 579.159 1255.73 579.159C1257.64 579.159 1258.97 577.628 1258.97 575.202C1258.97 572.795 1257.64 571.264 1255.71 571.264C1254.22 571.264 1253.76 572.179 1253.5 572.577H1253.37V571.364H1252.23V581.864ZM1253.39 575.182C1253.39 573.472 1254.14 572.318 1255.57 572.318C1257.06 572.318 1257.8 573.571 1257.8 575.182C1257.8 576.812 1257.04 578.105 1255.57 578.105C1254.16 578.105 1253.39 576.912 1253.39 575.182ZM1263.87 579.159C1265.93 579.159 1267.33 577.588 1267.33 575.222C1267.33 572.835 1265.93 571.264 1263.87 571.264C1261.8 571.264 1260.41 572.835 1260.41 575.222C1260.41 577.588 1261.8 579.159 1263.87 579.159ZM1263.87 578.105C1262.29 578.105 1261.58 576.753 1261.58 575.222C1261.58 573.69 1262.29 572.318 1263.87 572.318C1265.44 572.318 1266.15 573.69 1266.15 575.222C1266.15 576.753 1265.44 578.105 1263.87 578.105ZM1275.09 571.364H1273.81L1271.71 577.449H1271.63L1269.52 571.364H1268.25L1271.07 579H1272.26L1275.09 571.364ZM1279.56 579.159C1281.12 579.159 1282.25 578.384 1282.61 577.23L1281.47 576.912C1281.18 577.707 1280.48 578.105 1279.56 578.105C1278.19 578.105 1277.24 577.215 1277.18 575.58H1282.73V575.082C1282.73 572.239 1281.04 571.264 1279.45 571.264C1277.38 571.264 1276 572.895 1276 575.241C1276 577.588 1277.36 579.159 1279.56 579.159ZM1277.18 574.565C1277.26 573.377 1278.1 572.318 1279.45 572.318C1280.72 572.318 1281.53 573.273 1281.53 574.565H1277.18ZM1284.51 579H1285.68V574.168C1285.68 573.134 1286.5 572.378 1287.61 572.378C1287.93 572.378 1288.25 572.438 1288.33 572.457V571.264C1288.2 571.254 1287.89 571.244 1287.71 571.244C1286.8 571.244 1286 571.761 1285.72 572.517H1285.64V571.364H1284.51V579ZM1295.13 573.074C1294.76 571.99 1293.94 571.264 1292.42 571.264C1290.81 571.264 1289.62 572.179 1289.62 573.472C1289.62 574.526 1290.25 575.232 1291.65 575.56L1292.92 575.858C1293.69 576.037 1294.06 576.405 1294.06 576.932C1294.06 577.588 1293.36 578.125 1292.27 578.125C1291.31 578.125 1290.7 577.712 1290.5 576.892L1289.38 577.17C1289.66 578.468 1290.72 579.159 1292.29 579.159C1294.06 579.159 1295.27 578.19 1295.27 576.872C1295.27 575.808 1294.6 575.137 1293.24 574.804L1292.11 574.526C1291.2 574.302 1290.79 573.999 1290.79 573.412C1290.79 572.756 1291.49 572.278 1292.42 572.278C1293.45 572.278 1293.87 572.845 1294.08 573.372L1295.13 573.074Z" fill="#585858"/>
<path d="M1235.23 616H1236.47V612.281H1238.69C1241.06 612.281 1242.13 610.839 1242.13 609.04C1242.13 607.24 1241.06 605.818 1238.67 605.818H1235.23V616ZM1236.47 611.188V606.912H1238.63C1240.29 606.912 1240.92 607.817 1240.92 609.04C1240.92 610.263 1240.29 611.188 1238.65 611.188H1236.47ZM1243.96 616H1245.13V611.168C1245.13 610.134 1245.95 609.378 1247.06 609.378C1247.38 609.378 1247.7 609.438 1247.78 609.457V608.264C1247.64 608.254 1247.34 608.244 1247.16 608.244C1246.25 608.244 1245.45 608.761 1245.17 609.517H1245.09V608.364H1243.96V616ZM1252.04 616.159C1254.11 616.159 1255.5 614.588 1255.5 612.222C1255.5 609.835 1254.11 608.264 1252.04 608.264C1249.97 608.264 1248.58 609.835 1248.58 612.222C1248.58 614.588 1249.97 616.159 1252.04 616.159ZM1252.04 615.105C1250.47 615.105 1249.75 613.753 1249.75 612.222C1249.75 610.69 1250.47 609.318 1252.04 609.318C1253.61 609.318 1254.33 610.69 1254.33 612.222C1254.33 613.753 1253.61 615.105 1252.04 615.105ZM1260.37 619.023C1262.2 619.023 1263.67 618.188 1263.67 616.219V608.364H1262.54V609.577H1262.42C1262.16 609.179 1261.69 608.264 1260.19 608.264C1258.27 608.264 1256.93 609.795 1256.93 612.142C1256.93 614.528 1258.32 615.881 1260.17 615.881C1261.67 615.881 1262.14 615.006 1262.4 614.588H1262.5V616.139C1262.5 617.412 1261.61 617.989 1260.37 617.989C1258.99 617.989 1258.5 617.258 1258.19 616.835L1257.25 617.491C1257.73 618.292 1258.67 619.023 1260.37 619.023ZM1260.33 614.827C1258.86 614.827 1258.11 613.713 1258.11 612.122C1258.11 610.571 1258.84 609.318 1260.33 609.318C1261.77 609.318 1262.52 610.472 1262.52 612.122C1262.52 613.812 1261.75 614.827 1260.33 614.827ZM1265.82 616H1267V611.168C1267 610.134 1267.81 609.378 1268.92 609.378C1269.24 609.378 1269.56 609.438 1269.64 609.457V608.264C1269.51 608.254 1269.2 608.244 1269.02 608.244C1268.11 608.244 1267.31 608.761 1267.03 609.517H1266.96V608.364H1265.82V616ZM1274 616.159C1275.55 616.159 1276.68 615.384 1277.04 614.23L1275.91 613.912C1275.61 614.707 1274.92 615.105 1274 615.105C1272.62 615.105 1271.67 614.215 1271.62 612.58H1277.16V612.082C1277.16 609.239 1275.47 608.264 1273.88 608.264C1271.81 608.264 1270.44 609.895 1270.44 612.241C1270.44 614.588 1271.79 616.159 1274 616.159ZM1271.62 611.565C1271.7 610.377 1272.54 609.318 1273.88 609.318C1275.15 609.318 1275.97 610.273 1275.97 611.565H1271.62ZM1284.36 610.074C1283.99 608.99 1283.16 608.264 1281.65 608.264C1280.04 608.264 1278.85 609.179 1278.85 610.472C1278.85 611.526 1279.47 612.232 1280.88 612.56L1282.15 612.858C1282.92 613.037 1283.28 613.405 1283.28 613.932C1283.28 614.588 1282.59 615.125 1281.49 615.125C1280.53 615.125 1279.93 614.712 1279.72 613.892L1278.61 614.17C1278.88 615.468 1279.95 616.159 1281.51 616.159C1283.29 616.159 1284.5 615.19 1284.5 613.872C1284.5 612.808 1283.83 612.137 1282.47 611.804L1281.33 611.526C1280.43 611.302 1280.02 610.999 1280.02 610.412C1280.02 609.756 1280.72 609.278 1281.65 609.278C1282.68 609.278 1283.1 609.845 1283.3 610.372L1284.36 610.074ZM1291.67 610.074C1291.3 608.99 1290.48 608.264 1288.97 608.264C1287.36 608.264 1286.16 609.179 1286.16 610.472C1286.16 611.526 1286.79 612.232 1288.19 612.56L1289.46 612.858C1290.23 613.037 1290.6 613.405 1290.6 613.932C1290.6 614.588 1289.9 615.125 1288.81 615.125C1287.85 615.125 1287.25 614.712 1287.04 613.892L1285.92 614.17C1286.2 615.468 1287.27 616.159 1288.83 616.159C1290.6 616.159 1291.81 615.19 1291.81 613.872C1291.81 612.808 1291.14 612.137 1289.78 611.804L1288.65 611.526C1287.74 611.302 1287.34 610.999 1287.34 610.412C1287.34 609.756 1288.03 609.278 1288.97 609.278C1289.99 609.278 1290.41 609.845 1290.62 610.372L1291.67 610.074Z" fill="#585858"/>
</g>
<path d="M150.291 350.909V364H152.567V354.987H152.688L156.306 363.962H158.006L161.624 355.006H161.746V364H164.021V350.909H161.119L157.233 360.395H157.08L153.193 350.909H150.291ZM170.848 364.192C173.136 364.192 174.709 363.073 175.118 361.366L172.957 361.124C172.644 361.955 171.877 362.389 170.88 362.389C169.384 362.389 168.393 361.405 168.374 359.724H175.214V359.014C175.214 355.569 173.143 354.054 170.727 354.054C167.914 354.054 166.08 356.119 166.08 359.148C166.08 362.229 167.888 364.192 170.848 364.192ZM168.381 358.164C168.451 356.911 169.378 355.857 170.759 355.857C172.088 355.857 172.983 356.828 172.996 358.164H168.381ZM179.485 358.247C179.485 356.828 180.342 356.01 181.563 356.01C182.758 356.01 183.474 356.796 183.474 358.107V364H185.788V357.749C185.794 355.396 184.452 354.054 182.426 354.054C180.955 354.054 179.945 354.757 179.498 355.85H179.383V354.182H177.171V364H179.485V358.247ZM194.398 359.871C194.398 361.366 193.33 362.108 192.308 362.108C191.195 362.108 190.454 361.322 190.454 360.075V354.182H188.14V360.433C188.14 362.792 189.482 364.128 191.413 364.128C192.883 364.128 193.919 363.354 194.366 362.255H194.468V364H196.712V354.182H194.398V359.871ZM203.658 364H206.03V360.101L207.481 358.388L211.386 364H214.237L209.13 356.783L214.192 350.909H211.297L206.19 356.924H206.03V350.909H203.658V364ZM216.353 364H218.667V354.182H216.353V364ZM217.516 352.788C218.251 352.788 218.852 352.226 218.852 351.536C218.852 350.839 218.251 350.276 217.516 350.276C216.775 350.276 216.174 350.839 216.174 351.536C216.174 352.226 216.775 352.788 217.516 352.788ZM225.949 354.182H224.012V351.83H221.698V354.182H220.305V355.972H221.698V361.43C221.686 363.278 223.028 364.185 224.767 364.134C225.425 364.115 225.879 363.987 226.128 363.904L225.738 362.095C225.61 362.127 225.348 362.185 225.061 362.185C224.479 362.185 224.012 361.98 224.012 361.047V355.972H225.949V354.182Z" fill="#474F5B"/>
<defs>
<filter id="filter0_d_278_5996" x="669" y="402" width="714" height="284" filterUnits="userSpaceOnUse" color-interpolation-filters="sRGB">
<feFlood flood-opacity="0" result="BackgroundImageFix"/>
<feColorMatrix in="SourceAlpha" type="matrix" values="0 0 0 0 0 0 0 0 0 0 0 0 0 0 0 0 0 0 127 0" result="hardAlpha"/>
<feOffset dy="7"/>
<feGaussianBlur stdDeviation="7"/>
<feComposite in2="hardAlpha" operator="out"/>
<feColorMatrix type="matrix" values="0 0 0 0 0 0 0 0 0 0 0 0 0 0 0 0 0 0 0.02 0"/>
<feBlend mode="normal" in2="BackgroundImageFix" result="effect1_dropShadow_278_5996"/>
<feBlend mode="normal" in="SourceGraphic" in2="effect1_dropShadow_278_5996" result="shape"/>
</filter>
</defs>
</svg>
