<svg width="156" height="51" viewBox="0 0 156 51" fill="none" xmlns="http://www.w3.org/2000/svg">
<path d="M94.1139 36.5053C84.6947 40.4166 74.4971 42.3339 65.2337 42.3339C51.4552 42.3339 38.1439 38.6526 27.3235 32.4406C26.3894 31.9038 25.6888 32.9008 26.4672 33.591C36.4313 42.4105 49.6648 47.779 64.3774 47.779C74.8085 47.779 86.9522 44.4812 95.3594 38.4226C96.6828 37.4256 95.4373 35.8917 94.1139 36.5053Z" fill="#B4A6A2"/>
<path d="M88.8205 33.0541C88.1199 33.591 88.2755 34.2812 89.054 34.2045C91.7007 33.8978 97.7725 33.2075 98.8624 34.588C99.9522 35.9684 97.6947 41.4902 96.6827 44.0211C96.3714 44.788 97.072 45.0947 97.6947 44.5579C102.21 40.8767 103.377 33.0541 102.365 31.9805C101.431 30.6767 93.569 29.7564 88.8205 33.0541Z" fill="#B4A6A2"/>
<path d="M105.168 23.6211C102.599 22.1639 99.5631 21.7805 96.7607 21.8572L104.389 11.1203C105.09 10.2 105.479 9.58648 105.479 9.12633V6.36543C105.479 5.82859 105.09 5.59851 104.623 5.59851H89.9104C89.4433 5.59851 89.1319 5.98197 89.1319 6.36543V9.58648C89.1319 10.1233 89.5211 10.3534 89.9882 10.3534H97.6948L88.8205 22.7775C88.2756 23.5444 88.2756 24.4647 88.2756 25.0015V28.2993C88.2756 28.8361 88.8205 29.2963 89.2876 28.9895C94.2696 26.382 100.264 26.612 104.779 28.9895C105.324 29.2963 105.868 28.6827 105.868 28.2993V24.9248C105.868 24.388 105.713 24.0045 105.168 23.6211Z" fill="#B4A6A2"/>
<path d="M31.2156 29.7565H35.7306C36.2755 29.7565 36.5869 29.373 36.5869 28.9896V17.0257C36.5869 14.4182 36.4312 10.8136 39.7007 10.8136C42.8923 10.8136 42.4252 14.4949 42.4252 17.0257V28.9896C42.4252 29.4497 42.8144 29.7565 43.2037 29.7565H47.7186C48.2635 29.7565 48.5749 29.373 48.5749 28.9896V17.0257C48.5749 15.7219 48.4971 13.8046 49.042 12.6542C49.509 11.5039 50.5989 10.8136 51.6887 10.8136C53.012 10.8136 54.024 11.2738 54.2575 12.7309C54.4911 13.6512 54.4132 16.0287 54.4132 16.949V28.9129C54.4132 29.373 54.8025 29.6798 55.1917 29.6798H59.7066C60.2516 29.6798 60.5629 29.2964 60.5629 28.9129V14.6482C60.5629 12.1941 60.8743 9.4332 59.3953 7.59259C58.1498 5.90538 56.048 5.06177 54.2575 5.06177C51.6887 5.06177 49.1977 6.44222 48.1078 9.27981C46.8623 6.44222 45.1498 5.06177 42.3474 5.06177C39.6228 5.06177 37.5989 6.44222 36.509 9.27981H36.4312V6.36553C36.4312 5.90538 36.042 5.6753 35.6528 5.59861H31.527C30.9821 5.59861 30.6707 5.98207 30.6707 6.36553V28.9129C30.4372 29.373 30.7486 29.6798 31.2156 29.7565Z" fill="#B4A6A2"/>
<path d="M118.09 5.13843C111.629 5.13843 108.048 10.6602 108.048 17.6392C108.048 24.6181 111.629 30.2166 118.09 30.2166C124.318 30.2166 128.288 24.6948 128.288 17.8693C128.365 10.8136 124.785 5.13843 118.09 5.13843ZM118.09 25.5384C114.587 25.5384 114.587 19.6332 114.587 16.8723C114.587 14.1114 114.821 9.73993 118.09 9.73993C119.569 9.73993 120.503 10.3535 120.97 11.964C121.515 13.7279 121.593 16.0287 121.593 17.9459C121.749 20.8602 121.593 25.5384 118.09 25.5384Z" fill="#B4A6A2"/>
<path d="M143.623 5.13843C140.509 5.13843 138.796 6.67226 137.551 9.73993H137.473V6.2888C137.395 5.90535 137.006 5.67527 136.695 5.67527H132.569C132.102 5.67527 131.79 6.05873 131.713 6.3655V28.9129C131.713 29.373 132.102 29.6798 132.491 29.6798H136.928C137.473 29.6798 137.785 29.2963 137.785 28.9129V16.7956C137.785 15.2617 137.862 13.8813 138.485 12.5008C139.03 11.4271 140.042 10.7369 141.054 10.7369C144.168 10.7369 143.856 14.3414 143.856 16.7956V29.0662C143.934 29.4497 144.246 29.7565 144.635 29.7565H149.15C149.617 29.7565 149.928 29.4497 150.006 29.0662V14.8783C150.006 12.6542 150.006 9.66324 148.838 7.89933C147.593 5.82865 145.647 5.13843 143.623 5.13843Z" fill="#B4A6A2"/>
<path d="M77.5331 14.4948C74.9643 14.8016 71.617 15.0316 69.126 16.0286C66.3236 17.2557 64.3774 19.6331 64.3774 23.2377C64.3774 27.8392 67.2577 30.0632 71.0721 30.0632C74.2637 30.0632 75.9763 29.373 78.4673 26.8422C79.2457 27.9925 79.5571 28.5294 81.0361 29.7564C81.4254 29.9098 81.7367 29.9098 82.126 29.6798C82.9822 28.9128 84.6948 27.5324 85.5511 26.7655C85.9403 26.4587 85.8625 25.9986 85.5511 25.6151C84.7727 24.4647 83.9164 23.6211 83.9164 21.5504V14.7249C83.9164 11.8106 84.1499 9.12637 81.9703 7.13239C80.3355 5.52186 77.3774 4.90833 75.1978 4.90833C70.9164 4.90833 66.2457 6.44216 65.2337 11.5805C65.1559 12.1173 65.5451 12.4241 65.8565 12.5008L70.0601 13.0377C70.5271 13.0377 70.7607 12.5775 70.8385 12.2707C71.2277 10.5068 72.7068 9.66321 74.4194 9.66321C75.3535 9.66321 76.3655 10.0467 76.9882 10.8136C77.611 11.7339 77.5331 12.961 77.5331 14.0346V14.4948ZM76.599 23.6211C75.8984 24.8482 74.8086 25.6151 73.4852 25.6151C71.7727 25.6151 70.7607 24.3113 70.7607 22.394C70.7607 18.6361 74.1858 17.9459 77.4553 17.9459V18.8662C77.5331 20.7068 77.5331 22.164 76.599 23.6211Z" fill="#B4A6A2"/>
<path d="M26.9342 25.6151C26.1558 24.4647 25.2995 23.6211 25.2995 21.5504V14.7249C25.2995 11.8106 25.533 9.12637 23.3534 7.13239C21.6408 5.52186 18.7606 4.90833 16.5809 4.90833C12.2995 4.90833 7.62883 6.44216 6.61686 11.5805C6.53901 12.1173 6.92824 12.4241 7.23961 12.5008L11.5989 12.961C12.066 12.961 12.2995 12.5008 12.3773 12.194C12.7666 10.4301 14.2456 9.58652 16.036 9.58652C16.9702 9.58652 17.9821 9.96998 18.6049 10.7369C19.2276 11.6572 19.1498 12.8843 19.1498 13.958V14.4948C16.5031 14.8016 13.1558 15.0316 10.6648 16.0286C7.86237 17.2557 5.91626 19.6331 5.91626 23.2377C5.91626 27.8392 8.7965 30.0632 12.6109 30.0632C15.8025 30.0632 17.5151 29.373 20.0061 26.8422C20.7845 27.9925 21.0959 28.5294 22.5749 29.7564C22.9642 29.9098 23.2755 29.9098 23.6648 29.6798C24.5211 28.9128 26.2336 27.5324 27.0899 26.7655C27.3234 26.4587 27.2456 25.9986 26.9342 25.6151ZM18.2157 23.6211C17.5151 24.8482 16.4252 25.6151 15.1019 25.6151C13.3893 25.6151 12.4552 24.3113 12.4552 22.394C12.4552 18.6361 15.8803 17.9459 19.1498 17.9459V18.8662C18.9941 20.7068 19.0719 22.164 18.2157 23.6211Z" fill="#B4A6A2"/>
</svg>
