<svg width="157" height="51" viewBox="0 0 157 51" fill="none" xmlns="http://www.w3.org/2000/svg">
<path d="M38.78 17.7924H20.4477V23.0842H33.4527C32.8259 30.5233 26.4801 33.7443 20.4477 33.7443C12.77 33.7443 6.11086 27.839 6.11086 19.5563C6.1892 11.5037 12.535 5.36837 20.526 5.36837C26.7151 5.36837 30.3189 9.20296 30.3189 9.20296L34.1578 5.36837C34.1578 5.36837 29.3005 0.0766401 20.3693 0.0766401C8.93122 -5.164e-05 0.235107 9.35634 0.235107 19.4796C0.235107 29.3729 8.46115 39.036 20.6044 39.036C31.2591 39.036 39.0934 31.9037 39.0934 21.3202C39.0934 19.0962 38.78 17.7924 38.78 17.7924Z" fill="#B4A6A2"/>
<path d="M53.7435 13.9579C46.2226 13.9579 40.8169 19.7098 40.8169 26.3819C40.8169 33.2075 46.0659 39.0361 53.8219 39.0361C60.8728 39.0361 66.5918 33.7443 66.5918 26.5353C66.5918 18.1759 59.9327 13.9579 53.7435 13.9579ZM53.8219 18.8662C57.504 18.8662 61.0295 21.7804 61.0295 26.4586C61.0295 31.0601 57.5824 34.0511 53.8219 34.0511C49.748 34.0511 46.536 30.8301 46.536 26.3819C46.4576 22.0872 49.6697 18.8662 53.8219 18.8662Z" fill="#B4A6A2"/>
<path d="M81.7904 13.9579C74.2695 13.9579 68.8638 19.7098 68.8638 26.3819C68.8638 33.2075 74.1128 39.0361 81.8688 39.0361C88.9197 39.0361 94.6387 33.7443 94.6387 26.5353C94.6387 18.1759 87.9795 13.9579 81.7904 13.9579ZM81.8688 18.8662C85.5509 18.8662 89.0763 21.7804 89.0763 26.4586C89.0763 31.0601 85.6292 34.0511 81.8688 34.0511C77.7949 34.0511 74.5828 30.8301 74.5828 26.3819C74.5045 22.0872 77.7166 18.8662 81.8688 18.8662Z" fill="#B4A6A2"/>
<path d="M109.289 13.9579C102.395 13.9579 96.989 19.8631 96.989 26.5353C96.989 34.0511 103.256 39.1128 109.211 39.1128C112.893 39.1128 114.773 37.6556 116.261 36.0451V38.4992C116.261 42.794 113.598 45.4015 109.524 45.4015C105.607 45.4015 103.648 42.5639 102.943 40.9534L97.9291 42.9474C99.6527 46.5519 103.178 50.3098 109.446 50.3098C116.261 50.3098 121.51 46.0917 121.51 37.1955V14.7248H116.105V16.8722C114.538 15.1083 112.266 13.9579 109.289 13.9579ZM109.759 18.8662C113.128 18.8662 116.575 21.7037 116.575 26.5353C116.575 31.4436 113.128 34.1278 109.681 34.1278C105.998 34.1278 102.551 31.2135 102.551 26.5353C102.63 21.7037 106.155 18.8662 109.759 18.8662Z" fill="#B4A6A2"/>
<path d="M145.484 13.8812C138.981 13.8812 133.497 18.9429 133.497 26.382C133.497 34.2812 139.608 38.9594 146.11 38.9594C151.516 38.9594 154.885 36.0451 156.843 33.4376L152.378 30.5233C151.203 32.2872 149.322 33.9745 146.11 33.9745C142.507 33.9745 140.861 32.0572 139.843 30.1399L157 23.1609L156.138 21.0902C154.415 17.2557 150.576 13.8812 145.484 13.8812ZM145.64 18.7128C147.991 18.7128 149.636 19.9399 150.419 21.397L138.903 26.0752C138.433 22.4707 141.958 18.7128 145.64 18.7128Z" fill="#B4A6A2"/>
<path d="M125.271 38.2691H130.912V1.30371H125.271V38.2691Z" fill="#B4A6A2"/>
</svg>
