<svg width="1578" height="969" viewBox="0 0 1578 969" fill="none" xmlns="http://www.w3.org/2000/svg">
<rect width="1578" height="969" fill="#D9E6FF"/>
<rect width="1440" height="84" transform="translate(69 442)" fill="white"/>
<path d="M158.153 482.04H159.955C159.562 479.773 157.625 478.205 155.114 478.205C152.102 478.205 149.903 480.472 149.903 484.188C149.903 487.869 152.04 490.159 155.193 490.159C158.017 490.159 160.034 488.307 160.034 485.369V484.045H155.46V485.494H158.335C158.295 487.369 157.057 488.557 155.193 488.557C153.142 488.557 151.648 487.006 151.648 484.176C151.648 481.358 153.153 479.807 155.125 479.807C156.67 479.807 157.716 480.659 158.153 482.04ZM167.655 486.381C167.661 487.864 166.558 488.568 165.604 488.568C164.553 488.568 163.825 487.807 163.825 486.619V481.273H162.126V486.824C162.126 488.989 163.314 490.114 164.99 490.114C166.303 490.114 167.195 489.42 167.598 488.489H167.689V490H169.359V481.273H167.655V486.381ZM171.642 490H173.341V481.273H171.642V490ZM172.5 479.926C173.085 479.926 173.574 479.472 173.574 478.915C173.574 478.358 173.085 477.898 172.5 477.898C171.909 477.898 171.426 478.358 171.426 478.915C171.426 479.472 171.909 479.926 172.5 479.926ZM178.893 490.17C180.484 490.17 181.109 489.199 181.416 488.642H181.558V490H183.217V478.364H181.518V482.688H181.416C181.109 482.148 180.53 481.159 178.905 481.159C176.797 481.159 175.246 482.824 175.246 485.653C175.246 488.477 176.774 490.17 178.893 490.17ZM179.268 488.722C177.751 488.722 176.962 487.386 176.962 485.636C176.962 483.903 177.734 482.602 179.268 482.602C180.751 482.602 181.547 483.812 181.547 485.636C181.547 487.472 180.734 488.722 179.268 488.722ZM189.403 490.176C191.307 490.176 192.653 489.239 193.04 487.818L191.432 487.528C191.125 488.352 190.386 488.773 189.42 488.773C187.966 488.773 186.989 487.83 186.943 486.148H193.148V485.545C193.148 482.392 191.261 481.159 189.284 481.159C186.852 481.159 185.25 483.011 185.25 485.693C185.25 488.403 186.83 490.176 189.403 490.176ZM186.949 484.875C187.017 483.636 187.915 482.562 189.295 482.562C190.614 482.562 191.477 483.54 191.483 484.875H186.949Z" fill="#242424"/>
<path d="M239.045 490C242.591 490 244.642 487.801 244.642 484.165C244.642 480.545 242.591 478.364 239.165 478.364H235.278V490H239.045ZM237.034 488.466V479.898H239.057C241.602 479.898 242.915 481.42 242.915 484.165C242.915 486.92 241.602 488.466 238.949 488.466H237.034ZM250.365 490.176C252.825 490.176 254.433 488.375 254.433 485.676C254.433 482.96 252.825 481.159 250.365 481.159C247.905 481.159 246.297 482.96 246.297 485.676C246.297 488.375 247.905 490.176 250.365 490.176ZM250.371 488.75C248.763 488.75 248.013 487.347 248.013 485.67C248.013 484 248.763 482.58 250.371 482.58C251.967 482.58 252.717 484 252.717 485.67C252.717 487.347 251.967 488.75 250.371 488.75ZM260.006 490.176C262.068 490.176 263.403 488.938 263.591 487.239H261.938C261.722 488.182 260.989 488.739 260.017 488.739C258.58 488.739 257.653 487.54 257.653 485.636C257.653 483.767 258.597 482.591 260.017 482.591C261.097 482.591 261.756 483.273 261.938 484.091H263.591C263.409 482.33 261.972 481.159 259.989 481.159C257.528 481.159 255.938 483.011 255.938 485.676C255.938 488.307 257.472 490.176 260.006 490.176ZM270.936 486.381C270.942 487.864 269.839 488.568 268.885 488.568C267.834 488.568 267.107 487.807 267.107 486.619V481.273H265.408V486.824C265.408 488.989 266.595 490.114 268.271 490.114C269.584 490.114 270.476 489.42 270.879 488.489H270.97V490H272.641V481.273H270.936V486.381ZM274.923 490H276.622V484.619C276.622 483.443 277.446 482.625 278.412 482.625C279.355 482.625 280.009 483.25 280.009 484.199V490H281.702V484.438C281.702 483.386 282.344 482.625 283.452 482.625C284.349 482.625 285.088 483.125 285.088 484.307V490H286.787V484.148C286.787 482.153 285.673 481.159 284.094 481.159C282.838 481.159 281.895 481.761 281.474 482.693H281.384C281.003 481.739 280.202 481.159 279.037 481.159C277.884 481.159 277.026 481.733 276.662 482.693H276.554V481.273H274.923V490ZM292.825 490.176C294.729 490.176 296.075 489.239 296.462 487.818L294.854 487.528C294.547 488.352 293.808 488.773 292.842 488.773C291.388 488.773 290.411 487.83 290.365 486.148H296.57V485.545C296.57 482.392 294.683 481.159 292.706 481.159C290.274 481.159 288.672 483.011 288.672 485.693C288.672 488.403 290.251 490.176 292.825 490.176ZM290.371 484.875C290.439 483.636 291.337 482.562 292.717 482.562C294.036 482.562 294.899 483.54 294.905 484.875H290.371ZM300.153 484.818C300.153 483.426 301.006 482.631 302.188 482.631C303.341 482.631 304.04 483.386 304.04 484.653V490H305.739V484.449C305.739 482.29 304.551 481.159 302.767 481.159C301.455 481.159 300.597 481.767 300.193 482.693H300.085V481.273H298.455V490H300.153V484.818ZM312.091 481.273H310.301V479.182H308.602V481.273H307.324V482.636H308.602V487.79C308.597 489.375 309.807 490.142 311.148 490.114C311.688 490.108 312.051 490.006 312.25 489.932L311.943 488.528C311.83 488.551 311.619 488.602 311.347 488.602C310.795 488.602 310.301 488.42 310.301 487.438V482.636H312.091V481.273ZM320.369 483.403C320.017 482.045 318.955 481.159 317.068 481.159C315.097 481.159 313.699 482.199 313.699 483.744C313.699 484.983 314.449 485.807 316.085 486.17L317.562 486.494C318.403 486.682 318.795 487.057 318.795 487.602C318.795 488.278 318.074 488.807 316.96 488.807C315.943 488.807 315.29 488.369 315.085 487.511L313.443 487.761C313.727 489.307 315.011 490.176 316.972 490.176C319.08 490.176 320.54 489.057 320.54 487.477C320.54 486.244 319.756 485.483 318.153 485.114L316.767 484.795C315.807 484.568 315.392 484.244 315.398 483.653C315.392 482.983 316.119 482.506 317.085 482.506C318.142 482.506 318.631 483.091 318.83 483.676L320.369 483.403Z" fill="#242424"/>
<path d="M372.943 482.148C372.545 479.659 370.597 478.205 368.136 478.205C365.125 478.205 362.903 480.46 362.903 484.182C362.903 487.903 365.114 490.159 368.136 490.159C370.693 490.159 372.562 488.557 372.943 486.256L371.17 486.25C370.869 487.739 369.619 488.557 368.148 488.557C366.153 488.557 364.648 487.028 364.648 484.182C364.648 481.358 366.148 479.807 368.153 479.807C369.636 479.807 370.881 480.642 371.17 482.148H372.943ZM378.584 490.176C381.044 490.176 382.652 488.375 382.652 485.676C382.652 482.96 381.044 481.159 378.584 481.159C376.124 481.159 374.516 482.96 374.516 485.676C374.516 488.375 376.124 490.176 378.584 490.176ZM378.589 488.75C376.982 488.75 376.232 487.347 376.232 485.67C376.232 484 376.982 482.58 378.589 482.58C380.186 482.58 380.936 484 380.936 485.67C380.936 487.347 380.186 488.75 378.589 488.75ZM384.548 490H386.247V484.619C386.247 483.443 387.071 482.625 388.037 482.625C388.98 482.625 389.634 483.25 389.634 484.199V490H391.327V484.438C391.327 483.386 391.969 482.625 393.077 482.625C393.974 482.625 394.713 483.125 394.713 484.307V490H396.412V484.148C396.412 482.153 395.298 481.159 393.719 481.159C392.463 481.159 391.52 481.761 391.099 482.693H391.009C390.628 481.739 389.827 481.159 388.662 481.159C387.509 481.159 386.651 481.733 386.287 482.693H386.179V481.273H384.548V490ZM398.689 493.273H400.388V488.642H400.49C400.797 489.199 401.422 490.17 403.013 490.17C405.126 490.17 406.661 488.477 406.661 485.653C406.661 482.824 405.104 481.159 402.996 481.159C401.376 481.159 400.791 482.148 400.49 482.688H400.348V481.273H398.689V493.273ZM400.354 485.636C400.354 483.812 401.149 482.602 402.632 482.602C404.172 482.602 404.945 483.903 404.945 485.636C404.945 487.386 404.149 488.722 402.632 488.722C401.172 488.722 400.354 487.472 400.354 485.636ZM412.24 490.176C414.7 490.176 416.308 488.375 416.308 485.676C416.308 482.96 414.7 481.159 412.24 481.159C409.78 481.159 408.172 482.96 408.172 485.676C408.172 488.375 409.78 490.176 412.24 490.176ZM412.246 488.75C410.638 488.75 409.888 487.347 409.888 485.67C409.888 484 410.638 482.58 412.246 482.58C413.842 482.58 414.592 484 414.592 485.67C414.592 487.347 413.842 488.75 412.246 488.75ZM419.903 484.818C419.903 483.426 420.756 482.631 421.938 482.631C423.091 482.631 423.79 483.386 423.79 484.653V490H425.489V484.449C425.489 482.29 424.301 481.159 422.517 481.159C421.205 481.159 420.347 481.767 419.943 482.693H419.835V481.273H418.205V490H419.903V484.818ZM431.528 490.176C433.432 490.176 434.778 489.239 435.165 487.818L433.557 487.528C433.25 488.352 432.511 488.773 431.545 488.773C430.091 488.773 429.114 487.83 429.068 486.148H435.273V485.545C435.273 482.392 433.386 481.159 431.409 481.159C428.977 481.159 427.375 483.011 427.375 485.693C427.375 488.403 428.955 490.176 431.528 490.176ZM429.074 484.875C429.142 483.636 430.04 482.562 431.42 482.562C432.739 482.562 433.602 483.54 433.608 484.875H429.074ZM438.857 484.818C438.857 483.426 439.709 482.631 440.891 482.631C442.044 482.631 442.743 483.386 442.743 484.653V490H444.442V484.449C444.442 482.29 443.254 481.159 441.47 481.159C440.158 481.159 439.3 481.767 438.896 482.693H438.788V481.273H437.158V490H438.857V484.818ZM450.794 481.273H449.004V479.182H447.305V481.273H446.027V482.636H447.305V487.79C447.3 489.375 448.51 490.142 449.851 490.114C450.391 490.108 450.754 490.006 450.953 489.932L450.646 488.528C450.533 488.551 450.322 488.602 450.05 488.602C449.499 488.602 449.004 488.42 449.004 487.438V482.636H450.794V481.273ZM459.072 483.403C458.72 482.045 457.658 481.159 455.771 481.159C453.8 481.159 452.402 482.199 452.402 483.744C452.402 484.983 453.152 485.807 454.788 486.17L456.266 486.494C457.107 486.682 457.499 487.057 457.499 487.602C457.499 488.278 456.777 488.807 455.663 488.807C454.646 488.807 453.993 488.369 453.788 487.511L452.146 487.761C452.43 489.307 453.714 490.176 455.675 490.176C457.783 490.176 459.243 489.057 459.243 487.477C459.243 486.244 458.459 485.483 456.857 485.114L455.47 484.795C454.51 484.568 454.095 484.244 454.101 483.653C454.095 482.983 454.822 482.506 455.788 482.506C456.845 482.506 457.334 483.091 457.533 483.676L459.072 483.403Z" fill="#242424"/>
<path d="M469 483L473 487L477 483" stroke="#9C9C9C" stroke-linecap="round" stroke-linejoin="round"/>
<path d="M522.278 490H529.307V488.489H524.034V478.364H522.278V490ZM531.173 490H532.872V481.273H531.173V490ZM532.031 479.926C532.616 479.926 533.105 479.472 533.105 478.915C533.105 478.358 532.616 477.898 532.031 477.898C531.44 477.898 530.957 478.358 530.957 478.915C530.957 479.472 531.44 479.926 532.031 479.926ZM538.834 490.176C540.896 490.176 542.232 488.938 542.419 487.239H540.766C540.55 488.182 539.817 488.739 538.845 488.739C537.408 488.739 536.482 487.54 536.482 485.636C536.482 483.767 537.425 482.591 538.845 482.591C539.925 482.591 540.584 483.273 540.766 484.091H542.419C542.237 482.33 540.8 481.159 538.817 481.159C536.357 481.159 534.766 483.011 534.766 485.676C534.766 488.307 536.3 490.176 538.834 490.176ZM547.997 490.176C549.901 490.176 551.247 489.239 551.634 487.818L550.026 487.528C549.719 488.352 548.98 488.773 548.014 488.773C546.56 488.773 545.582 487.83 545.537 486.148H551.741V485.545C551.741 482.392 549.855 481.159 547.878 481.159C545.446 481.159 543.844 483.011 543.844 485.693C543.844 488.403 545.423 490.176 547.997 490.176ZM545.543 484.875C545.611 483.636 546.509 482.562 547.889 482.562C549.207 482.562 550.071 483.54 550.077 484.875H545.543ZM555.325 484.818C555.325 483.426 556.178 482.631 557.359 482.631C558.513 482.631 559.212 483.386 559.212 484.653V490H560.911V484.449C560.911 482.29 559.723 481.159 557.939 481.159C556.626 481.159 555.768 481.767 555.365 482.693H555.257V481.273H553.626V490H555.325V484.818ZM569.729 483.403C569.376 482.045 568.314 481.159 566.428 481.159C564.456 481.159 563.058 482.199 563.058 483.744C563.058 484.983 563.808 485.807 565.445 486.17L566.922 486.494C567.763 486.682 568.155 487.057 568.155 487.602C568.155 488.278 567.433 488.807 566.32 488.807C565.303 488.807 564.649 488.369 564.445 487.511L562.803 487.761C563.087 489.307 564.371 490.176 566.331 490.176C568.439 490.176 569.899 489.057 569.899 487.477C569.899 486.244 569.115 485.483 567.513 485.114L566.126 484.795C565.166 484.568 564.751 484.244 564.757 483.653C564.751 482.983 565.479 482.506 566.445 482.506C567.501 482.506 567.99 483.091 568.189 483.676L569.729 483.403ZM575.528 490.176C577.432 490.176 578.778 489.239 579.165 487.818L577.557 487.528C577.25 488.352 576.511 488.773 575.545 488.773C574.091 488.773 573.114 487.83 573.068 486.148H579.273V485.545C579.273 482.392 577.386 481.159 575.409 481.159C572.977 481.159 571.375 483.011 571.375 485.693C571.375 488.403 572.955 490.176 575.528 490.176ZM573.074 484.875C573.142 483.636 574.04 482.562 575.42 482.562C576.739 482.562 577.602 483.54 577.608 484.875H573.074Z" fill="#242424"/>
<path d="M1311 468C1311 466.343 1312.34 465 1314 465H1426C1427.66 465 1429 466.343 1429 468V501C1429 502.657 1427.66 504 1426 504H1314C1312.34 504 1311 502.657 1311 501V468Z" fill="#6B9EFF"/>
<path d="M1335.15 482.04H1336.95C1336.56 479.773 1334.62 478.205 1332.11 478.205C1329.1 478.205 1326.9 480.472 1326.9 484.188C1326.9 487.869 1329.04 490.159 1332.19 490.159C1335.02 490.159 1337.03 488.307 1337.03 485.369V484.045H1332.46V485.494H1335.34C1335.3 487.369 1334.06 488.557 1332.19 488.557C1330.14 488.557 1328.65 487.006 1328.65 484.176C1328.65 481.358 1330.15 479.807 1332.12 479.807C1333.67 479.807 1334.72 480.659 1335.15 482.04ZM1342.89 490.176C1344.79 490.176 1346.14 489.239 1346.52 487.818L1344.92 487.528C1344.61 488.352 1343.87 488.773 1342.9 488.773C1341.45 488.773 1340.47 487.83 1340.43 486.148H1346.63V485.545C1346.63 482.392 1344.75 481.159 1342.77 481.159C1340.34 481.159 1338.73 483.011 1338.73 485.693C1338.73 488.403 1340.31 490.176 1342.89 490.176ZM1340.43 484.875C1340.5 483.636 1341.4 482.562 1342.78 482.562C1344.1 482.562 1344.96 483.54 1344.97 484.875H1340.43ZM1352.59 481.273H1350.8V479.182H1349.1V481.273H1347.82V482.636H1349.1V487.79C1349.1 489.375 1350.31 490.142 1351.65 490.114C1352.19 490.108 1352.55 490.006 1352.75 489.932L1352.44 488.528C1352.33 488.551 1352.12 488.602 1351.85 488.602C1351.3 488.602 1350.8 488.42 1350.8 487.438V482.636H1352.59V481.273ZM1365.24 483.403C1364.89 482.045 1363.83 481.159 1361.94 481.159C1359.97 481.159 1358.57 482.199 1358.57 483.744C1358.57 484.983 1359.32 485.807 1360.96 486.17L1362.44 486.494C1363.28 486.682 1363.67 487.057 1363.67 487.602C1363.67 488.278 1362.95 488.807 1361.84 488.807C1360.82 488.807 1360.16 488.369 1359.96 487.511L1358.32 487.761C1358.6 489.307 1359.89 490.176 1361.85 490.176C1363.95 490.176 1365.41 489.057 1365.41 487.477C1365.41 486.244 1364.63 485.483 1363.03 485.114L1361.64 484.795C1360.68 484.568 1360.27 484.244 1360.27 483.653C1360.27 482.983 1360.99 482.506 1361.96 482.506C1363.02 482.506 1363.51 483.091 1363.7 483.676L1365.24 483.403ZM1371.36 481.273H1369.57V479.182H1367.87V481.273H1366.59V482.636H1367.87V487.79C1367.86 489.375 1369.07 490.142 1370.41 490.114C1370.95 490.108 1371.32 490.006 1371.52 489.932L1371.21 488.528C1371.1 488.551 1370.88 488.602 1370.61 488.602C1370.06 488.602 1369.57 488.42 1369.57 487.438V482.636H1371.36V481.273ZM1375.78 490.193C1377.22 490.193 1378.03 489.46 1378.36 488.807H1378.42V490H1380.08V484.205C1380.08 481.665 1378.08 481.159 1376.7 481.159C1375.12 481.159 1373.66 481.795 1373.09 483.386L1374.69 483.75C1374.94 483.131 1375.58 482.534 1376.72 482.534C1377.82 482.534 1378.38 483.108 1378.38 484.097V484.136C1378.38 484.756 1377.74 484.744 1376.17 484.926C1374.52 485.119 1372.83 485.551 1372.83 487.534C1372.83 489.25 1374.12 490.193 1375.78 490.193ZM1376.14 488.83C1375.18 488.83 1374.49 488.398 1374.49 487.557C1374.49 486.648 1375.3 486.324 1376.28 486.193C1376.83 486.119 1378.14 485.972 1378.38 485.727V486.852C1378.38 487.886 1377.56 488.83 1376.14 488.83ZM1382.35 490H1384.04V484.67C1384.04 483.528 1384.92 482.705 1386.13 482.705C1386.48 482.705 1386.88 482.767 1387.02 482.807V481.182C1386.85 481.159 1386.51 481.142 1386.29 481.142C1385.27 481.142 1384.4 481.722 1384.08 482.659H1383.99V481.273H1382.35V490ZM1393.08 481.273H1391.29V479.182H1389.59V481.273H1388.31V482.636H1389.59V487.79C1389.58 489.375 1390.79 490.142 1392.13 490.114C1392.67 490.108 1393.04 490.006 1393.23 489.932L1392.93 488.528C1392.81 488.551 1392.6 488.602 1392.33 488.602C1391.78 488.602 1391.29 488.42 1391.29 487.438V482.636H1393.08V481.273ZM1398.62 490.176C1400.53 490.176 1401.87 489.239 1402.26 487.818L1400.65 487.528C1400.34 488.352 1399.61 488.773 1398.64 488.773C1397.18 488.773 1396.21 487.83 1396.16 486.148H1402.37V485.545C1402.37 482.392 1400.48 481.159 1398.5 481.159C1396.07 481.159 1394.47 483.011 1394.47 485.693C1394.47 488.403 1396.05 490.176 1398.62 490.176ZM1396.17 484.875C1396.24 483.636 1397.13 482.562 1398.51 482.562C1399.83 482.562 1400.7 483.54 1400.7 484.875H1396.17ZM1407.52 490.17C1409.11 490.17 1409.73 489.199 1410.04 488.642H1410.18V490H1411.84V478.364H1410.14V482.688H1410.04C1409.73 482.148 1409.15 481.159 1407.53 481.159C1405.42 481.159 1403.87 482.824 1403.87 485.653C1403.87 488.477 1405.4 490.17 1407.52 490.17ZM1407.89 488.722C1406.38 488.722 1405.59 487.386 1405.59 485.636C1405.59 483.903 1406.36 482.602 1407.89 482.602C1409.38 482.602 1410.17 483.812 1410.17 485.636C1410.17 487.472 1409.36 488.722 1407.89 488.722Z" fill="white"/>
<g filter="url(#filter0_d_278_5948)">
<rect x="312" y="218" width="179" height="215" rx="6" fill="white"/>
<path d="M334.261 253L335.33 249.92H339.875L340.938 253H342.801L338.614 241.364H336.585L332.398 253H334.261ZM335.841 248.443L337.557 243.477H337.648L339.364 248.443H335.841ZM346.044 241.364H344.345V253H346.044V241.364ZM352.091 253.176C353.994 253.176 355.341 252.239 355.727 250.818L354.119 250.528C353.812 251.352 353.074 251.773 352.108 251.773C350.653 251.773 349.676 250.83 349.631 249.148H355.835V248.545C355.835 245.392 353.949 244.159 351.972 244.159C349.54 244.159 347.938 246.011 347.938 248.693C347.938 251.403 349.517 253.176 352.091 253.176ZM349.636 247.875C349.705 246.636 350.602 245.562 351.983 245.562C353.301 245.562 354.165 246.54 354.17 247.875H349.636ZM357.72 253H359.419V247.67C359.419 246.528 360.3 245.705 361.504 245.705C361.857 245.705 362.254 245.767 362.391 245.807V244.182C362.22 244.159 361.885 244.142 361.669 244.142C360.646 244.142 359.771 244.722 359.453 245.659H359.362V244.273H357.72V253ZM368.45 244.273H366.661V242.182H364.962V244.273H363.683V245.636H364.962V250.79C364.956 252.375 366.166 253.142 367.507 253.114C368.047 253.108 368.411 253.006 368.609 252.932L368.303 251.528C368.189 251.551 367.979 251.602 367.706 251.602C367.155 251.602 366.661 251.42 366.661 250.438V245.636H368.45V244.273ZM376.729 246.403C376.376 245.045 375.314 244.159 373.428 244.159C371.456 244.159 370.058 245.199 370.058 246.744C370.058 247.983 370.808 248.807 372.445 249.17L373.922 249.494C374.763 249.682 375.155 250.057 375.155 250.602C375.155 251.278 374.433 251.807 373.32 251.807C372.303 251.807 371.649 251.369 371.445 250.511L369.803 250.761C370.087 252.307 371.371 253.176 373.331 253.176C375.439 253.176 376.899 252.057 376.899 250.477C376.899 249.244 376.115 248.483 374.513 248.114L373.126 247.795C372.166 247.568 371.751 247.244 371.757 246.653C371.751 245.983 372.479 245.506 373.445 245.506C374.501 245.506 374.99 246.091 375.189 246.676L376.729 246.403Z" fill="#585858"/>
<path d="M334.261 292L335.33 288.92H339.875L340.938 292H342.801L338.614 280.364H336.585L332.398 292H334.261ZM335.841 287.443L337.557 282.477H337.648L339.364 287.443H335.841ZM347.881 292.176C349.943 292.176 351.278 290.938 351.466 289.239H349.812C349.597 290.182 348.864 290.739 347.892 290.739C346.455 290.739 345.528 289.54 345.528 287.636C345.528 285.767 346.472 284.591 347.892 284.591C348.972 284.591 349.631 285.273 349.812 286.091H351.466C351.284 284.33 349.847 283.159 347.864 283.159C345.403 283.159 343.812 285.011 343.812 287.676C343.812 290.307 345.347 292.176 347.881 292.176ZM356.959 292.176C359.021 292.176 360.357 290.938 360.544 289.239H358.891C358.675 290.182 357.942 290.739 356.97 290.739C355.533 290.739 354.607 289.54 354.607 287.636C354.607 285.767 355.55 284.591 356.97 284.591C358.05 284.591 358.709 285.273 358.891 286.091H360.544C360.362 284.33 358.925 283.159 356.942 283.159C354.482 283.159 352.891 285.011 352.891 287.676C352.891 290.307 354.425 292.176 356.959 292.176ZM366.037 292.176C368.497 292.176 370.105 290.375 370.105 287.676C370.105 284.96 368.497 283.159 366.037 283.159C363.577 283.159 361.969 284.96 361.969 287.676C361.969 290.375 363.577 292.176 366.037 292.176ZM366.043 290.75C364.435 290.75 363.685 289.347 363.685 287.67C363.685 286 364.435 284.58 366.043 284.58C367.639 284.58 368.389 286 368.389 287.67C368.389 289.347 367.639 290.75 366.043 290.75ZM372.001 292H373.7V286.67C373.7 285.528 374.581 284.705 375.786 284.705C376.138 284.705 376.536 284.767 376.672 284.807V283.182C376.501 283.159 376.166 283.142 375.95 283.142C374.928 283.142 374.053 283.722 373.734 284.659H373.643V283.273H372.001V292ZM381.097 292.17C382.688 292.17 383.312 291.199 383.619 290.642H383.761V292H385.42V280.364H383.722V284.688H383.619C383.312 284.148 382.733 283.159 381.108 283.159C379 283.159 377.449 284.824 377.449 287.653C377.449 290.477 378.977 292.17 381.097 292.17ZM381.472 290.722C379.955 290.722 379.165 289.386 379.165 287.636C379.165 285.903 379.938 284.602 381.472 284.602C382.955 284.602 383.75 285.812 383.75 287.636C383.75 289.472 382.938 290.722 381.472 290.722ZM387.845 292H389.544V283.273H387.845V292ZM388.703 281.926C389.288 281.926 389.777 281.472 389.777 280.915C389.777 280.358 389.288 279.898 388.703 279.898C388.112 279.898 387.629 280.358 387.629 280.915C387.629 281.472 388.112 281.926 388.703 281.926ZM393.528 286.818C393.528 285.426 394.381 284.631 395.562 284.631C396.716 284.631 397.415 285.386 397.415 286.653V292H399.114V286.449C399.114 284.29 397.926 283.159 396.142 283.159C394.83 283.159 393.972 283.767 393.568 284.693H393.46V283.273H391.83V292H393.528V286.818ZM405.051 295.455C407.273 295.455 408.989 294.438 408.989 292.193V283.273H407.324V284.688H407.199C406.898 284.148 406.295 283.159 404.67 283.159C402.562 283.159 401.011 284.824 401.011 287.602C401.011 290.386 402.597 291.869 404.659 291.869C406.261 291.869 406.881 290.966 407.188 290.409H407.295V292.125C407.295 293.494 406.358 294.085 405.068 294.085C403.653 294.085 403.102 293.375 402.801 292.875L401.341 293.477C401.801 294.545 402.966 295.455 405.051 295.455ZM405.034 290.46C403.517 290.46 402.727 289.295 402.727 287.58C402.727 285.903 403.5 284.602 405.034 284.602C406.517 284.602 407.312 285.812 407.312 287.58C407.312 289.381 406.5 290.46 405.034 290.46Z" fill="#585858"/>
<path d="M333.278 331H337.739C340.443 331 341.665 329.653 341.665 327.869C341.665 326.068 340.403 325.051 339.25 324.989V324.875C340.318 324.602 341.21 323.875 341.21 322.42C341.21 320.699 340.017 319.364 337.54 319.364H333.278V331ZM335.034 329.494V325.767H337.631C339.04 325.767 339.92 326.676 339.92 327.784C339.92 328.761 339.256 329.494 337.568 329.494H335.034ZM335.034 324.398V320.858H337.432C338.824 320.858 339.489 321.591 339.489 322.557C339.489 323.682 338.568 324.398 337.386 324.398H335.034ZM349.139 327.381C349.145 328.864 348.043 329.568 347.088 329.568C346.037 329.568 345.31 328.807 345.31 327.619V322.273H343.611V327.824C343.611 329.989 344.798 331.114 346.474 331.114C347.787 331.114 348.679 330.42 349.082 329.489H349.173V331H350.844V322.273H349.139V327.381ZM357.2 322.273H355.411V320.182H353.712V322.273H352.433V323.636H353.712V328.79C353.706 330.375 354.916 331.142 356.257 331.114C356.797 331.108 357.161 331.006 357.359 330.932L357.053 329.528C356.939 329.551 356.729 329.602 356.456 329.602C355.905 329.602 355.411 329.42 355.411 328.438V323.636H357.2V322.273ZM363.153 322.273H361.364V320.182H359.665V322.273H358.386V323.636H359.665V328.79C359.659 330.375 360.869 331.142 362.21 331.114C362.75 331.108 363.114 331.006 363.312 330.932L363.006 329.528C362.892 329.551 362.682 329.602 362.409 329.602C361.858 329.602 361.364 329.42 361.364 328.438V323.636H363.153V322.273ZM368.615 331.176C371.075 331.176 372.683 329.375 372.683 326.676C372.683 323.96 371.075 322.159 368.615 322.159C366.155 322.159 364.547 323.96 364.547 326.676C364.547 329.375 366.155 331.176 368.615 331.176ZM368.621 329.75C367.013 329.75 366.263 328.347 366.263 326.67C366.263 325 367.013 323.58 368.621 323.58C370.217 323.58 370.967 325 370.967 326.67C370.967 328.347 370.217 329.75 368.621 329.75ZM376.278 325.818C376.278 324.426 377.131 323.631 378.312 323.631C379.466 323.631 380.165 324.386 380.165 325.653V331H381.864V325.449C381.864 323.29 380.676 322.159 378.892 322.159C377.58 322.159 376.722 322.767 376.318 323.693H376.21V322.273H374.58V331H376.278V325.818ZM390.682 324.403C390.33 323.045 389.267 322.159 387.381 322.159C385.409 322.159 384.011 323.199 384.011 324.744C384.011 325.983 384.761 326.807 386.398 327.17L387.875 327.494C388.716 327.682 389.108 328.057 389.108 328.602C389.108 329.278 388.386 329.807 387.273 329.807C386.256 329.807 385.602 329.369 385.398 328.511L383.756 328.761C384.04 330.307 385.324 331.176 387.284 331.176C389.392 331.176 390.852 330.057 390.852 328.477C390.852 327.244 390.068 326.483 388.466 326.114L387.08 325.795C386.119 325.568 385.705 325.244 385.71 324.653C385.705 323.983 386.432 323.506 387.398 323.506C388.455 323.506 388.943 324.091 389.142 324.676L390.682 324.403Z" fill="#585858"/>
<path d="M333.278 370H337.739C340.443 370 341.665 368.653 341.665 366.869C341.665 365.068 340.403 364.051 339.25 363.989V363.875C340.318 363.602 341.21 362.875 341.21 361.42C341.21 359.699 340.017 358.364 337.54 358.364H333.278V370ZM335.034 368.494V364.767H337.631C339.04 364.767 339.92 365.676 339.92 366.784C339.92 367.761 339.256 368.494 337.568 368.494H335.034ZM335.034 363.398V359.858H337.432C338.824 359.858 339.489 360.591 339.489 361.557C339.489 362.682 338.568 363.398 337.386 363.398H335.034ZM349.139 366.381C349.145 367.864 348.043 368.568 347.088 368.568C346.037 368.568 345.31 367.807 345.31 366.619V361.273H343.611V366.824C343.611 368.989 344.798 370.114 346.474 370.114C347.787 370.114 348.679 369.42 349.082 368.489H349.173V370H350.844V361.273H349.139V366.381ZM357.2 361.273H355.411V359.182H353.712V361.273H352.433V362.636H353.712V367.79C353.706 369.375 354.916 370.142 356.257 370.114C356.797 370.108 357.161 370.006 357.359 369.932L357.053 368.528C356.939 368.551 356.729 368.602 356.456 368.602C355.905 368.602 355.411 368.42 355.411 367.438V362.636H357.2V361.273ZM363.153 361.273H361.364V359.182H359.665V361.273H358.386V362.636H359.665V367.79C359.659 369.375 360.869 370.142 362.21 370.114C362.75 370.108 363.114 370.006 363.312 369.932L363.006 368.528C362.892 368.551 362.682 368.602 362.409 368.602C361.858 368.602 361.364 368.42 361.364 367.438V362.636H363.153V361.273ZM368.615 370.176C371.075 370.176 372.683 368.375 372.683 365.676C372.683 362.96 371.075 361.159 368.615 361.159C366.155 361.159 364.547 362.96 364.547 365.676C364.547 368.375 366.155 370.176 368.615 370.176ZM368.621 368.75C367.013 368.75 366.263 367.347 366.263 365.67C366.263 364 367.013 362.58 368.621 362.58C370.217 362.58 370.967 364 370.967 365.67C370.967 367.347 370.217 368.75 368.621 368.75ZM376.278 364.818C376.278 363.426 377.131 362.631 378.312 362.631C379.466 362.631 380.165 363.386 380.165 364.653V370H381.864V364.449C381.864 362.29 380.676 361.159 378.892 361.159C377.58 361.159 376.722 361.767 376.318 362.693H376.21V361.273H374.58V370H376.278V364.818ZM392.036 373.455C394.257 373.455 395.973 372.438 395.973 370.193V361.273H394.308V362.688H394.183C393.882 362.148 393.28 361.159 391.655 361.159C389.547 361.159 387.996 362.824 387.996 365.602C387.996 368.386 389.581 369.869 391.643 369.869C393.246 369.869 393.865 368.966 394.172 368.409H394.28V370.125C394.28 371.494 393.342 372.085 392.053 372.085C390.638 372.085 390.087 371.375 389.786 370.875L388.325 371.477C388.786 372.545 389.95 373.455 392.036 373.455ZM392.018 368.46C390.501 368.46 389.712 367.295 389.712 365.58C389.712 363.903 390.484 362.602 392.018 362.602C393.501 362.602 394.297 363.812 394.297 365.58C394.297 367.381 393.484 368.46 392.018 368.46ZM398.251 370H399.95V364.67C399.95 363.528 400.831 362.705 402.036 362.705C402.388 362.705 402.786 362.767 402.922 362.807V361.182C402.751 361.159 402.416 361.142 402.2 361.142C401.178 361.142 400.303 361.722 399.984 362.659H399.893V361.273H398.251V370ZM407.756 370.176C410.216 370.176 411.824 368.375 411.824 365.676C411.824 362.96 410.216 361.159 407.756 361.159C405.295 361.159 403.688 362.96 403.688 365.676C403.688 368.375 405.295 370.176 407.756 370.176ZM407.761 368.75C406.153 368.75 405.403 367.347 405.403 365.67C405.403 364 406.153 362.58 407.761 362.58C409.358 362.58 410.108 364 410.108 365.67C410.108 367.347 409.358 368.75 407.761 368.75ZM419.249 366.381C419.254 367.864 418.152 368.568 417.197 368.568C416.146 368.568 415.419 367.807 415.419 366.619V361.273H413.72V366.824C413.72 368.989 414.908 370.114 416.584 370.114C417.896 370.114 418.788 369.42 419.192 368.489H419.283V370H420.953V361.273H419.249V366.381ZM423.236 373.273H424.935V368.642H425.037C425.344 369.199 425.969 370.17 427.56 370.17C429.673 370.17 431.207 368.477 431.207 365.653C431.207 362.824 429.651 361.159 427.543 361.159C425.923 361.159 425.338 362.148 425.037 362.688H424.895V361.273H423.236V373.273ZM424.901 365.636C424.901 363.812 425.696 362.602 427.179 362.602C428.719 362.602 429.491 363.903 429.491 365.636C429.491 367.386 428.696 368.722 427.179 368.722C425.719 368.722 424.901 367.472 424.901 365.636ZM439.651 363.403C439.298 362.045 438.236 361.159 436.349 361.159C434.378 361.159 432.98 362.199 432.98 363.744C432.98 364.983 433.73 365.807 435.366 366.17L436.844 366.494C437.685 366.682 438.077 367.057 438.077 367.602C438.077 368.278 437.355 368.807 436.241 368.807C435.224 368.807 434.571 368.369 434.366 367.511L432.724 367.761C433.009 369.307 434.293 370.176 436.253 370.176C438.361 370.176 439.821 369.057 439.821 367.477C439.821 366.244 439.037 365.483 437.435 365.114L436.048 364.795C435.088 364.568 434.673 364.244 434.679 363.653C434.673 362.983 435.401 362.506 436.366 362.506C437.423 362.506 437.912 363.091 438.111 363.676L439.651 363.403Z" fill="#585858"/>
<path d="M333.278 409H337.739C340.443 409 341.665 407.653 341.665 405.869C341.665 404.068 340.403 403.051 339.25 402.989V402.875C340.318 402.602 341.21 401.875 341.21 400.42C341.21 398.699 340.017 397.364 337.54 397.364H333.278V409ZM335.034 407.494V403.767H337.631C339.04 403.767 339.92 404.676 339.92 405.784C339.92 406.761 339.256 407.494 337.568 407.494H335.034ZM335.034 402.398V398.858H337.432C338.824 398.858 339.489 399.591 339.489 400.557C339.489 401.682 338.568 402.398 337.386 402.398H335.034ZM346.151 409.193C347.594 409.193 348.406 408.46 348.73 407.807H348.798V409H350.457V403.205C350.457 400.665 348.457 400.159 347.071 400.159C345.491 400.159 344.037 400.795 343.469 402.386L345.065 402.75C345.315 402.131 345.952 401.534 347.094 401.534C348.19 401.534 348.753 402.108 348.753 403.097V403.136C348.753 403.756 348.116 403.744 346.548 403.926C344.895 404.119 343.202 404.551 343.202 406.534C343.202 408.25 344.491 409.193 346.151 409.193ZM346.52 407.83C345.56 407.83 344.866 407.398 344.866 406.557C344.866 405.648 345.673 405.324 346.656 405.193C347.207 405.119 348.514 404.972 348.759 404.727V405.852C348.759 406.886 347.935 407.83 346.52 407.83ZM355.987 409.17C357.578 409.17 358.203 408.199 358.51 407.642H358.652V409H360.311V397.364H358.612V401.688H358.51C358.203 401.148 357.624 400.159 355.999 400.159C353.891 400.159 352.339 401.824 352.339 404.653C352.339 407.477 353.868 409.17 355.987 409.17ZM356.362 407.722C354.845 407.722 354.055 406.386 354.055 404.636C354.055 402.903 354.828 401.602 356.362 401.602C357.845 401.602 358.641 402.812 358.641 404.636C358.641 406.472 357.828 407.722 356.362 407.722ZM366.395 412.455C368.616 412.455 370.332 411.438 370.332 409.193V400.273H368.668V401.688H368.543C368.241 401.148 367.639 400.159 366.014 400.159C363.906 400.159 362.355 401.824 362.355 404.602C362.355 407.386 363.94 408.869 366.003 408.869C367.605 408.869 368.224 407.966 368.531 407.409H368.639V409.125C368.639 410.494 367.702 411.085 366.412 411.085C364.997 411.085 364.446 410.375 364.145 409.875L362.685 410.477C363.145 411.545 364.31 412.455 366.395 412.455ZM366.378 407.46C364.861 407.46 364.071 406.295 364.071 404.58C364.071 402.903 364.844 401.602 366.378 401.602C367.861 401.602 368.656 402.812 368.656 404.58C368.656 406.381 367.844 407.46 366.378 407.46ZM376.372 409.176C378.276 409.176 379.622 408.239 380.009 406.818L378.401 406.528C378.094 407.352 377.355 407.773 376.389 407.773C374.935 407.773 373.957 406.83 373.912 405.148H380.116V404.545C380.116 401.392 378.23 400.159 376.253 400.159C373.821 400.159 372.219 402.011 372.219 404.693C372.219 407.403 373.798 409.176 376.372 409.176ZM373.918 403.875C373.986 402.636 374.884 401.562 376.264 401.562C377.582 401.562 378.446 402.54 378.452 403.875H373.918ZM388.541 402.403C388.189 401.045 387.126 400.159 385.24 400.159C383.268 400.159 381.871 401.199 381.871 402.744C381.871 403.983 382.621 404.807 384.257 405.17L385.734 405.494C386.575 405.682 386.967 406.057 386.967 406.602C386.967 407.278 386.246 407.807 385.132 407.807C384.115 407.807 383.462 407.369 383.257 406.511L381.615 406.761C381.899 408.307 383.183 409.176 385.143 409.176C387.251 409.176 388.712 408.057 388.712 406.477C388.712 405.244 387.928 404.483 386.325 404.114L384.939 403.795C383.979 403.568 383.564 403.244 383.57 402.653C383.564 401.983 384.291 401.506 385.257 401.506C386.314 401.506 386.803 402.091 387.001 402.676L388.541 402.403Z" fill="#585858"/>
</g>
<defs>
<filter id="filter0_d_278_5948" x="298" y="211" width="207" height="243" filterUnits="userSpaceOnUse" color-interpolation-filters="sRGB">
<feFlood flood-opacity="0" result="BackgroundImageFix"/>
<feColorMatrix in="SourceAlpha" type="matrix" values="0 0 0 0 0 0 0 0 0 0 0 0 0 0 0 0 0 0 127 0" result="hardAlpha"/>
<feOffset dy="7"/>
<feGaussianBlur stdDeviation="7"/>
<feComposite in2="hardAlpha" operator="out"/>
<feColorMatrix type="matrix" values="0 0 0 0 0 0 0 0 0 0 0 0 0 0 0 0 0 0 0.02 0"/>
<feBlend mode="normal" in2="BackgroundImageFix" result="effect1_dropShadow_278_5948"/>
<feBlend mode="normal" in="SourceGraphic" in2="effect1_dropShadow_278_5948" result="shape"/>
</filter>
</defs>
</svg>
