<svg width="1578" height="969" viewBox="0 0 1578 969" fill="none" xmlns="http://www.w3.org/2000/svg">
<rect width="1578" height="969" fill="#D9E6FF"/>
<rect width="1440" height="84" transform="translate(69 442)" fill="white"/>
<path d="M1027.15 482.04H1028.95C1028.56 479.773 1026.62 478.205 1024.11 478.205C1021.1 478.205 1018.9 480.472 1018.9 484.188C1018.9 487.869 1021.04 490.159 1024.19 490.159C1027.02 490.159 1029.03 488.307 1029.03 485.369V484.045H1024.46V485.494H1027.34C1027.3 487.369 1026.06 488.557 1024.19 488.557C1022.14 488.557 1020.65 487.006 1020.65 484.176C1020.65 481.358 1022.15 479.807 1024.12 479.807C1025.67 479.807 1026.72 480.659 1027.15 482.04ZM1036.65 486.381C1036.66 487.864 1035.56 488.568 1034.6 488.568C1033.55 488.568 1032.83 487.807 1032.83 486.619V481.273H1031.13V486.824C1031.13 488.989 1032.31 490.114 1033.99 490.114C1035.3 490.114 1036.19 489.42 1036.6 488.489H1036.69V490H1038.36V481.273H1036.65V486.381ZM1040.64 490H1042.34V481.273H1040.64V490ZM1041.5 479.926C1042.09 479.926 1042.57 479.472 1042.57 478.915C1042.57 478.358 1042.09 477.898 1041.5 477.898C1040.91 477.898 1040.43 478.358 1040.43 478.915C1040.43 479.472 1040.91 479.926 1041.5 479.926ZM1047.89 490.17C1049.48 490.17 1050.11 489.199 1050.42 488.642H1050.56V490H1052.22V478.364H1050.52V482.688H1050.42C1050.11 482.148 1049.53 481.159 1047.9 481.159C1045.8 481.159 1044.25 482.824 1044.25 485.653C1044.25 488.477 1045.77 490.17 1047.89 490.17ZM1048.27 488.722C1046.75 488.722 1045.96 487.386 1045.96 485.636C1045.96 483.903 1046.73 482.602 1048.27 482.602C1049.75 482.602 1050.55 483.812 1050.55 485.636C1050.55 487.472 1049.73 488.722 1048.27 488.722ZM1058.4 490.176C1060.31 490.176 1061.65 489.239 1062.04 487.818L1060.43 487.528C1060.12 488.352 1059.39 488.773 1058.42 488.773C1056.97 488.773 1055.99 487.83 1055.94 486.148H1062.15V485.545C1062.15 482.392 1060.26 481.159 1058.28 481.159C1055.85 481.159 1054.25 483.011 1054.25 485.693C1054.25 488.403 1055.83 490.176 1058.4 490.176ZM1055.95 484.875C1056.02 483.636 1056.91 482.562 1058.3 482.562C1059.61 482.562 1060.48 483.54 1060.48 484.875H1055.95Z" fill="#242424"/>
<path d="M1108.05 490C1111.59 490 1113.64 487.801 1113.64 484.165C1113.64 480.545 1111.59 478.364 1108.16 478.364H1104.28V490H1108.05ZM1106.03 488.466V479.898H1108.06C1110.6 479.898 1111.91 481.42 1111.91 484.165C1111.91 486.92 1110.6 488.466 1107.95 488.466H1106.03ZM1119.37 490.176C1121.83 490.176 1123.43 488.375 1123.43 485.676C1123.43 482.96 1121.83 481.159 1119.37 481.159C1116.9 481.159 1115.3 482.96 1115.3 485.676C1115.3 488.375 1116.9 490.176 1119.37 490.176ZM1119.37 488.75C1117.76 488.75 1117.01 487.347 1117.01 485.67C1117.01 484 1117.76 482.58 1119.37 482.58C1120.97 482.58 1121.72 484 1121.72 485.67C1121.72 487.347 1120.97 488.75 1119.37 488.75ZM1129.01 490.176C1131.07 490.176 1132.4 488.938 1132.59 487.239H1130.94C1130.72 488.182 1129.99 488.739 1129.02 488.739C1127.58 488.739 1126.65 487.54 1126.65 485.636C1126.65 483.767 1127.6 482.591 1129.02 482.591C1130.1 482.591 1130.76 483.273 1130.94 484.091H1132.59C1132.41 482.33 1130.97 481.159 1128.99 481.159C1126.53 481.159 1124.94 483.011 1124.94 485.676C1124.94 488.307 1126.47 490.176 1129.01 490.176ZM1139.94 486.381C1139.94 487.864 1138.84 488.568 1137.88 488.568C1136.83 488.568 1136.11 487.807 1136.11 486.619V481.273H1134.41V486.824C1134.41 488.989 1135.6 490.114 1137.27 490.114C1138.58 490.114 1139.48 489.42 1139.88 488.489H1139.97V490H1141.64V481.273H1139.94V486.381ZM1143.92 490H1145.62V484.619C1145.62 483.443 1146.45 482.625 1147.41 482.625C1148.36 482.625 1149.01 483.25 1149.01 484.199V490H1150.7V484.438C1150.7 483.386 1151.34 482.625 1152.45 482.625C1153.35 482.625 1154.09 483.125 1154.09 484.307V490H1155.79V484.148C1155.79 482.153 1154.67 481.159 1153.09 481.159C1151.84 481.159 1150.89 481.761 1150.47 482.693H1150.38C1150 481.739 1149.2 481.159 1148.04 481.159C1146.88 481.159 1146.03 481.733 1145.66 482.693H1145.55V481.273H1143.92V490ZM1161.83 490.176C1163.73 490.176 1165.08 489.239 1165.46 487.818L1163.85 487.528C1163.55 488.352 1162.81 488.773 1161.84 488.773C1160.39 488.773 1159.41 487.83 1159.37 486.148H1165.57V485.545C1165.57 482.392 1163.68 481.159 1161.71 481.159C1159.27 481.159 1157.67 483.011 1157.67 485.693C1157.67 488.403 1159.25 490.176 1161.83 490.176ZM1159.37 484.875C1159.44 483.636 1160.34 482.562 1161.72 482.562C1163.04 482.562 1163.9 483.54 1163.9 484.875H1159.37ZM1169.15 484.818C1169.15 483.426 1170.01 482.631 1171.19 482.631C1172.34 482.631 1173.04 483.386 1173.04 484.653V490H1174.74V484.449C1174.74 482.29 1173.55 481.159 1171.77 481.159C1170.45 481.159 1169.6 481.767 1169.19 482.693H1169.09V481.273H1167.45V490H1169.15V484.818ZM1181.09 481.273H1179.3V479.182H1177.6V481.273H1176.32V482.636H1177.6V487.79C1177.6 489.375 1178.81 490.142 1180.15 490.114C1180.69 490.108 1181.05 490.006 1181.25 489.932L1180.94 488.528C1180.83 488.551 1180.62 488.602 1180.35 488.602C1179.8 488.602 1179.3 488.42 1179.3 487.438V482.636H1181.09V481.273ZM1189.37 483.403C1189.02 482.045 1187.95 481.159 1186.07 481.159C1184.1 481.159 1182.7 482.199 1182.7 483.744C1182.7 484.983 1183.45 485.807 1185.09 486.17L1186.56 486.494C1187.4 486.682 1187.8 487.057 1187.8 487.602C1187.8 488.278 1187.07 488.807 1185.96 488.807C1184.94 488.807 1184.29 488.369 1184.09 487.511L1182.44 487.761C1182.73 489.307 1184.01 490.176 1185.97 490.176C1188.08 490.176 1189.54 489.057 1189.54 487.477C1189.54 486.244 1188.76 485.483 1187.15 485.114L1185.77 484.795C1184.81 484.568 1184.39 484.244 1184.4 483.653C1184.39 482.983 1185.12 482.506 1186.09 482.506C1187.14 482.506 1187.63 483.091 1187.83 483.676L1189.37 483.403Z" fill="#242424"/>
<path d="M1241.94 482.148C1241.55 479.659 1239.6 478.205 1237.14 478.205C1234.12 478.205 1231.9 480.46 1231.9 484.182C1231.9 487.903 1234.11 490.159 1237.14 490.159C1239.69 490.159 1241.56 488.557 1241.94 486.256L1240.17 486.25C1239.87 487.739 1238.62 488.557 1237.15 488.557C1235.15 488.557 1233.65 487.028 1233.65 484.182C1233.65 481.358 1235.15 479.807 1237.15 479.807C1238.64 479.807 1239.88 480.642 1240.17 482.148H1241.94ZM1247.58 490.176C1250.04 490.176 1251.65 488.375 1251.65 485.676C1251.65 482.96 1250.04 481.159 1247.58 481.159C1245.12 481.159 1243.52 482.96 1243.52 485.676C1243.52 488.375 1245.12 490.176 1247.58 490.176ZM1247.59 488.75C1245.98 488.75 1245.23 487.347 1245.23 485.67C1245.23 484 1245.98 482.58 1247.59 482.58C1249.19 482.58 1249.94 484 1249.94 485.67C1249.94 487.347 1249.19 488.75 1247.59 488.75ZM1253.55 490H1255.25V484.619C1255.25 483.443 1256.07 482.625 1257.04 482.625C1257.98 482.625 1258.63 483.25 1258.63 484.199V490H1260.33V484.438C1260.33 483.386 1260.97 482.625 1262.08 482.625C1262.97 482.625 1263.71 483.125 1263.71 484.307V490H1265.41V484.148C1265.41 482.153 1264.3 481.159 1262.72 481.159C1261.46 481.159 1260.52 481.761 1260.1 482.693H1260.01C1259.63 481.739 1258.83 481.159 1257.66 481.159C1256.51 481.159 1255.65 481.733 1255.29 482.693H1255.18V481.273H1253.55V490ZM1267.69 493.273H1269.39V488.642H1269.49C1269.8 489.199 1270.42 490.17 1272.01 490.17C1274.13 490.17 1275.66 488.477 1275.66 485.653C1275.66 482.824 1274.1 481.159 1272 481.159C1270.38 481.159 1269.79 482.148 1269.49 482.688H1269.35V481.273H1267.69V493.273ZM1269.35 485.636C1269.35 483.812 1270.15 482.602 1271.63 482.602C1273.17 482.602 1273.94 483.903 1273.94 485.636C1273.94 487.386 1273.15 488.722 1271.63 488.722C1270.17 488.722 1269.35 487.472 1269.35 485.636ZM1281.24 490.176C1283.7 490.176 1285.31 488.375 1285.31 485.676C1285.31 482.96 1283.7 481.159 1281.24 481.159C1278.78 481.159 1277.17 482.96 1277.17 485.676C1277.17 488.375 1278.78 490.176 1281.24 490.176ZM1281.25 488.75C1279.64 488.75 1278.89 487.347 1278.89 485.67C1278.89 484 1279.64 482.58 1281.25 482.58C1282.84 482.58 1283.59 484 1283.59 485.67C1283.59 487.347 1282.84 488.75 1281.25 488.75ZM1288.9 484.818C1288.9 483.426 1289.76 482.631 1290.94 482.631C1292.09 482.631 1292.79 483.386 1292.79 484.653V490H1294.49V484.449C1294.49 482.29 1293.3 481.159 1291.52 481.159C1290.2 481.159 1289.35 481.767 1288.94 482.693H1288.84V481.273H1287.2V490H1288.9V484.818ZM1300.53 490.176C1302.43 490.176 1303.78 489.239 1304.16 487.818L1302.56 487.528C1302.25 488.352 1301.51 488.773 1300.55 488.773C1299.09 488.773 1298.11 487.83 1298.07 486.148H1304.27V485.545C1304.27 482.392 1302.39 481.159 1300.41 481.159C1297.98 481.159 1296.38 483.011 1296.38 485.693C1296.38 488.403 1297.95 490.176 1300.53 490.176ZM1298.07 484.875C1298.14 483.636 1299.04 482.562 1300.42 482.562C1301.74 482.562 1302.6 483.54 1302.61 484.875H1298.07ZM1307.86 484.818C1307.86 483.426 1308.71 482.631 1309.89 482.631C1311.04 482.631 1311.74 483.386 1311.74 484.653V490H1313.44V484.449C1313.44 482.29 1312.25 481.159 1310.47 481.159C1309.16 481.159 1308.3 481.767 1307.9 482.693H1307.79V481.273H1306.16V490H1307.86V484.818ZM1319.79 481.273H1318V479.182H1316.31V481.273H1315.03V482.636H1316.31V487.79C1316.3 489.375 1317.51 490.142 1318.85 490.114C1319.39 490.108 1319.75 490.006 1319.95 489.932L1319.65 488.528C1319.53 488.551 1319.32 488.602 1319.05 488.602C1318.5 488.602 1318 488.42 1318 487.438V482.636H1319.79V481.273ZM1328.07 483.403C1327.72 482.045 1326.66 481.159 1324.77 481.159C1322.8 481.159 1321.4 482.199 1321.4 483.744C1321.4 484.983 1322.15 485.807 1323.79 486.17L1325.27 486.494C1326.11 486.682 1326.5 487.057 1326.5 487.602C1326.5 488.278 1325.78 488.807 1324.66 488.807C1323.65 488.807 1322.99 488.369 1322.79 487.511L1321.15 487.761C1321.43 489.307 1322.71 490.176 1324.67 490.176C1326.78 490.176 1328.24 489.057 1328.24 487.477C1328.24 486.244 1327.46 485.483 1325.86 485.114L1324.47 484.795C1323.51 484.568 1323.1 484.244 1323.1 483.653C1323.1 482.983 1323.82 482.506 1324.79 482.506C1325.85 482.506 1326.33 483.091 1326.53 483.676L1328.07 483.403Z" fill="#242424"/>
<path d="M1370.28 490H1377.31V488.489H1372.03V478.364H1370.28V490ZM1379.17 490H1380.87V481.273H1379.17V490ZM1380.03 479.926C1380.62 479.926 1381.11 479.472 1381.11 478.915C1381.11 478.358 1380.62 477.898 1380.03 477.898C1379.44 477.898 1378.96 478.358 1378.96 478.915C1378.96 479.472 1379.44 479.926 1380.03 479.926ZM1386.83 490.176C1388.9 490.176 1390.23 488.938 1390.42 487.239H1388.77C1388.55 488.182 1387.82 488.739 1386.85 488.739C1385.41 488.739 1384.48 487.54 1384.48 485.636C1384.48 483.767 1385.42 482.591 1386.85 482.591C1387.92 482.591 1388.58 483.273 1388.77 484.091H1390.42C1390.24 482.33 1388.8 481.159 1386.82 481.159C1384.36 481.159 1382.77 483.011 1382.77 485.676C1382.77 488.307 1384.3 490.176 1386.83 490.176ZM1396 490.176C1397.9 490.176 1399.25 489.239 1399.63 487.818L1398.03 487.528C1397.72 488.352 1396.98 488.773 1396.01 488.773C1394.56 488.773 1393.58 487.83 1393.54 486.148H1399.74V485.545C1399.74 482.392 1397.86 481.159 1395.88 481.159C1393.45 481.159 1391.84 483.011 1391.84 485.693C1391.84 488.403 1393.42 490.176 1396 490.176ZM1393.54 484.875C1393.61 483.636 1394.51 482.562 1395.89 482.562C1397.21 482.562 1398.07 483.54 1398.08 484.875H1393.54ZM1403.33 484.818C1403.33 483.426 1404.18 482.631 1405.36 482.631C1406.51 482.631 1407.21 483.386 1407.21 484.653V490H1408.91V484.449C1408.91 482.29 1407.72 481.159 1405.94 481.159C1404.63 481.159 1403.77 481.767 1403.37 482.693H1403.26V481.273H1401.63V490H1403.33V484.818ZM1417.73 483.403C1417.38 482.045 1416.31 481.159 1414.43 481.159C1412.46 481.159 1411.06 482.199 1411.06 483.744C1411.06 484.983 1411.81 485.807 1413.44 486.17L1414.92 486.494C1415.76 486.682 1416.15 487.057 1416.15 487.602C1416.15 488.278 1415.43 488.807 1414.32 488.807C1413.3 488.807 1412.65 488.369 1412.44 487.511L1410.8 487.761C1411.09 489.307 1412.37 490.176 1414.33 490.176C1416.44 490.176 1417.9 489.057 1417.9 487.477C1417.9 486.244 1417.12 485.483 1415.51 485.114L1414.13 484.795C1413.17 484.568 1412.75 484.244 1412.76 483.653C1412.75 482.983 1413.48 482.506 1414.44 482.506C1415.5 482.506 1415.99 483.091 1416.19 483.676L1417.73 483.403ZM1423.53 490.176C1425.43 490.176 1426.78 489.239 1427.16 487.818L1425.56 487.528C1425.25 488.352 1424.51 488.773 1423.55 488.773C1422.09 488.773 1421.11 487.83 1421.07 486.148H1427.27V485.545C1427.27 482.392 1425.39 481.159 1423.41 481.159C1420.98 481.159 1419.38 483.011 1419.38 485.693C1419.38 488.403 1420.95 490.176 1423.53 490.176ZM1421.07 484.875C1421.14 483.636 1422.04 482.562 1423.42 482.562C1424.74 482.562 1425.6 483.54 1425.61 484.875H1421.07Z" fill="#242424"/>
<path d="M150.291 477.909V491H152.567V481.987H152.688L156.306 490.962H158.006L161.624 482.006H161.746V491H164.021V477.909H161.119L157.233 487.395H157.08L153.193 477.909H150.291ZM170.848 491.192C173.136 491.192 174.709 490.073 175.118 488.366L172.957 488.124C172.644 488.955 171.877 489.389 170.88 489.389C169.384 489.389 168.393 488.405 168.374 486.724H175.214V486.014C175.214 482.569 173.143 481.054 170.727 481.054C167.914 481.054 166.08 483.119 166.08 486.148C166.08 489.229 167.888 491.192 170.848 491.192ZM168.381 485.164C168.451 483.911 169.378 482.857 170.759 482.857C172.088 482.857 172.983 483.828 172.996 485.164H168.381ZM179.485 485.247C179.485 483.828 180.342 483.01 181.563 483.01C182.758 483.01 183.474 483.796 183.474 485.107V491H185.788V484.749C185.794 482.396 184.452 481.054 182.426 481.054C180.955 481.054 179.945 481.757 179.498 482.85H179.383V481.182H177.171V491H179.485V485.247ZM194.398 486.871C194.398 488.366 193.33 489.108 192.308 489.108C191.195 489.108 190.454 488.322 190.454 487.075V481.182H188.14V487.433C188.14 489.792 189.482 491.128 191.413 491.128C192.883 491.128 193.919 490.354 194.366 489.255H194.468V491H196.712V481.182H194.398V486.871ZM203.658 491H206.03V487.101L207.481 485.388L211.386 491H214.237L209.13 483.783L214.192 477.909H211.297L206.19 483.924H206.03V477.909H203.658V491ZM216.353 491H218.667V481.182H216.353V491ZM217.516 479.788C218.251 479.788 218.852 479.226 218.852 478.536C218.852 477.839 218.251 477.276 217.516 477.276C216.775 477.276 216.174 477.839 216.174 478.536C216.174 479.226 216.775 479.788 217.516 479.788ZM225.949 481.182H224.012V478.83H221.698V481.182H220.305V482.972H221.698V488.43C221.686 490.278 223.028 491.185 224.767 491.134C225.425 491.115 225.879 490.987 226.128 490.904L225.738 489.095C225.61 489.127 225.348 489.185 225.061 489.185C224.479 489.185 224.012 488.98 224.012 488.047V482.972H225.949V481.182Z" fill="#474F5B"/>
</svg>
