<svg width="1578" height="969" viewBox="0 0 1578 969" fill="none" xmlns="http://www.w3.org/2000/svg">
<rect width="1578" height="969" fill="#D9E6FF"/>
<rect width="1440" height="84" transform="translate(69 443)" fill="white"/>
<path d="M663.153 482.04H664.955C664.562 479.773 662.625 478.205 660.114 478.205C657.102 478.205 654.903 480.472 654.903 484.188C654.903 487.869 657.04 490.159 660.193 490.159C663.017 490.159 665.034 488.307 665.034 485.369V484.045H660.46V485.494H663.335C663.295 487.369 662.057 488.557 660.193 488.557C658.142 488.557 656.648 487.006 656.648 484.176C656.648 481.358 658.153 479.807 660.125 479.807C661.67 479.807 662.716 480.659 663.153 482.04ZM672.655 486.381C672.661 487.864 671.558 488.568 670.604 488.568C669.553 488.568 668.825 487.807 668.825 486.619V481.273H667.126V486.824C667.126 488.989 668.314 490.114 669.99 490.114C671.303 490.114 672.195 489.42 672.598 488.489H672.689V490H674.359V481.273H672.655V486.381ZM676.642 490H678.341V481.273H676.642V490ZM677.5 479.926C678.085 479.926 678.574 479.472 678.574 478.915C678.574 478.358 678.085 477.898 677.5 477.898C676.909 477.898 676.426 478.358 676.426 478.915C676.426 479.472 676.909 479.926 677.5 479.926ZM683.893 490.17C685.484 490.17 686.109 489.199 686.416 488.642H686.558V490H688.217V478.364H686.518V482.688H686.416C686.109 482.148 685.53 481.159 683.905 481.159C681.797 481.159 680.246 482.824 680.246 485.653C680.246 488.477 681.774 490.17 683.893 490.17ZM684.268 488.722C682.751 488.722 681.962 487.386 681.962 485.636C681.962 483.903 682.734 482.602 684.268 482.602C685.751 482.602 686.547 483.812 686.547 485.636C686.547 487.472 685.734 488.722 684.268 488.722ZM694.403 490.176C696.307 490.176 697.653 489.239 698.04 487.818L696.432 487.528C696.125 488.352 695.386 488.773 694.42 488.773C692.966 488.773 691.989 487.83 691.943 486.148H698.148V485.545C698.148 482.392 696.261 481.159 694.284 481.159C691.852 481.159 690.25 483.011 690.25 485.693C690.25 488.403 691.83 490.176 694.403 490.176ZM691.949 484.875C692.017 483.636 692.915 482.562 694.295 482.562C695.614 482.562 696.477 483.54 696.483 484.875H691.949Z" fill="#242424"/>
<path d="M744.045 490C747.591 490 749.642 487.801 749.642 484.165C749.642 480.545 747.591 478.364 744.165 478.364H740.278V490H744.045ZM742.034 488.466V479.898H744.057C746.602 479.898 747.915 481.42 747.915 484.165C747.915 486.92 746.602 488.466 743.949 488.466H742.034ZM755.365 490.176C757.825 490.176 759.433 488.375 759.433 485.676C759.433 482.96 757.825 481.159 755.365 481.159C752.905 481.159 751.297 482.96 751.297 485.676C751.297 488.375 752.905 490.176 755.365 490.176ZM755.371 488.75C753.763 488.75 753.013 487.347 753.013 485.67C753.013 484 753.763 482.58 755.371 482.58C756.967 482.58 757.717 484 757.717 485.67C757.717 487.347 756.967 488.75 755.371 488.75ZM765.006 490.176C767.068 490.176 768.403 488.938 768.591 487.239H766.938C766.722 488.182 765.989 488.739 765.017 488.739C763.58 488.739 762.653 487.54 762.653 485.636C762.653 483.767 763.597 482.591 765.017 482.591C766.097 482.591 766.756 483.273 766.938 484.091H768.591C768.409 482.33 766.972 481.159 764.989 481.159C762.528 481.159 760.938 483.011 760.938 485.676C760.938 488.307 762.472 490.176 765.006 490.176ZM775.936 486.381C775.942 487.864 774.839 488.568 773.885 488.568C772.834 488.568 772.107 487.807 772.107 486.619V481.273H770.408V486.824C770.408 488.989 771.595 490.114 773.271 490.114C774.584 490.114 775.476 489.42 775.879 488.489H775.97V490H777.641V481.273H775.936V486.381ZM779.923 490H781.622V484.619C781.622 483.443 782.446 482.625 783.412 482.625C784.355 482.625 785.009 483.25 785.009 484.199V490H786.702V484.438C786.702 483.386 787.344 482.625 788.452 482.625C789.349 482.625 790.088 483.125 790.088 484.307V490H791.787V484.148C791.787 482.153 790.673 481.159 789.094 481.159C787.838 481.159 786.895 481.761 786.474 482.693H786.384C786.003 481.739 785.202 481.159 784.037 481.159C782.884 481.159 782.026 481.733 781.662 482.693H781.554V481.273H779.923V490ZM797.825 490.176C799.729 490.176 801.075 489.239 801.462 487.818L799.854 487.528C799.547 488.352 798.808 488.773 797.842 488.773C796.388 488.773 795.411 487.83 795.365 486.148H801.57V485.545C801.57 482.392 799.683 481.159 797.706 481.159C795.274 481.159 793.672 483.011 793.672 485.693C793.672 488.403 795.251 490.176 797.825 490.176ZM795.371 484.875C795.439 483.636 796.337 482.562 797.717 482.562C799.036 482.562 799.899 483.54 799.905 484.875H795.371ZM805.153 484.818C805.153 483.426 806.006 482.631 807.188 482.631C808.341 482.631 809.04 483.386 809.04 484.653V490H810.739V484.449C810.739 482.29 809.551 481.159 807.767 481.159C806.455 481.159 805.597 481.767 805.193 482.693H805.085V481.273H803.455V490H805.153V484.818ZM817.091 481.273H815.301V479.182H813.602V481.273H812.324V482.636H813.602V487.79C813.597 489.375 814.807 490.142 816.148 490.114C816.688 490.108 817.051 490.006 817.25 489.932L816.943 488.528C816.83 488.551 816.619 488.602 816.347 488.602C815.795 488.602 815.301 488.42 815.301 487.438V482.636H817.091V481.273ZM825.369 483.403C825.017 482.045 823.955 481.159 822.068 481.159C820.097 481.159 818.699 482.199 818.699 483.744C818.699 484.983 819.449 485.807 821.085 486.17L822.562 486.494C823.403 486.682 823.795 487.057 823.795 487.602C823.795 488.278 823.074 488.807 821.96 488.807C820.943 488.807 820.29 488.369 820.085 487.511L818.443 487.761C818.727 489.307 820.011 490.176 821.972 490.176C824.08 490.176 825.54 489.057 825.54 487.477C825.54 486.244 824.756 485.483 823.153 485.114L821.767 484.795C820.807 484.568 820.392 484.244 820.398 483.653C820.392 482.983 821.119 482.506 822.085 482.506C823.142 482.506 823.631 483.091 823.83 483.676L825.369 483.403Z" fill="#242424"/>
<path d="M877.943 482.148C877.545 479.659 875.597 478.205 873.136 478.205C870.125 478.205 867.903 480.46 867.903 484.182C867.903 487.903 870.114 490.159 873.136 490.159C875.693 490.159 877.562 488.557 877.943 486.256L876.17 486.25C875.869 487.739 874.619 488.557 873.148 488.557C871.153 488.557 869.648 487.028 869.648 484.182C869.648 481.358 871.148 479.807 873.153 479.807C874.636 479.807 875.881 480.642 876.17 482.148H877.943ZM883.584 490.176C886.044 490.176 887.652 488.375 887.652 485.676C887.652 482.96 886.044 481.159 883.584 481.159C881.124 481.159 879.516 482.96 879.516 485.676C879.516 488.375 881.124 490.176 883.584 490.176ZM883.589 488.75C881.982 488.75 881.232 487.347 881.232 485.67C881.232 484 881.982 482.58 883.589 482.58C885.186 482.58 885.936 484 885.936 485.67C885.936 487.347 885.186 488.75 883.589 488.75ZM889.548 490H891.247V484.619C891.247 483.443 892.071 482.625 893.037 482.625C893.98 482.625 894.634 483.25 894.634 484.199V490H896.327V484.438C896.327 483.386 896.969 482.625 898.077 482.625C898.974 482.625 899.713 483.125 899.713 484.307V490H901.412V484.148C901.412 482.153 900.298 481.159 898.719 481.159C897.463 481.159 896.52 481.761 896.099 482.693H896.009C895.628 481.739 894.827 481.159 893.662 481.159C892.509 481.159 891.651 481.733 891.287 482.693H891.179V481.273H889.548V490ZM903.689 493.273H905.388V488.642H905.49C905.797 489.199 906.422 490.17 908.013 490.17C910.126 490.17 911.661 488.477 911.661 485.653C911.661 482.824 910.104 481.159 907.996 481.159C906.376 481.159 905.791 482.148 905.49 482.688H905.348V481.273H903.689V493.273ZM905.354 485.636C905.354 483.812 906.149 482.602 907.632 482.602C909.172 482.602 909.945 483.903 909.945 485.636C909.945 487.386 909.149 488.722 907.632 488.722C906.172 488.722 905.354 487.472 905.354 485.636ZM917.24 490.176C919.7 490.176 921.308 488.375 921.308 485.676C921.308 482.96 919.7 481.159 917.24 481.159C914.78 481.159 913.172 482.96 913.172 485.676C913.172 488.375 914.78 490.176 917.24 490.176ZM917.246 488.75C915.638 488.75 914.888 487.347 914.888 485.67C914.888 484 915.638 482.58 917.246 482.58C918.842 482.58 919.592 484 919.592 485.67C919.592 487.347 918.842 488.75 917.246 488.75ZM924.903 484.818C924.903 483.426 925.756 482.631 926.938 482.631C928.091 482.631 928.79 483.386 928.79 484.653V490H930.489V484.449C930.489 482.29 929.301 481.159 927.517 481.159C926.205 481.159 925.347 481.767 924.943 482.693H924.835V481.273H923.205V490H924.903V484.818ZM936.528 490.176C938.432 490.176 939.778 489.239 940.165 487.818L938.557 487.528C938.25 488.352 937.511 488.773 936.545 488.773C935.091 488.773 934.114 487.83 934.068 486.148H940.273V485.545C940.273 482.392 938.386 481.159 936.409 481.159C933.977 481.159 932.375 483.011 932.375 485.693C932.375 488.403 933.955 490.176 936.528 490.176ZM934.074 484.875C934.142 483.636 935.04 482.562 936.42 482.562C937.739 482.562 938.602 483.54 938.608 484.875H934.074ZM943.857 484.818C943.857 483.426 944.709 482.631 945.891 482.631C947.044 482.631 947.743 483.386 947.743 484.653V490H949.442V484.449C949.442 482.29 948.254 481.159 946.47 481.159C945.158 481.159 944.3 481.767 943.896 482.693H943.788V481.273H942.158V490H943.857V484.818ZM955.794 481.273H954.004V479.182H952.305V481.273H951.027V482.636H952.305V487.79C952.3 489.375 953.51 490.142 954.851 490.114C955.391 490.108 955.754 490.006 955.953 489.932L955.646 488.528C955.533 488.551 955.322 488.602 955.05 488.602C954.499 488.602 954.004 488.42 954.004 487.438V482.636H955.794V481.273ZM964.072 483.403C963.72 482.045 962.658 481.159 960.771 481.159C958.8 481.159 957.402 482.199 957.402 483.744C957.402 484.983 958.152 485.807 959.788 486.17L961.266 486.494C962.107 486.682 962.499 487.057 962.499 487.602C962.499 488.278 961.777 488.807 960.663 488.807C959.646 488.807 958.993 488.369 958.788 487.511L957.146 487.761C957.43 489.307 958.714 490.176 960.675 490.176C962.783 490.176 964.243 489.057 964.243 487.477C964.243 486.244 963.459 485.483 961.857 485.114L960.47 484.795C959.51 484.568 959.095 484.244 959.101 483.653C959.095 482.983 959.822 482.506 960.788 482.506C961.845 482.506 962.334 483.091 962.533 483.676L964.072 483.403Z" fill="#242424"/>
<path d="M1006.28 490H1013.31V488.489H1008.03V478.364H1006.28V490ZM1015.17 490H1016.87V481.273H1015.17V490ZM1016.03 479.926C1016.62 479.926 1017.11 479.472 1017.11 478.915C1017.11 478.358 1016.62 477.898 1016.03 477.898C1015.44 477.898 1014.96 478.358 1014.96 478.915C1014.96 479.472 1015.44 479.926 1016.03 479.926ZM1022.83 490.176C1024.9 490.176 1026.23 488.938 1026.42 487.239H1024.77C1024.55 488.182 1023.82 488.739 1022.85 488.739C1021.41 488.739 1020.48 487.54 1020.48 485.636C1020.48 483.767 1021.42 482.591 1022.85 482.591C1023.92 482.591 1024.58 483.273 1024.77 484.091H1026.42C1026.24 482.33 1024.8 481.159 1022.82 481.159C1020.36 481.159 1018.77 483.011 1018.77 485.676C1018.77 488.307 1020.3 490.176 1022.83 490.176ZM1032 490.176C1033.9 490.176 1035.25 489.239 1035.63 487.818L1034.03 487.528C1033.72 488.352 1032.98 488.773 1032.01 488.773C1030.56 488.773 1029.58 487.83 1029.54 486.148H1035.74V485.545C1035.74 482.392 1033.86 481.159 1031.88 481.159C1029.45 481.159 1027.84 483.011 1027.84 485.693C1027.84 488.403 1029.42 490.176 1032 490.176ZM1029.54 484.875C1029.61 483.636 1030.51 482.562 1031.89 482.562C1033.21 482.562 1034.07 483.54 1034.08 484.875H1029.54ZM1039.33 484.818C1039.33 483.426 1040.18 482.631 1041.36 482.631C1042.51 482.631 1043.21 483.386 1043.21 484.653V490H1044.91V484.449C1044.91 482.29 1043.72 481.159 1041.94 481.159C1040.63 481.159 1039.77 481.767 1039.37 482.693H1039.26V481.273H1037.63V490H1039.33V484.818ZM1053.73 483.403C1053.38 482.045 1052.31 481.159 1050.43 481.159C1048.46 481.159 1047.06 482.199 1047.06 483.744C1047.06 484.983 1047.81 485.807 1049.44 486.17L1050.92 486.494C1051.76 486.682 1052.15 487.057 1052.15 487.602C1052.15 488.278 1051.43 488.807 1050.32 488.807C1049.3 488.807 1048.65 488.369 1048.44 487.511L1046.8 487.761C1047.09 489.307 1048.37 490.176 1050.33 490.176C1052.44 490.176 1053.9 489.057 1053.9 487.477C1053.9 486.244 1053.12 485.483 1051.51 485.114L1050.13 484.795C1049.17 484.568 1048.75 484.244 1048.76 483.653C1048.75 482.983 1049.48 482.506 1050.44 482.506C1051.5 482.506 1051.99 483.091 1052.19 483.676L1053.73 483.403ZM1059.53 490.176C1061.43 490.176 1062.78 489.239 1063.16 487.818L1061.56 487.528C1061.25 488.352 1060.51 488.773 1059.55 488.773C1058.09 488.773 1057.11 487.83 1057.07 486.148H1063.27V485.545C1063.27 482.392 1061.39 481.159 1059.41 481.159C1056.98 481.159 1055.38 483.011 1055.38 485.693C1055.38 488.403 1056.95 490.176 1059.53 490.176ZM1057.07 484.875C1057.14 483.636 1058.04 482.562 1059.42 482.562C1060.74 482.562 1061.6 483.54 1061.61 484.875H1057.07Z" fill="#242424"/>
<rect x="1105" y="465" width="322" height="39" rx="3" fill="#F3F2FF"/>
<path d="M1403 491C1407.42 491 1411 487.418 1411 483C1411 478.582 1407.42 475 1403 475C1398.58 475 1395 478.582 1395 483C1395 487.418 1398.58 491 1403 491Z" stroke="#B4BDCF" stroke-width="2" stroke-linecap="round" stroke-linejoin="round"/>
<path d="M1413 493L1408.65 488.65" stroke="#B4BDCF" stroke-width="2" stroke-linecap="round" stroke-linejoin="round"/>
<path d="M1121.8 481.364H1122.99C1122.94 479.827 1121.52 478.679 1119.55 478.679C1117.61 478.679 1116.07 479.812 1116.07 481.523C1116.07 482.895 1117.07 483.71 1118.66 484.168L1119.91 484.526C1120.99 484.824 1121.94 485.202 1121.94 486.216C1121.94 487.33 1120.87 488.065 1119.45 488.065C1118.24 488.065 1117.17 487.528 1117.07 486.375H1115.8C1115.91 488.045 1117.27 489.179 1119.45 489.179C1121.8 489.179 1123.13 487.886 1123.13 486.236C1123.13 484.327 1121.32 483.71 1120.27 483.432L1119.24 483.153C1118.48 482.955 1117.27 482.557 1117.27 481.463C1117.27 480.489 1118.16 479.773 1119.51 479.773C1120.75 479.773 1121.68 480.359 1121.8 481.364ZM1128.2 489.159C1129.75 489.159 1130.89 488.384 1131.25 487.23L1130.11 486.912C1129.81 487.707 1129.12 488.105 1128.2 488.105C1126.83 488.105 1125.88 487.215 1125.82 485.58H1131.37V485.082C1131.37 482.239 1129.67 481.264 1128.08 481.264C1126.02 481.264 1124.64 482.895 1124.64 485.241C1124.64 487.588 1126 489.159 1128.2 489.159ZM1125.82 484.565C1125.9 483.377 1126.74 482.318 1128.08 482.318C1129.36 482.318 1130.17 483.273 1130.17 484.565H1125.82ZM1135.4 489.179C1136.73 489.179 1137.43 488.463 1137.66 487.966H1137.72V489H1138.9V483.969C1138.9 481.543 1137.05 481.264 1136.07 481.264C1134.92 481.264 1133.61 481.662 1133.01 483.054L1134.12 483.452C1134.38 482.895 1134.99 482.298 1136.11 482.298C1137.19 482.298 1137.72 482.87 1137.72 483.849V483.889C1137.72 484.456 1137.15 484.406 1135.76 484.585C1134.34 484.769 1132.79 485.082 1132.79 486.832C1132.79 488.324 1133.95 489.179 1135.4 489.179ZM1135.58 488.125C1134.64 488.125 1133.97 487.707 1133.97 486.892C1133.97 485.997 1134.78 485.719 1135.7 485.599C1136.19 485.54 1137.53 485.401 1137.72 485.162V486.236C1137.72 487.19 1136.97 488.125 1135.58 488.125ZM1141.04 489H1142.21V484.168C1142.21 483.134 1143.03 482.378 1144.14 482.378C1144.45 482.378 1144.78 482.438 1144.86 482.457V481.264C1144.72 481.254 1144.41 481.244 1144.24 481.244C1143.33 481.244 1142.53 481.761 1142.25 482.517H1142.17V481.364H1141.04V489ZM1149.12 489.159C1150.81 489.159 1151.92 488.125 1152.12 486.773H1150.95C1150.73 487.608 1150.03 488.105 1149.12 488.105C1147.73 488.105 1146.83 486.952 1146.83 485.182C1146.83 483.452 1147.75 482.318 1149.12 482.318C1150.15 482.318 1150.77 482.955 1150.95 483.651H1152.12C1151.92 482.219 1150.71 481.264 1149.1 481.264C1147.03 481.264 1145.66 482.895 1145.66 485.222C1145.66 487.509 1146.97 489.159 1149.12 489.159ZM1155.01 484.406C1155.01 483.074 1155.86 482.318 1157.02 482.318C1158.12 482.318 1158.79 483.014 1158.79 484.227V489H1159.96V484.148C1159.96 482.184 1158.92 481.264 1157.36 481.264C1156.15 481.264 1155.47 481.766 1155.11 482.557H1155.01V478.818H1153.84V489H1155.01V484.406Z" fill="#B4BDCF"/>
<path d="M150.291 478.909V492H152.567V482.987H152.688L156.306 491.962H158.006L161.624 483.006H161.746V492H164.021V478.909H161.119L157.233 488.395H157.08L153.193 478.909H150.291ZM170.848 492.192C173.136 492.192 174.709 491.073 175.118 489.366L172.957 489.124C172.644 489.955 171.877 490.389 170.88 490.389C169.384 490.389 168.393 489.405 168.374 487.724H175.214V487.014C175.214 483.569 173.143 482.054 170.727 482.054C167.914 482.054 166.08 484.119 166.08 487.148C166.08 490.229 167.888 492.192 170.848 492.192ZM168.381 486.164C168.451 484.911 169.378 483.857 170.759 483.857C172.088 483.857 172.983 484.828 172.996 486.164H168.381ZM179.485 486.247C179.485 484.828 180.342 484.01 181.563 484.01C182.758 484.01 183.474 484.796 183.474 486.107V492H185.788V485.749C185.794 483.396 184.452 482.054 182.426 482.054C180.955 482.054 179.945 482.757 179.498 483.85H179.383V482.182H177.171V492H179.485V486.247ZM194.398 487.871C194.398 489.366 193.33 490.108 192.308 490.108C191.195 490.108 190.454 489.322 190.454 488.075V482.182H188.14V488.433C188.14 490.792 189.482 492.128 191.413 492.128C192.883 492.128 193.919 491.354 194.366 490.255H194.468V492H196.712V482.182H194.398V487.871ZM203.658 492H206.03V488.101L207.481 486.388L211.386 492H214.237L209.13 484.783L214.192 478.909H211.297L206.19 484.924H206.03V478.909H203.658V492ZM216.353 492H218.667V482.182H216.353V492ZM217.516 480.788C218.251 480.788 218.852 480.226 218.852 479.536C218.852 478.839 218.251 478.276 217.516 478.276C216.775 478.276 216.174 478.839 216.174 479.536C216.174 480.226 216.775 480.788 217.516 480.788ZM225.949 482.182H224.012V479.83H221.698V482.182H220.305V483.972H221.698V489.43C221.686 491.278 223.028 492.185 224.767 492.134C225.425 492.115 225.879 491.987 226.128 491.904L225.738 490.095C225.61 490.127 225.348 490.185 225.061 490.185C224.479 490.185 224.012 489.98 224.012 489.047V483.972H225.949V482.182Z" fill="#474F5B"/>
</svg>
