<svg width="1578" height="969" viewBox="0 0 1578 969" fill="none" xmlns="http://www.w3.org/2000/svg">
<rect width="1578" height="969" fill="#D9E6FF"/>
<rect width="1440" height="84" transform="translate(69 443)" fill="white"/>
<path d="M1006.15 483.04H1007.95C1007.56 480.773 1005.62 479.205 1003.11 479.205C1000.1 479.205 997.903 481.472 997.903 485.188C997.903 488.869 1000.04 491.159 1003.19 491.159C1006.02 491.159 1008.03 489.307 1008.03 486.369V485.045H1003.46V486.494H1006.34C1006.3 488.369 1005.06 489.557 1003.19 489.557C1001.14 489.557 999.648 488.006 999.648 485.176C999.648 482.358 1001.15 480.807 1003.12 480.807C1004.67 480.807 1005.72 481.659 1006.15 483.04ZM1015.65 487.381C1015.66 488.864 1014.56 489.568 1013.6 489.568C1012.55 489.568 1011.83 488.807 1011.83 487.619V482.273H1010.13V487.824C1010.13 489.989 1011.31 491.114 1012.99 491.114C1014.3 491.114 1015.19 490.42 1015.6 489.489H1015.69V491H1017.36V482.273H1015.65V487.381ZM1019.64 491H1021.34V482.273H1019.64V491ZM1020.5 480.926C1021.09 480.926 1021.57 480.472 1021.57 479.915C1021.57 479.358 1021.09 478.898 1020.5 478.898C1019.91 478.898 1019.43 479.358 1019.43 479.915C1019.43 480.472 1019.91 480.926 1020.5 480.926ZM1026.89 491.17C1028.48 491.17 1029.11 490.199 1029.42 489.642H1029.56V491H1031.22V479.364H1029.52V483.688H1029.42C1029.11 483.148 1028.53 482.159 1026.9 482.159C1024.8 482.159 1023.25 483.824 1023.25 486.653C1023.25 489.477 1024.77 491.17 1026.89 491.17ZM1027.27 489.722C1025.75 489.722 1024.96 488.386 1024.96 486.636C1024.96 484.903 1025.73 483.602 1027.27 483.602C1028.75 483.602 1029.55 484.812 1029.55 486.636C1029.55 488.472 1028.73 489.722 1027.27 489.722ZM1037.4 491.176C1039.31 491.176 1040.65 490.239 1041.04 488.818L1039.43 488.528C1039.12 489.352 1038.39 489.773 1037.42 489.773C1035.97 489.773 1034.99 488.83 1034.94 487.148H1041.15V486.545C1041.15 483.392 1039.26 482.159 1037.28 482.159C1034.85 482.159 1033.25 484.011 1033.25 486.693C1033.25 489.403 1034.83 491.176 1037.4 491.176ZM1034.95 485.875C1035.02 484.636 1035.91 483.562 1037.3 483.562C1038.61 483.562 1039.48 484.54 1039.48 485.875H1034.95Z" fill="#242424"/>
<path d="M1087.05 491C1090.59 491 1092.64 488.801 1092.64 485.165C1092.64 481.545 1090.59 479.364 1087.16 479.364H1083.28V491H1087.05ZM1085.03 489.466V480.898H1087.06C1089.6 480.898 1090.91 482.42 1090.91 485.165C1090.91 487.92 1089.6 489.466 1086.95 489.466H1085.03ZM1098.37 491.176C1100.83 491.176 1102.43 489.375 1102.43 486.676C1102.43 483.96 1100.83 482.159 1098.37 482.159C1095.9 482.159 1094.3 483.96 1094.3 486.676C1094.3 489.375 1095.9 491.176 1098.37 491.176ZM1098.37 489.75C1096.76 489.75 1096.01 488.347 1096.01 486.67C1096.01 485 1096.76 483.58 1098.37 483.58C1099.97 483.58 1100.72 485 1100.72 486.67C1100.72 488.347 1099.97 489.75 1098.37 489.75ZM1108.01 491.176C1110.07 491.176 1111.4 489.938 1111.59 488.239H1109.94C1109.72 489.182 1108.99 489.739 1108.02 489.739C1106.58 489.739 1105.65 488.54 1105.65 486.636C1105.65 484.767 1106.6 483.591 1108.02 483.591C1109.1 483.591 1109.76 484.273 1109.94 485.091H1111.59C1111.41 483.33 1109.97 482.159 1107.99 482.159C1105.53 482.159 1103.94 484.011 1103.94 486.676C1103.94 489.307 1105.47 491.176 1108.01 491.176ZM1118.94 487.381C1118.94 488.864 1117.84 489.568 1116.88 489.568C1115.83 489.568 1115.11 488.807 1115.11 487.619V482.273H1113.41V487.824C1113.41 489.989 1114.6 491.114 1116.27 491.114C1117.58 491.114 1118.48 490.42 1118.88 489.489H1118.97V491H1120.64V482.273H1118.94V487.381ZM1122.92 491H1124.62V485.619C1124.62 484.443 1125.45 483.625 1126.41 483.625C1127.36 483.625 1128.01 484.25 1128.01 485.199V491H1129.7V485.438C1129.7 484.386 1130.34 483.625 1131.45 483.625C1132.35 483.625 1133.09 484.125 1133.09 485.307V491H1134.79V485.148C1134.79 483.153 1133.67 482.159 1132.09 482.159C1130.84 482.159 1129.89 482.761 1129.47 483.693H1129.38C1129 482.739 1128.2 482.159 1127.04 482.159C1125.88 482.159 1125.03 482.733 1124.66 483.693H1124.55V482.273H1122.92V491ZM1140.83 491.176C1142.73 491.176 1144.08 490.239 1144.46 488.818L1142.85 488.528C1142.55 489.352 1141.81 489.773 1140.84 489.773C1139.39 489.773 1138.41 488.83 1138.37 487.148H1144.57V486.545C1144.57 483.392 1142.68 482.159 1140.71 482.159C1138.27 482.159 1136.67 484.011 1136.67 486.693C1136.67 489.403 1138.25 491.176 1140.83 491.176ZM1138.37 485.875C1138.44 484.636 1139.34 483.562 1140.72 483.562C1142.04 483.562 1142.9 484.54 1142.9 485.875H1138.37ZM1148.15 485.818C1148.15 484.426 1149.01 483.631 1150.19 483.631C1151.34 483.631 1152.04 484.386 1152.04 485.653V491H1153.74V485.449C1153.74 483.29 1152.55 482.159 1150.77 482.159C1149.45 482.159 1148.6 482.767 1148.19 483.693H1148.09V482.273H1146.45V491H1148.15V485.818ZM1160.09 482.273H1158.3V480.182H1156.6V482.273H1155.32V483.636H1156.6V488.79C1156.6 490.375 1157.81 491.142 1159.15 491.114C1159.69 491.108 1160.05 491.006 1160.25 490.932L1159.94 489.528C1159.83 489.551 1159.62 489.602 1159.35 489.602C1158.8 489.602 1158.3 489.42 1158.3 488.438V483.636H1160.09V482.273ZM1168.37 484.403C1168.02 483.045 1166.95 482.159 1165.07 482.159C1163.1 482.159 1161.7 483.199 1161.7 484.744C1161.7 485.983 1162.45 486.807 1164.09 487.17L1165.56 487.494C1166.4 487.682 1166.8 488.057 1166.8 488.602C1166.8 489.278 1166.07 489.807 1164.96 489.807C1163.94 489.807 1163.29 489.369 1163.09 488.511L1161.44 488.761C1161.73 490.307 1163.01 491.176 1164.97 491.176C1167.08 491.176 1168.54 490.057 1168.54 488.477C1168.54 487.244 1167.76 486.483 1166.15 486.114L1164.77 485.795C1163.81 485.568 1163.39 485.244 1163.4 484.653C1163.39 483.983 1164.12 483.506 1165.09 483.506C1166.14 483.506 1166.63 484.091 1166.83 484.676L1168.37 484.403Z" fill="#242424"/>
<path d="M1220.94 483.148C1220.55 480.659 1218.6 479.205 1216.14 479.205C1213.12 479.205 1210.9 481.46 1210.9 485.182C1210.9 488.903 1213.11 491.159 1216.14 491.159C1218.69 491.159 1220.56 489.557 1220.94 487.256L1219.17 487.25C1218.87 488.739 1217.62 489.557 1216.15 489.557C1214.15 489.557 1212.65 488.028 1212.65 485.182C1212.65 482.358 1214.15 480.807 1216.15 480.807C1217.64 480.807 1218.88 481.642 1219.17 483.148H1220.94ZM1226.58 491.176C1229.04 491.176 1230.65 489.375 1230.65 486.676C1230.65 483.96 1229.04 482.159 1226.58 482.159C1224.12 482.159 1222.52 483.96 1222.52 486.676C1222.52 489.375 1224.12 491.176 1226.58 491.176ZM1226.59 489.75C1224.98 489.75 1224.23 488.347 1224.23 486.67C1224.23 485 1224.98 483.58 1226.59 483.58C1228.19 483.58 1228.94 485 1228.94 486.67C1228.94 488.347 1228.19 489.75 1226.59 489.75ZM1232.55 491H1234.25V485.619C1234.25 484.443 1235.07 483.625 1236.04 483.625C1236.98 483.625 1237.63 484.25 1237.63 485.199V491H1239.33V485.438C1239.33 484.386 1239.97 483.625 1241.08 483.625C1241.97 483.625 1242.71 484.125 1242.71 485.307V491H1244.41V485.148C1244.41 483.153 1243.3 482.159 1241.72 482.159C1240.46 482.159 1239.52 482.761 1239.1 483.693H1239.01C1238.63 482.739 1237.83 482.159 1236.66 482.159C1235.51 482.159 1234.65 482.733 1234.29 483.693H1234.18V482.273H1232.55V491ZM1246.69 494.273H1248.39V489.642H1248.49C1248.8 490.199 1249.42 491.17 1251.01 491.17C1253.13 491.17 1254.66 489.477 1254.66 486.653C1254.66 483.824 1253.1 482.159 1251 482.159C1249.38 482.159 1248.79 483.148 1248.49 483.688H1248.35V482.273H1246.69V494.273ZM1248.35 486.636C1248.35 484.812 1249.15 483.602 1250.63 483.602C1252.17 483.602 1252.94 484.903 1252.94 486.636C1252.94 488.386 1252.15 489.722 1250.63 489.722C1249.17 489.722 1248.35 488.472 1248.35 486.636ZM1260.24 491.176C1262.7 491.176 1264.31 489.375 1264.31 486.676C1264.31 483.96 1262.7 482.159 1260.24 482.159C1257.78 482.159 1256.17 483.96 1256.17 486.676C1256.17 489.375 1257.78 491.176 1260.24 491.176ZM1260.25 489.75C1258.64 489.75 1257.89 488.347 1257.89 486.67C1257.89 485 1258.64 483.58 1260.25 483.58C1261.84 483.58 1262.59 485 1262.59 486.67C1262.59 488.347 1261.84 489.75 1260.25 489.75ZM1267.9 485.818C1267.9 484.426 1268.76 483.631 1269.94 483.631C1271.09 483.631 1271.79 484.386 1271.79 485.653V491H1273.49V485.449C1273.49 483.29 1272.3 482.159 1270.52 482.159C1269.2 482.159 1268.35 482.767 1267.94 483.693H1267.84V482.273H1266.2V491H1267.9V485.818ZM1279.53 491.176C1281.43 491.176 1282.78 490.239 1283.16 488.818L1281.56 488.528C1281.25 489.352 1280.51 489.773 1279.55 489.773C1278.09 489.773 1277.11 488.83 1277.07 487.148H1283.27V486.545C1283.27 483.392 1281.39 482.159 1279.41 482.159C1276.98 482.159 1275.38 484.011 1275.38 486.693C1275.38 489.403 1276.95 491.176 1279.53 491.176ZM1277.07 485.875C1277.14 484.636 1278.04 483.562 1279.42 483.562C1280.74 483.562 1281.6 484.54 1281.61 485.875H1277.07ZM1286.86 485.818C1286.86 484.426 1287.71 483.631 1288.89 483.631C1290.04 483.631 1290.74 484.386 1290.74 485.653V491H1292.44V485.449C1292.44 483.29 1291.25 482.159 1289.47 482.159C1288.16 482.159 1287.3 482.767 1286.9 483.693H1286.79V482.273H1285.16V491H1286.86V485.818ZM1298.79 482.273H1297V480.182H1295.31V482.273H1294.03V483.636H1295.31V488.79C1295.3 490.375 1296.51 491.142 1297.85 491.114C1298.39 491.108 1298.75 491.006 1298.95 490.932L1298.65 489.528C1298.53 489.551 1298.32 489.602 1298.05 489.602C1297.5 489.602 1297 489.42 1297 488.438V483.636H1298.79V482.273ZM1307.07 484.403C1306.72 483.045 1305.66 482.159 1303.77 482.159C1301.8 482.159 1300.4 483.199 1300.4 484.744C1300.4 485.983 1301.15 486.807 1302.79 487.17L1304.27 487.494C1305.11 487.682 1305.5 488.057 1305.5 488.602C1305.5 489.278 1304.78 489.807 1303.66 489.807C1302.65 489.807 1301.99 489.369 1301.79 488.511L1300.15 488.761C1300.43 490.307 1301.71 491.176 1303.67 491.176C1305.78 491.176 1307.24 490.057 1307.24 488.477C1307.24 487.244 1306.46 486.483 1304.86 486.114L1303.47 485.795C1302.51 485.568 1302.1 485.244 1302.1 484.653C1302.1 483.983 1302.82 483.506 1303.79 483.506C1304.85 483.506 1305.33 484.091 1305.53 484.676L1307.07 484.403Z" fill="#242424"/>
<path d="M1325 488L1321 484L1317 488" stroke="#9C9C9C" stroke-linecap="round" stroke-linejoin="round"/>
<path d="M1370.28 491H1377.31V489.489H1372.03V479.364H1370.28V491ZM1379.17 491H1380.87V482.273H1379.17V491ZM1380.03 480.926C1380.62 480.926 1381.11 480.472 1381.11 479.915C1381.11 479.358 1380.62 478.898 1380.03 478.898C1379.44 478.898 1378.96 479.358 1378.96 479.915C1378.96 480.472 1379.44 480.926 1380.03 480.926ZM1386.83 491.176C1388.9 491.176 1390.23 489.938 1390.42 488.239H1388.77C1388.55 489.182 1387.82 489.739 1386.85 489.739C1385.41 489.739 1384.48 488.54 1384.48 486.636C1384.48 484.767 1385.42 483.591 1386.85 483.591C1387.92 483.591 1388.58 484.273 1388.77 485.091H1390.42C1390.24 483.33 1388.8 482.159 1386.82 482.159C1384.36 482.159 1382.77 484.011 1382.77 486.676C1382.77 489.307 1384.3 491.176 1386.83 491.176ZM1396 491.176C1397.9 491.176 1399.25 490.239 1399.63 488.818L1398.03 488.528C1397.72 489.352 1396.98 489.773 1396.01 489.773C1394.56 489.773 1393.58 488.83 1393.54 487.148H1399.74V486.545C1399.74 483.392 1397.86 482.159 1395.88 482.159C1393.45 482.159 1391.84 484.011 1391.84 486.693C1391.84 489.403 1393.42 491.176 1396 491.176ZM1393.54 485.875C1393.61 484.636 1394.51 483.562 1395.89 483.562C1397.21 483.562 1398.07 484.54 1398.08 485.875H1393.54ZM1403.33 485.818C1403.33 484.426 1404.18 483.631 1405.36 483.631C1406.51 483.631 1407.21 484.386 1407.21 485.653V491H1408.91V485.449C1408.91 483.29 1407.72 482.159 1405.94 482.159C1404.63 482.159 1403.77 482.767 1403.37 483.693H1403.26V482.273H1401.63V491H1403.33V485.818ZM1417.73 484.403C1417.38 483.045 1416.31 482.159 1414.43 482.159C1412.46 482.159 1411.06 483.199 1411.06 484.744C1411.06 485.983 1411.81 486.807 1413.44 487.17L1414.92 487.494C1415.76 487.682 1416.15 488.057 1416.15 488.602C1416.15 489.278 1415.43 489.807 1414.32 489.807C1413.3 489.807 1412.65 489.369 1412.44 488.511L1410.8 488.761C1411.09 490.307 1412.37 491.176 1414.33 491.176C1416.44 491.176 1417.9 490.057 1417.9 488.477C1417.9 487.244 1417.12 486.483 1415.51 486.114L1414.13 485.795C1413.17 485.568 1412.75 485.244 1412.76 484.653C1412.75 483.983 1413.48 483.506 1414.44 483.506C1415.5 483.506 1415.99 484.091 1416.19 484.676L1417.73 484.403ZM1423.53 491.176C1425.43 491.176 1426.78 490.239 1427.16 488.818L1425.56 488.528C1425.25 489.352 1424.51 489.773 1423.55 489.773C1422.09 489.773 1421.11 488.83 1421.07 487.148H1427.27V486.545C1427.27 483.392 1425.39 482.159 1423.41 482.159C1420.98 482.159 1419.38 484.011 1419.38 486.693C1419.38 489.403 1420.95 491.176 1423.53 491.176ZM1421.07 485.875C1421.14 484.636 1422.04 483.562 1423.42 483.562C1424.74 483.562 1425.6 484.54 1425.61 485.875H1421.07Z" fill="#242424"/>
<g filter="url(#filter0_d_278_6202)">
<rect x="1202" y="537" width="266" height="217" rx="6" fill="white"/>
<path d="M1224.26 572L1225.33 568.92H1229.88L1230.94 572H1232.8L1228.61 560.364H1226.59L1222.4 572H1224.26ZM1225.84 567.443L1227.56 562.477H1227.65L1229.36 567.443H1225.84ZM1236.04 560.364H1234.35V572H1236.04V560.364ZM1242.09 572.176C1243.99 572.176 1245.34 571.239 1245.73 569.818L1244.12 569.528C1243.81 570.352 1243.07 570.773 1242.11 570.773C1240.65 570.773 1239.68 569.83 1239.63 568.148H1245.84V567.545C1245.84 564.392 1243.95 563.159 1241.97 563.159C1239.54 563.159 1237.94 565.011 1237.94 567.693C1237.94 570.403 1239.52 572.176 1242.09 572.176ZM1239.64 566.875C1239.7 565.636 1240.6 564.562 1241.98 564.562C1243.3 564.562 1244.16 565.54 1244.17 566.875H1239.64ZM1247.72 572H1249.42V566.67C1249.42 565.528 1250.3 564.705 1251.5 564.705C1251.86 564.705 1252.25 564.767 1252.39 564.807V563.182C1252.22 563.159 1251.88 563.142 1251.67 563.142C1250.65 563.142 1249.77 563.722 1249.45 564.659H1249.36V563.273H1247.72V572ZM1258.45 563.273H1256.66V561.182H1254.96V563.273H1253.68V564.636H1254.96V569.79C1254.96 571.375 1256.17 572.142 1257.51 572.114C1258.05 572.108 1258.41 572.006 1258.61 571.932L1258.3 570.528C1258.19 570.551 1257.98 570.602 1257.71 570.602C1257.15 570.602 1256.66 570.42 1256.66 569.438V564.636H1258.45V563.273ZM1266.73 565.403C1266.38 564.045 1265.31 563.159 1263.43 563.159C1261.46 563.159 1260.06 564.199 1260.06 565.744C1260.06 566.983 1260.81 567.807 1262.44 568.17L1263.92 568.494C1264.76 568.682 1265.15 569.057 1265.15 569.602C1265.15 570.278 1264.43 570.807 1263.32 570.807C1262.3 570.807 1261.65 570.369 1261.44 569.511L1259.8 569.761C1260.09 571.307 1261.37 572.176 1263.33 572.176C1265.44 572.176 1266.9 571.057 1266.9 569.477C1266.9 568.244 1266.12 567.483 1264.51 567.114L1263.13 566.795C1262.17 566.568 1261.75 566.244 1261.76 565.653C1261.75 564.983 1262.48 564.506 1263.44 564.506C1264.5 564.506 1264.99 565.091 1265.19 565.676L1266.73 565.403Z" fill="black"/>
<path d="M1223.06 593H1224.11V589.812H1226.02C1228.06 589.812 1228.97 588.577 1228.97 587.034C1228.97 585.491 1228.06 584.273 1226.01 584.273H1223.06V593ZM1224.11 588.875V585.21H1225.97C1227.39 585.21 1227.93 585.986 1227.93 587.034C1227.93 588.082 1227.39 588.875 1225.99 588.875H1224.11ZM1230.54 593H1231.54V588.858C1231.54 587.972 1232.24 587.324 1233.2 587.324C1233.47 587.324 1233.74 587.375 1233.81 587.392V586.369C1233.7 586.361 1233.43 586.352 1233.28 586.352C1232.5 586.352 1231.82 586.795 1231.58 587.443H1231.51V586.455H1230.54V593ZM1237.46 593.136C1239.24 593.136 1240.43 591.79 1240.43 589.761C1240.43 587.716 1239.24 586.369 1237.46 586.369C1235.69 586.369 1234.5 587.716 1234.5 589.761C1234.5 591.79 1235.69 593.136 1237.46 593.136ZM1237.46 592.233C1236.12 592.233 1235.5 591.074 1235.5 589.761C1235.5 588.449 1236.12 587.273 1237.46 587.273C1238.81 587.273 1239.42 588.449 1239.42 589.761C1239.42 591.074 1238.81 592.233 1237.46 592.233ZM1247.08 586.455H1245.99L1244.18 591.67H1244.12L1242.31 586.455H1241.22L1243.64 593H1244.66L1247.08 586.455ZM1248.41 593H1249.41V586.455H1248.41V593ZM1248.92 585.364C1249.31 585.364 1249.64 585.057 1249.64 584.682C1249.64 584.307 1249.31 584 1248.92 584C1248.53 584 1248.2 584.307 1248.2 584.682C1248.2 585.057 1248.53 585.364 1248.92 585.364ZM1253.73 593.136C1254.99 593.136 1255.42 592.352 1255.64 591.994H1255.76V593H1256.73V584.273H1255.72V587.494H1255.64C1255.42 587.153 1255.02 586.369 1253.75 586.369C1252.09 586.369 1250.95 587.682 1250.95 589.744C1250.95 591.824 1252.09 593.136 1253.73 593.136ZM1253.86 592.233C1252.6 592.233 1251.96 591.125 1251.96 589.727C1251.96 588.347 1252.59 587.273 1253.86 587.273C1255.09 587.273 1255.74 588.261 1255.74 589.727C1255.74 591.21 1255.07 592.233 1253.86 592.233ZM1261.45 593.136C1262.78 593.136 1263.75 592.472 1264.06 591.483L1263.09 591.21C1262.83 591.892 1262.24 592.233 1261.45 592.233C1260.27 592.233 1259.46 591.47 1259.41 590.068H1264.16V589.642C1264.16 587.205 1262.72 586.369 1261.35 586.369C1259.58 586.369 1258.4 587.767 1258.4 589.778C1258.4 591.79 1259.56 593.136 1261.45 593.136ZM1259.41 589.199C1259.48 588.18 1260.2 587.273 1261.35 587.273C1262.44 587.273 1263.14 588.091 1263.14 589.199H1259.41ZM1271.73 593.136C1273.18 593.136 1274.13 592.25 1274.3 591.091H1273.3C1273.11 591.807 1272.51 592.233 1271.73 592.233C1270.53 592.233 1269.77 591.244 1269.77 589.727C1269.77 588.244 1270.55 587.273 1271.73 587.273C1272.61 587.273 1273.14 587.818 1273.3 588.415H1274.3C1274.13 587.188 1273.09 586.369 1271.71 586.369C1269.94 586.369 1268.76 587.767 1268.76 589.761C1268.76 591.722 1269.89 593.136 1271.73 593.136ZM1278.43 593.136C1280.2 593.136 1281.4 591.79 1281.4 589.761C1281.4 587.716 1280.2 586.369 1278.43 586.369C1276.66 586.369 1275.47 587.716 1275.47 589.761C1275.47 591.79 1276.66 593.136 1278.43 593.136ZM1278.43 592.233C1277.08 592.233 1276.47 591.074 1276.47 589.761C1276.47 588.449 1277.08 587.273 1278.43 587.273C1279.78 587.273 1280.39 588.449 1280.39 589.761C1280.39 591.074 1279.78 592.233 1278.43 592.233ZM1283.94 589.062C1283.94 587.92 1284.65 587.273 1285.61 587.273C1286.54 587.273 1287.11 587.882 1287.11 588.909V593H1288.11V588.841C1288.11 587.17 1287.22 586.369 1285.9 586.369C1284.91 586.369 1284.3 586.812 1283.99 587.477H1283.9V586.455H1282.93V593H1283.94V589.062ZM1292.8 586.455H1291.4V584.886H1290.39V586.455H1289.41V587.307H1290.39V591.398C1290.39 592.54 1291.32 593.085 1292.17 593.085C1292.54 593.085 1292.78 593.017 1292.92 592.966L1292.71 592.062C1292.63 592.08 1292.49 592.114 1292.27 592.114C1291.83 592.114 1291.4 591.977 1291.4 591.125V587.307H1292.8V586.455ZM1296.99 593.136C1298.31 593.136 1299.29 592.472 1299.59 591.483L1298.62 591.21C1298.37 591.892 1297.77 592.233 1296.99 592.233C1295.8 592.233 1294.99 591.47 1294.94 590.068H1299.7V589.642C1299.7 587.205 1298.25 586.369 1296.88 586.369C1295.11 586.369 1293.93 587.767 1293.93 589.778C1293.93 591.79 1295.09 593.136 1296.99 593.136ZM1294.94 589.199C1295.01 588.18 1295.73 587.273 1296.88 587.273C1297.97 587.273 1298.67 588.091 1298.67 589.199H1294.94ZM1301.8 586.455H1300.64L1302.72 589.727L1300.64 593H1301.8L1303.37 590.46L1304.94 593H1306.09L1303.98 589.727L1306.09 586.455H1304.94L1303.37 589.131L1301.8 586.455ZM1310.38 586.455H1308.98V584.886H1307.97V586.455H1306.98V587.307H1307.97V591.398C1307.97 592.54 1308.89 593.085 1309.75 593.085C1310.12 593.085 1310.36 593.017 1310.5 592.966L1310.29 592.062C1310.21 592.08 1310.07 592.114 1309.85 592.114C1309.4 592.114 1308.98 591.977 1308.98 591.125V587.307H1310.38V586.455ZM1316.01 590.324C1316.01 591.551 1315.08 592.114 1314.33 592.114C1313.49 592.114 1312.89 591.5 1312.89 590.545V586.455H1311.89V590.614C1311.89 592.284 1312.78 593.085 1314 593.085C1314.99 593.085 1315.64 592.557 1315.95 591.892H1316.01V593H1317.02V586.455H1316.01V590.324ZM1320.79 593.153C1321.93 593.153 1322.53 592.54 1322.73 592.114H1322.78V593H1323.79V588.688C1323.79 586.608 1322.2 586.369 1321.37 586.369C1320.38 586.369 1319.25 586.71 1318.74 587.903L1319.7 588.244C1319.92 587.767 1320.44 587.256 1321.4 587.256C1322.33 587.256 1322.78 587.746 1322.78 588.585V588.619C1322.78 589.105 1322.29 589.062 1321.09 589.216C1319.88 589.374 1318.56 589.642 1318.56 591.142C1318.56 592.42 1319.54 593.153 1320.79 593.153ZM1320.94 592.25C1320.14 592.25 1319.56 591.892 1319.56 591.193C1319.56 590.426 1320.26 590.188 1321.04 590.085C1321.47 590.034 1322.61 589.915 1322.78 589.71V590.631C1322.78 591.449 1322.13 592.25 1320.94 592.25ZM1326.63 584.273H1325.62V593H1326.63V584.273ZM1334.76 586.455H1333.3V585.79C1333.3 585.142 1333.57 584.801 1334.23 584.801C1334.52 584.801 1334.69 584.869 1334.8 584.903L1335.08 584.034C1334.93 583.966 1334.62 583.864 1334.13 583.864C1333.19 583.864 1332.29 584.426 1332.29 585.551V586.455H1331.23V587.307H1332.29V593H1333.3V587.307H1334.76V586.455ZM1338.65 593.136C1339.97 593.136 1340.95 592.472 1341.25 591.483L1340.28 591.21C1340.03 591.892 1339.43 592.233 1338.65 592.233C1337.46 592.233 1336.65 591.47 1336.6 590.068H1341.36V589.642C1341.36 587.205 1339.91 586.369 1338.54 586.369C1336.77 586.369 1335.59 587.767 1335.59 589.778C1335.59 591.79 1336.75 593.136 1338.65 593.136ZM1336.6 589.199C1336.67 588.18 1337.39 587.273 1338.54 587.273C1339.63 587.273 1340.33 588.091 1340.33 589.199H1336.6ZM1345.63 593.136C1346.96 593.136 1347.93 592.472 1348.24 591.483L1347.27 591.21C1347.01 591.892 1346.42 592.233 1345.63 592.233C1344.45 592.233 1343.64 591.47 1343.59 590.068H1348.34V589.642C1348.34 587.205 1346.89 586.369 1345.53 586.369C1343.75 586.369 1342.58 587.767 1342.58 589.778C1342.58 591.79 1343.74 593.136 1345.63 593.136ZM1343.59 589.199C1343.66 588.18 1344.38 587.273 1345.53 587.273C1346.62 587.273 1347.32 588.091 1347.32 589.199H1343.59ZM1352.34 593.136C1353.6 593.136 1354.03 592.352 1354.25 591.994H1354.37V593H1355.34V584.273H1354.34V587.494H1354.25C1354.03 587.153 1353.64 586.369 1352.36 586.369C1350.7 586.369 1349.56 587.682 1349.56 589.744C1349.56 591.824 1350.7 593.136 1352.34 593.136ZM1352.48 592.233C1351.22 592.233 1350.57 591.125 1350.57 589.727C1350.57 588.347 1351.2 587.273 1352.48 587.273C1353.7 587.273 1354.35 588.261 1354.35 589.727C1354.35 591.21 1353.69 592.233 1352.48 592.233ZM1357.46 593H1358.43V591.994H1358.55C1358.77 592.352 1359.2 593.136 1360.46 593.136C1362.1 593.136 1363.24 591.824 1363.24 589.744C1363.24 587.682 1362.1 586.369 1360.44 586.369C1359.16 586.369 1358.77 587.153 1358.55 587.494H1358.46V584.273H1357.46V593ZM1358.45 589.727C1358.45 588.261 1359.1 587.273 1360.32 587.273C1361.6 587.273 1362.23 588.347 1362.23 589.727C1362.23 591.125 1361.58 592.233 1360.32 592.233C1359.11 592.233 1358.45 591.21 1358.45 589.727ZM1366.7 593.153C1367.84 593.153 1368.44 592.54 1368.65 592.114H1368.7V593H1369.7V588.688C1369.7 586.608 1368.12 586.369 1367.28 586.369C1366.29 586.369 1365.17 586.71 1364.66 587.903L1365.61 588.244C1365.83 587.767 1366.36 587.256 1367.32 587.256C1368.24 587.256 1368.7 587.746 1368.7 588.585V588.619C1368.7 589.105 1368.2 589.062 1367.01 589.216C1365.79 589.374 1364.47 589.642 1364.47 591.142C1364.47 592.42 1365.46 593.153 1366.7 593.153ZM1366.86 592.25C1366.05 592.25 1365.47 591.892 1365.47 591.193C1365.47 590.426 1366.17 590.188 1366.96 590.085C1367.38 590.034 1368.53 589.915 1368.7 589.71V590.631C1368.7 591.449 1368.05 592.25 1366.86 592.25ZM1374.2 593.136C1375.65 593.136 1376.6 592.25 1376.77 591.091H1375.76C1375.58 591.807 1374.98 592.233 1374.2 592.233C1373 592.233 1372.24 591.244 1372.24 589.727C1372.24 588.244 1373.02 587.273 1374.2 587.273C1375.08 587.273 1375.61 587.818 1375.76 588.415H1376.77C1376.6 587.188 1375.56 586.369 1374.18 586.369C1372.41 586.369 1371.23 587.767 1371.23 589.761C1371.23 591.722 1372.36 593.136 1374.2 593.136ZM1378.24 593H1379.25V590.55L1379.95 589.898L1382.4 593H1383.68L1380.71 589.25L1383.47 586.455H1382.23L1379.37 589.369H1379.25V584.273H1378.24V593ZM1388.14 593H1389.15V588.909C1389.15 587.95 1389.85 587.273 1390.63 587.273C1391.39 587.273 1391.93 587.771 1391.93 588.517V593H1392.95V588.739C1392.95 587.895 1393.48 587.273 1394.4 587.273C1395.11 587.273 1395.73 587.652 1395.73 588.619V593H1396.73V588.619C1396.73 587.081 1395.91 586.369 1394.74 586.369C1393.8 586.369 1393.12 586.8 1392.78 587.477H1392.71C1392.39 586.778 1391.82 586.369 1390.96 586.369C1390.1 586.369 1389.47 586.778 1389.2 587.477H1389.11V586.455H1388.14V593ZM1401.32 593.136C1402.65 593.136 1403.62 592.472 1403.93 591.483L1402.95 591.21C1402.7 591.892 1402.11 592.233 1401.32 592.233C1400.14 592.233 1399.32 591.47 1399.28 590.068H1404.03V589.642C1404.03 587.205 1402.58 586.369 1401.21 586.369C1399.44 586.369 1398.27 587.767 1398.27 589.778C1398.27 591.79 1399.43 593.136 1401.32 593.136ZM1399.28 589.199C1399.34 588.18 1400.06 587.273 1401.21 587.273C1402.31 587.273 1403 588.091 1403 589.199H1399.28ZM1410.19 587.92C1409.88 586.991 1409.17 586.369 1407.88 586.369C1406.49 586.369 1405.47 587.153 1405.47 588.261C1405.47 589.165 1406.01 589.77 1407.21 590.051L1408.3 590.307C1408.96 590.46 1409.27 590.776 1409.27 591.227C1409.27 591.79 1408.68 592.25 1407.74 592.25C1406.92 592.25 1406.4 591.896 1406.22 591.193L1405.27 591.432C1405.5 592.544 1406.42 593.136 1407.76 593.136C1409.28 593.136 1410.31 592.305 1410.31 591.176C1410.31 590.264 1409.74 589.689 1408.57 589.403L1407.6 589.165C1406.83 588.973 1406.48 588.713 1406.48 588.21C1406.48 587.648 1407.07 587.239 1407.88 587.239C1408.75 587.239 1409.12 587.724 1409.29 588.176L1410.19 587.92ZM1416.46 587.92C1416.15 586.991 1415.44 586.369 1414.14 586.369C1412.76 586.369 1411.74 587.153 1411.74 588.261C1411.74 589.165 1412.28 589.77 1413.48 590.051L1414.57 590.307C1415.23 590.46 1415.54 590.776 1415.54 591.227C1415.54 591.79 1414.95 592.25 1414.01 592.25C1413.19 592.25 1412.67 591.896 1412.49 591.193L1411.54 591.432C1411.77 592.544 1412.69 593.136 1414.03 593.136C1415.55 593.136 1416.58 592.305 1416.58 591.176C1416.58 590.264 1416.01 589.689 1414.84 589.403L1413.87 589.165C1413.1 588.973 1412.75 588.713 1412.75 588.21C1412.75 587.648 1413.34 587.239 1414.14 587.239C1415.02 587.239 1415.38 587.724 1415.56 588.176L1416.46 587.92ZM1420.02 593.153C1421.16 593.153 1421.76 592.54 1421.97 592.114H1422.02V593H1423.02V588.688C1423.02 586.608 1421.44 586.369 1420.6 586.369C1419.61 586.369 1418.49 586.71 1417.98 587.903L1418.93 588.244C1419.15 587.767 1419.68 587.256 1420.64 587.256C1421.56 587.256 1422.02 587.746 1422.02 588.585V588.619C1422.02 589.105 1421.52 589.062 1420.33 589.216C1419.11 589.374 1417.79 589.642 1417.79 591.142C1417.79 592.42 1418.78 593.153 1420.02 593.153ZM1420.18 592.25C1419.37 592.25 1418.8 591.892 1418.8 591.193C1418.8 590.426 1419.49 590.188 1420.28 590.085C1420.7 590.034 1421.85 589.915 1422.02 589.71V590.631C1422.02 591.449 1421.37 592.25 1420.18 592.25ZM1427.5 595.591C1429.07 595.591 1430.33 594.875 1430.33 593.188V586.455H1429.36V587.494H1429.26C1429.03 587.153 1428.62 586.369 1427.35 586.369C1425.69 586.369 1424.55 587.682 1424.55 589.693C1424.55 591.739 1425.74 592.898 1427.33 592.898C1428.61 592.898 1429.02 592.148 1429.24 591.79H1429.32V593.119C1429.32 594.21 1428.56 594.705 1427.5 594.705C1426.31 594.705 1425.89 594.078 1425.62 593.716L1424.82 594.278C1425.23 594.964 1426.04 595.591 1427.5 595.591ZM1427.47 591.994C1426.2 591.994 1425.56 591.04 1425.56 589.676C1425.56 588.347 1426.19 587.273 1427.47 587.273C1428.69 587.273 1429.34 588.261 1429.34 589.676C1429.34 591.125 1428.68 591.994 1427.47 591.994ZM1434.91 593.136C1436.24 593.136 1437.22 592.472 1437.52 591.483L1436.55 591.21C1436.3 591.892 1435.7 592.233 1434.91 592.233C1433.73 592.233 1432.92 591.47 1432.87 590.068H1437.62V589.642C1437.62 587.205 1436.18 586.369 1434.81 586.369C1433.04 586.369 1431.86 587.767 1431.86 589.778C1431.86 591.79 1433.02 593.136 1434.91 593.136ZM1432.87 589.199C1432.94 588.18 1433.66 587.273 1434.81 587.273C1435.9 587.273 1436.6 588.091 1436.6 589.199H1432.87ZM1443.79 587.92C1443.48 586.991 1442.77 586.369 1441.47 586.369C1440.09 586.369 1439.07 587.153 1439.07 588.261C1439.07 589.165 1439.61 589.77 1440.81 590.051L1441.9 590.307C1442.56 590.46 1442.87 590.776 1442.87 591.227C1442.87 591.79 1442.27 592.25 1441.34 592.25C1440.51 592.25 1440 591.896 1439.82 591.193L1438.87 591.432C1439.1 592.544 1440.02 593.136 1441.35 593.136C1442.88 593.136 1443.91 592.305 1443.91 591.176C1443.91 590.264 1443.34 589.689 1442.17 589.403L1441.2 589.165C1440.42 588.973 1440.08 588.713 1440.08 588.21C1440.08 587.648 1440.67 587.239 1441.47 587.239C1442.35 587.239 1442.71 587.724 1442.89 588.176L1443.79 587.92Z" fill="#9BA7B9"/>
<path d="M1224.26 641L1225.33 637.92H1229.88L1230.94 641H1232.8L1228.61 629.364H1226.59L1222.4 641H1224.26ZM1225.84 636.443L1227.56 631.477H1227.65L1229.36 636.443H1225.84ZM1237.88 641.176C1239.94 641.176 1241.28 639.938 1241.47 638.239H1239.81C1239.6 639.182 1238.86 639.739 1237.89 639.739C1236.45 639.739 1235.53 638.54 1235.53 636.636C1235.53 634.767 1236.47 633.591 1237.89 633.591C1238.97 633.591 1239.63 634.273 1239.81 635.091H1241.47C1241.28 633.33 1239.85 632.159 1237.86 632.159C1235.4 632.159 1233.81 634.011 1233.81 636.676C1233.81 639.307 1235.35 641.176 1237.88 641.176ZM1246.96 641.176C1249.02 641.176 1250.36 639.938 1250.54 638.239H1248.89C1248.67 639.182 1247.94 639.739 1246.97 639.739C1245.53 639.739 1244.61 638.54 1244.61 636.636C1244.61 634.767 1245.55 633.591 1246.97 633.591C1248.05 633.591 1248.71 634.273 1248.89 635.091H1250.54C1250.36 633.33 1248.92 632.159 1246.94 632.159C1244.48 632.159 1242.89 634.011 1242.89 636.676C1242.89 639.307 1244.42 641.176 1246.96 641.176ZM1256.04 641.176C1258.5 641.176 1260.11 639.375 1260.11 636.676C1260.11 633.96 1258.5 632.159 1256.04 632.159C1253.58 632.159 1251.97 633.96 1251.97 636.676C1251.97 639.375 1253.58 641.176 1256.04 641.176ZM1256.04 639.75C1254.43 639.75 1253.68 638.347 1253.68 636.67C1253.68 635 1254.43 633.58 1256.04 633.58C1257.64 633.58 1258.39 635 1258.39 636.67C1258.39 638.347 1257.64 639.75 1256.04 639.75ZM1262 641H1263.7V635.67C1263.7 634.528 1264.58 633.705 1265.79 633.705C1266.14 633.705 1266.54 633.767 1266.67 633.807V632.182C1266.5 632.159 1266.17 632.142 1265.95 632.142C1264.93 632.142 1264.05 632.722 1263.73 633.659H1263.64V632.273H1262V641ZM1271.1 641.17C1272.69 641.17 1273.31 640.199 1273.62 639.642H1273.76V641H1275.42V629.364H1273.72V633.688H1273.62C1273.31 633.148 1272.73 632.159 1271.11 632.159C1269 632.159 1267.45 633.824 1267.45 636.653C1267.45 639.477 1268.98 641.17 1271.1 641.17ZM1271.47 639.722C1269.95 639.722 1269.16 638.386 1269.16 636.636C1269.16 634.903 1269.94 633.602 1271.47 633.602C1272.95 633.602 1273.75 634.812 1273.75 636.636C1273.75 638.472 1272.94 639.722 1271.47 639.722ZM1277.85 641H1279.54V632.273H1277.85V641ZM1278.7 630.926C1279.29 630.926 1279.78 630.472 1279.78 629.915C1279.78 629.358 1279.29 628.898 1278.7 628.898C1278.11 628.898 1277.63 629.358 1277.63 629.915C1277.63 630.472 1278.11 630.926 1278.7 630.926ZM1283.53 635.818C1283.53 634.426 1284.38 633.631 1285.56 633.631C1286.72 633.631 1287.41 634.386 1287.41 635.653V641H1289.11V635.449C1289.11 633.29 1287.93 632.159 1286.14 632.159C1284.83 632.159 1283.97 632.767 1283.57 633.693H1283.46V632.273H1281.83V641H1283.53V635.818ZM1295.05 644.455C1297.27 644.455 1298.99 643.438 1298.99 641.193V632.273H1297.32V633.688H1297.2C1296.9 633.148 1296.3 632.159 1294.67 632.159C1292.56 632.159 1291.01 633.824 1291.01 636.602C1291.01 639.386 1292.6 640.869 1294.66 640.869C1296.26 640.869 1296.88 639.966 1297.19 639.409H1297.3V641.125C1297.3 642.494 1296.36 643.085 1295.07 643.085C1293.65 643.085 1293.1 642.375 1292.8 641.875L1291.34 642.477C1291.8 643.545 1292.97 644.455 1295.05 644.455ZM1295.03 639.46C1293.52 639.46 1292.73 638.295 1292.73 636.58C1292.73 634.903 1293.5 633.602 1295.03 633.602C1296.52 633.602 1297.31 634.812 1297.31 636.58C1297.31 638.381 1296.5 639.46 1295.03 639.46Z" fill="black"/>
<path d="M1223.06 662H1226.21C1228.27 662 1229.12 660.994 1229.12 659.682C1229.12 658.301 1228.17 657.551 1227.37 657.5V657.415C1228.12 657.21 1228.78 656.716 1228.78 655.591C1228.78 654.312 1227.93 653.273 1226.11 653.273H1223.06V662ZM1224.11 661.062V658.028H1226.26C1227.4 658.028 1228.12 658.795 1228.12 659.682C1228.12 660.449 1227.59 661.062 1226.21 661.062H1224.11ZM1224.11 657.108V654.21H1226.11C1227.27 654.21 1227.78 654.824 1227.78 655.591C1227.78 656.511 1227.03 657.108 1226.07 657.108H1224.11ZM1234.85 659.324C1234.85 660.551 1233.91 661.114 1233.16 661.114C1232.33 661.114 1231.73 660.5 1231.73 659.545V655.455H1230.73V659.614C1230.73 661.284 1231.61 662.085 1232.84 662.085C1233.83 662.085 1234.48 661.557 1234.78 660.892H1234.85V662H1235.86V655.455H1234.85V659.324ZM1237.7 662H1238.7V655.455H1237.7V662ZM1238.21 654.364C1238.6 654.364 1238.93 654.057 1238.93 653.682C1238.93 653.307 1238.6 653 1238.21 653C1237.82 653 1237.49 653.307 1237.49 653.682C1237.49 654.057 1237.82 654.364 1238.21 654.364ZM1241.55 653.273H1240.55V662H1241.55V653.273ZM1245.86 662.136C1247.13 662.136 1247.55 661.352 1247.77 660.994H1247.89V662H1248.86V653.273H1247.86V656.494H1247.77C1247.55 656.153 1247.16 655.369 1245.88 655.369C1244.23 655.369 1243.09 656.682 1243.09 658.744C1243.09 660.824 1244.23 662.136 1245.86 662.136ZM1246 661.233C1244.74 661.233 1244.09 660.125 1244.09 658.727C1244.09 657.347 1244.72 656.273 1246 656.273C1247.23 656.273 1247.88 657.261 1247.88 658.727C1247.88 660.21 1247.21 661.233 1246 661.233ZM1259.57 655.455H1258.48L1256.68 660.67H1256.61L1254.8 655.455H1253.71L1256.13 662H1257.15L1259.57 655.455ZM1263.41 662.136C1264.74 662.136 1265.71 661.472 1266.02 660.483L1265.05 660.21C1264.79 660.892 1264.2 661.233 1263.41 661.233C1262.23 661.233 1261.42 660.47 1261.37 659.068H1266.12V658.642C1266.12 656.205 1264.67 655.369 1263.31 655.369C1261.54 655.369 1260.36 656.767 1260.36 658.778C1260.36 660.79 1261.52 662.136 1263.41 662.136ZM1261.37 658.199C1261.44 657.18 1262.16 656.273 1263.31 656.273C1264.4 656.273 1265.1 657.091 1265.1 658.199H1261.37ZM1267.65 662H1268.66V657.858C1268.66 656.972 1269.36 656.324 1270.31 656.324C1270.58 656.324 1270.86 656.375 1270.92 656.392V655.369C1270.81 655.361 1270.54 655.352 1270.4 655.352C1269.61 655.352 1268.93 655.795 1268.69 656.443H1268.62V655.455H1267.65V662ZM1275.37 655.455H1273.97V653.886H1272.97V655.455H1271.98V656.307H1272.97V660.398C1272.97 661.54 1273.89 662.085 1274.74 662.085C1275.12 662.085 1275.36 662.017 1275.49 661.966L1275.29 661.062C1275.2 661.08 1275.07 661.114 1274.84 661.114C1274.4 661.114 1273.97 660.977 1273.97 660.125V656.307H1275.37V655.455ZM1276.89 662H1277.89V655.455H1276.89V662ZM1277.4 654.364C1277.79 654.364 1278.11 654.057 1278.11 653.682C1278.11 653.307 1277.79 653 1277.4 653C1277 653 1276.68 653.307 1276.68 653.682C1276.68 654.057 1277 654.364 1277.4 654.364ZM1282.39 662.136C1283.84 662.136 1284.8 661.25 1284.97 660.091H1283.96C1283.77 660.807 1283.18 661.233 1282.39 661.233C1281.2 661.233 1280.43 660.244 1280.43 658.727C1280.43 657.244 1281.22 656.273 1282.39 656.273C1283.28 656.273 1283.81 656.818 1283.96 657.415H1284.97C1284.8 656.188 1283.76 655.369 1282.38 655.369C1280.6 655.369 1279.43 656.767 1279.43 658.761C1279.43 660.722 1280.55 662.136 1282.39 662.136ZM1288.36 662.153C1289.5 662.153 1290.1 661.54 1290.31 661.114H1290.36V662H1291.36V657.688C1291.36 655.608 1289.78 655.369 1288.94 655.369C1287.95 655.369 1286.83 655.71 1286.32 656.903L1287.27 657.244C1287.49 656.767 1288.02 656.256 1288.98 656.256C1289.9 656.256 1290.36 656.746 1290.36 657.585V657.619C1290.36 658.105 1289.86 658.062 1288.67 658.216C1287.45 658.374 1286.13 658.642 1286.13 660.142C1286.13 661.42 1287.12 662.153 1288.36 662.153ZM1288.52 661.25C1287.71 661.25 1287.13 660.892 1287.13 660.193C1287.13 659.426 1287.83 659.188 1288.62 659.085C1289.04 659.034 1290.19 658.915 1290.36 658.71V659.631C1290.36 660.449 1289.71 661.25 1288.52 661.25ZM1294.2 653.273H1293.2V662H1294.2V653.273ZM1297.05 653.273H1296.05V662H1297.05V653.273ZM1299.54 664.455C1300.45 664.455 1301.09 663.973 1301.47 662.955L1304.25 655.472L1303.15 655.455L1301.35 660.67H1301.28L1299.47 655.455H1298.38L1300.8 662.034L1300.61 662.545C1300.25 663.543 1299.8 663.636 1299.06 663.449L1298.81 664.335C1298.91 664.386 1299.2 664.455 1299.54 664.455ZM1311.62 662.136C1313.07 662.136 1314.02 661.25 1314.19 660.091H1313.19C1313 660.807 1312.4 661.233 1311.62 661.233C1310.43 661.233 1309.66 660.244 1309.66 658.727C1309.66 657.244 1310.44 656.273 1311.62 656.273C1312.5 656.273 1313.03 656.818 1313.19 657.415H1314.19C1314.02 656.188 1312.98 655.369 1311.6 655.369C1309.83 655.369 1308.65 656.767 1308.65 658.761C1308.65 660.722 1309.78 662.136 1311.62 662.136ZM1318.32 662.136C1320.09 662.136 1321.29 660.79 1321.29 658.761C1321.29 656.716 1320.09 655.369 1318.32 655.369C1316.55 655.369 1315.36 656.716 1315.36 658.761C1315.36 660.79 1316.55 662.136 1318.32 662.136ZM1318.32 661.233C1316.98 661.233 1316.36 660.074 1316.36 658.761C1316.36 657.449 1316.98 656.273 1318.32 656.273C1319.67 656.273 1320.28 657.449 1320.28 658.761C1320.28 660.074 1319.67 661.233 1318.32 661.233ZM1323.83 653.273H1322.82V662H1323.83V653.273ZM1326.68 653.273H1325.67V662H1326.68V653.273ZM1330.44 662.153C1331.59 662.153 1332.18 661.54 1332.39 661.114H1332.44V662H1333.44V657.688C1333.44 655.608 1331.86 655.369 1331.02 655.369C1330.04 655.369 1328.91 655.71 1328.4 656.903L1329.35 657.244C1329.57 656.767 1330.1 656.256 1331.06 656.256C1331.98 656.256 1332.44 656.746 1332.44 657.585V657.619C1332.44 658.105 1331.94 658.062 1330.75 658.216C1329.54 658.374 1328.21 658.642 1328.21 660.142C1328.21 661.42 1329.2 662.153 1330.44 662.153ZM1330.6 661.25C1329.8 661.25 1329.22 660.892 1329.22 660.193C1329.22 659.426 1329.92 659.188 1330.7 659.085C1331.13 659.034 1332.27 658.915 1332.44 658.71V659.631C1332.44 660.449 1331.79 661.25 1330.6 661.25ZM1335.28 664.455H1336.29V660.994H1336.37C1336.59 661.352 1337.02 662.136 1338.28 662.136C1339.92 662.136 1341.06 660.824 1341.06 658.744C1341.06 656.682 1339.92 655.369 1338.26 655.369C1336.98 655.369 1336.59 656.153 1336.37 656.494H1336.25V655.455H1335.28V664.455ZM1336.27 658.727C1336.27 657.261 1336.92 656.273 1338.14 656.273C1339.42 656.273 1340.05 657.347 1340.05 658.727C1340.05 660.125 1339.4 661.233 1338.14 661.233C1336.93 661.233 1336.27 660.21 1336.27 658.727ZM1347.23 656.92C1346.91 655.991 1346.21 655.369 1344.91 655.369C1343.53 655.369 1342.51 656.153 1342.51 657.261C1342.51 658.165 1343.04 658.77 1344.25 659.051L1345.34 659.307C1346 659.46 1346.31 659.776 1346.31 660.227C1346.31 660.79 1345.71 661.25 1344.77 661.25C1343.95 661.25 1343.44 660.896 1343.26 660.193L1342.3 660.432C1342.54 661.544 1343.45 662.136 1344.79 662.136C1346.31 662.136 1347.35 661.305 1347.35 660.176C1347.35 659.264 1346.78 658.689 1345.61 658.403L1344.64 658.165C1343.86 657.973 1343.51 657.713 1343.51 657.21C1343.51 656.648 1344.11 656.239 1344.91 656.239C1345.79 656.239 1346.15 656.724 1346.33 657.176L1347.23 656.92ZM1348.86 662H1349.87V655.455H1348.86V662ZM1349.37 654.364C1349.77 654.364 1350.09 654.057 1350.09 653.682C1350.09 653.307 1349.77 653 1349.37 653C1348.98 653 1348.66 653.307 1348.66 653.682C1348.66 654.057 1348.98 654.364 1349.37 654.364ZM1352.72 658.062C1352.72 656.92 1353.42 656.273 1354.39 656.273C1355.32 656.273 1355.89 656.882 1355.89 657.909V662H1356.89V657.841C1356.89 656.17 1356 655.369 1354.68 655.369C1353.69 655.369 1353.07 655.812 1352.77 656.477H1352.68V655.455H1351.71V662H1352.72V658.062ZM1361.37 664.591C1362.94 664.591 1364.2 663.875 1364.2 662.188V655.455H1363.23V656.494H1363.13C1362.91 656.153 1362.5 655.369 1361.22 655.369C1359.56 655.369 1358.42 656.682 1358.42 658.693C1358.42 660.739 1359.62 661.898 1361.2 661.898C1362.48 661.898 1362.89 661.148 1363.11 660.79H1363.19V662.119C1363.19 663.21 1362.43 663.705 1361.37 663.705C1360.18 663.705 1359.76 663.078 1359.5 662.716L1358.69 663.278C1359.1 663.964 1359.91 664.591 1361.37 664.591ZM1361.34 660.994C1360.08 660.994 1359.43 660.04 1359.43 658.676C1359.43 657.347 1360.06 656.273 1361.34 656.273C1362.56 656.273 1363.21 657.261 1363.21 658.676C1363.21 660.125 1362.55 660.994 1361.34 660.994ZM1371.34 662.153C1372.48 662.153 1373.08 661.54 1373.29 661.114H1373.34V662H1374.34V657.688C1374.34 655.608 1372.76 655.369 1371.92 655.369C1370.93 655.369 1369.81 655.71 1369.3 656.903L1370.25 657.244C1370.47 656.767 1371 656.256 1371.96 656.256C1372.88 656.256 1373.34 656.746 1373.34 657.585V657.619C1373.34 658.105 1372.84 658.062 1371.65 658.216C1370.44 658.374 1369.11 658.642 1369.11 660.142C1369.11 661.42 1370.1 662.153 1371.34 662.153ZM1371.5 661.25C1370.69 661.25 1370.12 660.892 1370.12 660.193C1370.12 659.426 1370.81 659.188 1371.6 659.085C1372.02 659.034 1373.17 658.915 1373.34 658.71V659.631C1373.34 660.449 1372.69 661.25 1371.5 661.25ZM1378.84 662.136C1380.29 662.136 1381.24 661.25 1381.41 660.091H1380.41C1380.22 660.807 1379.62 661.233 1378.84 661.233C1377.64 661.233 1376.88 660.244 1376.88 658.727C1376.88 657.244 1377.66 656.273 1378.84 656.273C1379.72 656.273 1380.25 656.818 1380.41 657.415H1381.41C1381.24 656.188 1380.2 655.369 1378.82 655.369C1377.05 655.369 1375.87 656.767 1375.87 658.761C1375.87 660.722 1377 662.136 1378.84 662.136ZM1385.54 662.136C1386.99 662.136 1387.94 661.25 1388.11 660.091H1387.11C1386.92 660.807 1386.32 661.233 1385.54 661.233C1384.35 661.233 1383.58 660.244 1383.58 658.727C1383.58 657.244 1384.36 656.273 1385.54 656.273C1386.43 656.273 1386.96 656.818 1387.11 657.415H1388.11C1387.94 656.188 1386.9 655.369 1385.52 655.369C1383.75 655.369 1382.57 656.767 1382.57 658.761C1382.57 660.722 1383.7 662.136 1385.54 662.136ZM1392.24 662.136C1394.02 662.136 1395.21 660.79 1395.21 658.761C1395.21 656.716 1394.02 655.369 1392.24 655.369C1390.47 655.369 1389.28 656.716 1389.28 658.761C1389.28 660.79 1390.47 662.136 1392.24 662.136ZM1392.24 661.233C1390.9 661.233 1390.28 660.074 1390.28 658.761C1390.28 657.449 1390.9 656.273 1392.24 656.273C1393.59 656.273 1394.2 657.449 1394.2 658.761C1394.2 660.074 1393.59 661.233 1392.24 661.233ZM1396.74 662H1397.75V657.858C1397.75 656.972 1398.45 656.324 1399.4 656.324C1399.67 656.324 1399.95 656.375 1400.02 656.392V655.369C1399.9 655.361 1399.64 655.352 1399.49 655.352C1398.7 655.352 1398.02 655.795 1397.78 656.443H1397.72V655.455H1396.74V662ZM1403.48 662.136C1404.74 662.136 1405.17 661.352 1405.39 660.994H1405.51V662H1406.48V653.273H1405.48V656.494H1405.39C1405.17 656.153 1404.78 655.369 1403.5 655.369C1401.85 655.369 1400.7 656.682 1400.7 658.744C1400.7 660.824 1401.85 662.136 1403.48 662.136ZM1403.62 661.233C1402.36 661.233 1401.71 660.125 1401.71 658.727C1401.71 657.347 1402.34 656.273 1403.62 656.273C1404.85 656.273 1405.49 657.261 1405.49 658.727C1405.49 660.21 1404.83 661.233 1403.62 661.233ZM1408.46 662H1409.47V655.455H1408.46V662ZM1408.97 654.364C1409.37 654.364 1409.69 654.057 1409.69 653.682C1409.69 653.307 1409.37 653 1408.97 653C1408.58 653 1408.26 653.307 1408.26 653.682C1408.26 654.057 1408.58 654.364 1408.97 654.364ZM1413.97 662.136C1415.74 662.136 1416.94 660.79 1416.94 658.761C1416.94 656.716 1415.74 655.369 1413.97 655.369C1412.2 655.369 1411 656.716 1411 658.761C1411 660.79 1412.2 662.136 1413.97 662.136ZM1413.97 661.233C1412.62 661.233 1412.01 660.074 1412.01 658.761C1412.01 657.449 1412.62 656.273 1413.97 656.273C1415.32 656.273 1415.93 657.449 1415.93 658.761C1415.93 660.074 1415.32 661.233 1413.97 661.233ZM1419.48 658.062C1419.48 656.92 1420.18 656.273 1421.15 656.273C1422.08 656.273 1422.65 656.882 1422.65 657.909V662H1423.65V657.841C1423.65 656.17 1422.76 655.369 1421.44 655.369C1420.45 655.369 1419.83 655.812 1419.53 656.477H1419.44V655.455H1418.47V662H1419.48V658.062ZM1430.13 656.92C1429.81 655.991 1429.1 655.369 1427.81 655.369C1426.43 655.369 1425.41 656.153 1425.41 657.261C1425.41 658.165 1425.94 658.77 1427.14 659.051L1428.24 659.307C1428.9 659.46 1429.21 659.776 1429.21 660.227C1429.21 660.79 1428.61 661.25 1427.67 661.25C1426.85 661.25 1426.33 660.896 1426.16 660.193L1425.2 660.432C1425.44 661.544 1426.35 662.136 1427.69 662.136C1429.21 662.136 1430.25 661.305 1430.25 660.176C1430.25 659.264 1429.68 658.689 1428.51 658.403L1427.54 658.165C1426.76 657.973 1426.41 657.713 1426.41 657.21C1426.41 656.648 1427.01 656.239 1427.81 656.239C1428.69 656.239 1429.05 656.724 1429.22 657.176L1430.13 656.92Z" fill="#9BA7B9"/>
<path d="M1223.28 710H1227.74C1230.44 710 1231.66 708.653 1231.66 706.869C1231.66 705.068 1230.4 704.051 1229.25 703.989V703.875C1230.32 703.602 1231.21 702.875 1231.21 701.42C1231.21 699.699 1230.02 698.364 1227.54 698.364H1223.28V710ZM1225.03 708.494V704.767H1227.63C1229.04 704.767 1229.92 705.676 1229.92 706.784C1229.92 707.761 1229.26 708.494 1227.57 708.494H1225.03ZM1225.03 703.398V699.858H1227.43C1228.82 699.858 1229.49 700.591 1229.49 701.557C1229.49 702.682 1228.57 703.398 1227.39 703.398H1225.03ZM1239.14 706.381C1239.14 707.864 1238.04 708.568 1237.09 708.568C1236.04 708.568 1235.31 707.807 1235.31 706.619V701.273H1233.61V706.824C1233.61 708.989 1234.8 710.114 1236.47 710.114C1237.79 710.114 1238.68 709.42 1239.08 708.489H1239.17V710H1240.84V701.273H1239.14V706.381ZM1247.2 701.273H1245.41V699.182H1243.71V701.273H1242.43V702.636H1243.71V707.79C1243.71 709.375 1244.92 710.142 1246.26 710.114C1246.8 710.108 1247.16 710.006 1247.36 709.932L1247.05 708.528C1246.94 708.551 1246.73 708.602 1246.46 708.602C1245.9 708.602 1245.41 708.42 1245.41 707.438V702.636H1247.2V701.273ZM1253.15 701.273H1251.36V699.182H1249.66V701.273H1248.39V702.636H1249.66V707.79C1249.66 709.375 1250.87 710.142 1252.21 710.114C1252.75 710.108 1253.11 710.006 1253.31 709.932L1253.01 708.528C1252.89 708.551 1252.68 708.602 1252.41 708.602C1251.86 708.602 1251.36 708.42 1251.36 707.438V702.636H1253.15V701.273ZM1258.62 710.176C1261.08 710.176 1262.68 708.375 1262.68 705.676C1262.68 702.96 1261.08 701.159 1258.62 701.159C1256.15 701.159 1254.55 702.96 1254.55 705.676C1254.55 708.375 1256.15 710.176 1258.62 710.176ZM1258.62 708.75C1257.01 708.75 1256.26 707.347 1256.26 705.67C1256.26 704 1257.01 702.58 1258.62 702.58C1260.22 702.58 1260.97 704 1260.97 705.67C1260.97 707.347 1260.22 708.75 1258.62 708.75ZM1266.28 704.818C1266.28 703.426 1267.13 702.631 1268.31 702.631C1269.47 702.631 1270.16 703.386 1270.16 704.653V710H1271.86V704.449C1271.86 702.29 1270.68 701.159 1268.89 701.159C1267.58 701.159 1266.72 701.767 1266.32 702.693H1266.21V701.273H1264.58V710H1266.28V704.818ZM1280.68 703.403C1280.33 702.045 1279.27 701.159 1277.38 701.159C1275.41 701.159 1274.01 702.199 1274.01 703.744C1274.01 704.983 1274.76 705.807 1276.4 706.17L1277.88 706.494C1278.72 706.682 1279.11 707.057 1279.11 707.602C1279.11 708.278 1278.39 708.807 1277.27 708.807C1276.26 708.807 1275.6 708.369 1275.4 707.511L1273.76 707.761C1274.04 709.307 1275.32 710.176 1277.28 710.176C1279.39 710.176 1280.85 709.057 1280.85 707.477C1280.85 706.244 1280.07 705.483 1278.47 705.114L1277.08 704.795C1276.12 704.568 1275.7 704.244 1275.71 703.653C1275.7 702.983 1276.43 702.506 1277.4 702.506C1278.45 702.506 1278.94 703.091 1279.14 703.676L1280.68 703.403Z" fill="black"/>
<path d="M1223.06 731H1228.39V730.062H1224.11V727.097H1228.05V726.159H1224.11V723.21H1228.32V722.273H1223.06V731ZM1230.84 724.455H1229.68L1231.76 727.727L1229.68 731H1230.84L1232.41 728.46L1233.98 731H1235.14L1233.02 727.727L1235.14 724.455H1233.98L1232.41 727.131L1230.84 724.455ZM1238.5 731.153C1239.64 731.153 1240.24 730.54 1240.44 730.114H1240.49V731H1241.5V726.688C1241.5 724.608 1239.91 724.369 1239.08 724.369C1238.09 724.369 1236.96 724.71 1236.45 725.903L1237.41 726.244C1237.63 725.767 1238.15 725.256 1239.11 725.256C1240.04 725.256 1240.49 725.746 1240.49 726.585V726.619C1240.49 727.105 1240 727.062 1238.81 727.216C1237.59 727.374 1236.27 727.642 1236.27 729.142C1236.27 730.42 1237.25 731.153 1238.5 731.153ZM1238.65 730.25C1237.85 730.25 1237.27 729.892 1237.27 729.193C1237.27 728.426 1237.97 728.188 1238.75 728.085C1239.18 728.034 1240.32 727.915 1240.49 727.71V728.631C1240.49 729.449 1239.85 730.25 1238.65 730.25ZM1243.33 731H1244.34V726.909C1244.34 725.95 1245.04 725.273 1245.82 725.273C1246.59 725.273 1247.12 725.771 1247.12 726.517V731H1248.14V726.739C1248.14 725.895 1248.67 725.273 1249.59 725.273C1250.31 725.273 1250.92 725.652 1250.92 726.619V731H1251.93V726.619C1251.93 725.081 1251.1 724.369 1249.93 724.369C1248.99 724.369 1248.31 724.8 1247.97 725.477H1247.9C1247.58 724.778 1247.01 724.369 1246.15 724.369C1245.29 724.369 1244.66 724.778 1244.39 725.477H1244.31V724.455H1243.33V731ZM1253.76 733.455H1254.77V729.994H1254.86C1255.08 730.352 1255.5 731.136 1256.76 731.136C1258.4 731.136 1259.54 729.824 1259.54 727.744C1259.54 725.682 1258.4 724.369 1256.75 724.369C1255.47 724.369 1255.08 725.153 1254.86 725.494H1254.74V724.455H1253.76V733.455ZM1254.75 727.727C1254.75 726.261 1255.4 725.273 1256.63 725.273C1257.91 725.273 1258.54 726.347 1258.54 727.727C1258.54 729.125 1257.89 730.233 1256.63 730.233C1255.42 730.233 1254.75 729.21 1254.75 727.727ZM1262.08 722.273H1261.08V731H1262.08V722.273ZM1266.67 731.136C1268 731.136 1268.97 730.472 1269.28 729.483L1268.31 729.21C1268.05 729.892 1267.46 730.233 1266.67 730.233C1265.49 730.233 1264.67 729.47 1264.63 728.068H1269.38V727.642C1269.38 725.205 1267.93 724.369 1266.57 724.369C1264.79 724.369 1263.62 725.767 1263.62 727.778C1263.62 729.79 1264.78 731.136 1266.67 731.136ZM1264.63 727.199C1264.7 726.18 1265.42 725.273 1266.57 725.273C1267.66 725.273 1268.36 726.091 1268.36 727.199H1264.63ZM1275.55 725.92C1275.23 724.991 1274.52 724.369 1273.23 724.369C1271.85 724.369 1270.82 725.153 1270.82 726.261C1270.82 727.165 1271.36 727.77 1272.56 728.051L1273.65 728.307C1274.31 728.46 1274.62 728.776 1274.62 729.227C1274.62 729.79 1274.03 730.25 1273.09 730.25C1272.27 730.25 1271.75 729.896 1271.57 729.193L1270.62 729.432C1270.85 730.544 1271.77 731.136 1273.11 731.136C1274.63 731.136 1275.66 730.305 1275.66 729.176C1275.66 728.264 1275.09 727.689 1273.93 727.403L1272.95 727.165C1272.18 726.973 1271.83 726.713 1271.83 726.21C1271.83 725.648 1272.43 725.239 1273.23 725.239C1274.1 725.239 1274.47 725.724 1274.64 726.176L1275.55 725.92ZM1283.47 724.455H1282V723.79C1282 723.142 1282.27 722.801 1282.94 722.801C1283.23 722.801 1283.4 722.869 1283.5 722.903L1283.79 722.034C1283.64 721.966 1283.33 721.864 1282.84 721.864C1281.9 721.864 1281 722.426 1281 723.551V724.455H1279.94V725.307H1281V731H1282V725.307H1283.47V724.455ZM1287.27 731.136C1289.04 731.136 1290.23 729.79 1290.23 727.761C1290.23 725.716 1289.04 724.369 1287.27 724.369C1285.49 724.369 1284.3 725.716 1284.3 727.761C1284.3 729.79 1285.49 731.136 1287.27 731.136ZM1287.27 730.233C1285.92 730.233 1285.31 729.074 1285.31 727.761C1285.31 726.449 1285.92 725.273 1287.27 725.273C1288.61 725.273 1289.23 726.449 1289.23 727.761C1289.23 729.074 1288.61 730.233 1287.27 730.233ZM1291.77 731H1292.77V726.858C1292.77 725.972 1293.47 725.324 1294.43 725.324C1294.7 725.324 1294.97 725.375 1295.04 725.392V724.369C1294.93 724.361 1294.66 724.352 1294.51 724.352C1293.73 724.352 1293.05 724.795 1292.81 725.443H1292.74V724.455H1291.77V731ZM1299.61 733.455H1300.61V729.994H1300.7C1300.92 730.352 1301.35 731.136 1302.61 731.136C1304.24 731.136 1305.39 729.824 1305.39 727.744C1305.39 725.682 1304.24 724.369 1302.59 724.369C1301.31 724.369 1300.92 725.153 1300.7 725.494H1300.58V724.455H1299.61V733.455ZM1300.6 727.727C1300.6 726.261 1301.24 725.273 1302.47 725.273C1303.75 725.273 1304.38 726.347 1304.38 727.727C1304.38 729.125 1303.73 730.233 1302.47 730.233C1301.26 730.233 1300.6 729.21 1300.6 727.727ZM1306.92 731H1307.93V726.858C1307.93 725.972 1308.62 725.324 1309.58 725.324C1309.85 725.324 1310.12 725.375 1310.19 725.392V724.369C1310.08 724.361 1309.81 724.352 1309.66 724.352C1308.88 724.352 1308.2 724.795 1307.96 725.443H1307.89V724.455H1306.92V731ZM1313.31 731.153C1314.45 731.153 1315.05 730.54 1315.25 730.114H1315.31V731H1316.31V726.688C1316.31 724.608 1314.73 724.369 1313.89 724.369C1312.9 724.369 1311.78 724.71 1311.27 725.903L1312.22 726.244C1312.44 725.767 1312.97 725.256 1313.93 725.256C1314.85 725.256 1315.31 725.746 1315.31 726.585V726.619C1315.31 727.105 1314.81 727.062 1313.62 727.216C1312.4 727.374 1311.08 727.642 1311.08 729.142C1311.08 730.42 1312.07 731.153 1313.31 731.153ZM1313.46 730.25C1312.66 730.25 1312.08 729.892 1312.08 729.193C1312.08 728.426 1312.78 728.188 1313.57 728.085C1313.99 728.034 1315.14 727.915 1315.31 727.71V728.631C1315.31 729.449 1314.66 730.25 1313.46 730.25ZM1320.81 731.136C1322.25 731.136 1323.21 730.25 1323.38 729.091H1322.37C1322.19 729.807 1321.59 730.233 1320.81 730.233C1319.61 730.233 1318.85 729.244 1318.85 727.727C1318.85 726.244 1319.63 725.273 1320.81 725.273C1321.69 725.273 1322.22 725.818 1322.37 726.415H1323.38C1323.21 725.188 1322.17 724.369 1320.79 724.369C1319.02 724.369 1317.84 725.767 1317.84 727.761C1317.84 729.722 1318.97 731.136 1320.81 731.136ZM1327.7 724.455H1326.3V722.886H1325.29V724.455H1324.3V725.307H1325.29V729.398C1325.29 730.54 1326.21 731.085 1327.07 731.085C1327.44 731.085 1327.68 731.017 1327.82 730.966L1327.61 730.062C1327.53 730.08 1327.39 730.114 1327.17 730.114C1326.73 730.114 1326.3 729.977 1326.3 729.125V725.307H1327.7V724.455ZM1329.21 731H1330.22V724.455H1329.21V731ZM1329.72 723.364C1330.11 723.364 1330.44 723.057 1330.44 722.682C1330.44 722.307 1330.11 722 1329.72 722C1329.33 722 1329 722.307 1329 722.682C1329 723.057 1329.33 723.364 1329.72 723.364ZM1334.72 731.136C1336.17 731.136 1337.12 730.25 1337.29 729.091H1336.28C1336.1 729.807 1335.5 730.233 1334.72 730.233C1333.52 730.233 1332.76 729.244 1332.76 727.727C1332.76 726.244 1333.54 725.273 1334.72 725.273C1335.6 725.273 1336.13 725.818 1336.28 726.415H1337.29C1337.12 725.188 1336.08 724.369 1334.7 724.369C1332.93 724.369 1331.75 725.767 1331.75 727.761C1331.75 729.722 1332.88 731.136 1334.72 731.136ZM1340.69 731.153C1341.83 731.153 1342.43 730.54 1342.63 730.114H1342.68V731H1343.69V726.688C1343.69 724.608 1342.1 724.369 1341.27 724.369C1340.28 724.369 1339.15 724.71 1338.64 725.903L1339.6 726.244C1339.82 725.767 1340.34 725.256 1341.3 725.256C1342.22 725.256 1342.68 725.746 1342.68 726.585V726.619C1342.68 727.105 1342.19 727.062 1340.99 727.216C1339.78 727.374 1338.45 727.642 1338.45 729.142C1338.45 730.42 1339.44 731.153 1340.69 731.153ZM1340.84 730.25C1340.04 730.25 1339.46 729.892 1339.46 729.193C1339.46 728.426 1340.16 728.188 1340.94 728.085C1341.37 728.034 1342.51 727.915 1342.68 727.71V728.631C1342.68 729.449 1342.03 730.25 1340.84 730.25ZM1346.53 722.273H1345.52V731H1346.53V722.273ZM1351.88 731H1352.85V729.994H1352.97C1353.19 730.352 1353.62 731.136 1354.88 731.136C1356.52 731.136 1357.66 729.824 1357.66 727.744C1357.66 725.682 1356.52 724.369 1354.86 724.369C1353.59 724.369 1353.19 725.153 1352.97 725.494H1352.89V722.273H1351.88V731ZM1352.87 727.727C1352.87 726.261 1353.52 725.273 1354.74 725.273C1356.02 725.273 1356.65 726.347 1356.65 727.727C1356.65 729.125 1356.01 730.233 1354.74 730.233C1353.53 730.233 1352.87 729.21 1352.87 727.727ZM1363.32 728.324C1363.32 729.551 1362.39 730.114 1361.64 730.114C1360.8 730.114 1360.2 729.5 1360.2 728.545V724.455H1359.2V728.614C1359.2 730.284 1360.08 731.085 1361.31 731.085C1362.3 731.085 1362.95 730.557 1363.25 729.892H1363.32V731H1364.33V724.455H1363.32V728.324ZM1369.02 724.455H1367.62V722.886H1366.61V724.455H1365.62V725.307H1366.61V729.398C1366.61 730.54 1367.53 731.085 1368.39 731.085C1368.76 731.085 1369 731.017 1369.14 730.966L1368.93 730.062C1368.85 730.08 1368.71 730.114 1368.49 730.114C1368.05 730.114 1367.62 729.977 1367.62 729.125V725.307H1369.02V724.455ZM1373.38 724.455H1371.98V722.886H1370.97V724.455H1369.98V725.307H1370.97V729.398C1370.97 730.54 1371.89 731.085 1372.75 731.085C1373.12 731.085 1373.36 731.017 1373.5 730.966L1373.29 730.062C1373.21 730.08 1373.07 730.114 1372.85 730.114C1372.4 730.114 1371.98 729.977 1371.98 729.125V725.307H1373.38V724.455ZM1377.48 731.136C1379.25 731.136 1380.44 729.79 1380.44 727.761C1380.44 725.716 1379.25 724.369 1377.48 724.369C1375.71 724.369 1374.51 725.716 1374.51 727.761C1374.51 729.79 1375.71 731.136 1377.48 731.136ZM1377.48 730.233C1376.13 730.233 1375.52 729.074 1375.52 727.761C1375.52 726.449 1376.13 725.273 1377.48 725.273C1378.82 725.273 1379.44 726.449 1379.44 727.761C1379.44 729.074 1378.82 730.233 1377.48 730.233ZM1382.98 727.062C1382.98 725.92 1383.69 725.273 1384.66 725.273C1385.59 725.273 1386.16 725.882 1386.16 726.909V731H1387.16V726.841C1387.16 725.17 1386.27 724.369 1384.94 724.369C1383.96 724.369 1383.34 724.812 1383.04 725.477H1382.95V724.455H1381.98V731H1382.98V727.062ZM1393.63 725.92C1393.32 724.991 1392.61 724.369 1391.32 724.369C1389.94 724.369 1388.91 725.153 1388.91 726.261C1388.91 727.165 1389.45 727.77 1390.65 728.051L1391.74 728.307C1392.4 728.46 1392.71 728.776 1392.71 729.227C1392.71 729.79 1392.12 730.25 1391.18 730.25C1390.36 730.25 1389.84 729.896 1389.66 729.193L1388.71 729.432C1388.94 730.544 1389.86 731.136 1391.2 731.136C1392.72 731.136 1393.75 730.305 1393.75 729.176C1393.75 728.264 1393.18 727.689 1392.02 727.403L1391.04 727.165C1390.27 726.973 1389.92 726.713 1389.92 726.21C1389.92 725.648 1390.52 725.239 1391.32 725.239C1392.19 725.239 1392.56 725.724 1392.73 726.176L1393.63 725.92Z" fill="#9BA7B9"/>
<line x1="1222" y1="610.5" x2="1448" y2="610.5" stroke="#EEF0FF"/>
<line x1="1222" y1="679.5" x2="1448" y2="679.5" stroke="#EEF0FF"/>
</g>
<path d="M150.291 478.909V492H152.567V482.987H152.688L156.306 491.962H158.006L161.624 483.006H161.746V492H164.021V478.909H161.119L157.233 488.395H157.08L153.193 478.909H150.291ZM170.848 492.192C173.136 492.192 174.709 491.073 175.118 489.366L172.957 489.124C172.644 489.955 171.877 490.389 170.88 490.389C169.384 490.389 168.393 489.405 168.374 487.724H175.214V487.014C175.214 483.569 173.143 482.054 170.727 482.054C167.914 482.054 166.08 484.119 166.08 487.148C166.08 490.229 167.888 492.192 170.848 492.192ZM168.381 486.164C168.451 484.911 169.378 483.857 170.759 483.857C172.088 483.857 172.983 484.828 172.996 486.164H168.381ZM179.485 486.247C179.485 484.828 180.342 484.01 181.563 484.01C182.758 484.01 183.474 484.796 183.474 486.107V492H185.788V485.749C185.794 483.396 184.452 482.054 182.426 482.054C180.955 482.054 179.945 482.757 179.498 483.85H179.383V482.182H177.171V492H179.485V486.247ZM194.398 487.871C194.398 489.366 193.33 490.108 192.308 490.108C191.195 490.108 190.454 489.322 190.454 488.075V482.182H188.14V488.433C188.14 490.792 189.482 492.128 191.413 492.128C192.883 492.128 193.919 491.354 194.366 490.255H194.468V492H196.712V482.182H194.398V487.871ZM203.658 492H206.03V488.101L207.481 486.388L211.386 492H214.237L209.13 484.783L214.192 478.909H211.297L206.19 484.924H206.03V478.909H203.658V492ZM216.353 492H218.667V482.182H216.353V492ZM217.516 480.788C218.251 480.788 218.852 480.226 218.852 479.536C218.852 478.839 218.251 478.276 217.516 478.276C216.775 478.276 216.174 478.839 216.174 479.536C216.174 480.226 216.775 480.788 217.516 480.788ZM225.949 482.182H224.012V479.83H221.698V482.182H220.305V483.972H221.698V489.43C221.686 491.278 223.028 492.185 224.767 492.134C225.425 492.115 225.879 491.987 226.128 491.904L225.738 490.095C225.61 490.127 225.348 490.185 225.061 490.185C224.479 490.185 224.012 489.98 224.012 489.047V483.972H225.949V482.182Z" fill="#474F5B"/>
<defs>
<filter id="filter0_d_278_6202" x="1188" y="530" width="294" height="245" filterUnits="userSpaceOnUse" color-interpolation-filters="sRGB">
<feFlood flood-opacity="0" result="BackgroundImageFix"/>
<feColorMatrix in="SourceAlpha" type="matrix" values="0 0 0 0 0 0 0 0 0 0 0 0 0 0 0 0 0 0 127 0" result="hardAlpha"/>
<feOffset dy="7"/>
<feGaussianBlur stdDeviation="7"/>
<feComposite in2="hardAlpha" operator="out"/>
<feColorMatrix type="matrix" values="0 0 0 0 0 0 0 0 0 0 0 0 0 0 0 0 0 0 0.02 0"/>
<feBlend mode="normal" in2="BackgroundImageFix" result="effect1_dropShadow_278_6202"/>
<feBlend mode="normal" in="SourceGraphic" in2="effect1_dropShadow_278_6202" result="shape"/>
</filter>
</defs>
</svg>
