<svg width="1578" height="969" viewBox="0 0 1578 969" fill="none" xmlns="http://www.w3.org/2000/svg">
<rect width="1578" height="969" fill="#D9E6FF"/>
<rect width="1440" height="84" transform="translate(69 443)" fill="white"/>
<path d="M1006.15 483.04H1007.95C1007.56 480.773 1005.62 479.205 1003.11 479.205C1000.1 479.205 997.903 481.472 997.903 485.188C997.903 488.869 1000.04 491.159 1003.19 491.159C1006.02 491.159 1008.03 489.307 1008.03 486.369V485.045H1003.46V486.494H1006.34C1006.3 488.369 1005.06 489.557 1003.19 489.557C1001.14 489.557 999.648 488.006 999.648 485.176C999.648 482.358 1001.15 480.807 1003.12 480.807C1004.67 480.807 1005.72 481.659 1006.15 483.04ZM1015.65 487.381C1015.66 488.864 1014.56 489.568 1013.6 489.568C1012.55 489.568 1011.83 488.807 1011.83 487.619V482.273H1010.13V487.824C1010.13 489.989 1011.31 491.114 1012.99 491.114C1014.3 491.114 1015.19 490.42 1015.6 489.489H1015.69V491H1017.36V482.273H1015.65V487.381ZM1019.64 491H1021.34V482.273H1019.64V491ZM1020.5 480.926C1021.09 480.926 1021.57 480.472 1021.57 479.915C1021.57 479.358 1021.09 478.898 1020.5 478.898C1019.91 478.898 1019.43 479.358 1019.43 479.915C1019.43 480.472 1019.91 480.926 1020.5 480.926ZM1026.89 491.17C1028.48 491.17 1029.11 490.199 1029.42 489.642H1029.56V491H1031.22V479.364H1029.52V483.688H1029.42C1029.11 483.148 1028.53 482.159 1026.9 482.159C1024.8 482.159 1023.25 483.824 1023.25 486.653C1023.25 489.477 1024.77 491.17 1026.89 491.17ZM1027.27 489.722C1025.75 489.722 1024.96 488.386 1024.96 486.636C1024.96 484.903 1025.73 483.602 1027.27 483.602C1028.75 483.602 1029.55 484.812 1029.55 486.636C1029.55 488.472 1028.73 489.722 1027.27 489.722ZM1037.4 491.176C1039.31 491.176 1040.65 490.239 1041.04 488.818L1039.43 488.528C1039.12 489.352 1038.39 489.773 1037.42 489.773C1035.97 489.773 1034.99 488.83 1034.94 487.148H1041.15V486.545C1041.15 483.392 1039.26 482.159 1037.28 482.159C1034.85 482.159 1033.25 484.011 1033.25 486.693C1033.25 489.403 1034.83 491.176 1037.4 491.176ZM1034.95 485.875C1035.02 484.636 1035.91 483.562 1037.3 483.562C1038.61 483.562 1039.48 484.54 1039.48 485.875H1034.95Z" fill="#242424"/>
<path d="M1092.94 483.148C1092.55 480.659 1090.6 479.205 1088.14 479.205C1085.12 479.205 1082.9 481.46 1082.9 485.182C1082.9 488.903 1085.11 491.159 1088.14 491.159C1090.69 491.159 1092.56 489.557 1092.94 487.256L1091.17 487.25C1090.87 488.739 1089.62 489.557 1088.15 489.557C1086.15 489.557 1084.65 488.028 1084.65 485.182C1084.65 482.358 1086.15 480.807 1088.15 480.807C1089.64 480.807 1090.88 481.642 1091.17 483.148H1092.94ZM1098.58 491.176C1101.04 491.176 1102.65 489.375 1102.65 486.676C1102.65 483.96 1101.04 482.159 1098.58 482.159C1096.12 482.159 1094.52 483.96 1094.52 486.676C1094.52 489.375 1096.12 491.176 1098.58 491.176ZM1098.59 489.75C1096.98 489.75 1096.23 488.347 1096.23 486.67C1096.23 485 1096.98 483.58 1098.59 483.58C1100.19 483.58 1100.94 485 1100.94 486.67C1100.94 488.347 1100.19 489.75 1098.59 489.75ZM1104.55 491H1106.25V485.619C1106.25 484.443 1107.07 483.625 1108.04 483.625C1108.98 483.625 1109.63 484.25 1109.63 485.199V491H1111.33V485.438C1111.33 484.386 1111.97 483.625 1113.08 483.625C1113.97 483.625 1114.71 484.125 1114.71 485.307V491H1116.41V485.148C1116.41 483.153 1115.3 482.159 1113.72 482.159C1112.46 482.159 1111.52 482.761 1111.1 483.693H1111.01C1110.63 482.739 1109.83 482.159 1108.66 482.159C1107.51 482.159 1106.65 482.733 1106.29 483.693H1106.18V482.273H1104.55V491ZM1118.69 494.273H1120.39V489.642H1120.49C1120.8 490.199 1121.42 491.17 1123.01 491.17C1125.13 491.17 1126.66 489.477 1126.66 486.653C1126.66 483.824 1125.1 482.159 1123 482.159C1121.38 482.159 1120.79 483.148 1120.49 483.688H1120.35V482.273H1118.69V494.273ZM1120.35 486.636C1120.35 484.812 1121.15 483.602 1122.63 483.602C1124.17 483.602 1124.94 484.903 1124.94 486.636C1124.94 488.386 1124.15 489.722 1122.63 489.722C1121.17 489.722 1120.35 488.472 1120.35 486.636ZM1132.24 491.176C1134.7 491.176 1136.31 489.375 1136.31 486.676C1136.31 483.96 1134.7 482.159 1132.24 482.159C1129.78 482.159 1128.17 483.96 1128.17 486.676C1128.17 489.375 1129.78 491.176 1132.24 491.176ZM1132.25 489.75C1130.64 489.75 1129.89 488.347 1129.89 486.67C1129.89 485 1130.64 483.58 1132.25 483.58C1133.84 483.58 1134.59 485 1134.59 486.67C1134.59 488.347 1133.84 489.75 1132.25 489.75ZM1139.9 485.818C1139.9 484.426 1140.76 483.631 1141.94 483.631C1143.09 483.631 1143.79 484.386 1143.79 485.653V491H1145.49V485.449C1145.49 483.29 1144.3 482.159 1142.52 482.159C1141.2 482.159 1140.35 482.767 1139.94 483.693H1139.84V482.273H1138.2V491H1139.9V485.818ZM1151.53 491.176C1153.43 491.176 1154.78 490.239 1155.16 488.818L1153.56 488.528C1153.25 489.352 1152.51 489.773 1151.55 489.773C1150.09 489.773 1149.11 488.83 1149.07 487.148H1155.27V486.545C1155.27 483.392 1153.39 482.159 1151.41 482.159C1148.98 482.159 1147.38 484.011 1147.38 486.693C1147.38 489.403 1148.95 491.176 1151.53 491.176ZM1149.07 485.875C1149.14 484.636 1150.04 483.562 1151.42 483.562C1152.74 483.562 1153.6 484.54 1153.61 485.875H1149.07ZM1158.86 485.818C1158.86 484.426 1159.71 483.631 1160.89 483.631C1162.04 483.631 1162.74 484.386 1162.74 485.653V491H1164.44V485.449C1164.44 483.29 1163.25 482.159 1161.47 482.159C1160.16 482.159 1159.3 482.767 1158.9 483.693H1158.79V482.273H1157.16V491H1158.86V485.818ZM1170.79 482.273H1169V480.182H1167.31V482.273H1166.03V483.636H1167.31V488.79C1167.3 490.375 1168.51 491.142 1169.85 491.114C1170.39 491.108 1170.75 491.006 1170.95 490.932L1170.65 489.528C1170.53 489.551 1170.32 489.602 1170.05 489.602C1169.5 489.602 1169 489.42 1169 488.438V483.636H1170.79V482.273ZM1179.07 484.403C1178.72 483.045 1177.66 482.159 1175.77 482.159C1173.8 482.159 1172.4 483.199 1172.4 484.744C1172.4 485.983 1173.15 486.807 1174.79 487.17L1176.27 487.494C1177.11 487.682 1177.5 488.057 1177.5 488.602C1177.5 489.278 1176.78 489.807 1175.66 489.807C1174.65 489.807 1173.99 489.369 1173.79 488.511L1172.15 488.761C1172.43 490.307 1173.71 491.176 1175.67 491.176C1177.78 491.176 1179.24 490.057 1179.24 488.477C1179.24 487.244 1178.46 486.483 1176.86 486.114L1175.47 485.795C1174.51 485.568 1174.1 485.244 1174.1 484.653C1174.1 483.983 1174.82 483.506 1175.79 483.506C1176.85 483.506 1177.33 484.091 1177.53 484.676L1179.07 484.403Z" fill="#242424"/>
<path d="M1197 488L1193 484L1189 488" stroke="#9C9C9C" stroke-linecap="round" stroke-linejoin="round"/>
<path d="M1246.05 491C1249.59 491 1251.64 488.801 1251.64 485.165C1251.64 481.545 1249.59 479.364 1246.16 479.364H1242.28V491H1246.05ZM1244.03 489.466V480.898H1246.06C1248.6 480.898 1249.91 482.42 1249.91 485.165C1249.91 487.92 1248.6 489.466 1245.95 489.466H1244.03ZM1257.37 491.176C1259.83 491.176 1261.43 489.375 1261.43 486.676C1261.43 483.96 1259.83 482.159 1257.37 482.159C1254.9 482.159 1253.3 483.96 1253.3 486.676C1253.3 489.375 1254.9 491.176 1257.37 491.176ZM1257.37 489.75C1255.76 489.75 1255.01 488.347 1255.01 486.67C1255.01 485 1255.76 483.58 1257.37 483.58C1258.97 483.58 1259.72 485 1259.72 486.67C1259.72 488.347 1258.97 489.75 1257.37 489.75ZM1267.01 491.176C1269.07 491.176 1270.4 489.938 1270.59 488.239H1268.94C1268.72 489.182 1267.99 489.739 1267.02 489.739C1265.58 489.739 1264.65 488.54 1264.65 486.636C1264.65 484.767 1265.6 483.591 1267.02 483.591C1268.1 483.591 1268.76 484.273 1268.94 485.091H1270.59C1270.41 483.33 1268.97 482.159 1266.99 482.159C1264.53 482.159 1262.94 484.011 1262.94 486.676C1262.94 489.307 1264.47 491.176 1267.01 491.176ZM1277.94 487.381C1277.94 488.864 1276.84 489.568 1275.88 489.568C1274.83 489.568 1274.11 488.807 1274.11 487.619V482.273H1272.41V487.824C1272.41 489.989 1273.6 491.114 1275.27 491.114C1276.58 491.114 1277.48 490.42 1277.88 489.489H1277.97V491H1279.64V482.273H1277.94V487.381ZM1281.92 491H1283.62V485.619C1283.62 484.443 1284.45 483.625 1285.41 483.625C1286.36 483.625 1287.01 484.25 1287.01 485.199V491H1288.7V485.438C1288.7 484.386 1289.34 483.625 1290.45 483.625C1291.35 483.625 1292.09 484.125 1292.09 485.307V491H1293.79V485.148C1293.79 483.153 1292.67 482.159 1291.09 482.159C1289.84 482.159 1288.89 482.761 1288.47 483.693H1288.38C1288 482.739 1287.2 482.159 1286.04 482.159C1284.88 482.159 1284.03 482.733 1283.66 483.693H1283.55V482.273H1281.92V491ZM1299.83 491.176C1301.73 491.176 1303.08 490.239 1303.46 488.818L1301.85 488.528C1301.55 489.352 1300.81 489.773 1299.84 489.773C1298.39 489.773 1297.41 488.83 1297.37 487.148H1303.57V486.545C1303.57 483.392 1301.68 482.159 1299.71 482.159C1297.27 482.159 1295.67 484.011 1295.67 486.693C1295.67 489.403 1297.25 491.176 1299.83 491.176ZM1297.37 485.875C1297.44 484.636 1298.34 483.562 1299.72 483.562C1301.04 483.562 1301.9 484.54 1301.9 485.875H1297.37ZM1307.15 485.818C1307.15 484.426 1308.01 483.631 1309.19 483.631C1310.34 483.631 1311.04 484.386 1311.04 485.653V491H1312.74V485.449C1312.74 483.29 1311.55 482.159 1309.77 482.159C1308.45 482.159 1307.6 482.767 1307.19 483.693H1307.09V482.273H1305.45V491H1307.15V485.818ZM1319.09 482.273H1317.3V480.182H1315.6V482.273H1314.32V483.636H1315.6V488.79C1315.6 490.375 1316.81 491.142 1318.15 491.114C1318.69 491.108 1319.05 491.006 1319.25 490.932L1318.94 489.528C1318.83 489.551 1318.62 489.602 1318.35 489.602C1317.8 489.602 1317.3 489.42 1317.3 488.438V483.636H1319.09V482.273ZM1327.37 484.403C1327.02 483.045 1325.95 482.159 1324.07 482.159C1322.1 482.159 1320.7 483.199 1320.7 484.744C1320.7 485.983 1321.45 486.807 1323.09 487.17L1324.56 487.494C1325.4 487.682 1325.8 488.057 1325.8 488.602C1325.8 489.278 1325.07 489.807 1323.96 489.807C1322.94 489.807 1322.29 489.369 1322.09 488.511L1320.44 488.761C1320.73 490.307 1322.01 491.176 1323.97 491.176C1326.08 491.176 1327.54 490.057 1327.54 488.477C1327.54 487.244 1326.76 486.483 1325.15 486.114L1323.77 485.795C1322.81 485.568 1322.39 485.244 1322.4 484.653C1322.39 483.983 1323.12 483.506 1324.09 483.506C1325.14 483.506 1325.63 484.091 1325.83 484.676L1327.37 484.403Z" fill="#242424"/>
<path d="M1370.28 491H1377.31V489.489H1372.03V479.364H1370.28V491ZM1379.17 491H1380.87V482.273H1379.17V491ZM1380.03 480.926C1380.62 480.926 1381.11 480.472 1381.11 479.915C1381.11 479.358 1380.62 478.898 1380.03 478.898C1379.44 478.898 1378.96 479.358 1378.96 479.915C1378.96 480.472 1379.44 480.926 1380.03 480.926ZM1386.83 491.176C1388.9 491.176 1390.23 489.938 1390.42 488.239H1388.77C1388.55 489.182 1387.82 489.739 1386.85 489.739C1385.41 489.739 1384.48 488.54 1384.48 486.636C1384.48 484.767 1385.42 483.591 1386.85 483.591C1387.92 483.591 1388.58 484.273 1388.77 485.091H1390.42C1390.24 483.33 1388.8 482.159 1386.82 482.159C1384.36 482.159 1382.77 484.011 1382.77 486.676C1382.77 489.307 1384.3 491.176 1386.83 491.176ZM1396 491.176C1397.9 491.176 1399.25 490.239 1399.63 488.818L1398.03 488.528C1397.72 489.352 1396.98 489.773 1396.01 489.773C1394.56 489.773 1393.58 488.83 1393.54 487.148H1399.74V486.545C1399.74 483.392 1397.86 482.159 1395.88 482.159C1393.45 482.159 1391.84 484.011 1391.84 486.693C1391.84 489.403 1393.42 491.176 1396 491.176ZM1393.54 485.875C1393.61 484.636 1394.51 483.562 1395.89 483.562C1397.21 483.562 1398.07 484.54 1398.08 485.875H1393.54ZM1403.33 485.818C1403.33 484.426 1404.18 483.631 1405.36 483.631C1406.51 483.631 1407.21 484.386 1407.21 485.653V491H1408.91V485.449C1408.91 483.29 1407.72 482.159 1405.94 482.159C1404.63 482.159 1403.77 482.767 1403.37 483.693H1403.26V482.273H1401.63V491H1403.33V485.818ZM1417.73 484.403C1417.38 483.045 1416.31 482.159 1414.43 482.159C1412.46 482.159 1411.06 483.199 1411.06 484.744C1411.06 485.983 1411.81 486.807 1413.44 487.17L1414.92 487.494C1415.76 487.682 1416.15 488.057 1416.15 488.602C1416.15 489.278 1415.43 489.807 1414.32 489.807C1413.3 489.807 1412.65 489.369 1412.44 488.511L1410.8 488.761C1411.09 490.307 1412.37 491.176 1414.33 491.176C1416.44 491.176 1417.9 490.057 1417.9 488.477C1417.9 487.244 1417.12 486.483 1415.51 486.114L1414.13 485.795C1413.17 485.568 1412.75 485.244 1412.76 484.653C1412.75 483.983 1413.48 483.506 1414.44 483.506C1415.5 483.506 1415.99 484.091 1416.19 484.676L1417.73 484.403ZM1423.53 491.176C1425.43 491.176 1426.78 490.239 1427.16 488.818L1425.56 488.528C1425.25 489.352 1424.51 489.773 1423.55 489.773C1422.09 489.773 1421.11 488.83 1421.07 487.148H1427.27V486.545C1427.27 483.392 1425.39 482.159 1423.41 482.159C1420.98 482.159 1419.38 484.011 1419.38 486.693C1419.38 489.403 1420.95 491.176 1423.53 491.176ZM1421.07 485.875C1421.14 484.636 1422.04 483.562 1423.42 483.562C1424.74 483.562 1425.6 484.54 1425.61 485.875H1421.07Z" fill="#242424"/>
<g filter="url(#filter0_d_278_6360)">
<rect x="1082" y="537" width="329" height="227" rx="6" fill="white"/>
<line x1="1102" y1="615.5" x2="1391" y2="615.5" stroke="#EEF0FF"/>
<line x1="1102" y1="684.5" x2="1391" y2="684.5" stroke="#EEF0FF"/>
<path d="M1163.26 577L1164.33 573.92H1168.88L1169.94 577H1171.8L1167.61 565.364H1165.59L1161.4 577H1163.26ZM1164.84 572.443L1166.56 567.477H1166.65L1168.36 572.443H1164.84ZM1175.04 565.364H1173.35V577H1175.04V565.364ZM1181.09 577.176C1182.99 577.176 1184.34 576.239 1184.73 574.818L1183.12 574.528C1182.81 575.352 1182.07 575.773 1181.11 575.773C1179.65 575.773 1178.68 574.83 1178.63 573.148H1184.84V572.545C1184.84 569.392 1182.95 568.159 1180.97 568.159C1178.54 568.159 1176.94 570.011 1176.94 572.693C1176.94 575.403 1178.52 577.176 1181.09 577.176ZM1178.64 571.875C1178.7 570.636 1179.6 569.562 1180.98 569.562C1182.3 569.562 1183.16 570.54 1183.17 571.875H1178.64ZM1186.72 577H1188.42V571.67C1188.42 570.528 1189.3 569.705 1190.5 569.705C1190.86 569.705 1191.25 569.767 1191.39 569.807V568.182C1191.22 568.159 1190.88 568.142 1190.67 568.142C1189.65 568.142 1188.77 568.722 1188.45 569.659H1188.36V568.273H1186.72V577ZM1197.45 568.273H1195.66V566.182H1193.96V568.273H1192.68V569.636H1193.96V574.79C1193.96 576.375 1195.17 577.142 1196.51 577.114C1197.05 577.108 1197.41 577.006 1197.61 576.932L1197.3 575.528C1197.19 575.551 1196.98 575.602 1196.71 575.602C1196.15 575.602 1195.66 575.42 1195.66 574.438V569.636H1197.45V568.273ZM1205.73 570.403C1205.38 569.045 1204.31 568.159 1202.43 568.159C1200.46 568.159 1199.06 569.199 1199.06 570.744C1199.06 571.983 1199.81 572.807 1201.44 573.17L1202.92 573.494C1203.76 573.682 1204.15 574.057 1204.15 574.602C1204.15 575.278 1203.43 575.807 1202.32 575.807C1201.3 575.807 1200.65 575.369 1200.44 574.511L1198.8 574.761C1199.09 576.307 1200.37 577.176 1202.33 577.176C1204.44 577.176 1205.9 576.057 1205.9 574.477C1205.9 573.244 1205.12 572.483 1203.51 572.114L1202.13 571.795C1201.17 571.568 1200.75 571.244 1200.76 570.653C1200.75 569.983 1201.48 569.506 1202.44 569.506C1203.5 569.506 1203.99 570.091 1204.19 570.676L1205.73 570.403Z" fill="black"/>
<path d="M1162.06 598H1163.11V594.812H1165.02C1167.06 594.812 1167.97 593.577 1167.97 592.034C1167.97 590.491 1167.06 589.273 1165.01 589.273H1162.06V598ZM1163.11 593.875V590.21H1164.97C1166.39 590.21 1166.93 590.986 1166.93 592.034C1166.93 593.082 1166.39 593.875 1164.99 593.875H1163.11ZM1169.54 598H1170.54V593.858C1170.54 592.972 1171.24 592.324 1172.2 592.324C1172.47 592.324 1172.74 592.375 1172.81 592.392V591.369C1172.7 591.361 1172.43 591.352 1172.28 591.352C1171.5 591.352 1170.82 591.795 1170.58 592.443H1170.51V591.455H1169.54V598ZM1176.46 598.136C1178.24 598.136 1179.43 596.79 1179.43 594.761C1179.43 592.716 1178.24 591.369 1176.46 591.369C1174.69 591.369 1173.5 592.716 1173.5 594.761C1173.5 596.79 1174.69 598.136 1176.46 598.136ZM1176.46 597.233C1175.12 597.233 1174.5 596.074 1174.5 594.761C1174.5 593.449 1175.12 592.273 1176.46 592.273C1177.81 592.273 1178.42 593.449 1178.42 594.761C1178.42 596.074 1177.81 597.233 1176.46 597.233ZM1186.08 591.455H1184.99L1183.18 596.67H1183.12L1181.31 591.455H1180.22L1182.64 598H1183.66L1186.08 591.455ZM1187.41 598H1188.41V591.455H1187.41V598ZM1187.92 590.364C1188.31 590.364 1188.64 590.057 1188.64 589.682C1188.64 589.307 1188.31 589 1187.92 589C1187.53 589 1187.2 589.307 1187.2 589.682C1187.2 590.057 1187.53 590.364 1187.92 590.364ZM1192.73 598.136C1193.99 598.136 1194.42 597.352 1194.64 596.994H1194.76V598H1195.73V589.273H1194.72V592.494H1194.64C1194.42 592.153 1194.02 591.369 1192.75 591.369C1191.09 591.369 1189.95 592.682 1189.95 594.744C1189.95 596.824 1191.09 598.136 1192.73 598.136ZM1192.86 597.233C1191.6 597.233 1190.96 596.125 1190.96 594.727C1190.96 593.347 1191.59 592.273 1192.86 592.273C1194.09 592.273 1194.74 593.261 1194.74 594.727C1194.74 596.21 1194.07 597.233 1192.86 597.233ZM1200.45 598.136C1201.78 598.136 1202.75 597.472 1203.06 596.483L1202.09 596.21C1201.83 596.892 1201.24 597.233 1200.45 597.233C1199.27 597.233 1198.46 596.47 1198.41 595.068H1203.16V594.642C1203.16 592.205 1201.72 591.369 1200.35 591.369C1198.58 591.369 1197.4 592.767 1197.4 594.778C1197.4 596.79 1198.56 598.136 1200.45 598.136ZM1198.41 594.199C1198.48 593.18 1199.2 592.273 1200.35 592.273C1201.44 592.273 1202.14 593.091 1202.14 594.199H1198.41ZM1210.73 598.136C1212.18 598.136 1213.13 597.25 1213.3 596.091H1212.3C1212.11 596.807 1211.51 597.233 1210.73 597.233C1209.53 597.233 1208.77 596.244 1208.77 594.727C1208.77 593.244 1209.55 592.273 1210.73 592.273C1211.61 592.273 1212.14 592.818 1212.3 593.415H1213.3C1213.13 592.188 1212.09 591.369 1210.71 591.369C1208.94 591.369 1207.76 592.767 1207.76 594.761C1207.76 596.722 1208.89 598.136 1210.73 598.136ZM1217.43 598.136C1219.2 598.136 1220.4 596.79 1220.4 594.761C1220.4 592.716 1219.2 591.369 1217.43 591.369C1215.66 591.369 1214.47 592.716 1214.47 594.761C1214.47 596.79 1215.66 598.136 1217.43 598.136ZM1217.43 597.233C1216.08 597.233 1215.47 596.074 1215.47 594.761C1215.47 593.449 1216.08 592.273 1217.43 592.273C1218.78 592.273 1219.39 593.449 1219.39 594.761C1219.39 596.074 1218.78 597.233 1217.43 597.233ZM1222.94 594.062C1222.94 592.92 1223.65 592.273 1224.61 592.273C1225.54 592.273 1226.11 592.882 1226.11 593.909V598H1227.11V593.841C1227.11 592.17 1226.22 591.369 1224.9 591.369C1223.91 591.369 1223.3 591.812 1222.99 592.477H1222.9V591.455H1221.93V598H1222.94V594.062ZM1231.8 591.455H1230.4V589.886H1229.39V591.455H1228.41V592.307H1229.39V596.398C1229.39 597.54 1230.32 598.085 1231.17 598.085C1231.54 598.085 1231.78 598.017 1231.92 597.966L1231.71 597.062C1231.63 597.08 1231.49 597.114 1231.27 597.114C1230.83 597.114 1230.4 596.977 1230.4 596.125V592.307H1231.8V591.455ZM1235.99 598.136C1237.31 598.136 1238.29 597.472 1238.59 596.483L1237.62 596.21C1237.37 596.892 1236.77 597.233 1235.99 597.233C1234.8 597.233 1233.99 596.47 1233.94 595.068H1238.7V594.642C1238.7 592.205 1237.25 591.369 1235.88 591.369C1234.11 591.369 1232.93 592.767 1232.93 594.778C1232.93 596.79 1234.09 598.136 1235.99 598.136ZM1233.94 594.199C1234.01 593.18 1234.73 592.273 1235.88 592.273C1236.97 592.273 1237.67 593.091 1237.67 594.199H1233.94ZM1240.8 591.455H1239.64L1241.72 594.727L1239.64 598H1240.8L1242.37 595.46L1243.94 598H1245.09L1242.98 594.727L1245.09 591.455H1243.94L1242.37 594.131L1240.8 591.455ZM1249.38 591.455H1247.98V589.886H1246.97V591.455H1245.98V592.307H1246.97V596.398C1246.97 597.54 1247.89 598.085 1248.75 598.085C1249.12 598.085 1249.36 598.017 1249.5 597.966L1249.29 597.062C1249.21 597.08 1249.07 597.114 1248.85 597.114C1248.4 597.114 1247.98 596.977 1247.98 596.125V592.307H1249.38V591.455ZM1255.01 595.324C1255.01 596.551 1254.08 597.114 1253.33 597.114C1252.49 597.114 1251.89 596.5 1251.89 595.545V591.455H1250.89V595.614C1250.89 597.284 1251.78 598.085 1253 598.085C1253.99 598.085 1254.64 597.557 1254.95 596.892H1255.01V598H1256.02V591.455H1255.01V595.324ZM1259.79 598.153C1260.93 598.153 1261.53 597.54 1261.73 597.114H1261.78V598H1262.79V593.688C1262.79 591.608 1261.2 591.369 1260.37 591.369C1259.38 591.369 1258.25 591.71 1257.74 592.903L1258.7 593.244C1258.92 592.767 1259.44 592.256 1260.4 592.256C1261.33 592.256 1261.78 592.746 1261.78 593.585V593.619C1261.78 594.105 1261.29 594.062 1260.09 594.216C1258.88 594.374 1257.56 594.642 1257.56 596.142C1257.56 597.42 1258.54 598.153 1259.79 598.153ZM1259.94 597.25C1259.14 597.25 1258.56 596.892 1258.56 596.193C1258.56 595.426 1259.26 595.188 1260.04 595.085C1260.47 595.034 1261.61 594.915 1261.78 594.71V595.631C1261.78 596.449 1261.13 597.25 1259.94 597.25ZM1265.63 589.273H1264.62V598H1265.63V589.273ZM1273.76 591.455H1272.3V590.79C1272.3 590.142 1272.57 589.801 1273.23 589.801C1273.52 589.801 1273.69 589.869 1273.8 589.903L1274.08 589.034C1273.93 588.966 1273.62 588.864 1273.13 588.864C1272.19 588.864 1271.29 589.426 1271.29 590.551V591.455H1270.23V592.307H1271.29V598H1272.3V592.307H1273.76V591.455ZM1277.65 598.136C1278.97 598.136 1279.95 597.472 1280.25 596.483L1279.28 596.21C1279.03 596.892 1278.43 597.233 1277.65 597.233C1276.46 597.233 1275.65 596.47 1275.6 595.068H1280.36V594.642C1280.36 592.205 1278.91 591.369 1277.54 591.369C1275.77 591.369 1274.59 592.767 1274.59 594.778C1274.59 596.79 1275.75 598.136 1277.65 598.136ZM1275.6 594.199C1275.67 593.18 1276.39 592.273 1277.54 592.273C1278.63 592.273 1279.33 593.091 1279.33 594.199H1275.6ZM1284.63 598.136C1285.96 598.136 1286.93 597.472 1287.24 596.483L1286.27 596.21C1286.01 596.892 1285.42 597.233 1284.63 597.233C1283.45 597.233 1282.64 596.47 1282.59 595.068H1287.34V594.642C1287.34 592.205 1285.89 591.369 1284.53 591.369C1282.75 591.369 1281.58 592.767 1281.58 594.778C1281.58 596.79 1282.74 598.136 1284.63 598.136ZM1282.59 594.199C1282.66 593.18 1283.38 592.273 1284.53 592.273C1285.62 592.273 1286.32 593.091 1286.32 594.199H1282.59ZM1291.34 598.136C1292.6 598.136 1293.03 597.352 1293.25 596.994H1293.37V598H1294.34V589.273H1293.34V592.494H1293.25C1293.03 592.153 1292.64 591.369 1291.36 591.369C1289.7 591.369 1288.56 592.682 1288.56 594.744C1288.56 596.824 1289.7 598.136 1291.34 598.136ZM1291.48 597.233C1290.22 597.233 1289.57 596.125 1289.57 594.727C1289.57 593.347 1290.2 592.273 1291.48 592.273C1292.7 592.273 1293.35 593.261 1293.35 594.727C1293.35 596.21 1292.69 597.233 1291.48 597.233ZM1296.46 598H1297.43V596.994H1297.55C1297.77 597.352 1298.2 598.136 1299.46 598.136C1301.1 598.136 1302.24 596.824 1302.24 594.744C1302.24 592.682 1301.1 591.369 1299.44 591.369C1298.16 591.369 1297.77 592.153 1297.55 592.494H1297.46V589.273H1296.46V598ZM1297.45 594.727C1297.45 593.261 1298.1 592.273 1299.32 592.273C1300.6 592.273 1301.23 593.347 1301.23 594.727C1301.23 596.125 1300.58 597.233 1299.32 597.233C1298.11 597.233 1297.45 596.21 1297.45 594.727ZM1305.7 598.153C1306.84 598.153 1307.44 597.54 1307.65 597.114H1307.7V598H1308.7V593.688C1308.7 591.608 1307.12 591.369 1306.28 591.369C1305.29 591.369 1304.17 591.71 1303.66 592.903L1304.61 593.244C1304.83 592.767 1305.36 592.256 1306.32 592.256C1307.24 592.256 1307.7 592.746 1307.7 593.585V593.619C1307.7 594.105 1307.2 594.062 1306.01 594.216C1304.79 594.374 1303.47 594.642 1303.47 596.142C1303.47 597.42 1304.46 598.153 1305.7 598.153ZM1305.86 597.25C1305.05 597.25 1304.47 596.892 1304.47 596.193C1304.47 595.426 1305.17 595.188 1305.96 595.085C1306.38 595.034 1307.53 594.915 1307.7 594.71V595.631C1307.7 596.449 1307.05 597.25 1305.86 597.25ZM1313.2 598.136C1314.65 598.136 1315.6 597.25 1315.77 596.091H1314.76C1314.58 596.807 1313.98 597.233 1313.2 597.233C1312 597.233 1311.24 596.244 1311.24 594.727C1311.24 593.244 1312.02 592.273 1313.2 592.273C1314.08 592.273 1314.61 592.818 1314.76 593.415H1315.77C1315.6 592.188 1314.56 591.369 1313.18 591.369C1311.41 591.369 1310.23 592.767 1310.23 594.761C1310.23 596.722 1311.36 598.136 1313.2 598.136ZM1317.24 598H1318.25V595.55L1318.95 594.898L1321.4 598H1322.68L1319.71 594.25L1322.47 591.455H1321.23L1318.37 594.369H1318.25V589.273H1317.24V598ZM1327.14 598H1328.15V593.909C1328.15 592.95 1328.85 592.273 1329.63 592.273C1330.39 592.273 1330.93 592.771 1330.93 593.517V598H1331.95V593.739C1331.95 592.895 1332.48 592.273 1333.4 592.273C1334.11 592.273 1334.73 592.652 1334.73 593.619V598H1335.73V593.619C1335.73 592.081 1334.91 591.369 1333.74 591.369C1332.8 591.369 1332.12 591.8 1331.78 592.477H1331.71C1331.39 591.778 1330.82 591.369 1329.96 591.369C1329.1 591.369 1328.47 591.778 1328.2 592.477H1328.11V591.455H1327.14V598ZM1340.32 598.136C1341.65 598.136 1342.62 597.472 1342.93 596.483L1341.95 596.21C1341.7 596.892 1341.11 597.233 1340.32 597.233C1339.14 597.233 1338.32 596.47 1338.28 595.068H1343.03V594.642C1343.03 592.205 1341.58 591.369 1340.21 591.369C1338.44 591.369 1337.27 592.767 1337.27 594.778C1337.27 596.79 1338.43 598.136 1340.32 598.136ZM1338.28 594.199C1338.34 593.18 1339.06 592.273 1340.21 592.273C1341.31 592.273 1342 593.091 1342 594.199H1338.28ZM1349.19 592.92C1348.88 591.991 1348.17 591.369 1346.88 591.369C1345.49 591.369 1344.47 592.153 1344.47 593.261C1344.47 594.165 1345.01 594.77 1346.21 595.051L1347.3 595.307C1347.96 595.46 1348.27 595.776 1348.27 596.227C1348.27 596.79 1347.68 597.25 1346.74 597.25C1345.92 597.25 1345.4 596.896 1345.22 596.193L1344.27 596.432C1344.5 597.544 1345.42 598.136 1346.76 598.136C1348.28 598.136 1349.31 597.305 1349.31 596.176C1349.31 595.264 1348.74 594.689 1347.57 594.403L1346.6 594.165C1345.83 593.973 1345.48 593.713 1345.48 593.21C1345.48 592.648 1346.07 592.239 1346.88 592.239C1347.75 592.239 1348.12 592.724 1348.29 593.176L1349.19 592.92ZM1355.46 592.92C1355.15 591.991 1354.44 591.369 1353.14 591.369C1351.76 591.369 1350.74 592.153 1350.74 593.261C1350.74 594.165 1351.28 594.77 1352.48 595.051L1353.57 595.307C1354.23 595.46 1354.54 595.776 1354.54 596.227C1354.54 596.79 1353.95 597.25 1353.01 597.25C1352.19 597.25 1351.67 596.896 1351.49 596.193L1350.54 596.432C1350.77 597.544 1351.69 598.136 1353.03 598.136C1354.55 598.136 1355.58 597.305 1355.58 596.176C1355.58 595.264 1355.01 594.689 1353.84 594.403L1352.87 594.165C1352.1 593.973 1351.75 593.713 1351.75 593.21C1351.75 592.648 1352.34 592.239 1353.14 592.239C1354.02 592.239 1354.38 592.724 1354.56 593.176L1355.46 592.92ZM1359.02 598.153C1360.16 598.153 1360.76 597.54 1360.97 597.114H1361.02V598H1362.02V593.688C1362.02 591.608 1360.44 591.369 1359.6 591.369C1358.61 591.369 1357.49 591.71 1356.98 592.903L1357.93 593.244C1358.15 592.767 1358.68 592.256 1359.64 592.256C1360.56 592.256 1361.02 592.746 1361.02 593.585V593.619C1361.02 594.105 1360.52 594.062 1359.33 594.216C1358.11 594.374 1356.79 594.642 1356.79 596.142C1356.79 597.42 1357.78 598.153 1359.02 598.153ZM1359.18 597.25C1358.37 597.25 1357.8 596.892 1357.8 596.193C1357.8 595.426 1358.49 595.188 1359.28 595.085C1359.7 595.034 1360.85 594.915 1361.02 594.71V595.631C1361.02 596.449 1360.37 597.25 1359.18 597.25ZM1366.5 600.591C1368.07 600.591 1369.33 599.875 1369.33 598.188V591.455H1368.36V592.494H1368.26C1368.03 592.153 1367.62 591.369 1366.35 591.369C1364.69 591.369 1363.55 592.682 1363.55 594.693C1363.55 596.739 1364.74 597.898 1366.33 597.898C1367.61 597.898 1368.02 597.148 1368.24 596.79H1368.32V598.119C1368.32 599.21 1367.56 599.705 1366.5 599.705C1365.31 599.705 1364.89 599.078 1364.62 598.716L1363.82 599.278C1364.23 599.964 1365.04 600.591 1366.5 600.591ZM1366.47 596.994C1365.2 596.994 1364.56 596.04 1364.56 594.676C1364.56 593.347 1365.19 592.273 1366.47 592.273C1367.69 592.273 1368.34 593.261 1368.34 594.676C1368.34 596.125 1367.68 596.994 1366.47 596.994ZM1373.91 598.136C1375.24 598.136 1376.22 597.472 1376.52 596.483L1375.55 596.21C1375.3 596.892 1374.7 597.233 1373.91 597.233C1372.73 597.233 1371.92 596.47 1371.87 595.068H1376.62V594.642C1376.62 592.205 1375.18 591.369 1373.81 591.369C1372.04 591.369 1370.86 592.767 1370.86 594.778C1370.86 596.79 1372.02 598.136 1373.91 598.136ZM1371.87 594.199C1371.94 593.18 1372.66 592.273 1373.81 592.273C1374.9 592.273 1375.6 593.091 1375.6 594.199H1371.87ZM1382.79 592.92C1382.48 591.991 1381.77 591.369 1380.47 591.369C1379.09 591.369 1378.07 592.153 1378.07 593.261C1378.07 594.165 1378.61 594.77 1379.81 595.051L1380.9 595.307C1381.56 595.46 1381.87 595.776 1381.87 596.227C1381.87 596.79 1381.27 597.25 1380.34 597.25C1379.51 597.25 1379 596.896 1378.82 596.193L1377.87 596.432C1378.1 597.544 1379.02 598.136 1380.35 598.136C1381.88 598.136 1382.91 597.305 1382.91 596.176C1382.91 595.264 1382.34 594.689 1381.17 594.403L1380.2 594.165C1379.42 593.973 1379.08 593.713 1379.08 593.21C1379.08 592.648 1379.67 592.239 1380.47 592.239C1381.35 592.239 1381.71 592.724 1381.89 593.176L1382.79 592.92Z" fill="#9BA7B9"/>
<rect x="1102" y="557" width="49" height="49" rx="3" fill="#FFE8E8"/>
<path d="M1127 591C1132.52 591 1137 586.523 1137 581C1137 575.477 1132.52 571 1127 571C1121.48 571 1117 575.477 1117 581C1117 586.523 1121.48 591 1127 591Z" stroke="#FF5C5C" stroke-width="2" stroke-linecap="round" stroke-linejoin="round"/>
<path d="M1127 577V581" stroke="#FF5C5C" stroke-width="2" stroke-linecap="round" stroke-linejoin="round"/>
<path d="M1127 585H1127.01" stroke="#FF5C5C" stroke-width="2" stroke-linecap="round" stroke-linejoin="round"/>
<path d="M1163.26 646L1164.33 642.92H1168.88L1169.94 646H1171.8L1167.61 634.364H1165.59L1161.4 646H1163.26ZM1164.84 641.443L1166.56 636.477H1166.65L1168.36 641.443H1164.84ZM1176.88 646.176C1178.94 646.176 1180.28 644.938 1180.47 643.239H1178.81C1178.6 644.182 1177.86 644.739 1176.89 644.739C1175.45 644.739 1174.53 643.54 1174.53 641.636C1174.53 639.767 1175.47 638.591 1176.89 638.591C1177.97 638.591 1178.63 639.273 1178.81 640.091H1180.47C1180.28 638.33 1178.85 637.159 1176.86 637.159C1174.4 637.159 1172.81 639.011 1172.81 641.676C1172.81 644.307 1174.35 646.176 1176.88 646.176ZM1185.96 646.176C1188.02 646.176 1189.36 644.938 1189.54 643.239H1187.89C1187.67 644.182 1186.94 644.739 1185.97 644.739C1184.53 644.739 1183.61 643.54 1183.61 641.636C1183.61 639.767 1184.55 638.591 1185.97 638.591C1187.05 638.591 1187.71 639.273 1187.89 640.091H1189.54C1189.36 638.33 1187.92 637.159 1185.94 637.159C1183.48 637.159 1181.89 639.011 1181.89 641.676C1181.89 644.307 1183.42 646.176 1185.96 646.176ZM1195.04 646.176C1197.5 646.176 1199.11 644.375 1199.11 641.676C1199.11 638.96 1197.5 637.159 1195.04 637.159C1192.58 637.159 1190.97 638.96 1190.97 641.676C1190.97 644.375 1192.58 646.176 1195.04 646.176ZM1195.04 644.75C1193.43 644.75 1192.68 643.347 1192.68 641.67C1192.68 640 1193.43 638.58 1195.04 638.58C1196.64 638.58 1197.39 640 1197.39 641.67C1197.39 643.347 1196.64 644.75 1195.04 644.75ZM1201 646H1202.7V640.67C1202.7 639.528 1203.58 638.705 1204.79 638.705C1205.14 638.705 1205.54 638.767 1205.67 638.807V637.182C1205.5 637.159 1205.17 637.142 1204.95 637.142C1203.93 637.142 1203.05 637.722 1202.73 638.659H1202.64V637.273H1201V646ZM1210.1 646.17C1211.69 646.17 1212.31 645.199 1212.62 644.642H1212.76V646H1214.42V634.364H1212.72V638.688H1212.62C1212.31 638.148 1211.73 637.159 1210.11 637.159C1208 637.159 1206.45 638.824 1206.45 641.653C1206.45 644.477 1207.98 646.17 1210.1 646.17ZM1210.47 644.722C1208.95 644.722 1208.16 643.386 1208.16 641.636C1208.16 639.903 1208.94 638.602 1210.47 638.602C1211.95 638.602 1212.75 639.812 1212.75 641.636C1212.75 643.472 1211.94 644.722 1210.47 644.722ZM1216.85 646H1218.54V637.273H1216.85V646ZM1217.7 635.926C1218.29 635.926 1218.78 635.472 1218.78 634.915C1218.78 634.358 1218.29 633.898 1217.7 633.898C1217.11 633.898 1216.63 634.358 1216.63 634.915C1216.63 635.472 1217.11 635.926 1217.7 635.926ZM1222.53 640.818C1222.53 639.426 1223.38 638.631 1224.56 638.631C1225.72 638.631 1226.41 639.386 1226.41 640.653V646H1228.11V640.449C1228.11 638.29 1226.93 637.159 1225.14 637.159C1223.83 637.159 1222.97 637.767 1222.57 638.693H1222.46V637.273H1220.83V646H1222.53V640.818ZM1234.05 649.455C1236.27 649.455 1237.99 648.438 1237.99 646.193V637.273H1236.32V638.688H1236.2C1235.9 638.148 1235.3 637.159 1233.67 637.159C1231.56 637.159 1230.01 638.824 1230.01 641.602C1230.01 644.386 1231.6 645.869 1233.66 645.869C1235.26 645.869 1235.88 644.966 1236.19 644.409H1236.3V646.125C1236.3 647.494 1235.36 648.085 1234.07 648.085C1232.65 648.085 1232.1 647.375 1231.8 646.875L1230.34 647.477C1230.8 648.545 1231.97 649.455 1234.05 649.455ZM1234.03 644.46C1232.52 644.46 1231.73 643.295 1231.73 641.58C1231.73 639.903 1232.5 638.602 1234.03 638.602C1235.52 638.602 1236.31 639.812 1236.31 641.58C1236.31 643.381 1235.5 644.46 1234.03 644.46Z" fill="black"/>
<path d="M1162.06 667H1165.21C1167.27 667 1168.12 665.994 1168.12 664.682C1168.12 663.301 1167.17 662.551 1166.37 662.5V662.415C1167.12 662.21 1167.78 661.716 1167.78 660.591C1167.78 659.312 1166.93 658.273 1165.11 658.273H1162.06V667ZM1163.11 666.062V663.028H1165.26C1166.4 663.028 1167.12 663.795 1167.12 664.682C1167.12 665.449 1166.59 666.062 1165.21 666.062H1163.11ZM1163.11 662.108V659.21H1165.11C1166.27 659.21 1166.78 659.824 1166.78 660.591C1166.78 661.511 1166.03 662.108 1165.07 662.108H1163.11ZM1173.85 664.324C1173.85 665.551 1172.91 666.114 1172.16 666.114C1171.33 666.114 1170.73 665.5 1170.73 664.545V660.455H1169.73V664.614C1169.73 666.284 1170.61 667.085 1171.84 667.085C1172.83 667.085 1173.48 666.557 1173.78 665.892H1173.85V667H1174.86V660.455H1173.85V664.324ZM1176.7 667H1177.7V660.455H1176.7V667ZM1177.21 659.364C1177.6 659.364 1177.93 659.057 1177.93 658.682C1177.93 658.307 1177.6 658 1177.21 658C1176.82 658 1176.49 658.307 1176.49 658.682C1176.49 659.057 1176.82 659.364 1177.21 659.364ZM1180.55 658.273H1179.55V667H1180.55V658.273ZM1184.86 667.136C1186.13 667.136 1186.55 666.352 1186.77 665.994H1186.89V667H1187.86V658.273H1186.86V661.494H1186.77C1186.55 661.153 1186.16 660.369 1184.88 660.369C1183.23 660.369 1182.09 661.682 1182.09 663.744C1182.09 665.824 1183.23 667.136 1184.86 667.136ZM1185 666.233C1183.74 666.233 1183.09 665.125 1183.09 663.727C1183.09 662.347 1183.72 661.273 1185 661.273C1186.23 661.273 1186.88 662.261 1186.88 663.727C1186.88 665.21 1186.21 666.233 1185 666.233ZM1198.57 660.455H1197.48L1195.68 665.67H1195.61L1193.8 660.455H1192.71L1195.13 667H1196.15L1198.57 660.455ZM1202.41 667.136C1203.74 667.136 1204.71 666.472 1205.02 665.483L1204.05 665.21C1203.79 665.892 1203.2 666.233 1202.41 666.233C1201.23 666.233 1200.42 665.47 1200.37 664.068H1205.12V663.642C1205.12 661.205 1203.67 660.369 1202.31 660.369C1200.54 660.369 1199.36 661.767 1199.36 663.778C1199.36 665.79 1200.52 667.136 1202.41 667.136ZM1200.37 663.199C1200.44 662.18 1201.16 661.273 1202.31 661.273C1203.4 661.273 1204.1 662.091 1204.1 663.199H1200.37ZM1206.65 667H1207.66V662.858C1207.66 661.972 1208.36 661.324 1209.31 661.324C1209.58 661.324 1209.86 661.375 1209.92 661.392V660.369C1209.81 660.361 1209.54 660.352 1209.4 660.352C1208.61 660.352 1207.93 660.795 1207.69 661.443H1207.62V660.455H1206.65V667ZM1214.37 660.455H1212.97V658.886H1211.97V660.455H1210.98V661.307H1211.97V665.398C1211.97 666.54 1212.89 667.085 1213.74 667.085C1214.12 667.085 1214.36 667.017 1214.49 666.966L1214.29 666.062C1214.2 666.08 1214.07 666.114 1213.84 666.114C1213.4 666.114 1212.97 665.977 1212.97 665.125V661.307H1214.37V660.455ZM1215.89 667H1216.89V660.455H1215.89V667ZM1216.4 659.364C1216.79 659.364 1217.11 659.057 1217.11 658.682C1217.11 658.307 1216.79 658 1216.4 658C1216 658 1215.68 658.307 1215.68 658.682C1215.68 659.057 1216 659.364 1216.4 659.364ZM1221.39 667.136C1222.84 667.136 1223.8 666.25 1223.97 665.091H1222.96C1222.77 665.807 1222.18 666.233 1221.39 666.233C1220.2 666.233 1219.43 665.244 1219.43 663.727C1219.43 662.244 1220.22 661.273 1221.39 661.273C1222.28 661.273 1222.81 661.818 1222.96 662.415H1223.97C1223.8 661.188 1222.76 660.369 1221.38 660.369C1219.6 660.369 1218.43 661.767 1218.43 663.761C1218.43 665.722 1219.55 667.136 1221.39 667.136ZM1227.36 667.153C1228.5 667.153 1229.1 666.54 1229.31 666.114H1229.36V667H1230.36V662.688C1230.36 660.608 1228.78 660.369 1227.94 660.369C1226.95 660.369 1225.83 660.71 1225.32 661.903L1226.27 662.244C1226.49 661.767 1227.02 661.256 1227.98 661.256C1228.9 661.256 1229.36 661.746 1229.36 662.585V662.619C1229.36 663.105 1228.86 663.062 1227.67 663.216C1226.45 663.374 1225.13 663.642 1225.13 665.142C1225.13 666.42 1226.12 667.153 1227.36 667.153ZM1227.52 666.25C1226.71 666.25 1226.13 665.892 1226.13 665.193C1226.13 664.426 1226.83 664.188 1227.62 664.085C1228.04 664.034 1229.19 663.915 1229.36 663.71V664.631C1229.36 665.449 1228.71 666.25 1227.52 666.25ZM1233.2 658.273H1232.2V667H1233.2V658.273ZM1236.05 658.273H1235.05V667H1236.05V658.273ZM1238.54 669.455C1239.45 669.455 1240.09 668.973 1240.47 667.955L1243.25 660.472L1242.15 660.455L1240.35 665.67H1240.28L1238.47 660.455H1237.38L1239.8 667.034L1239.61 667.545C1239.25 668.543 1238.8 668.636 1238.06 668.449L1237.81 669.335C1237.91 669.386 1238.2 669.455 1238.54 669.455ZM1250.62 667.136C1252.07 667.136 1253.02 666.25 1253.19 665.091H1252.19C1252 665.807 1251.4 666.233 1250.62 666.233C1249.43 666.233 1248.66 665.244 1248.66 663.727C1248.66 662.244 1249.44 661.273 1250.62 661.273C1251.5 661.273 1252.03 661.818 1252.19 662.415H1253.19C1253.02 661.188 1251.98 660.369 1250.6 660.369C1248.83 660.369 1247.65 661.767 1247.65 663.761C1247.65 665.722 1248.78 667.136 1250.62 667.136ZM1257.32 667.136C1259.09 667.136 1260.29 665.79 1260.29 663.761C1260.29 661.716 1259.09 660.369 1257.32 660.369C1255.55 660.369 1254.36 661.716 1254.36 663.761C1254.36 665.79 1255.55 667.136 1257.32 667.136ZM1257.32 666.233C1255.98 666.233 1255.36 665.074 1255.36 663.761C1255.36 662.449 1255.98 661.273 1257.32 661.273C1258.67 661.273 1259.28 662.449 1259.28 663.761C1259.28 665.074 1258.67 666.233 1257.32 666.233ZM1262.83 658.273H1261.82V667H1262.83V658.273ZM1265.68 658.273H1264.67V667H1265.68V658.273ZM1269.44 667.153C1270.59 667.153 1271.18 666.54 1271.39 666.114H1271.44V667H1272.44V662.688C1272.44 660.608 1270.86 660.369 1270.02 660.369C1269.04 660.369 1267.91 660.71 1267.4 661.903L1268.35 662.244C1268.57 661.767 1269.1 661.256 1270.06 661.256C1270.98 661.256 1271.44 661.746 1271.44 662.585V662.619C1271.44 663.105 1270.94 663.062 1269.75 663.216C1268.54 663.374 1267.21 663.642 1267.21 665.142C1267.21 666.42 1268.2 667.153 1269.44 667.153ZM1269.6 666.25C1268.8 666.25 1268.22 665.892 1268.22 665.193C1268.22 664.426 1268.92 664.188 1269.7 664.085C1270.13 664.034 1271.27 663.915 1271.44 663.71V664.631C1271.44 665.449 1270.79 666.25 1269.6 666.25ZM1274.28 669.455H1275.29V665.994H1275.37C1275.59 666.352 1276.02 667.136 1277.28 667.136C1278.92 667.136 1280.06 665.824 1280.06 663.744C1280.06 661.682 1278.92 660.369 1277.26 660.369C1275.98 660.369 1275.59 661.153 1275.37 661.494H1275.25V660.455H1274.28V669.455ZM1275.27 663.727C1275.27 662.261 1275.92 661.273 1277.14 661.273C1278.42 661.273 1279.05 662.347 1279.05 663.727C1279.05 665.125 1278.4 666.233 1277.14 666.233C1275.93 666.233 1275.27 665.21 1275.27 663.727ZM1286.23 661.92C1285.91 660.991 1285.21 660.369 1283.91 660.369C1282.53 660.369 1281.51 661.153 1281.51 662.261C1281.51 663.165 1282.04 663.77 1283.25 664.051L1284.34 664.307C1285 664.46 1285.31 664.776 1285.31 665.227C1285.31 665.79 1284.71 666.25 1283.77 666.25C1282.95 666.25 1282.44 665.896 1282.26 665.193L1281.3 665.432C1281.54 666.544 1282.45 667.136 1283.79 667.136C1285.31 667.136 1286.35 666.305 1286.35 665.176C1286.35 664.264 1285.78 663.689 1284.61 663.403L1283.64 663.165C1282.86 662.973 1282.51 662.713 1282.51 662.21C1282.51 661.648 1283.11 661.239 1283.91 661.239C1284.79 661.239 1285.15 661.724 1285.33 662.176L1286.23 661.92ZM1287.86 667H1288.87V660.455H1287.86V667ZM1288.37 659.364C1288.77 659.364 1289.09 659.057 1289.09 658.682C1289.09 658.307 1288.77 658 1288.37 658C1287.98 658 1287.66 658.307 1287.66 658.682C1287.66 659.057 1287.98 659.364 1288.37 659.364ZM1291.72 663.062C1291.72 661.92 1292.42 661.273 1293.39 661.273C1294.32 661.273 1294.89 661.882 1294.89 662.909V667H1295.89V662.841C1295.89 661.17 1295 660.369 1293.68 660.369C1292.69 660.369 1292.07 660.812 1291.77 661.477H1291.68V660.455H1290.71V667H1291.72V663.062ZM1300.37 669.591C1301.94 669.591 1303.2 668.875 1303.2 667.188V660.455H1302.23V661.494H1302.13C1301.91 661.153 1301.5 660.369 1300.22 660.369C1298.56 660.369 1297.42 661.682 1297.42 663.693C1297.42 665.739 1298.62 666.898 1300.2 666.898C1301.48 666.898 1301.89 666.148 1302.11 665.79H1302.19V667.119C1302.19 668.21 1301.43 668.705 1300.37 668.705C1299.18 668.705 1298.76 668.078 1298.5 667.716L1297.69 668.278C1298.1 668.964 1298.91 669.591 1300.37 669.591ZM1300.34 665.994C1299.08 665.994 1298.43 665.04 1298.43 663.676C1298.43 662.347 1299.06 661.273 1300.34 661.273C1301.56 661.273 1302.21 662.261 1302.21 663.676C1302.21 665.125 1301.55 665.994 1300.34 665.994ZM1310.34 667.153C1311.48 667.153 1312.08 666.54 1312.29 666.114H1312.34V667H1313.34V662.688C1313.34 660.608 1311.76 660.369 1310.92 660.369C1309.93 660.369 1308.81 660.71 1308.3 661.903L1309.25 662.244C1309.47 661.767 1310 661.256 1310.96 661.256C1311.88 661.256 1312.34 661.746 1312.34 662.585V662.619C1312.34 663.105 1311.84 663.062 1310.65 663.216C1309.44 663.374 1308.11 663.642 1308.11 665.142C1308.11 666.42 1309.1 667.153 1310.34 667.153ZM1310.5 666.25C1309.69 666.25 1309.12 665.892 1309.12 665.193C1309.12 664.426 1309.81 664.188 1310.6 664.085C1311.02 664.034 1312.17 663.915 1312.34 663.71V664.631C1312.34 665.449 1311.69 666.25 1310.5 666.25ZM1317.84 667.136C1319.29 667.136 1320.24 666.25 1320.41 665.091H1319.41C1319.22 665.807 1318.62 666.233 1317.84 666.233C1316.64 666.233 1315.88 665.244 1315.88 663.727C1315.88 662.244 1316.66 661.273 1317.84 661.273C1318.72 661.273 1319.25 661.818 1319.41 662.415H1320.41C1320.24 661.188 1319.2 660.369 1317.82 660.369C1316.05 660.369 1314.87 661.767 1314.87 663.761C1314.87 665.722 1316 667.136 1317.84 667.136ZM1324.54 667.136C1325.99 667.136 1326.94 666.25 1327.11 665.091H1326.11C1325.92 665.807 1325.32 666.233 1324.54 666.233C1323.35 666.233 1322.58 665.244 1322.58 663.727C1322.58 662.244 1323.36 661.273 1324.54 661.273C1325.43 661.273 1325.96 661.818 1326.11 662.415H1327.11C1326.94 661.188 1325.9 660.369 1324.52 660.369C1322.75 660.369 1321.57 661.767 1321.57 663.761C1321.57 665.722 1322.7 667.136 1324.54 667.136ZM1331.24 667.136C1333.02 667.136 1334.21 665.79 1334.21 663.761C1334.21 661.716 1333.02 660.369 1331.24 660.369C1329.47 660.369 1328.28 661.716 1328.28 663.761C1328.28 665.79 1329.47 667.136 1331.24 667.136ZM1331.24 666.233C1329.9 666.233 1329.28 665.074 1329.28 663.761C1329.28 662.449 1329.9 661.273 1331.24 661.273C1332.59 661.273 1333.2 662.449 1333.2 663.761C1333.2 665.074 1332.59 666.233 1331.24 666.233ZM1335.74 667H1336.75V662.858C1336.75 661.972 1337.45 661.324 1338.4 661.324C1338.67 661.324 1338.95 661.375 1339.02 661.392V660.369C1338.9 660.361 1338.64 660.352 1338.49 660.352C1337.7 660.352 1337.02 660.795 1336.78 661.443H1336.72V660.455H1335.74V667ZM1342.48 667.136C1343.74 667.136 1344.17 666.352 1344.39 665.994H1344.51V667H1345.48V658.273H1344.48V661.494H1344.39C1344.17 661.153 1343.78 660.369 1342.5 660.369C1340.85 660.369 1339.7 661.682 1339.7 663.744C1339.7 665.824 1340.85 667.136 1342.48 667.136ZM1342.62 666.233C1341.36 666.233 1340.71 665.125 1340.71 663.727C1340.71 662.347 1341.34 661.273 1342.62 661.273C1343.85 661.273 1344.49 662.261 1344.49 663.727C1344.49 665.21 1343.83 666.233 1342.62 666.233ZM1347.46 667H1348.47V660.455H1347.46V667ZM1347.97 659.364C1348.37 659.364 1348.69 659.057 1348.69 658.682C1348.69 658.307 1348.37 658 1347.97 658C1347.58 658 1347.26 658.307 1347.26 658.682C1347.26 659.057 1347.58 659.364 1347.97 659.364ZM1352.97 667.136C1354.74 667.136 1355.94 665.79 1355.94 663.761C1355.94 661.716 1354.74 660.369 1352.97 660.369C1351.2 660.369 1350 661.716 1350 663.761C1350 665.79 1351.2 667.136 1352.97 667.136ZM1352.97 666.233C1351.62 666.233 1351.01 665.074 1351.01 663.761C1351.01 662.449 1351.62 661.273 1352.97 661.273C1354.32 661.273 1354.93 662.449 1354.93 663.761C1354.93 665.074 1354.32 666.233 1352.97 666.233ZM1358.48 663.062C1358.48 661.92 1359.18 661.273 1360.15 661.273C1361.08 661.273 1361.65 661.882 1361.65 662.909V667H1362.65V662.841C1362.65 661.17 1361.76 660.369 1360.44 660.369C1359.45 660.369 1358.83 660.812 1358.53 661.477H1358.44V660.455H1357.47V667H1358.48V663.062ZM1369.13 661.92C1368.81 660.991 1368.1 660.369 1366.81 660.369C1365.43 660.369 1364.41 661.153 1364.41 662.261C1364.41 663.165 1364.94 663.77 1366.14 664.051L1367.24 664.307C1367.9 664.46 1368.21 664.776 1368.21 665.227C1368.21 665.79 1367.61 666.25 1366.67 666.25C1365.85 666.25 1365.33 665.896 1365.16 665.193L1364.2 665.432C1364.44 666.544 1365.35 667.136 1366.69 667.136C1368.21 667.136 1369.25 666.305 1369.25 665.176C1369.25 664.264 1368.68 663.689 1367.51 663.403L1366.54 663.165C1365.76 662.973 1365.41 662.713 1365.41 662.21C1365.41 661.648 1366.01 661.239 1366.81 661.239C1367.69 661.239 1368.05 661.724 1368.22 662.176L1369.13 661.92Z" fill="#9BA7B9"/>
<rect x="1102" y="626" width="49" height="49" rx="3" fill="#DDFFEF"/>
<path d="M1136 649H1118" stroke="#50B781" stroke-width="2" stroke-linecap="round" stroke-linejoin="round"/>
<path d="M1136 645H1118" stroke="#50B781" stroke-width="2" stroke-linecap="round" stroke-linejoin="round"/>
<path d="M1136 653H1118" stroke="#50B781" stroke-width="2" stroke-linecap="round" stroke-linejoin="round"/>
<path d="M1136 657H1118" stroke="#50B781" stroke-width="2" stroke-linecap="round" stroke-linejoin="round"/>
<path d="M1162.28 715H1166.74C1169.44 715 1170.66 713.653 1170.66 711.869C1170.66 710.068 1169.4 709.051 1168.25 708.989V708.875C1169.32 708.602 1170.21 707.875 1170.21 706.42C1170.21 704.699 1169.02 703.364 1166.54 703.364H1162.28V715ZM1164.03 713.494V709.767H1166.63C1168.04 709.767 1168.92 710.676 1168.92 711.784C1168.92 712.761 1168.26 713.494 1166.57 713.494H1164.03ZM1164.03 708.398V704.858H1166.43C1167.82 704.858 1168.49 705.591 1168.49 706.557C1168.49 707.682 1167.57 708.398 1166.39 708.398H1164.03ZM1178.14 711.381C1178.14 712.864 1177.04 713.568 1176.09 713.568C1175.04 713.568 1174.31 712.807 1174.31 711.619V706.273H1172.61V711.824C1172.61 713.989 1173.8 715.114 1175.47 715.114C1176.79 715.114 1177.68 714.42 1178.08 713.489H1178.17V715H1179.84V706.273H1178.14V711.381ZM1186.2 706.273H1184.41V704.182H1182.71V706.273H1181.43V707.636H1182.71V712.79C1182.71 714.375 1183.92 715.142 1185.26 715.114C1185.8 715.108 1186.16 715.006 1186.36 714.932L1186.05 713.528C1185.94 713.551 1185.73 713.602 1185.46 713.602C1184.9 713.602 1184.41 713.42 1184.41 712.438V707.636H1186.2V706.273ZM1192.15 706.273H1190.36V704.182H1188.66V706.273H1187.39V707.636H1188.66V712.79C1188.66 714.375 1189.87 715.142 1191.21 715.114C1191.75 715.108 1192.11 715.006 1192.31 714.932L1192.01 713.528C1191.89 713.551 1191.68 713.602 1191.41 713.602C1190.86 713.602 1190.36 713.42 1190.36 712.438V707.636H1192.15V706.273ZM1197.62 715.176C1200.08 715.176 1201.68 713.375 1201.68 710.676C1201.68 707.96 1200.08 706.159 1197.62 706.159C1195.15 706.159 1193.55 707.96 1193.55 710.676C1193.55 713.375 1195.15 715.176 1197.62 715.176ZM1197.62 713.75C1196.01 713.75 1195.26 712.347 1195.26 710.67C1195.26 709 1196.01 707.58 1197.62 707.58C1199.22 707.58 1199.97 709 1199.97 710.67C1199.97 712.347 1199.22 713.75 1197.62 713.75ZM1205.28 709.818C1205.28 708.426 1206.13 707.631 1207.31 707.631C1208.47 707.631 1209.16 708.386 1209.16 709.653V715H1210.86V709.449C1210.86 707.29 1209.68 706.159 1207.89 706.159C1206.58 706.159 1205.72 706.767 1205.32 707.693H1205.21V706.273H1203.58V715H1205.28V709.818ZM1219.68 708.403C1219.33 707.045 1218.27 706.159 1216.38 706.159C1214.41 706.159 1213.01 707.199 1213.01 708.744C1213.01 709.983 1213.76 710.807 1215.4 711.17L1216.88 711.494C1217.72 711.682 1218.11 712.057 1218.11 712.602C1218.11 713.278 1217.39 713.807 1216.27 713.807C1215.26 713.807 1214.6 713.369 1214.4 712.511L1212.76 712.761C1213.04 714.307 1214.32 715.176 1216.28 715.176C1218.39 715.176 1219.85 714.057 1219.85 712.477C1219.85 711.244 1219.07 710.483 1217.47 710.114L1216.08 709.795C1215.12 709.568 1214.7 709.244 1214.71 708.653C1214.7 707.983 1215.43 707.506 1216.4 707.506C1217.45 707.506 1217.94 708.091 1218.14 708.676L1219.68 708.403Z" fill="black"/>
<path d="M1162.06 736H1167.39V735.062H1163.11V732.097H1167.05V731.159H1163.11V728.21H1167.32V727.273H1162.06V736ZM1169.84 729.455H1168.68L1170.76 732.727L1168.68 736H1169.84L1171.41 733.46L1172.98 736H1174.14L1172.02 732.727L1174.14 729.455H1172.98L1171.41 732.131L1169.84 729.455ZM1177.5 736.153C1178.64 736.153 1179.24 735.54 1179.44 735.114H1179.49V736H1180.5V731.688C1180.5 729.608 1178.91 729.369 1178.08 729.369C1177.09 729.369 1175.96 729.71 1175.45 730.903L1176.41 731.244C1176.63 730.767 1177.15 730.256 1178.11 730.256C1179.04 730.256 1179.49 730.746 1179.49 731.585V731.619C1179.49 732.105 1179 732.062 1177.81 732.216C1176.59 732.374 1175.27 732.642 1175.27 734.142C1175.27 735.42 1176.25 736.153 1177.5 736.153ZM1177.65 735.25C1176.85 735.25 1176.27 734.892 1176.27 734.193C1176.27 733.426 1176.97 733.188 1177.75 733.085C1178.18 733.034 1179.32 732.915 1179.49 732.71V733.631C1179.49 734.449 1178.85 735.25 1177.65 735.25ZM1182.33 736H1183.34V731.909C1183.34 730.95 1184.04 730.273 1184.82 730.273C1185.59 730.273 1186.12 730.771 1186.12 731.517V736H1187.14V731.739C1187.14 730.895 1187.67 730.273 1188.59 730.273C1189.31 730.273 1189.92 730.652 1189.92 731.619V736H1190.93V731.619C1190.93 730.081 1190.1 729.369 1188.93 729.369C1187.99 729.369 1187.31 729.8 1186.97 730.477H1186.9C1186.58 729.778 1186.01 729.369 1185.15 729.369C1184.29 729.369 1183.66 729.778 1183.39 730.477H1183.31V729.455H1182.33V736ZM1192.76 738.455H1193.77V734.994H1193.86C1194.08 735.352 1194.5 736.136 1195.76 736.136C1197.4 736.136 1198.54 734.824 1198.54 732.744C1198.54 730.682 1197.4 729.369 1195.75 729.369C1194.47 729.369 1194.08 730.153 1193.86 730.494H1193.74V729.455H1192.76V738.455ZM1193.75 732.727C1193.75 731.261 1194.4 730.273 1195.63 730.273C1196.91 730.273 1197.54 731.347 1197.54 732.727C1197.54 734.125 1196.89 735.233 1195.63 735.233C1194.42 735.233 1193.75 734.21 1193.75 732.727ZM1201.08 727.273H1200.08V736H1201.08V727.273ZM1205.67 736.136C1207 736.136 1207.97 735.472 1208.28 734.483L1207.31 734.21C1207.05 734.892 1206.46 735.233 1205.67 735.233C1204.49 735.233 1203.67 734.47 1203.63 733.068H1208.38V732.642C1208.38 730.205 1206.93 729.369 1205.57 729.369C1203.79 729.369 1202.62 730.767 1202.62 732.778C1202.62 734.79 1203.78 736.136 1205.67 736.136ZM1203.63 732.199C1203.7 731.18 1204.42 730.273 1205.57 730.273C1206.66 730.273 1207.36 731.091 1207.36 732.199H1203.63ZM1214.55 730.92C1214.23 729.991 1213.52 729.369 1212.23 729.369C1210.85 729.369 1209.82 730.153 1209.82 731.261C1209.82 732.165 1210.36 732.77 1211.56 733.051L1212.65 733.307C1213.31 733.46 1213.62 733.776 1213.62 734.227C1213.62 734.79 1213.03 735.25 1212.09 735.25C1211.27 735.25 1210.75 734.896 1210.57 734.193L1209.62 734.432C1209.85 735.544 1210.77 736.136 1212.11 736.136C1213.63 736.136 1214.66 735.305 1214.66 734.176C1214.66 733.264 1214.09 732.689 1212.93 732.403L1211.95 732.165C1211.18 731.973 1210.83 731.713 1210.83 731.21C1210.83 730.648 1211.43 730.239 1212.23 730.239C1213.1 730.239 1213.47 730.724 1213.64 731.176L1214.55 730.92ZM1222.47 729.455H1221V728.79C1221 728.142 1221.27 727.801 1221.94 727.801C1222.23 727.801 1222.4 727.869 1222.5 727.903L1222.79 727.034C1222.64 726.966 1222.33 726.864 1221.84 726.864C1220.9 726.864 1220 727.426 1220 728.551V729.455H1218.94V730.307H1220V736H1221V730.307H1222.47V729.455ZM1226.27 736.136C1228.04 736.136 1229.23 734.79 1229.23 732.761C1229.23 730.716 1228.04 729.369 1226.27 729.369C1224.49 729.369 1223.3 730.716 1223.3 732.761C1223.3 734.79 1224.49 736.136 1226.27 736.136ZM1226.27 735.233C1224.92 735.233 1224.31 734.074 1224.31 732.761C1224.31 731.449 1224.92 730.273 1226.27 730.273C1227.61 730.273 1228.23 731.449 1228.23 732.761C1228.23 734.074 1227.61 735.233 1226.27 735.233ZM1230.77 736H1231.77V731.858C1231.77 730.972 1232.47 730.324 1233.43 730.324C1233.7 730.324 1233.97 730.375 1234.04 730.392V729.369C1233.93 729.361 1233.66 729.352 1233.51 729.352C1232.73 729.352 1232.05 729.795 1231.81 730.443H1231.74V729.455H1230.77V736ZM1238.61 738.455H1239.61V734.994H1239.7C1239.92 735.352 1240.35 736.136 1241.61 736.136C1243.24 736.136 1244.39 734.824 1244.39 732.744C1244.39 730.682 1243.24 729.369 1241.59 729.369C1240.31 729.369 1239.92 730.153 1239.7 730.494H1239.58V729.455H1238.61V738.455ZM1239.6 732.727C1239.6 731.261 1240.24 730.273 1241.47 730.273C1242.75 730.273 1243.38 731.347 1243.38 732.727C1243.38 734.125 1242.73 735.233 1241.47 735.233C1240.26 735.233 1239.6 734.21 1239.6 732.727ZM1245.92 736H1246.93V731.858C1246.93 730.972 1247.62 730.324 1248.58 730.324C1248.85 730.324 1249.12 730.375 1249.19 730.392V729.369C1249.08 729.361 1248.81 729.352 1248.66 729.352C1247.88 729.352 1247.2 729.795 1246.96 730.443H1246.89V729.455H1245.92V736ZM1252.31 736.153C1253.45 736.153 1254.05 735.54 1254.25 735.114H1254.31V736H1255.31V731.688C1255.31 729.608 1253.73 729.369 1252.89 729.369C1251.9 729.369 1250.78 729.71 1250.27 730.903L1251.22 731.244C1251.44 730.767 1251.97 730.256 1252.93 730.256C1253.85 730.256 1254.31 730.746 1254.31 731.585V731.619C1254.31 732.105 1253.81 732.062 1252.62 732.216C1251.4 732.374 1250.08 732.642 1250.08 734.142C1250.08 735.42 1251.07 736.153 1252.31 736.153ZM1252.46 735.25C1251.66 735.25 1251.08 734.892 1251.08 734.193C1251.08 733.426 1251.78 733.188 1252.57 733.085C1252.99 733.034 1254.14 732.915 1254.31 732.71V733.631C1254.31 734.449 1253.66 735.25 1252.46 735.25ZM1259.81 736.136C1261.25 736.136 1262.21 735.25 1262.38 734.091H1261.37C1261.19 734.807 1260.59 735.233 1259.81 735.233C1258.61 735.233 1257.85 734.244 1257.85 732.727C1257.85 731.244 1258.63 730.273 1259.81 730.273C1260.69 730.273 1261.22 730.818 1261.37 731.415H1262.38C1262.21 730.188 1261.17 729.369 1259.79 729.369C1258.02 729.369 1256.84 730.767 1256.84 732.761C1256.84 734.722 1257.97 736.136 1259.81 736.136ZM1266.7 729.455H1265.3V727.886H1264.29V729.455H1263.3V730.307H1264.29V734.398C1264.29 735.54 1265.21 736.085 1266.07 736.085C1266.44 736.085 1266.68 736.017 1266.82 735.966L1266.61 735.062C1266.53 735.08 1266.39 735.114 1266.17 735.114C1265.73 735.114 1265.3 734.977 1265.3 734.125V730.307H1266.7V729.455ZM1268.21 736H1269.22V729.455H1268.21V736ZM1268.72 728.364C1269.11 728.364 1269.44 728.057 1269.44 727.682C1269.44 727.307 1269.11 727 1268.72 727C1268.33 727 1268 727.307 1268 727.682C1268 728.057 1268.33 728.364 1268.72 728.364ZM1273.72 736.136C1275.17 736.136 1276.12 735.25 1276.29 734.091H1275.28C1275.1 734.807 1274.5 735.233 1273.72 735.233C1272.52 735.233 1271.76 734.244 1271.76 732.727C1271.76 731.244 1272.54 730.273 1273.72 730.273C1274.6 730.273 1275.13 730.818 1275.28 731.415H1276.29C1276.12 730.188 1275.08 729.369 1273.7 729.369C1271.93 729.369 1270.75 730.767 1270.75 732.761C1270.75 734.722 1271.88 736.136 1273.72 736.136ZM1279.69 736.153C1280.83 736.153 1281.43 735.54 1281.63 735.114H1281.68V736H1282.69V731.688C1282.69 729.608 1281.1 729.369 1280.27 729.369C1279.28 729.369 1278.15 729.71 1277.64 730.903L1278.6 731.244C1278.82 730.767 1279.34 730.256 1280.3 730.256C1281.22 730.256 1281.68 730.746 1281.68 731.585V731.619C1281.68 732.105 1281.19 732.062 1279.99 732.216C1278.78 732.374 1277.45 732.642 1277.45 734.142C1277.45 735.42 1278.44 736.153 1279.69 736.153ZM1279.84 735.25C1279.04 735.25 1278.46 734.892 1278.46 734.193C1278.46 733.426 1279.16 733.188 1279.94 733.085C1280.37 733.034 1281.51 732.915 1281.68 732.71V733.631C1281.68 734.449 1281.03 735.25 1279.84 735.25ZM1285.53 727.273H1284.52V736H1285.53V727.273ZM1290.88 736H1291.85V734.994H1291.97C1292.19 735.352 1292.62 736.136 1293.88 736.136C1295.52 736.136 1296.66 734.824 1296.66 732.744C1296.66 730.682 1295.52 729.369 1293.86 729.369C1292.59 729.369 1292.19 730.153 1291.97 730.494H1291.89V727.273H1290.88V736ZM1291.87 732.727C1291.87 731.261 1292.52 730.273 1293.74 730.273C1295.02 730.273 1295.65 731.347 1295.65 732.727C1295.65 734.125 1295.01 735.233 1293.74 735.233C1292.53 735.233 1291.87 734.21 1291.87 732.727ZM1302.32 733.324C1302.32 734.551 1301.39 735.114 1300.64 735.114C1299.8 735.114 1299.2 734.5 1299.2 733.545V729.455H1298.2V733.614C1298.2 735.284 1299.08 736.085 1300.31 736.085C1301.3 736.085 1301.95 735.557 1302.25 734.892H1302.32V736H1303.33V729.455H1302.32V733.324ZM1308.02 729.455H1306.62V727.886H1305.61V729.455H1304.62V730.307H1305.61V734.398C1305.61 735.54 1306.53 736.085 1307.39 736.085C1307.76 736.085 1308 736.017 1308.14 735.966L1307.93 735.062C1307.85 735.08 1307.71 735.114 1307.49 735.114C1307.05 735.114 1306.62 734.977 1306.62 734.125V730.307H1308.02V729.455ZM1312.38 729.455H1310.98V727.886H1309.97V729.455H1308.98V730.307H1309.97V734.398C1309.97 735.54 1310.89 736.085 1311.75 736.085C1312.12 736.085 1312.36 736.017 1312.5 735.966L1312.29 735.062C1312.21 735.08 1312.07 735.114 1311.85 735.114C1311.4 735.114 1310.98 734.977 1310.98 734.125V730.307H1312.38V729.455ZM1316.48 736.136C1318.25 736.136 1319.44 734.79 1319.44 732.761C1319.44 730.716 1318.25 729.369 1316.48 729.369C1314.71 729.369 1313.51 730.716 1313.51 732.761C1313.51 734.79 1314.71 736.136 1316.48 736.136ZM1316.48 735.233C1315.13 735.233 1314.52 734.074 1314.52 732.761C1314.52 731.449 1315.13 730.273 1316.48 730.273C1317.82 730.273 1318.44 731.449 1318.44 732.761C1318.44 734.074 1317.82 735.233 1316.48 735.233ZM1321.98 732.062C1321.98 730.92 1322.69 730.273 1323.66 730.273C1324.59 730.273 1325.16 730.882 1325.16 731.909V736H1326.16V731.841C1326.16 730.17 1325.27 729.369 1323.94 729.369C1322.96 729.369 1322.34 729.812 1322.04 730.477H1321.95V729.455H1320.98V736H1321.98V732.062ZM1332.63 730.92C1332.32 729.991 1331.61 729.369 1330.32 729.369C1328.94 729.369 1327.91 730.153 1327.91 731.261C1327.91 732.165 1328.45 732.77 1329.65 733.051L1330.74 733.307C1331.4 733.46 1331.71 733.776 1331.71 734.227C1331.71 734.79 1331.12 735.25 1330.18 735.25C1329.36 735.25 1328.84 734.896 1328.66 734.193L1327.71 734.432C1327.94 735.544 1328.86 736.136 1330.2 736.136C1331.72 736.136 1332.75 735.305 1332.75 734.176C1332.75 733.264 1332.18 732.689 1331.02 732.403L1330.04 732.165C1329.27 731.973 1328.92 731.713 1328.92 731.21C1328.92 730.648 1329.52 730.239 1330.32 730.239C1331.19 730.239 1331.56 730.724 1331.73 731.176L1332.63 730.92Z" fill="#9BA7B9"/>
<rect x="1102" y="695" width="49" height="49" rx="3" fill="#D9E6FF"/>
<path d="M1127 730C1132.52 730 1137 725.523 1137 720C1137 714.477 1132.52 710 1127 710C1121.48 710 1117 714.477 1117 720C1117 725.523 1121.48 730 1127 730Z" stroke="#6B9EFF" stroke-width="2" stroke-linecap="round" stroke-linejoin="round"/>
</g>
<path d="M150.291 478.909V492H152.567V482.987H152.688L156.306 491.962H158.006L161.624 483.006H161.746V492H164.021V478.909H161.119L157.233 488.395H157.08L153.193 478.909H150.291ZM170.848 492.192C173.136 492.192 174.709 491.073 175.118 489.366L172.957 489.124C172.644 489.955 171.877 490.389 170.88 490.389C169.384 490.389 168.393 489.405 168.374 487.724H175.214V487.014C175.214 483.569 173.143 482.054 170.727 482.054C167.914 482.054 166.08 484.119 166.08 487.148C166.08 490.229 167.888 492.192 170.848 492.192ZM168.381 486.164C168.451 484.911 169.378 483.857 170.759 483.857C172.088 483.857 172.983 484.828 172.996 486.164H168.381ZM179.485 486.247C179.485 484.828 180.342 484.01 181.563 484.01C182.758 484.01 183.474 484.796 183.474 486.107V492H185.788V485.749C185.794 483.396 184.452 482.054 182.426 482.054C180.955 482.054 179.945 482.757 179.498 483.85H179.383V482.182H177.171V492H179.485V486.247ZM194.398 487.871C194.398 489.366 193.33 490.108 192.308 490.108C191.195 490.108 190.454 489.322 190.454 488.075V482.182H188.14V488.433C188.14 490.792 189.482 492.128 191.413 492.128C192.883 492.128 193.919 491.354 194.366 490.255H194.468V492H196.712V482.182H194.398V487.871ZM203.658 492H206.03V488.101L207.481 486.388L211.386 492H214.237L209.13 484.783L214.192 478.909H211.297L206.19 484.924H206.03V478.909H203.658V492ZM216.353 492H218.667V482.182H216.353V492ZM217.516 480.788C218.251 480.788 218.852 480.226 218.852 479.536C218.852 478.839 218.251 478.276 217.516 478.276C216.775 478.276 216.174 478.839 216.174 479.536C216.174 480.226 216.775 480.788 217.516 480.788ZM225.949 482.182H224.012V479.83H221.698V482.182H220.305V483.972H221.698V489.43C221.686 491.278 223.028 492.185 224.767 492.134C225.425 492.115 225.879 491.987 226.128 491.904L225.738 490.095C225.61 490.127 225.348 490.185 225.061 490.185C224.479 490.185 224.012 489.98 224.012 489.047V483.972H225.949V482.182Z" fill="#474F5B"/>
<defs>
<filter id="filter0_d_278_6360" x="1068" y="530" width="357" height="255" filterUnits="userSpaceOnUse" color-interpolation-filters="sRGB">
<feFlood flood-opacity="0" result="BackgroundImageFix"/>
<feColorMatrix in="SourceAlpha" type="matrix" values="0 0 0 0 0 0 0 0 0 0 0 0 0 0 0 0 0 0 127 0" result="hardAlpha"/>
<feOffset dy="7"/>
<feGaussianBlur stdDeviation="7"/>
<feComposite in2="hardAlpha" operator="out"/>
<feColorMatrix type="matrix" values="0 0 0 0 0 0 0 0 0 0 0 0 0 0 0 0 0 0 0.02 0"/>
<feBlend mode="normal" in2="BackgroundImageFix" result="effect1_dropShadow_278_6360"/>
<feBlend mode="normal" in="SourceGraphic" in2="effect1_dropShadow_278_6360" result="shape"/>
</filter>
</defs>
</svg>
