<svg width="1578" height="969" viewBox="0 0 1578 969" fill="none" xmlns="http://www.w3.org/2000/svg">
<rect width="1578" height="969" fill="#D9E6FF"/>
<rect width="1440" height="84" transform="translate(69 443)" fill="white"/>
<path d="M1006.15 483.04H1007.95C1007.56 480.773 1005.62 479.205 1003.11 479.205C1000.1 479.205 997.903 481.472 997.903 485.188C997.903 488.869 1000.04 491.159 1003.19 491.159C1006.02 491.159 1008.03 489.307 1008.03 486.369V485.045H1003.46V486.494H1006.34C1006.3 488.369 1005.06 489.557 1003.19 489.557C1001.14 489.557 999.648 488.006 999.648 485.176C999.648 482.358 1001.15 480.807 1003.12 480.807C1004.67 480.807 1005.72 481.659 1006.15 483.04ZM1015.65 487.381C1015.66 488.864 1014.56 489.568 1013.6 489.568C1012.55 489.568 1011.83 488.807 1011.83 487.619V482.273H1010.13V487.824C1010.13 489.989 1011.31 491.114 1012.99 491.114C1014.3 491.114 1015.19 490.42 1015.6 489.489H1015.69V491H1017.36V482.273H1015.65V487.381ZM1019.64 491H1021.34V482.273H1019.64V491ZM1020.5 480.926C1021.09 480.926 1021.57 480.472 1021.57 479.915C1021.57 479.358 1021.09 478.898 1020.5 478.898C1019.91 478.898 1019.43 479.358 1019.43 479.915C1019.43 480.472 1019.91 480.926 1020.5 480.926ZM1026.89 491.17C1028.48 491.17 1029.11 490.199 1029.42 489.642H1029.56V491H1031.22V479.364H1029.52V483.688H1029.42C1029.11 483.148 1028.53 482.159 1026.9 482.159C1024.8 482.159 1023.25 483.824 1023.25 486.653C1023.25 489.477 1024.77 491.17 1026.89 491.17ZM1027.27 489.722C1025.75 489.722 1024.96 488.386 1024.96 486.636C1024.96 484.903 1025.73 483.602 1027.27 483.602C1028.75 483.602 1029.55 484.812 1029.55 486.636C1029.55 488.472 1028.73 489.722 1027.27 489.722ZM1037.4 491.176C1039.31 491.176 1040.65 490.239 1041.04 488.818L1039.43 488.528C1039.12 489.352 1038.39 489.773 1037.42 489.773C1035.97 489.773 1034.99 488.83 1034.94 487.148H1041.15V486.545C1041.15 483.392 1039.26 482.159 1037.28 482.159C1034.85 482.159 1033.25 484.011 1033.25 486.693C1033.25 489.403 1034.83 491.176 1037.4 491.176ZM1034.95 485.875C1035.02 484.636 1035.91 483.562 1037.3 483.562C1038.61 483.562 1039.48 484.54 1039.48 485.875H1034.95Z" fill="#242424"/>
<path d="M1092.94 483.148C1092.55 480.659 1090.6 479.205 1088.14 479.205C1085.12 479.205 1082.9 481.46 1082.9 485.182C1082.9 488.903 1085.11 491.159 1088.14 491.159C1090.69 491.159 1092.56 489.557 1092.94 487.256L1091.17 487.25C1090.87 488.739 1089.62 489.557 1088.15 489.557C1086.15 489.557 1084.65 488.028 1084.65 485.182C1084.65 482.358 1086.15 480.807 1088.15 480.807C1089.64 480.807 1090.88 481.642 1091.17 483.148H1092.94ZM1098.58 491.176C1101.04 491.176 1102.65 489.375 1102.65 486.676C1102.65 483.96 1101.04 482.159 1098.58 482.159C1096.12 482.159 1094.52 483.96 1094.52 486.676C1094.52 489.375 1096.12 491.176 1098.58 491.176ZM1098.59 489.75C1096.98 489.75 1096.23 488.347 1096.23 486.67C1096.23 485 1096.98 483.58 1098.59 483.58C1100.19 483.58 1100.94 485 1100.94 486.67C1100.94 488.347 1100.19 489.75 1098.59 489.75ZM1104.55 491H1106.25V485.619C1106.25 484.443 1107.07 483.625 1108.04 483.625C1108.98 483.625 1109.63 484.25 1109.63 485.199V491H1111.33V485.438C1111.33 484.386 1111.97 483.625 1113.08 483.625C1113.97 483.625 1114.71 484.125 1114.71 485.307V491H1116.41V485.148C1116.41 483.153 1115.3 482.159 1113.72 482.159C1112.46 482.159 1111.52 482.761 1111.1 483.693H1111.01C1110.63 482.739 1109.83 482.159 1108.66 482.159C1107.51 482.159 1106.65 482.733 1106.29 483.693H1106.18V482.273H1104.55V491ZM1118.69 494.273H1120.39V489.642H1120.49C1120.8 490.199 1121.42 491.17 1123.01 491.17C1125.13 491.17 1126.66 489.477 1126.66 486.653C1126.66 483.824 1125.1 482.159 1123 482.159C1121.38 482.159 1120.79 483.148 1120.49 483.688H1120.35V482.273H1118.69V494.273ZM1120.35 486.636C1120.35 484.812 1121.15 483.602 1122.63 483.602C1124.17 483.602 1124.94 484.903 1124.94 486.636C1124.94 488.386 1124.15 489.722 1122.63 489.722C1121.17 489.722 1120.35 488.472 1120.35 486.636ZM1132.24 491.176C1134.7 491.176 1136.31 489.375 1136.31 486.676C1136.31 483.96 1134.7 482.159 1132.24 482.159C1129.78 482.159 1128.17 483.96 1128.17 486.676C1128.17 489.375 1129.78 491.176 1132.24 491.176ZM1132.25 489.75C1130.64 489.75 1129.89 488.347 1129.89 486.67C1129.89 485 1130.64 483.58 1132.25 483.58C1133.84 483.58 1134.59 485 1134.59 486.67C1134.59 488.347 1133.84 489.75 1132.25 489.75ZM1139.9 485.818C1139.9 484.426 1140.76 483.631 1141.94 483.631C1143.09 483.631 1143.79 484.386 1143.79 485.653V491H1145.49V485.449C1145.49 483.29 1144.3 482.159 1142.52 482.159C1141.2 482.159 1140.35 482.767 1139.94 483.693H1139.84V482.273H1138.2V491H1139.9V485.818ZM1151.53 491.176C1153.43 491.176 1154.78 490.239 1155.16 488.818L1153.56 488.528C1153.25 489.352 1152.51 489.773 1151.55 489.773C1150.09 489.773 1149.11 488.83 1149.07 487.148H1155.27V486.545C1155.27 483.392 1153.39 482.159 1151.41 482.159C1148.98 482.159 1147.38 484.011 1147.38 486.693C1147.38 489.403 1148.95 491.176 1151.53 491.176ZM1149.07 485.875C1149.14 484.636 1150.04 483.562 1151.42 483.562C1152.74 483.562 1153.6 484.54 1153.61 485.875H1149.07ZM1158.86 485.818C1158.86 484.426 1159.71 483.631 1160.89 483.631C1162.04 483.631 1162.74 484.386 1162.74 485.653V491H1164.44V485.449C1164.44 483.29 1163.25 482.159 1161.47 482.159C1160.16 482.159 1159.3 482.767 1158.9 483.693H1158.79V482.273H1157.16V491H1158.86V485.818ZM1170.79 482.273H1169V480.182H1167.31V482.273H1166.03V483.636H1167.31V488.79C1167.3 490.375 1168.51 491.142 1169.85 491.114C1170.39 491.108 1170.75 491.006 1170.95 490.932L1170.65 489.528C1170.53 489.551 1170.32 489.602 1170.05 489.602C1169.5 489.602 1169 489.42 1169 488.438V483.636H1170.79V482.273ZM1179.07 484.403C1178.72 483.045 1177.66 482.159 1175.77 482.159C1173.8 482.159 1172.4 483.199 1172.4 484.744C1172.4 485.983 1173.15 486.807 1174.79 487.17L1176.27 487.494C1177.11 487.682 1177.5 488.057 1177.5 488.602C1177.5 489.278 1176.78 489.807 1175.66 489.807C1174.65 489.807 1173.99 489.369 1173.79 488.511L1172.15 488.761C1172.43 490.307 1173.71 491.176 1175.67 491.176C1177.78 491.176 1179.24 490.057 1179.24 488.477C1179.24 487.244 1178.46 486.483 1176.86 486.114L1175.47 485.795C1174.51 485.568 1174.1 485.244 1174.1 484.653C1174.1 483.983 1174.82 483.506 1175.79 483.506C1176.85 483.506 1177.33 484.091 1177.53 484.676L1179.07 484.403Z" fill="#242424"/>
<path d="M1197 488L1193 484L1189 488" stroke="#9C9C9C" stroke-linecap="round" stroke-linejoin="round"/>
<path d="M1246.05 491C1249.59 491 1251.64 488.801 1251.64 485.165C1251.64 481.545 1249.59 479.364 1246.16 479.364H1242.28V491H1246.05ZM1244.03 489.466V480.898H1246.06C1248.6 480.898 1249.91 482.42 1249.91 485.165C1249.91 487.92 1248.6 489.466 1245.95 489.466H1244.03ZM1257.37 491.176C1259.83 491.176 1261.43 489.375 1261.43 486.676C1261.43 483.96 1259.83 482.159 1257.37 482.159C1254.9 482.159 1253.3 483.96 1253.3 486.676C1253.3 489.375 1254.9 491.176 1257.37 491.176ZM1257.37 489.75C1255.76 489.75 1255.01 488.347 1255.01 486.67C1255.01 485 1255.76 483.58 1257.37 483.58C1258.97 483.58 1259.72 485 1259.72 486.67C1259.72 488.347 1258.97 489.75 1257.37 489.75ZM1267.01 491.176C1269.07 491.176 1270.4 489.938 1270.59 488.239H1268.94C1268.72 489.182 1267.99 489.739 1267.02 489.739C1265.58 489.739 1264.65 488.54 1264.65 486.636C1264.65 484.767 1265.6 483.591 1267.02 483.591C1268.1 483.591 1268.76 484.273 1268.94 485.091H1270.59C1270.41 483.33 1268.97 482.159 1266.99 482.159C1264.53 482.159 1262.94 484.011 1262.94 486.676C1262.94 489.307 1264.47 491.176 1267.01 491.176ZM1277.94 487.381C1277.94 488.864 1276.84 489.568 1275.88 489.568C1274.83 489.568 1274.11 488.807 1274.11 487.619V482.273H1272.41V487.824C1272.41 489.989 1273.6 491.114 1275.27 491.114C1276.58 491.114 1277.48 490.42 1277.88 489.489H1277.97V491H1279.64V482.273H1277.94V487.381ZM1281.92 491H1283.62V485.619C1283.62 484.443 1284.45 483.625 1285.41 483.625C1286.36 483.625 1287.01 484.25 1287.01 485.199V491H1288.7V485.438C1288.7 484.386 1289.34 483.625 1290.45 483.625C1291.35 483.625 1292.09 484.125 1292.09 485.307V491H1293.79V485.148C1293.79 483.153 1292.67 482.159 1291.09 482.159C1289.84 482.159 1288.89 482.761 1288.47 483.693H1288.38C1288 482.739 1287.2 482.159 1286.04 482.159C1284.88 482.159 1284.03 482.733 1283.66 483.693H1283.55V482.273H1281.92V491ZM1299.83 491.176C1301.73 491.176 1303.08 490.239 1303.46 488.818L1301.85 488.528C1301.55 489.352 1300.81 489.773 1299.84 489.773C1298.39 489.773 1297.41 488.83 1297.37 487.148H1303.57V486.545C1303.57 483.392 1301.68 482.159 1299.71 482.159C1297.27 482.159 1295.67 484.011 1295.67 486.693C1295.67 489.403 1297.25 491.176 1299.83 491.176ZM1297.37 485.875C1297.44 484.636 1298.34 483.562 1299.72 483.562C1301.04 483.562 1301.9 484.54 1301.9 485.875H1297.37ZM1307.15 485.818C1307.15 484.426 1308.01 483.631 1309.19 483.631C1310.34 483.631 1311.04 484.386 1311.04 485.653V491H1312.74V485.449C1312.74 483.29 1311.55 482.159 1309.77 482.159C1308.45 482.159 1307.6 482.767 1307.19 483.693H1307.09V482.273H1305.45V491H1307.15V485.818ZM1319.09 482.273H1317.3V480.182H1315.6V482.273H1314.32V483.636H1315.6V488.79C1315.6 490.375 1316.81 491.142 1318.15 491.114C1318.69 491.108 1319.05 491.006 1319.25 490.932L1318.94 489.528C1318.83 489.551 1318.62 489.602 1318.35 489.602C1317.8 489.602 1317.3 489.42 1317.3 488.438V483.636H1319.09V482.273ZM1327.37 484.403C1327.02 483.045 1325.95 482.159 1324.07 482.159C1322.1 482.159 1320.7 483.199 1320.7 484.744C1320.7 485.983 1321.45 486.807 1323.09 487.17L1324.56 487.494C1325.4 487.682 1325.8 488.057 1325.8 488.602C1325.8 489.278 1325.07 489.807 1323.96 489.807C1322.94 489.807 1322.29 489.369 1322.09 488.511L1320.44 488.761C1320.73 490.307 1322.01 491.176 1323.97 491.176C1326.08 491.176 1327.54 490.057 1327.54 488.477C1327.54 487.244 1326.76 486.483 1325.15 486.114L1323.77 485.795C1322.81 485.568 1322.39 485.244 1322.4 484.653C1322.39 483.983 1323.12 483.506 1324.09 483.506C1325.14 483.506 1325.63 484.091 1325.83 484.676L1327.37 484.403Z" fill="#242424"/>
<path d="M1370.28 491H1377.31V489.489H1372.03V479.364H1370.28V491ZM1379.17 491H1380.87V482.273H1379.17V491ZM1380.03 480.926C1380.62 480.926 1381.11 480.472 1381.11 479.915C1381.11 479.358 1380.62 478.898 1380.03 478.898C1379.44 478.898 1378.96 479.358 1378.96 479.915C1378.96 480.472 1379.44 480.926 1380.03 480.926ZM1386.83 491.176C1388.9 491.176 1390.23 489.938 1390.42 488.239H1388.77C1388.55 489.182 1387.82 489.739 1386.85 489.739C1385.41 489.739 1384.48 488.54 1384.48 486.636C1384.48 484.767 1385.42 483.591 1386.85 483.591C1387.92 483.591 1388.58 484.273 1388.77 485.091H1390.42C1390.24 483.33 1388.8 482.159 1386.82 482.159C1384.36 482.159 1382.77 484.011 1382.77 486.676C1382.77 489.307 1384.3 491.176 1386.83 491.176ZM1396 491.176C1397.9 491.176 1399.25 490.239 1399.63 488.818L1398.03 488.528C1397.72 489.352 1396.98 489.773 1396.01 489.773C1394.56 489.773 1393.58 488.83 1393.54 487.148H1399.74V486.545C1399.74 483.392 1397.86 482.159 1395.88 482.159C1393.45 482.159 1391.84 484.011 1391.84 486.693C1391.84 489.403 1393.42 491.176 1396 491.176ZM1393.54 485.875C1393.61 484.636 1394.51 483.562 1395.89 483.562C1397.21 483.562 1398.07 484.54 1398.08 485.875H1393.54ZM1403.33 485.818C1403.33 484.426 1404.18 483.631 1405.36 483.631C1406.51 483.631 1407.21 484.386 1407.21 485.653V491H1408.91V485.449C1408.91 483.29 1407.72 482.159 1405.94 482.159C1404.63 482.159 1403.77 482.767 1403.37 483.693H1403.26V482.273H1401.63V491H1403.33V485.818ZM1417.73 484.403C1417.38 483.045 1416.31 482.159 1414.43 482.159C1412.46 482.159 1411.06 483.199 1411.06 484.744C1411.06 485.983 1411.81 486.807 1413.44 487.17L1414.92 487.494C1415.76 487.682 1416.15 488.057 1416.15 488.602C1416.15 489.278 1415.43 489.807 1414.32 489.807C1413.3 489.807 1412.65 489.369 1412.44 488.511L1410.8 488.761C1411.09 490.307 1412.37 491.176 1414.33 491.176C1416.44 491.176 1417.9 490.057 1417.9 488.477C1417.9 487.244 1417.12 486.483 1415.51 486.114L1414.13 485.795C1413.17 485.568 1412.75 485.244 1412.76 484.653C1412.75 483.983 1413.48 483.506 1414.44 483.506C1415.5 483.506 1415.99 484.091 1416.19 484.676L1417.73 484.403ZM1423.53 491.176C1425.43 491.176 1426.78 490.239 1427.16 488.818L1425.56 488.528C1425.25 489.352 1424.51 489.773 1423.55 489.773C1422.09 489.773 1421.11 488.83 1421.07 487.148H1427.27V486.545C1427.27 483.392 1425.39 482.159 1423.41 482.159C1420.98 482.159 1419.38 484.011 1419.38 486.693C1419.38 489.403 1420.95 491.176 1423.53 491.176ZM1421.07 485.875C1421.14 484.636 1422.04 483.562 1423.42 483.562C1424.74 483.562 1425.6 484.54 1425.61 485.875H1421.07Z" fill="#242424"/>
<g filter="url(#filter0_d_278_6362)">
<path d="M1048 543C1048 539.686 1050.69 537 1054 537H1227V752H1054C1050.69 752 1048 749.314 1048 746V543Z" fill="white"/>
<path d="M1070.26 572L1071.33 568.92H1075.88L1076.94 572H1078.8L1074.61 560.364H1072.59L1068.4 572H1070.26ZM1071.84 567.443L1073.56 562.477H1073.65L1075.36 567.443H1071.84ZM1082.04 560.364H1080.35V572H1082.04V560.364ZM1088.09 572.176C1089.99 572.176 1091.34 571.239 1091.73 569.818L1090.12 569.528C1089.81 570.352 1089.07 570.773 1088.11 570.773C1086.65 570.773 1085.68 569.83 1085.63 568.148H1091.84V567.545C1091.84 564.392 1089.95 563.159 1087.97 563.159C1085.54 563.159 1083.94 565.011 1083.94 567.693C1083.94 570.403 1085.52 572.176 1088.09 572.176ZM1085.64 566.875C1085.7 565.636 1086.6 564.562 1087.98 564.562C1089.3 564.562 1090.16 565.54 1090.17 566.875H1085.64ZM1093.72 572H1095.42V566.67C1095.42 565.528 1096.3 564.705 1097.5 564.705C1097.86 564.705 1098.25 564.767 1098.39 564.807V563.182C1098.22 563.159 1097.88 563.142 1097.67 563.142C1096.65 563.142 1095.77 563.722 1095.45 564.659H1095.36V563.273H1093.72V572ZM1104.45 563.273H1102.66V561.182H1100.96V563.273H1099.68V564.636H1100.96V569.79C1100.96 571.375 1102.17 572.142 1103.51 572.114C1104.05 572.108 1104.41 572.006 1104.61 571.932L1104.3 570.528C1104.19 570.551 1103.98 570.602 1103.71 570.602C1103.15 570.602 1102.66 570.42 1102.66 569.438V564.636H1104.45V563.273ZM1112.73 565.403C1112.38 564.045 1111.31 563.159 1109.43 563.159C1107.46 563.159 1106.06 564.199 1106.06 565.744C1106.06 566.983 1106.81 567.807 1108.44 568.17L1109.92 568.494C1110.76 568.682 1111.15 569.057 1111.15 569.602C1111.15 570.278 1110.43 570.807 1109.32 570.807C1108.3 570.807 1107.65 570.369 1107.44 569.511L1105.8 569.761C1106.09 571.307 1107.37 572.176 1109.33 572.176C1111.44 572.176 1112.9 571.057 1112.9 569.477C1112.9 568.244 1112.12 567.483 1110.51 567.114L1109.13 566.795C1108.17 566.568 1107.75 566.244 1107.76 565.653C1107.75 564.983 1108.48 564.506 1109.44 564.506C1110.5 564.506 1110.99 565.091 1111.19 565.676L1112.73 565.403Z" fill="#585858"/>
<path d="M1070.26 611L1071.33 607.92H1075.88L1076.94 611H1078.8L1074.61 599.364H1072.59L1068.4 611H1070.26ZM1071.84 606.443L1073.56 601.477H1073.65L1075.36 606.443H1071.84ZM1083.88 611.176C1085.94 611.176 1087.28 609.938 1087.47 608.239H1085.81C1085.6 609.182 1084.86 609.739 1083.89 609.739C1082.45 609.739 1081.53 608.54 1081.53 606.636C1081.53 604.767 1082.47 603.591 1083.89 603.591C1084.97 603.591 1085.63 604.273 1085.81 605.091H1087.47C1087.28 603.33 1085.85 602.159 1083.86 602.159C1081.4 602.159 1079.81 604.011 1079.81 606.676C1079.81 609.307 1081.35 611.176 1083.88 611.176ZM1092.96 611.176C1095.02 611.176 1096.36 609.938 1096.54 608.239H1094.89C1094.67 609.182 1093.94 609.739 1092.97 609.739C1091.53 609.739 1090.61 608.54 1090.61 606.636C1090.61 604.767 1091.55 603.591 1092.97 603.591C1094.05 603.591 1094.71 604.273 1094.89 605.091H1096.54C1096.36 603.33 1094.92 602.159 1092.94 602.159C1090.48 602.159 1088.89 604.011 1088.89 606.676C1088.89 609.307 1090.42 611.176 1092.96 611.176ZM1102.04 611.176C1104.5 611.176 1106.11 609.375 1106.11 606.676C1106.11 603.96 1104.5 602.159 1102.04 602.159C1099.58 602.159 1097.97 603.96 1097.97 606.676C1097.97 609.375 1099.58 611.176 1102.04 611.176ZM1102.04 609.75C1100.43 609.75 1099.68 608.347 1099.68 606.67C1099.68 605 1100.43 603.58 1102.04 603.58C1103.64 603.58 1104.39 605 1104.39 606.67C1104.39 608.347 1103.64 609.75 1102.04 609.75ZM1108 611H1109.7V605.67C1109.7 604.528 1110.58 603.705 1111.79 603.705C1112.14 603.705 1112.54 603.767 1112.67 603.807V602.182C1112.5 602.159 1112.17 602.142 1111.95 602.142C1110.93 602.142 1110.05 602.722 1109.73 603.659H1109.64V602.273H1108V611ZM1117.1 611.17C1118.69 611.17 1119.31 610.199 1119.62 609.642H1119.76V611H1121.42V599.364H1119.72V603.688H1119.62C1119.31 603.148 1118.73 602.159 1117.11 602.159C1115 602.159 1113.45 603.824 1113.45 606.653C1113.45 609.477 1114.98 611.17 1117.1 611.17ZM1117.47 609.722C1115.95 609.722 1115.16 608.386 1115.16 606.636C1115.16 604.903 1115.94 603.602 1117.47 603.602C1118.95 603.602 1119.75 604.812 1119.75 606.636C1119.75 608.472 1118.94 609.722 1117.47 609.722ZM1123.85 611H1125.54V602.273H1123.85V611ZM1124.7 600.926C1125.29 600.926 1125.78 600.472 1125.78 599.915C1125.78 599.358 1125.29 598.898 1124.7 598.898C1124.11 598.898 1123.63 599.358 1123.63 599.915C1123.63 600.472 1124.11 600.926 1124.7 600.926ZM1129.53 605.818C1129.53 604.426 1130.38 603.631 1131.56 603.631C1132.72 603.631 1133.41 604.386 1133.41 605.653V611H1135.11V605.449C1135.11 603.29 1133.93 602.159 1132.14 602.159C1130.83 602.159 1129.97 602.767 1129.57 603.693H1129.46V602.273H1127.83V611H1129.53V605.818ZM1141.05 614.455C1143.27 614.455 1144.99 613.438 1144.99 611.193V602.273H1143.32V603.688H1143.2C1142.9 603.148 1142.3 602.159 1140.67 602.159C1138.56 602.159 1137.01 603.824 1137.01 606.602C1137.01 609.386 1138.6 610.869 1140.66 610.869C1142.26 610.869 1142.88 609.966 1143.19 609.409H1143.3V611.125C1143.3 612.494 1142.36 613.085 1141.07 613.085C1139.65 613.085 1139.1 612.375 1138.8 611.875L1137.34 612.477C1137.8 613.545 1138.97 614.455 1141.05 614.455ZM1141.03 609.46C1139.52 609.46 1138.73 608.295 1138.73 606.58C1138.73 604.903 1139.5 603.602 1141.03 603.602C1142.52 603.602 1143.31 604.812 1143.31 606.58C1143.31 608.381 1142.5 609.46 1141.03 609.46Z" fill="#585858"/>
<path d="M1069.28 650H1073.74C1076.44 650 1077.66 648.653 1077.66 646.869C1077.66 645.068 1076.4 644.051 1075.25 643.989V643.875C1076.32 643.602 1077.21 642.875 1077.21 641.42C1077.21 639.699 1076.02 638.364 1073.54 638.364H1069.28V650ZM1071.03 648.494V644.767H1073.63C1075.04 644.767 1075.92 645.676 1075.92 646.784C1075.92 647.761 1075.26 648.494 1073.57 648.494H1071.03ZM1071.03 643.398V639.858H1073.43C1074.82 639.858 1075.49 640.591 1075.49 641.557C1075.49 642.682 1074.57 643.398 1073.39 643.398H1071.03ZM1085.14 646.381C1085.14 647.864 1084.04 648.568 1083.09 648.568C1082.04 648.568 1081.31 647.807 1081.31 646.619V641.273H1079.61V646.824C1079.61 648.989 1080.8 650.114 1082.47 650.114C1083.79 650.114 1084.68 649.42 1085.08 648.489H1085.17V650H1086.84V641.273H1085.14V646.381ZM1093.2 641.273H1091.41V639.182H1089.71V641.273H1088.43V642.636H1089.71V647.79C1089.71 649.375 1090.92 650.142 1092.26 650.114C1092.8 650.108 1093.16 650.006 1093.36 649.932L1093.05 648.528C1092.94 648.551 1092.73 648.602 1092.46 648.602C1091.9 648.602 1091.41 648.42 1091.41 647.438V642.636H1093.2V641.273ZM1099.15 641.273H1097.36V639.182H1095.66V641.273H1094.39V642.636H1095.66V647.79C1095.66 649.375 1096.87 650.142 1098.21 650.114C1098.75 650.108 1099.11 650.006 1099.31 649.932L1099.01 648.528C1098.89 648.551 1098.68 648.602 1098.41 648.602C1097.86 648.602 1097.36 648.42 1097.36 647.438V642.636H1099.15V641.273ZM1104.62 650.176C1107.08 650.176 1108.68 648.375 1108.68 645.676C1108.68 642.96 1107.08 641.159 1104.62 641.159C1102.15 641.159 1100.55 642.96 1100.55 645.676C1100.55 648.375 1102.15 650.176 1104.62 650.176ZM1104.62 648.75C1103.01 648.75 1102.26 647.347 1102.26 645.67C1102.26 644 1103.01 642.58 1104.62 642.58C1106.22 642.58 1106.97 644 1106.97 645.67C1106.97 647.347 1106.22 648.75 1104.62 648.75ZM1112.28 644.818C1112.28 643.426 1113.13 642.631 1114.31 642.631C1115.47 642.631 1116.16 643.386 1116.16 644.653V650H1117.86V644.449C1117.86 642.29 1116.68 641.159 1114.89 641.159C1113.58 641.159 1112.72 641.767 1112.32 642.693H1112.21V641.273H1110.58V650H1112.28V644.818ZM1126.68 643.403C1126.33 642.045 1125.27 641.159 1123.38 641.159C1121.41 641.159 1120.01 642.199 1120.01 643.744C1120.01 644.983 1120.76 645.807 1122.4 646.17L1123.88 646.494C1124.72 646.682 1125.11 647.057 1125.11 647.602C1125.11 648.278 1124.39 648.807 1123.27 648.807C1122.26 648.807 1121.6 648.369 1121.4 647.511L1119.76 647.761C1120.04 649.307 1121.32 650.176 1123.28 650.176C1125.39 650.176 1126.85 649.057 1126.85 647.477C1126.85 646.244 1126.07 645.483 1124.47 645.114L1123.08 644.795C1122.12 644.568 1121.7 644.244 1121.71 643.653C1121.7 642.983 1122.43 642.506 1123.4 642.506C1124.45 642.506 1124.94 643.091 1125.14 643.676L1126.68 643.403Z" fill="#585858"/>
<path d="M1069.28 689H1073.74C1076.44 689 1077.66 687.653 1077.66 685.869C1077.66 684.068 1076.4 683.051 1075.25 682.989V682.875C1076.32 682.602 1077.21 681.875 1077.21 680.42C1077.21 678.699 1076.02 677.364 1073.54 677.364H1069.28V689ZM1071.03 687.494V683.767H1073.63C1075.04 683.767 1075.92 684.676 1075.92 685.784C1075.92 686.761 1075.26 687.494 1073.57 687.494H1071.03ZM1071.03 682.398V678.858H1073.43C1074.82 678.858 1075.49 679.591 1075.49 680.557C1075.49 681.682 1074.57 682.398 1073.39 682.398H1071.03ZM1085.14 685.381C1085.14 686.864 1084.04 687.568 1083.09 687.568C1082.04 687.568 1081.31 686.807 1081.31 685.619V680.273H1079.61V685.824C1079.61 687.989 1080.8 689.114 1082.47 689.114C1083.79 689.114 1084.68 688.42 1085.08 687.489H1085.17V689H1086.84V680.273H1085.14V685.381ZM1093.2 680.273H1091.41V678.182H1089.71V680.273H1088.43V681.636H1089.71V686.79C1089.71 688.375 1090.92 689.142 1092.26 689.114C1092.8 689.108 1093.16 689.006 1093.36 688.932L1093.05 687.528C1092.94 687.551 1092.73 687.602 1092.46 687.602C1091.9 687.602 1091.41 687.42 1091.41 686.438V681.636H1093.2V680.273ZM1099.15 680.273H1097.36V678.182H1095.66V680.273H1094.39V681.636H1095.66V686.79C1095.66 688.375 1096.87 689.142 1098.21 689.114C1098.75 689.108 1099.11 689.006 1099.31 688.932L1099.01 687.528C1098.89 687.551 1098.68 687.602 1098.41 687.602C1097.86 687.602 1097.36 687.42 1097.36 686.438V681.636H1099.15V680.273ZM1104.62 689.176C1107.08 689.176 1108.68 687.375 1108.68 684.676C1108.68 681.96 1107.08 680.159 1104.62 680.159C1102.15 680.159 1100.55 681.96 1100.55 684.676C1100.55 687.375 1102.15 689.176 1104.62 689.176ZM1104.62 687.75C1103.01 687.75 1102.26 686.347 1102.26 684.67C1102.26 683 1103.01 681.58 1104.62 681.58C1106.22 681.58 1106.97 683 1106.97 684.67C1106.97 686.347 1106.22 687.75 1104.62 687.75ZM1112.28 683.818C1112.28 682.426 1113.13 681.631 1114.31 681.631C1115.47 681.631 1116.16 682.386 1116.16 683.653V689H1117.86V683.449C1117.86 681.29 1116.68 680.159 1114.89 680.159C1113.58 680.159 1112.72 680.767 1112.32 681.693H1112.21V680.273H1110.58V689H1112.28V683.818ZM1128.04 692.455C1130.26 692.455 1131.97 691.438 1131.97 689.193V680.273H1130.31V681.688H1130.18C1129.88 681.148 1129.28 680.159 1127.65 680.159C1125.55 680.159 1124 681.824 1124 684.602C1124 687.386 1125.58 688.869 1127.64 688.869C1129.25 688.869 1129.87 687.966 1130.17 687.409H1130.28V689.125C1130.28 690.494 1129.34 691.085 1128.05 691.085C1126.64 691.085 1126.09 690.375 1125.79 689.875L1124.33 690.477C1124.79 691.545 1125.95 692.455 1128.04 692.455ZM1128.02 687.46C1126.5 687.46 1125.71 686.295 1125.71 684.58C1125.71 682.903 1126.48 681.602 1128.02 681.602C1129.5 681.602 1130.3 682.812 1130.3 684.58C1130.3 686.381 1129.48 687.46 1128.02 687.46ZM1134.25 689H1135.95V683.67C1135.95 682.528 1136.83 681.705 1138.04 681.705C1138.39 681.705 1138.79 681.767 1138.92 681.807V680.182C1138.75 680.159 1138.42 680.142 1138.2 680.142C1137.18 680.142 1136.3 680.722 1135.98 681.659H1135.89V680.273H1134.25V689ZM1143.76 689.176C1146.22 689.176 1147.82 687.375 1147.82 684.676C1147.82 681.96 1146.22 680.159 1143.76 680.159C1141.3 680.159 1139.69 681.96 1139.69 684.676C1139.69 687.375 1141.3 689.176 1143.76 689.176ZM1143.76 687.75C1142.15 687.75 1141.4 686.347 1141.4 684.67C1141.4 683 1142.15 681.58 1143.76 681.58C1145.36 681.58 1146.11 683 1146.11 684.67C1146.11 686.347 1145.36 687.75 1143.76 687.75ZM1155.25 685.381C1155.25 686.864 1154.15 687.568 1153.2 687.568C1152.15 687.568 1151.42 686.807 1151.42 685.619V680.273H1149.72V685.824C1149.72 687.989 1150.91 689.114 1152.58 689.114C1153.9 689.114 1154.79 688.42 1155.19 687.489H1155.28V689H1156.95V680.273H1155.25V685.381ZM1159.24 692.273H1160.93V687.642H1161.04C1161.34 688.199 1161.97 689.17 1163.56 689.17C1165.67 689.17 1167.21 687.477 1167.21 684.653C1167.21 681.824 1165.65 680.159 1163.54 680.159C1161.92 680.159 1161.34 681.148 1161.04 681.688H1160.89V680.273H1159.24V692.273ZM1160.9 684.636C1160.9 682.812 1161.7 681.602 1163.18 681.602C1164.72 681.602 1165.49 682.903 1165.49 684.636C1165.49 686.386 1164.7 687.722 1163.18 687.722C1161.72 687.722 1160.9 686.472 1160.9 684.636ZM1175.65 682.403C1175.3 681.045 1174.24 680.159 1172.35 680.159C1170.38 680.159 1168.98 681.199 1168.98 682.744C1168.98 683.983 1169.73 684.807 1171.37 685.17L1172.84 685.494C1173.68 685.682 1174.08 686.057 1174.08 686.602C1174.08 687.278 1173.36 687.807 1172.24 687.807C1171.22 687.807 1170.57 687.369 1170.37 686.511L1168.72 686.761C1169.01 688.307 1170.29 689.176 1172.25 689.176C1174.36 689.176 1175.82 688.057 1175.82 686.477C1175.82 685.244 1175.04 684.483 1173.43 684.114L1172.05 683.795C1171.09 683.568 1170.67 683.244 1170.68 682.653C1170.67 681.983 1171.4 681.506 1172.37 681.506C1173.42 681.506 1173.91 682.091 1174.11 682.676L1175.65 682.403Z" fill="#585858"/>
<path d="M1069.28 728H1073.74C1076.44 728 1077.66 726.653 1077.66 724.869C1077.66 723.068 1076.4 722.051 1075.25 721.989V721.875C1076.32 721.602 1077.21 720.875 1077.21 719.42C1077.21 717.699 1076.02 716.364 1073.54 716.364H1069.28V728ZM1071.03 726.494V722.767H1073.63C1075.04 722.767 1075.92 723.676 1075.92 724.784C1075.92 725.761 1075.26 726.494 1073.57 726.494H1071.03ZM1071.03 721.398V717.858H1073.43C1074.82 717.858 1075.49 718.591 1075.49 719.557C1075.49 720.682 1074.57 721.398 1073.39 721.398H1071.03ZM1082.15 728.193C1083.59 728.193 1084.41 727.46 1084.73 726.807H1084.8V728H1086.46V722.205C1086.46 719.665 1084.46 719.159 1083.07 719.159C1081.49 719.159 1080.04 719.795 1079.47 721.386L1081.07 721.75C1081.32 721.131 1081.95 720.534 1083.09 720.534C1084.19 720.534 1084.75 721.108 1084.75 722.097V722.136C1084.75 722.756 1084.12 722.744 1082.55 722.926C1080.89 723.119 1079.2 723.551 1079.2 725.534C1079.2 727.25 1080.49 728.193 1082.15 728.193ZM1082.52 726.83C1081.56 726.83 1080.87 726.398 1080.87 725.557C1080.87 724.648 1081.67 724.324 1082.66 724.193C1083.21 724.119 1084.51 723.972 1084.76 723.727V724.852C1084.76 725.886 1083.93 726.83 1082.52 726.83ZM1091.99 728.17C1093.58 728.17 1094.2 727.199 1094.51 726.642H1094.65V728H1096.31V716.364H1094.61V720.688H1094.51C1094.2 720.148 1093.62 719.159 1092 719.159C1089.89 719.159 1088.34 720.824 1088.34 723.653C1088.34 726.477 1089.87 728.17 1091.99 728.17ZM1092.36 726.722C1090.85 726.722 1090.06 725.386 1090.06 723.636C1090.06 721.903 1090.83 720.602 1092.36 720.602C1093.85 720.602 1094.64 721.812 1094.64 723.636C1094.64 725.472 1093.83 726.722 1092.36 726.722ZM1102.39 731.455C1104.62 731.455 1106.33 730.438 1106.33 728.193V719.273H1104.67V720.688H1104.54C1104.24 720.148 1103.64 719.159 1102.01 719.159C1099.91 719.159 1098.36 720.824 1098.36 723.602C1098.36 726.386 1099.94 727.869 1102 727.869C1103.61 727.869 1104.22 726.966 1104.53 726.409H1104.64V728.125C1104.64 729.494 1103.7 730.085 1102.41 730.085C1101 730.085 1100.45 729.375 1100.14 728.875L1098.68 729.477C1099.14 730.545 1100.31 731.455 1102.39 731.455ZM1102.38 726.46C1100.86 726.46 1100.07 725.295 1100.07 723.58C1100.07 721.903 1100.84 720.602 1102.38 720.602C1103.86 720.602 1104.66 721.812 1104.66 723.58C1104.66 725.381 1103.84 726.46 1102.38 726.46ZM1112.37 728.176C1114.28 728.176 1115.62 727.239 1116.01 725.818L1114.4 725.528C1114.09 726.352 1113.36 726.773 1112.39 726.773C1110.93 726.773 1109.96 725.83 1109.91 724.148H1116.12V723.545C1116.12 720.392 1114.23 719.159 1112.25 719.159C1109.82 719.159 1108.22 721.011 1108.22 723.693C1108.22 726.403 1109.8 728.176 1112.37 728.176ZM1109.92 722.875C1109.99 721.636 1110.88 720.562 1112.26 720.562C1113.58 720.562 1114.45 721.54 1114.45 722.875H1109.92ZM1124.54 721.403C1124.19 720.045 1123.13 719.159 1121.24 719.159C1119.27 719.159 1117.87 720.199 1117.87 721.744C1117.87 722.983 1118.62 723.807 1120.26 724.17L1121.73 724.494C1122.58 724.682 1122.97 725.057 1122.97 725.602C1122.97 726.278 1122.25 726.807 1121.13 726.807C1120.12 726.807 1119.46 726.369 1119.26 725.511L1117.62 725.761C1117.9 727.307 1119.18 728.176 1121.14 728.176C1123.25 728.176 1124.71 727.057 1124.71 725.477C1124.71 724.244 1123.93 723.483 1122.33 723.114L1120.94 722.795C1119.98 722.568 1119.56 722.244 1119.57 721.653C1119.56 720.983 1120.29 720.506 1121.26 720.506C1122.31 720.506 1122.8 721.091 1123 721.676L1124.54 721.403Z" fill="#585858"/>
</g>
<path d="M150.291 478.909V492H152.567V482.987H152.688L156.306 491.962H158.006L161.624 483.006H161.746V492H164.021V478.909H161.119L157.233 488.395H157.08L153.193 478.909H150.291ZM170.848 492.192C173.136 492.192 174.709 491.073 175.118 489.366L172.957 489.124C172.644 489.955 171.877 490.389 170.88 490.389C169.384 490.389 168.393 489.405 168.374 487.724H175.214V487.014C175.214 483.569 173.143 482.054 170.727 482.054C167.914 482.054 166.08 484.119 166.08 487.148C166.08 490.229 167.888 492.192 170.848 492.192ZM168.381 486.164C168.451 484.911 169.378 483.857 170.759 483.857C172.088 483.857 172.983 484.828 172.996 486.164H168.381ZM179.485 486.247C179.485 484.828 180.342 484.01 181.563 484.01C182.758 484.01 183.474 484.796 183.474 486.107V492H185.788V485.749C185.794 483.396 184.452 482.054 182.426 482.054C180.955 482.054 179.945 482.757 179.498 483.85H179.383V482.182H177.171V492H179.485V486.247ZM194.398 487.871C194.398 489.366 193.33 490.108 192.308 490.108C191.195 490.108 190.454 489.322 190.454 488.075V482.182H188.14V488.433C188.14 490.792 189.482 492.128 191.413 492.128C192.883 492.128 193.919 491.354 194.366 490.255H194.468V492H196.712V482.182H194.398V487.871ZM203.658 492H206.03V488.101L207.481 486.388L211.386 492H214.237L209.13 484.783L214.192 478.909H211.297L206.19 484.924H206.03V478.909H203.658V492ZM216.353 492H218.667V482.182H216.353V492ZM217.516 480.788C218.251 480.788 218.852 480.226 218.852 479.536C218.852 478.839 218.251 478.276 217.516 478.276C216.775 478.276 216.174 478.839 216.174 479.536C216.174 480.226 216.775 480.788 217.516 480.788ZM225.949 482.182H224.012V479.83H221.698V482.182H220.305V483.972H221.698V489.43C221.686 491.278 223.028 492.185 224.767 492.134C225.425 492.115 225.879 491.987 226.128 491.904L225.738 490.095C225.61 490.127 225.348 490.185 225.061 490.185C224.479 490.185 224.012 489.98 224.012 489.047V483.972H225.949V482.182Z" fill="#474F5B"/>
<defs>
<filter id="filter0_d_278_6362" x="1034" y="530" width="207" height="243" filterUnits="userSpaceOnUse" color-interpolation-filters="sRGB">
<feFlood flood-opacity="0" result="BackgroundImageFix"/>
<feColorMatrix in="SourceAlpha" type="matrix" values="0 0 0 0 0 0 0 0 0 0 0 0 0 0 0 0 0 0 127 0" result="hardAlpha"/>
<feOffset dy="7"/>
<feGaussianBlur stdDeviation="7"/>
<feComposite in2="hardAlpha" operator="out"/>
<feColorMatrix type="matrix" values="0 0 0 0 0 0 0 0 0 0 0 0 0 0 0 0 0 0 0.02 0"/>
<feBlend mode="normal" in2="BackgroundImageFix" result="effect1_dropShadow_278_6362"/>
<feBlend mode="normal" in="SourceGraphic" in2="effect1_dropShadow_278_6362" result="shape"/>
</filter>
</defs>
</svg>
